<svg width="110" height="37" viewBox="0 0 110 37" fill="none" xmlns="http://www.w3.org/2000/svg">
<path d="M6.8756 36.4522H0L9.04409 18.5762H16.2261L19.7737 36.4522H12.8985L12.6586 34.2237H7.74994L6.8756 36.4522ZM12.1924 29.9804L11.9337 26.826C11.8627 26.0686 11.8704 25.2877 11.871 24.5291H11.6327L9.58382 29.9804H12.1924Z" fill="#FCFCFC"/>
<path d="M34.3482 25.8331C33.459 24.8619 32.2864 24.032 30.8166 24.032C28.8717 24.032 27.0403 25.5729 26.7325 27.5151C26.4199 29.4848 27.861 31.0025 29.8075 31.0025C31.3012 31.0025 32.5881 30.3598 33.7925 29.3437L32.5441 36.0278C31.4216 36.5251 28.9702 36.7403 27.8091 36.7403C22.7105 36.7403 19.3538 32.7804 20.1606 27.6809C20.9864 22.4663 25.7492 18.293 30.9906 18.293C32.4604 18.293 33.9369 18.5546 35.2371 19.0271L34.3482 25.8331Z" fill="#FCFCFC"/>
<path d="M36.9799 18.5781H50.6384L49.7181 24.3869L46.1636 24.2212L44.2273 36.4541H37.7283L39.6669 24.2212L36.062 24.3869L36.9799 18.5781Z" fill="#FCFCFC"/>
<path d="M51.6776 18.5781H58.1724L55.3411 36.4541H48.8457L51.6776 18.5781Z" fill="#FCFCFC"/>
<path d="M78.5033 18.5763L68.748 36.4522H63.2467L59.1543 18.5762H65.9358L67.0182 26.7093C67.1415 27.5862 67.1919 28.4627 67.0478 29.3654H67.1918C67.3336 28.4627 67.6628 27.5862 68.0613 26.7093L71.7227 18.5762L78.5033 18.5763Z" fill="#FCFCFC"/>
<path d="M95.3374 27.5642C94.4284 33.3007 89.4508 36.74 83.9983 36.74C78.5447 36.74 74.6553 33.3008 75.5628 27.5642C76.454 21.9444 81.4911 18.293 86.9185 18.293C92.3494 18.293 96.229 21.9444 95.3374 27.5642ZM82.093 27.6589C81.7699 29.6984 82.9223 31.0969 84.8927 31.0969C86.8596 31.0969 88.4559 29.6984 88.7787 27.6589C89.0798 25.7619 88.0513 24.1704 85.9869 24.1704C83.9241 24.1702 82.3928 25.7618 82.093 27.6589Z" fill="#FCFCFC"/>
<path d="M93.1895 4.47174e-05C93.1895 4.47174e-05 94.9884 -0.0410793 97.5246 2.3709C99.1448 3.91211 99.4997 6.25551 99.4997 6.25551C99.4997 6.25551 97.3608 6.29786 96.5021 6.5843C94.1905 7.35414 93.394 8.09612 93.394 8.09612C93.394 8.09612 94.3043 5.71282 94.0898 3.72149C93.8757 1.72862 93.1895 4.47174e-05 93.1895 4.47174e-05Z" fill="#FCFCFC"/>
<path d="M91.7992 9.97672C93.5532 9.30158 97.1842 8.58245 100.918 8.7494C106.399 8.99472 109.955 11.0808 109.955 11.0808C109.955 11.0808 103.475 11.2726 101.362 11.5396C98.0732 11.956 95.1941 12.634 95.1941 12.634C95.1941 12.634 97.7699 15.2926 98.669 18.0318C99.7262 21.2521 99.0784 24.1656 99.0784 24.1656C99.0784 24.1656 97.2021 20.0165 95.5213 18.0318C94.1716 16.4377 91.1861 13.7791 91.1861 13.7791C91.1861 13.7791 89.8158 14.1391 86.6662 15.3254C83.4975 16.517 80.4327 18.6044 80.4327 18.6044C80.4327 18.6044 82.4668 15.3487 85.2563 13.4927C87.0786 12.2791 88.1606 11.53 88.1606 11.53C87.343 10.9176 86.0334 10.0617 85.0122 9.52618C83.27 8.61236 77.6919 6.13477 77.6919 6.13477C77.6919 6.13477 81.61 6.23477 85.6259 7.40035C89.7113 8.58654 91.7992 9.97672 91.7992 9.97672Z" fill="#FCFCFC"/>
</svg>
