<svg width="198" height="24" viewBox="0 0 198 24" fill="none" xmlns="http://www.w3.org/2000/svg">
<path d="M0 0.460905H14.9989V4.1284H5.08319V7.44691H14.472V11.1144H5.08319V14.6831H15.2239V18.3506H0V0.460905Z" fill="#FCFCFC"/>
<path d="M25.9943 6.09054H32.0671L41.141 23.9934H35.4538L33.8086 20.451H23.6487L21.9522 23.9934H16.7276L25.9943 6.09054ZM28.8026 9.56049L25.2231 17.1259H32.2599L28.8026 9.56049Z" fill="#FCFCFC"/>
<path d="M46.9825 12.563C47.0275 14.8412 48.0493 15.3679 50.4206 15.3679C53.4216 15.3679 53.8779 14.2749 53.8779 13.4848C53.8779 12.293 52.6698 11.8979 50.6583 11.5029L48.1649 11.0091C45.286 10.4362 42.2592 9.34979 42.2592 5.92593C42.2592 1.53416 46.2306 0 50.2214 0C56.6091 0 58.4277 2.00823 58.5948 5.57695H53.6594C53.5116 3.73992 52.0593 3.46996 50.5362 3.46996C48.3127 3.46996 47.3424 4.24033 47.3424 5.22798C47.3424 6.44609 48.9425 6.76872 50.7997 7.16379L53.1453 7.65761C56.3392 8.32922 58.9547 9.39588 58.9547 12.9383C58.9547 17.9226 54.0386 18.8379 50.1185 18.8379C43.0753 18.8379 41.8929 15.7366 41.8929 12.563H46.9825Z" fill="#FCFCFC"/>
<path d="M70.3227 17.6198L62.4634 6.09054H68.7033L73.1824 13.7284L77.6101 6.09054H83.2717L75.4059 17.6198V23.9934H70.3227V17.6198Z" fill="#FCFCFC"/>
<path d="M85.9322 0.460905H98.3477V2.49547H88.4513V8.34897H97.8658V10.3835H88.4513V18.3638H85.9322V0.460905Z" fill="#FCFCFC"/>
<path d="M104.594 23.9934H102.075V6.09054H110.667C116.065 6.09054 117.273 7.94733 117.273 10.8247C117.273 13.0041 115.724 14.6436 113.282 14.9926V15.0453C115.628 15.3416 116.258 16.3095 116.72 19.3317C117.01 21.2412 117.228 22.828 117.71 23.9934H115.05C114.587 22.7292 114.323 20.2272 113.861 18.2189C113.572 16.9284 112.749 16.0132 109.459 16.0132H104.594V23.9934ZM104.594 13.9786H110.333C112.993 13.9786 114.613 13.3333 114.613 11.0551C114.613 8.87572 113.449 8.13169 110.378 8.13169H104.594V13.9786Z" fill="#FCFCFC"/>
<path d="M136.044 0.460905V2.49547H125.492V8.15144H135.363V10.186H125.492V16.3358H136.333V18.3704H122.973V0.460905H136.044Z" fill="#FCFCFC"/>
<path d="M153.427 19.3317H142.708L140.459 23.9934H137.651L146.628 6.09054H149.578L158.556 23.9934H155.677L153.427 19.3317ZM152.463 17.2971L148.106 8.26996L143.73 17.2971H152.463Z" fill="#FCFCFC"/>
<path d="M159.725 16.0329L172.841 2.49547H160.258V0.460905H175.502V3.18683L162.823 16.3292H175.887V18.3638H159.725V16.0329Z" fill="#FCFCFC"/>
<path d="M187.178 23.9934V16.5268L178.882 6.09054H182.121L188.438 14.4L194.755 6.09054H198L189.697 16.5268V23.9868H187.178V23.9934Z" fill="#FCFCFC"/>
</svg>
