<svg width="181" height="16" viewBox="0 0 181 16" fill="none" xmlns="http://www.w3.org/2000/svg">
<path d="M21.6172 0.211326V15.4555H19.0858V3.80864L11.9578 15.4111H9.64836L2.52034 3.80864V15.4555H0V0.211326H2.93115L10.8142 13.0351L18.6861 0.211326H21.6172Z" fill="#FCFCFC"/>
<path d="M42.2909 15.4536H39.7039L32.3094 2.10797L24.9038 15.4536H22.3169L30.7328 0.242694H33.8749L42.2909 15.4536Z" fill="#FCFCFC"/>
<path d="M57.8457 0.18892L49.3187 8.77141V15.4553H46.7873V8.78252L38.2492 0.18892H41.2914L48.053 6.99496L54.8035 0.18892H57.8457Z" fill="#FCFCFC"/>
<path d="M61.0326 2.55462V6.74039H74.789V9.00537H61.0326V13.2022H74.789V15.4561H58.6011V0.278544H74.789V2.55462H61.0326Z" fill="#FCFCFC"/>
<path d="M112.949 15.4536H110.362L102.968 2.10797L95.562 15.4536H92.964L93.1194 15.1982L93.397 14.6875L93.6523 14.2323L101.391 0.242694H104.533L112.949 15.4536Z" fill="#FCFCFC"/>
<path d="M92.9641 13.2022V15.4561H77.1426V0.278544H79.5741V13.2022H92.9641Z" fill="#FCFCFC"/>
<path d="M160.813 0.268871H158.393V15.4353H160.813V0.268871Z" fill="#FCFCFC"/>
<path d="M180.965 0.215097V15.4593H178.434L177.767 15.4704L165.321 2.52449V15.4593H162.79V0.215097H166.065L178.434 13.0944V0.215097H180.965Z" fill="#FCFCFC"/>
<path d="M180.121 15.2021H178.689V15.1688L180.121 15.2021Z" fill="#FCFCFC"/>
<path d="M157.637 15.4529H155.028L147.634 2.10726L140.239 15.4529H137.641L146.068 0.241984H149.199L157.637 15.4529Z" fill="#FCFCFC"/>
<path d="M135.555 4.74091V2.40932H121.732V6.58398H133.734C134.711 6.6728 135.599 7.00589 136.332 7.58324C136.709 7.88301 137.031 8.2272 137.298 8.6158C137.808 9.33748 138.086 10.2035 138.086 11.0806C138.086 11.9578 137.797 12.8793 137.253 13.6232C136.909 14.1006 136.465 14.5114 135.943 14.8445C135.166 15.3219 134.256 15.5884 133.323 15.5884H123.974C123.019 15.5884 122.12 15.3219 121.343 14.8445C120.832 14.5225 120.388 14.1117 120.033 13.6232C119.5 12.8904 119.222 12.0244 119.211 11.1361V10.8808H121.732V13.2235H135.555V9.0044H123.974C122.875 9.0044 121.865 8.67132 120.999 8.02735C120.588 7.70537 120.266 7.37228 119.988 6.98368C119.467 6.2509 119.2 5.38488 119.2 4.49665C119.2 3.60842 119.467 2.7424 119.977 2.02072C120.333 1.50999 120.799 1.05477 121.332 0.732787C121.976 0.321982 122.742 0.0777198 123.519 0H133.723C134.522 0.0777198 135.288 0.321982 135.932 0.732787C136.476 1.06587 136.931 1.49888 137.287 2.02072C137.797 2.7424 138.075 3.60842 138.075 4.49665V4.74091H135.543H135.555Z" fill="#FCFCFC"/>
</svg>
