<svg width="87" height="52" viewBox="0 0 87 52" fill="none" xmlns="http://www.w3.org/2000/svg">
<path d="M17.6939 29.5194C16.7778 28.608 15.6081 28.1484 14.1906 28.1484C12.7985 28.1484 11.6496 28.6135 10.722 29.536C9.80011 30.4607 9.3357 31.6434 9.3357 33.0842C9.3357 34.5659 9.79432 35.7641 10.7046 36.6811C11.6207 37.6002 12.7742 38.0653 14.1732 38.0653C15.5699 38.0653 16.7373 37.5947 17.665 36.6678C18.5926 35.7375 19.0617 34.5437 19.0617 33.0842C19.0628 31.6213 18.6054 30.433 17.6939 29.5194ZM17.6939 29.5194C16.7778 28.608 15.6081 28.1484 14.1906 28.1484C12.7985 28.1484 11.6496 28.6135 10.722 29.536C9.80011 30.4607 9.3357 31.6434 9.3357 33.0842C9.3357 34.5659 9.79432 35.7641 10.7046 36.6811C11.6207 37.6002 12.7742 38.0653 14.1732 38.0653C15.5699 38.0653 16.7373 37.5947 17.665 36.6678C18.5926 35.7375 19.0617 34.5437 19.0617 33.0842C19.0628 31.6213 18.6054 30.433 17.6939 29.5194ZM17.6939 29.5194C16.7778 28.608 15.6081 28.1484 14.1906 28.1484C12.7985 28.1484 11.6496 28.6135 10.722 29.536C9.80011 30.4607 9.3357 31.6434 9.3357 33.0842C9.3357 34.5659 9.79432 35.7641 10.7046 36.6811C11.6207 37.6002 12.7742 38.0653 14.1732 38.0653C15.5699 38.0653 16.7373 37.5947 17.665 36.6678C18.5926 35.7375 19.0617 34.5437 19.0617 33.0842C19.0628 31.6213 18.6054 30.433 17.6939 29.5194ZM17.6939 29.5194C16.7778 28.608 15.6081 28.1484 14.1906 28.1484C12.7985 28.1484 11.6496 28.6135 10.722 29.536C9.80011 30.4607 9.3357 31.6434 9.3357 33.0842C9.3357 34.5659 9.79432 35.7641 10.7046 36.6811C11.6207 37.6002 12.7742 38.0653 14.1732 38.0653C15.5699 38.0653 16.7373 37.5947 17.665 36.6678C18.5926 35.7375 19.0617 34.5437 19.0617 33.0842C19.0628 31.6213 18.6054 30.433 17.6939 29.5194ZM17.6939 29.5194C16.7778 28.608 15.6081 28.1484 14.1906 28.1484C12.7985 28.1484 11.6496 28.6135 10.722 29.536C9.80011 30.4607 9.3357 31.6434 9.3357 33.0842C9.3357 34.5659 9.79432 35.7641 10.7046 36.6811C11.6207 37.6002 12.7742 38.0653 14.1732 38.0653C15.5699 38.0653 16.7373 37.5947 17.665 36.6678C18.5926 35.7375 19.0617 34.5437 19.0617 33.0842C19.0628 31.6213 18.6054 30.433 17.6939 29.5194ZM17.6939 29.5194C16.7778 28.608 15.6081 28.1484 14.1906 28.1484C12.7985 28.1484 11.6496 28.6135 10.722 29.536C9.80011 30.4607 9.3357 31.6434 9.3357 33.0842C9.3357 34.5659 9.79432 35.7641 10.7046 36.6811C11.6207 37.6002 12.7742 38.0653 14.1732 38.0653C15.5699 38.0653 16.7373 37.5947 17.665 36.6678C18.5926 35.7375 19.0617 34.5437 19.0617 33.0842C19.0628 31.6213 18.6054 30.433 17.6939 29.5194ZM17.6939 29.5194C16.7778 28.608 15.6081 28.1484 14.1906 28.1484C12.7985 28.1484 11.6496 28.6135 10.722 29.536C9.80011 30.4607 9.3357 31.6434 9.3357 33.0842C9.3357 34.5659 9.79432 35.7641 10.7046 36.6811C11.6207 37.6002 12.7742 38.0653 14.1732 38.0653C15.5699 38.0653 16.7373 37.5947 17.665 36.6678C18.5926 35.7375 19.0617 34.5437 19.0617 33.0842C19.0628 31.6213 18.6054 30.433 17.6939 29.5194ZM17.6939 29.5194C16.7778 28.608 15.6081 28.1484 14.1906 28.1484C12.7985 28.1484 11.6496 28.6135 10.722 29.536C9.80011 30.4607 9.3357 31.6434 9.3357 33.0842C9.3357 34.5659 9.79432 35.7641 10.7046 36.6811C11.6207 37.6002 12.7742 38.0653 14.1732 38.0653C15.5699 38.0653 16.7373 37.5947 17.665 36.6678C18.5926 35.7375 19.0617 34.5437 19.0617 33.0842C19.0628 31.6213 18.6054 30.433 17.6939 29.5194Z" fill="#FCFCFC"/>
<path d="M83.2395 8.62126C79.8995 3.9701 74.8755 0.981174 69.0455 0.199336C68.7675 0.16722 68.4884 0.13732 68.2082 0.105205C67.46 0.0376523 66.7003 0 65.9533 0C59.0381 0 52.6672 3.05869 48.5512 8.17497C45.6385 6.03211 41.9892 4.75858 38.0319 4.75858C31.529 4.75858 25.8645 8.19712 22.9217 13.278C21.8875 15.0598 21.1869 17.0498 20.9031 19.1595C19.2586 18.4817 17.4623 18.0764 15.5757 18.0089C15.3788 17.9978 15.1796 17.9956 14.9793 17.9956C6.70442 17.9945 0 24.4064 0 32.3178C0 37.2292 2.58611 41.5626 6.52491 44.1406C8.93151 45.7165 11.8442 46.6379 14.9781 46.6379C18.8301 46.6379 22.3404 45.2481 24.9948 42.9635C27.3875 45.1196 30.2377 46.2104 33.4816 46.2104C34.8899 46.2104 43.4311 45.7663 43.4311 45.7663C44.851 45.7663 46.1156 45.1163 46.9113 44.1074C49.1326 45.505 51.7442 46.2093 54.7124 46.2093C57.1607 46.2093 59.3739 45.7608 61.279 44.8738C61.9762 44.557 62.6514 44.1617 63.2189 43.7475C63.3822 43.6346 63.542 43.5194 63.6995 43.3976L62.4013 46.0532C61.7574 47.3566 61.8616 48.8538 62.6688 50.0698C63.476 51.2791 64.8565 52 66.3517 52H70.9645C72.6681 52 74.2281 51.0399 74.9311 49.5648L85.8615 26.7719C85.8836 26.7209 85.9067 26.6667 85.9264 26.6157C86.1233 26.0454 86.297 25.4629 86.4406 24.8793C86.4464 24.8582 86.4522 24.8361 86.4545 24.8151C87.7991 19.2558 86.6329 13.3577 83.2395 8.62126ZM23.3109 35.1805C23.1024 36.0089 22.7654 36.8117 22.3126 37.5781C22.0682 37.9845 21.8007 38.371 21.4949 38.7265C20.7861 39.5869 19.9175 40.2968 18.8972 40.856C17.4577 41.6412 15.8722 42.0388 14.1373 42.0388C11.5848 42.0388 9.39708 41.1683 7.59039 39.4308C5.78603 37.6944 4.88616 35.5814 4.88616 33.0975C4.88616 30.433 5.90647 28.2159 7.94478 26.4441C9.73525 24.8981 11.7909 24.1318 14.1153 24.1318C14.5172 24.1318 14.9109 24.1528 15.3012 24.2015C16.5462 24.3444 17.7333 24.7198 18.8544 25.3333C19.8863 25.8948 20.7526 26.5891 21.4602 27.4252C21.7833 27.7885 22.067 28.186 22.3172 28.6024C22.506 28.9147 22.6716 29.2337 22.8175 29.557C23.026 30.0166 23.1881 30.4895 23.3039 30.9767C23.4776 31.6489 23.5599 32.3477 23.5599 33.0687C23.561 33.7907 23.48 34.495 23.3109 35.1805ZM38.9584 41.6002V39.8018C38.0921 40.5947 37.2131 41.1617 36.3352 41.5116C35.4585 41.8616 34.5077 42.0388 33.4816 42.0388C31.3089 42.0388 29.4026 41.2724 27.7859 39.7409C27.6932 39.6545 27.6064 39.5692 27.516 39.4773C27.2914 39.2547 27.0864 39.0199 26.8953 38.7785C26.0487 37.7243 25.487 36.5316 25.209 35.1949C25.0689 34.5393 24.996 33.8405 24.996 33.1141C24.996 32.7829 25.0098 32.4585 25.0376 32.144C25.0712 31.7298 25.1303 31.3289 25.209 30.9446C25.3272 30.3455 25.4986 29.7807 25.7233 29.2425C26.0128 28.546 26.3927 27.9014 26.8617 27.3045C27.0366 27.0786 27.2277 26.8605 27.435 26.6512C27.7245 26.3533 28.0221 26.0808 28.3348 25.8361C29.2208 25.134 30.196 24.6512 31.2614 24.3821C31.9216 24.2159 32.6188 24.1318 33.353 24.1318C34.4208 24.1318 35.4249 24.32 36.3642 24.7121C37.3034 25.0908 38.1639 25.6766 38.9595 26.443V17.9945H43.4322V41.6002H38.9584ZM63.9289 34.3178H49.5738C49.7765 35.5305 50.3324 36.4895 51.2381 37.2071C52.1321 37.9225 53.2822 38.2824 54.6789 38.2824C55.0332 38.2824 55.3703 38.2503 55.705 38.2049C56.9418 38.0166 58.0386 37.4839 58.9825 36.608L62.7499 38.2935C62.1233 39.1318 61.4261 39.8306 60.6467 40.3798C60.2414 40.6733 59.8233 40.9169 59.3786 41.1196C58.0652 41.7298 56.5168 42.0388 54.7113 42.0388C52.021 42.0388 49.8112 41.2569 48.0879 39.6921C48.0173 39.6357 47.9524 39.5714 47.8853 39.5094C46.8418 38.5116 46.111 37.3666 45.6871 36.0742C45.4845 35.4563 45.3524 34.7996 45.291 34.1119C45.2633 33.8084 45.2517 33.4961 45.2517 33.1794C45.2517 32.8538 45.2633 32.5371 45.291 32.2281C45.4428 30.5404 45.9882 29.0532 46.9437 27.7708C47.2216 27.3998 47.5309 27.0454 47.8772 26.7065C47.9478 26.639 48.0173 26.5692 48.0879 26.5072C49.7997 24.9214 51.9283 24.134 54.4634 24.134C54.6569 24.134 54.8491 24.1362 55.0367 24.1473C56.4531 24.206 57.7294 24.4972 58.8655 25.0155C59.7654 25.4319 60.583 25.9967 61.308 26.7065C63.0649 28.4219 63.9428 30.6899 63.9428 33.5072L63.9289 34.3178ZM70.9657 47.8284H66.3528L70.0125 40.3278L63.2432 24.5648H67.8086L72.433 35.2536L77.5381 24.5648H82.1208L70.9657 47.8284Z" fill="#FCFCFC"/>
<path d="M19.0628 33.0831C19.0628 34.5426 18.5938 35.7364 17.6661 36.6667C16.7385 37.5947 15.5722 38.0642 14.1744 38.0642C12.7742 38.0642 11.6219 37.5991 10.7058 36.68C9.79548 35.763 9.33686 34.5648 9.33686 33.0831C9.33686 31.6423 9.80127 30.4596 10.7231 29.5349C11.6508 28.6124 12.8008 28.1473 14.1917 28.1473C15.6081 28.1473 16.7779 28.6069 17.6951 29.5183C18.6054 30.433 19.0628 31.6213 19.0628 33.0831Z" fill="#FCFCFC"/>
<path d="M39.1553 33.0509C39.1553 34.5648 38.6966 35.7852 37.769 36.7231C37.5582 36.9358 37.3393 37.1207 37.1031 37.2846C37.044 37.3278 36.9849 37.3655 36.9259 37.4031C36.8691 37.4408 36.8135 37.4729 36.7545 37.5083C36.7464 37.5105 36.7406 37.5161 36.7325 37.5194C36.7047 37.5382 36.6757 37.5548 36.6456 37.5681C36.6178 37.5847 36.5865 37.598 36.5553 37.6135C36.4939 37.6456 36.429 37.6755 36.3642 37.7054C36.2935 37.7375 36.2206 37.7674 36.1511 37.794C36.1291 37.8051 36.1059 37.8128 36.0839 37.8206C36.0329 37.8394 35.9797 37.8582 35.9264 37.8771C35.8592 37.8981 35.7909 37.9203 35.7214 37.9391C35.6739 37.9524 35.623 37.9657 35.5755 37.9767C35.5338 37.9878 35.4909 37.9978 35.4492 38.0066C35.4076 38.0177 35.3682 38.0255 35.323 38.031C35.2952 38.0388 35.2639 38.0443 35.2327 38.0476C35.1713 38.0609 35.1088 38.0687 35.0439 38.0775C34.9767 38.0886 34.9084 38.0963 34.8412 38.1019C34.7845 38.1074 34.7289 38.113 34.6721 38.1152C34.6304 38.1174 34.5853 38.1207 34.5401 38.1229C34.4556 38.1251 34.3687 38.1285 34.2819 38.1285C32.9245 38.1285 31.7768 37.6467 30.8434 36.6988C30.7924 36.6478 30.7449 36.5936 30.6974 36.5404C30.6581 36.4972 30.6187 36.454 30.5851 36.4109C30.5515 36.3732 30.5202 36.3355 30.489 36.2957C30.4554 36.2525 30.4218 36.2093 30.3905 36.1639C30.3627 36.124 30.3338 36.0831 30.306 36.0432C30.2446 35.9513 30.1855 35.8605 30.1288 35.7663C30.0755 35.6744 30.0246 35.5814 29.9771 35.4873C29.9713 35.4762 29.969 35.4662 29.9597 35.4552C29.918 35.3643 29.8752 35.2724 29.8358 35.1761C29.7941 35.0764 29.757 34.9723 29.72 34.8671V34.8649C29.6725 34.7165 29.6273 34.5692 29.5937 34.4131C29.5798 34.3544 29.5659 34.2946 29.5544 34.2326C29.537 34.144 29.5208 34.0521 29.5092 33.9612C29.5011 33.9025 29.4918 33.8405 29.4872 33.7785C29.4791 33.7198 29.4733 33.66 29.4698 33.598C29.464 33.5437 29.4617 33.4906 29.4582 33.4363C29.4501 33.3156 29.4467 33.1938 29.4467 33.0709C29.4467 32.979 29.449 32.8881 29.4524 32.7996C29.4548 32.7353 29.4582 32.67 29.464 32.6058C29.4663 32.5515 29.4721 32.5006 29.4779 32.4529C29.4837 32.3643 29.4953 32.278 29.5092 32.1927C29.515 32.1307 29.5266 32.0687 29.537 32.0078C29.5486 31.9435 29.559 31.8782 29.574 31.8173C29.5961 31.7065 29.625 31.5969 29.6551 31.4917C29.6725 31.4297 29.6887 31.3677 29.7119 31.3068C29.7593 31.1595 29.8126 31.0133 29.8775 30.8715V30.8693C29.9053 30.8051 29.9365 30.7398 29.9678 30.6788C29.9875 30.6357 30.0095 30.5925 30.0327 30.5493C30.0975 30.4286 30.1682 30.3123 30.2411 30.1993C30.2747 30.1451 30.3118 30.0941 30.3477 30.0432C30.4878 29.8439 30.6488 29.6556 30.8225 29.4784C31.7328 28.5504 32.877 28.0808 34.2633 28.0808C35.6751 28.0808 36.8471 28.5404 37.769 29.4574C38.6978 30.371 39.1553 31.5703 39.1553 33.0509Z" fill="#FCFCFC"/>
<path d="M59.4585 30.9546H49.7707C50.271 29.9003 50.8165 29.1672 51.4071 28.7475C52.1437 28.2259 52.9729 27.9092 53.8983 27.7962C54.1542 27.7641 54.4183 27.7475 54.6916 27.7475C55.8358 27.7475 56.8446 28.0432 57.7132 28.6346C58.5841 29.2337 59.1632 30.0055 59.4585 30.9546Z" fill="#FCFCFC"/>
</svg>
