<svg width="195" height="23" viewBox="0 0 195 23" fill="none" xmlns="http://www.w3.org/2000/svg">
<path d="M41.0338 0C34.1802 0 30.1502 5.07417 30.1502 11.5932C30.1502 17.9289 34.1802 23 41.0338 23C47.8874 23 51.9175 17.9258 51.9175 11.5932C51.9206 5.07417 47.8874 0 41.0338 0ZM41.0338 18.9419C36.6622 18.9419 35.017 15.2536 35.017 11.5932C35.017 7.74953 36.6591 4.0612 41.0338 4.0612C45.4055 4.0612 47.0507 7.74953 47.0507 11.5932C47.0507 15.2505 45.4055 18.9419 41.0338 18.9419Z" fill="white"/>
<path d="M80.0119 6.58119H75.6089V22.478H80.0119V6.58119Z" fill="white"/>
<path d="M80.0119 0.522021H75.6089V4.12024H80.0119V0.522021Z" fill="white"/>
<path d="M65.4993 5.35072V6.58119H60.1343V5.62726C60.1343 4.30357 60.6294 3.81262 61.8077 3.81262C62.3655 3.81262 62.892 3.84369 63.4216 3.90584V0.646312C62.6789 0.615239 61.8704 0.522021 61.0963 0.522021C57.4988 0.522021 55.7313 2.55107 55.7313 5.35072V6.58119H53.0958V9.50203H55.7313V22.478H60.1343V9.50203H65.4993V22.478H69.9023V9.50203H72.9421V6.58119H69.9023V5.62726C69.9023 4.30357 70.3974 3.81262 71.5757 3.81262C72.1335 3.81262 72.66 3.84369 73.1896 3.90584V0.646312C72.4469 0.615239 71.6384 0.522021 70.8644 0.522021C67.2668 0.522021 65.4993 2.55107 65.4993 5.35072Z" fill="white"/>
<path d="M91.0522 19.6193C88.2914 19.6193 87.392 16.8818 87.392 14.6073C87.392 12.2706 88.3227 9.43988 91.1431 9.43988C92.9732 9.43988 94.1202 10.3938 94.3991 12.1774H98.7112C98.4323 8.11929 94.9601 6.14928 91.1745 6.14928C85.963 6.14928 82.9859 9.80965 82.9859 14.7595C82.9859 19.5261 86.2419 22.9068 91.0804 22.9068C95.2985 22.9068 98.2443 20.6012 98.8021 16.3877H94.5527C94.2769 18.3267 93.0986 19.6193 91.0522 19.6193Z" fill="white"/>
<path d="M108.695 6.14928C103.826 6.14928 100.51 9.77857 100.51 14.5451C100.51 19.4639 103.641 22.9099 108.695 22.9099C112.324 22.9099 114.96 21.3096 116.201 17.5592H112.324C112.045 18.5442 110.62 19.6193 108.852 19.6193C106.402 19.6193 105.038 18.3577 104.913 15.5923H116.48C116.79 10.7014 114.151 6.14928 108.695 6.14928ZM104.91 12.8237C104.973 11.5932 105.778 9.43988 108.57 9.43988C110.71 9.43988 111.673 10.6082 112.074 12.8237H104.91Z" fill="white"/>
<path d="M133.293 0.522021H115.151V4.58011H121.788V22.478H126.658V4.58011H133.293V0.522021Z" fill="white"/>
<path d="M146.317 10.6704C146.317 6.85774 142.471 6.14928 139.278 6.14928C135.681 6.14928 131.989 7.37976 131.741 11.4689H136.144C136.298 9.7475 137.385 9.07012 139.059 9.07012C140.61 9.07012 141.91 9.34666 141.91 11.2235C141.91 13.007 139.397 12.9138 136.699 13.3146C133.969 13.6844 131.24 14.5451 131.24 18.1433C131.24 21.4029 133.659 22.9099 136.699 22.9099C138.651 22.9099 140.701 22.3879 142.095 20.943C142.127 21.465 142.249 21.987 142.406 22.4811H146.871C146.467 21.8348 146.313 20.3899 146.313 18.945V10.6704H146.317ZM141.914 16.3287C141.914 17.2826 141.788 19.9891 138.347 19.9891C136.921 19.9891 135.649 19.5882 135.649 17.96C135.649 16.3598 136.89 15.8999 138.253 15.6233C139.617 15.3779 141.168 15.3468 141.914 14.7005V16.3287Z" fill="white"/>
<path d="M154.254 0.522021H149.852V4.12024H154.254V0.522021Z" fill="white"/>
<path d="M154.254 6.58119H149.852V22.478H154.254V6.58119Z" fill="white"/>
<path d="M162.255 0.522021H157.852V22.478H162.255V0.522021Z" fill="white"/>
<path d="M173.512 6.14928C168.488 6.14928 165.232 9.47095 165.232 14.5451C165.232 19.5882 168.488 22.9099 173.512 22.9099C178.566 22.9099 181.822 19.5882 181.822 14.5451C181.822 9.47095 178.566 6.14928 173.512 6.14928ZM173.512 19.6193C170.535 19.6193 169.635 17.0682 169.635 14.5451C169.635 11.9941 170.535 9.43988 173.512 9.43988C176.52 9.43988 177.419 11.9909 177.419 14.5451C177.419 17.0651 176.52 19.6193 173.512 19.6193Z" fill="white"/>
<path d="M194.038 6.14928C191.898 6.14928 189.726 7.53202 188.92 9.5331H188.858V6.58119H184.674V22.478H189.077V15.3126C189.077 12.513 190.193 10.2074 193.417 10.2074C193.944 10.2074 194.596 10.2695 195 10.3596V6.30465C194.721 6.21143 194.348 6.14928 194.038 6.14928Z" fill="white"/>
<path d="M6.6311 0.338692L0 6.91367V22.478H22.1559V22.0119H16.0199V15.7539H22.1559V0.338692H6.6311ZM6.37099 6.77695H0.80225L6.37099 1.25534V6.77695ZM0.470068 7.24304H6.37099V22.0119H0.470068V7.24304ZM15.5499 15.2878H6.83793V7.24304H15.5499V15.2878ZM15.5499 22.0119H6.83793V15.7539H15.5499V22.0119ZM21.6858 15.2878H16.0199V6.77695H6.83793V0.804783H21.6858V15.2878Z" fill="white"/>
</svg>
