<svg width="155" height="42" viewBox="0 0 155 42" fill="none" xmlns="http://www.w3.org/2000/svg">
<path d="M9.13907 41.0601H2.51656L0 0.199219H4.56953L5.82781 27.186L7.05298 0.199219H11.6225L9.13907 41.0601Z" fill="#FCFCFC"/>
<path d="M17.6157 41.0601H12.98V0.199219H17.6157V41.0601Z" fill="#FCFCFC"/>
<path d="M25.5629 41.2914H24.0397C22.7483 41.2914 21.6887 40.8609 20.8609 39.9669C20 39.0728 19.6026 38.0463 19.6026 36.8874V4.47019C19.6026 3.24503 20.0331 2.18543 20.894 1.3245C21.7549 0.463576 22.8145 0 24.0728 0C25.0993 0 26.4238 0.066219 26.9867 0.231782C27.5496 0.364232 28.1125 0.728474 28.7086 1.29139C29.5364 2.18543 30 3.24503 30.0331 4.47019V18.9073H25.3973V4.33774H24.139V36.9205H25.3973V20.8278H30.0331V36.8874C30.0331 38.0794 29.6026 39.1059 28.7086 40C27.8476 40.8278 26.788 41.2914 25.5629 41.2914Z" fill="#FCFCFC"/>
<path d="M38.8409 41.0601H34.2051V4.43763H30.8276V0.199219H42.1852V4.43763H38.8409V41.0601Z" fill="#FCFCFC"/>
<path d="M48.9735 41.2914C47.9139 41.2914 46.5563 41.2252 45.9934 41.0596C45.4305 40.9272 44.8675 40.563 44.3046 40C43.4106 39.1722 42.9801 38.1126 42.9801 36.8875V4.50337C42.9801 3.31132 43.4106 2.28483 44.3046 1.39079C45.1655 0.529866 46.2251 0.0662898 47.4503 0.0662898H49.0066C50.2318 0.0662898 51.2583 0.496753 52.1192 1.39079C52.9801 2.28483 53.4106 3.31133 53.4437 4.47027V36.8543C53.4437 38.0795 53.0132 39.106 52.1192 39.9669C51.2583 40.861 50.1987 41.2914 48.9735 41.2914ZM48.8079 36.9206V4.43715H47.5165V36.9206H48.8079Z" fill="#FCFCFC"/>
<path d="M65.3312 41.0601H60.6954V23.1462H59.404V41.0601H54.8345V0.199219H61.159C62.3179 0.199219 63.3113 0.629688 64.106 1.4575C64.9007 2.28532 65.298 3.34492 65.298 4.6032V18.2456C65.298 19.7025 64.4371 20.7621 63.3444 21.3582C64.4371 21.7224 65.298 22.782 65.298 24.5369V41.0601H65.3312ZM60.7285 18.9078V4.53697H59.4371V18.9078H60.7285Z" fill="#FCFCFC"/>
<path d="M91.6887 41.2914C90.6291 41.2914 89.2715 41.2252 88.7086 41.0596C88.1456 40.9272 87.5827 40.563 87.0198 40C86.1258 39.1722 85.6953 38.1126 85.6953 36.8875V4.50337C85.6953 3.31132 86.1258 2.28483 87.0198 1.39079C87.8807 0.529866 88.9403 0.0662898 90.1655 0.0662898H91.7218C92.947 0.0662898 93.9735 0.496753 94.8344 1.39079C95.6953 2.28483 96.1258 3.31133 96.1589 4.47027V36.8543C96.1589 38.0795 95.7284 39.106 94.8344 39.9669C93.9735 40.861 92.9139 41.2914 91.6887 41.2914ZM91.5562 36.9206V4.43715H90.2648V36.9206H91.5562Z" fill="#FCFCFC"/>
<path d="M150 41.2914C148.94 41.2914 147.583 41.2252 147.02 41.0596C146.457 40.9272 145.894 40.563 145.331 40C144.437 39.1722 144.006 38.1126 144.006 36.8875V4.50337C144.006 3.31132 144.437 2.28483 145.331 1.39079C146.192 0.529866 147.252 0.0662898 148.477 0.0662898H150.033C151.258 0.0662898 152.285 0.496753 153.146 1.39079C154.007 2.28483 154.437 3.31133 154.47 4.47027V36.8543C154.47 38.0795 154.04 39.106 153.146 39.9669C152.285 40.861 151.225 41.2914 150 41.2914ZM149.867 36.9206V4.43715H148.576V36.9206H149.867Z" fill="#FCFCFC"/>
<path d="M108.079 41.0601H103.443V23.1462H102.152V41.0601H97.5825V0.199219H103.907C105.066 0.199219 106.059 0.629688 106.854 1.4575C107.649 2.28532 108.046 3.34492 108.046 4.6032V18.2456C108.046 19.7025 107.185 20.7621 106.092 21.3582C107.185 21.7224 108.046 22.782 108.046 24.5369V41.0601H108.079ZM103.443 18.9078V4.53697H102.152V18.9078H103.443Z" fill="#FCFCFC"/>
<path d="M78.4103 41.0601H73.8408V0.199219H79.5362C80.96 0.199219 82.0859 0.662797 82.9468 1.55684C83.8077 2.45087 84.2713 3.54359 84.3044 4.83498V20.2985C84.3044 21.623 83.8739 22.7489 82.9799 23.676C82.0858 24.6032 81.0594 25.0668 79.8673 25.0668H78.4103V41.0601ZM79.7017 20.6959V4.53697H78.4103V20.6959H79.7017Z" fill="#FCFCFC"/>
<path d="M114.271 41.0601H109.603V0.199219H117.45V4.43763H114.271V18.378H117.45V22.8482H114.271V41.0601Z" fill="#FCFCFC"/>
<path d="M124.073 41.0601H119.437V0.199219H124.073V41.0601Z" fill="#FCFCFC"/>
<path d="M131.888 41.0601H125.762V0.199219H131.888C133.179 0.199219 134.239 0.59657 135.033 1.35816C135.828 2.15286 136.225 3.14624 136.225 4.40452V37.0535C136.225 38.3118 135.828 39.272 135.033 39.9674C134.239 40.729 133.179 41.0601 131.888 41.0601ZM131.623 36.7224V4.57008H130.331V36.7224H131.623Z" fill="#FCFCFC"/>
<path d="M142.517 41.0601H137.881V0.199219H142.517V41.0601Z" fill="#FCFCFC"/>
</svg>
