<svg width="488" height="468" viewBox="0 0 488 468" fill="none" xmlns="http://www.w3.org/2000/svg">
<path d="M449.154 114.432C448.349 113.623 447.545 112.929 446.625 112.352C446.74 111.312 446.74 110.156 446.625 109.116C446.281 105.535 443.637 83.5809 441.454 65.4403L441.109 62.4362C439.5 48.5707 437.776 34.3587 429.156 20.7243C414.215 -2.73136 394.332 0.0417233 393.873 0.157269C377.438 1.19718 369.048 13.445 367.554 25.5772H352.728C345.487 25.5772 339.166 30.199 336.868 37.0162C336.523 38.0561 335.373 41.638 334.684 46.3754C334.109 50.1884 334.799 67.8668 334.914 68.0979L336.753 107.845C336.868 110.503 336.753 119.053 336.408 121.595C335.948 125.062 335.259 131.07 334.914 133.034C334.454 135.461 332.27 143.664 331.466 145.86C329.857 150.251 327.788 154.872 327.213 155.912C326.524 157.068 325.375 159.148 324.11 161.458C322.386 164.694 319.973 169.084 319.053 170.355C318.364 171.395 311.928 180.292 309.514 184.336C307.905 186.994 301.239 195.198 298.136 198.895C295.033 202.593 289.746 208.601 287.793 210.565L283.77 214.494C279.403 218.769 272.852 225.355 271.243 226.741C268.37 229.283 260.324 236.216 257.106 238.758C251.59 242.918 231.822 257.592 229.983 258.632C227.11 260.25 212.859 268.453 207.572 271.92C201.366 275.964 198.492 283.705 200.676 290.869C200.791 291.216 200.906 291.447 201.021 291.793C192.516 296.069 186.884 304.388 185.85 314.209H74.5983C48.6242 314.209 28.8563 321.142 15.8693 334.892C-0.910468 352.455 0.00896877 374.524 0.00896877 375.448C1.15826 399.135 11.1571 417.969 30.8101 432.99C47.245 445.7 84.9419 467.076 152.406 468H191.941C192.631 468 193.206 468 193.895 467.884C208.606 466.151 216.881 453.672 218.835 442.464H308.595C310.434 442.696 354.452 446.046 412.261 389.314C446.855 355.459 488 299.766 488 227.319C488 148.517 450.533 115.587 449.154 114.432Z" fill="white"/>
<path d="M385.422 53.5546C383.928 64.8781 375.308 66.2646 375.308 66.2646H353.012L353.587 78.9746H374.964C384.388 77.9347 385.422 66.2646 385.422 66.2646C387.606 53.208 397.72 53.5546 397.72 53.5546H425.303C425.188 47.0841 423.234 40.8447 423.234 40.8447H396.341C385.078 41.5379 385.422 53.5546 385.422 53.5546Z" fill="black"/>
<path d="M385.422 80.4767C383.928 91.8001 375.308 93.1867 375.308 93.1867H354.161L354.851 105.897H374.964C384.388 104.857 385.422 93.1867 385.422 93.1867C387.606 80.1301 397.72 80.4767 397.72 80.4767H428.176C427.486 74.1217 426.912 67.7667 426.912 67.7667H396.341C385.078 68.46 385.422 80.4767 385.422 80.4767Z" fill="black"/>
<path d="M385.422 109.71C383.928 121.033 375.308 122.42 375.308 122.42H354.391C354.391 122.42 353.357 131.663 352.667 135.13H374.964C384.388 134.09 385.422 122.42 385.422 122.42C387.606 109.363 397.72 109.71 397.72 109.71H431.394C430.705 103.355 430.015 96.9996 430.015 96.9996H396.226C385.077 97.6929 385.422 109.71 385.422 109.71Z" fill="black"/>
<path d="M385.422 150.728C387.606 137.672 397.72 138.018 397.72 138.018H448.289C445.76 132.241 438.865 125.308 438.865 125.308H396.341C385.078 126.002 385.537 138.018 385.537 138.018C384.043 149.342 375.423 150.728 375.423 150.728H348.53C348.53 150.728 345.082 159.972 342.898 163.438H374.964C384.388 162.398 385.422 150.728 385.422 150.728Z" fill="black"/>
<path d="M385.422 179.037C387.606 165.98 397.72 166.327 397.72 166.327H462.655C460.586 160.665 456.908 153.617 456.908 153.617H396.226C384.963 154.31 385.422 166.327 385.422 166.327C383.928 177.65 375.308 179.037 375.308 179.037H333.934C333.934 179.037 327.268 188.28 325.199 191.747H374.964C384.388 190.707 385.422 179.037 385.422 179.037Z" fill="black"/>
<path d="M385.422 208.616C387.606 195.56 397.72 195.906 397.72 195.906H471.045C469.896 187.934 468.172 183.196 468.172 183.196H396.341C385.078 183.89 385.537 195.906 385.537 195.906C384.043 207.23 375.423 208.616 375.423 208.616H312.327C312.327 208.616 304.282 218.091 300.949 221.326H375.079C384.388 220.286 385.422 208.616 385.422 208.616Z" fill="black"/>
<path d="M472.654 212.892H396.341C385.078 213.585 385.537 225.602 385.537 225.602C384.043 236.925 375.423 238.311 375.423 238.311H283.71C283.71 238.311 273.136 247.671 268.654 251.021H375.079C384.503 249.982 385.537 238.311 385.537 238.311C387.721 225.255 397.835 225.602 397.835 225.602H472.769C473.114 218.091 472.654 212.892 472.654 212.892Z" fill="black"/>
<path d="M385.422 259.456C383.928 270.78 375.308 272.166 375.308 272.166H239.577C239.577 272.166 223.257 281.525 217.97 284.876H374.964C384.388 283.836 385.422 272.166 385.422 272.166C387.606 259.11 397.72 259.456 397.72 259.456H467.252C468.976 252.293 469.896 246.746 469.896 246.746H396.226C385.077 247.44 385.422 259.456 385.422 259.456Z" fill="black"/>
<path d="M385.422 291.809C383.928 303.132 375.308 304.519 375.308 304.519H288.192V304.403H214.522C203.259 305.097 203.719 317.113 203.719 317.113C202.225 328.437 193.605 329.823 193.605 329.823H75.802C75.802 329.823 42.4724 329.477 30.06 342.533H193.145C202.569 341.493 203.604 329.823 203.604 329.823C205.787 316.767 215.901 317.113 215.901 317.113H218.085L217.97 317.229H374.964C384.388 316.189 385.422 304.519 385.422 304.519C387.606 291.462 397.72 291.809 397.72 291.809H456.334C459.322 284.876 461.276 279.099 461.276 279.099H396.226C385.077 279.792 385.422 291.809 385.422 291.809Z" fill="black"/>
<path d="M385.422 325.202C383.928 336.525 375.308 337.912 375.308 337.912H239.577C239.577 337.912 239.462 337.912 239.462 338.027H214.522C203.259 338.72 203.719 350.737 203.719 350.737C202.225 362.06 193.605 363.447 193.605 363.447H16.958C16.958 363.447 14.4296 371.42 15.1192 376.157H193.145C202.569 375.117 203.604 363.447 203.604 363.447C205.787 350.39 215.901 350.737 215.901 350.737H285.434C285.434 350.737 285.434 350.737 285.434 350.621H374.849C384.273 349.582 385.307 337.912 385.307 337.912C387.491 324.855 397.605 325.202 397.605 325.202H438.06C442.657 318.962 445.99 312.492 445.99 312.492H396.226C385.077 313.3 385.422 325.202 385.422 325.202Z" fill="black"/>
<path d="M385.422 358.71C383.928 370.033 375.308 371.42 375.308 371.42H239.577C239.577 371.42 239.577 371.42 239.462 371.42H214.407C203.144 372.113 203.604 384.13 203.604 384.13C202.11 395.453 193.49 396.84 193.49 396.84H20.5208C20.5208 396.84 26.1524 406.43 30.8645 409.55H193.145C202.569 408.51 203.604 396.84 203.604 396.84C205.787 383.783 215.901 384.13 215.901 384.13H374.849C384.273 383.09 385.307 371.42 385.307 371.42C387.491 358.363 397.605 358.71 397.605 358.71H411.396C417.947 352.47 422.774 346 422.774 346H396.226C385.077 346.693 385.422 358.71 385.422 358.71Z" fill="black"/>
<path d="M203.834 424.802C202.339 436.125 193.72 437.512 193.72 437.512H97.7535C97.7535 437.512 135.91 449.413 153.839 450.221H193.49C202.914 449.182 203.948 437.512 203.948 437.512C206.132 424.455 216.246 424.802 216.246 424.802H313.246C327.498 419.833 341.289 412.092 341.289 412.092H214.752C203.489 412.785 203.834 424.802 203.834 424.802Z" fill="black"/>
<path d="M374.964 54.1324C384.388 53.0925 385.422 41.4224 385.422 41.4224C387.606 28.3658 397.72 28.7124 397.72 28.7124H416.338C409.787 16.6957 396.341 16.0024 396.341 16.0024C385.078 16.6957 385.537 28.7124 385.537 28.7124C384.043 40.0359 375.423 41.4224 375.423 41.4224H354.276C354.276 41.4224 351.863 48.4707 352.667 54.1324H374.964Z" fill="black"/>
</svg>
