<svg width="784" height="486" viewBox="0 0 784 486" fill="none" xmlns="http://www.w3.org/2000/svg">
<g filter="url(#filter0_d_1902_13509)">
<path d="M648.422 8.28591C621.605 8.28591 595.085 15.7691 569.162 30.4363C537.279 11.5785 502.119 2 463.085 2C416.9 2 373.098 12.1772 331.085 32.2322C289.071 52.2873 255.102 79.5262 229.179 114.548C221.134 114.248 215.472 113.949 211.599 113.949C184.782 113.949 158.858 119.337 133.531 130.412C108.203 141.487 86.4517 156.154 67.6797 174.413C49.2056 192.672 34.3071 214.224 22.9843 239.068C11.6614 263.913 6 289.655 6 316.295C6 403.101 75.4269 448 155.283 448C247.355 448 310.227 407.89 358.2 327.67C367.139 312.404 379.356 290.852 394.552 262.715C409.748 234.579 421.369 213.925 429.116 200.754C450.57 211.83 470.236 217.517 488.412 217.517C530.426 217.517 566.48 204.945 587.934 185.788C609.388 166.332 621.605 141.787 621.605 115.446C621.605 84.3155 604.918 53.7839 573.036 33.1302C598.661 18.1638 624.286 10.6805 649.614 10.6805C675.835 10.9799 700.864 20.8577 724.404 40.3141L725 39.4161C700.864 18.7624 675.537 8.28591 648.422 8.28591ZM416.9 187.883C407.961 179.502 401.703 169.624 397.83 157.95C395.744 151.066 394.552 142.984 394.552 134.004C394.552 126.521 392.764 122.63 388.891 122.33C384.123 122.33 381.441 128.616 381.441 133.705C381.441 139.991 385.017 148.97 391.87 160.944C398.128 172.318 405.875 182.196 415.112 190.278C408.259 200.455 396.638 218.714 379.952 245.354C363.563 271.995 348.665 294.145 335.852 312.404C323.039 330.663 309.333 347.426 295.03 362.691C245.567 416.271 196.7 442.911 148.131 442.911C110.289 442.911 79.0025 431.537 54.569 408.489C30.4335 385.44 18.2167 356.106 18.2167 320.486C18.2167 285.464 27.7518 252.538 46.8218 222.007C66.1898 191.176 91.2192 167.23 121.91 149.569C152.601 131.909 185.08 123.228 218.75 123.228H222.922C199.382 159.148 187.761 192.373 187.761 222.905C187.761 247.15 195.508 267.205 210.705 283.07C225.901 298.934 245.567 306.717 269.405 306.717C289.369 306.717 306.055 301.628 318.868 291.75C306.651 298.934 292.349 302.526 275.662 302.526C252.123 302.526 233.649 295.043 219.644 279.777C205.639 264.511 198.786 245.354 198.786 222.905C198.786 192.672 211.897 159.447 238.118 123.528C270.597 125.623 305.161 134.303 342.109 149.569C308.737 131.909 275.96 120.834 243.78 116.044C272.087 82.5195 305.459 55.8792 343.897 36.1235C382.335 16.0685 421.965 6.19062 463.085 6.19062C501.821 6.19062 534.896 15.7691 562.011 34.6268L555.455 38.8175C531.32 54.9812 503.311 80.7235 471.428 116.344C453.848 136.099 435.672 160.046 416.9 187.883ZM488.114 213.925C476.196 213.626 466.065 212.428 458.019 210.034C449.974 207.34 440.737 203.448 430.606 198.36C445.803 172.019 461.893 147.474 478.579 125.024C506.588 87.3087 533.406 59.4712 559.031 41.8107L565.884 37.3208C589.722 55.2805 601.641 78.9275 601.641 107.962C601.641 143.583 583.465 177.107 548.006 198.36C530.426 208.836 510.462 213.925 488.114 213.925Z" fill="#BCE5A1"/>
</g>
<defs>
<filter id="filter0_d_1902_13509" x="0" y="0" width="727" height="454" filterUnits="userSpaceOnUse" color-interpolation-filters="sRGB">
<feFlood flood-opacity="0" result="BackgroundImageFix"/>
<feColorMatrix in="SourceAlpha" type="matrix" values="0 0 0 0 0 0 0 0 0 0 0 0 0 0 0 0 0 0 127 0" result="hardAlpha"/>
<feOffset dx="-2" dy="2"/>
<feGaussianBlur stdDeviation="2"/>
<feComposite in2="hardAlpha" operator="out"/>
<feColorMatrix type="matrix" values="0 0 0 0 0.587201 0 0 0 0 0.7125 0 0 0 0 0.504687 0 0 0 0.8 0"/>
<feBlend mode="normal" in2="BackgroundImageFix" result="effect1_dropShadow_1902_13509"/>
<feBlend mode="normal" in="SourceGraphic" in2="effect1_dropShadow_1902_13509" result="shape"/>
</filter>
</defs>
</svg>
