<svg width="784" height="486" viewBox="0 0 784 486" fill="none" xmlns="http://www.w3.org/2000/svg">
<g clip-path="url(#clip0_1902_13508)">
<g filter="url(#filter0_d_1902_13508)">
<path d="M730.524 9.96243C700.78 9.96243 671.367 18.251 642.615 34.4967C607.253 13.6094 568.256 3 524.963 3C473.738 3 425.157 14.2725 378.559 36.4859C331.96 58.6993 294.285 88.8698 265.533 127.66C256.61 127.329 250.331 126.997 246.035 126.997C216.291 126.997 187.539 132.965 159.448 145.232C131.357 157.499 107.232 173.745 86.4111 193.969C65.9211 214.193 49.3969 238.064 36.8385 265.583C24.2802 293.101 18.001 321.613 18.001 351.121C18.001 447.268 95.0037 497 183.573 497C285.693 497 355.425 452.573 408.633 363.719C418.547 346.811 432.097 322.94 448.952 291.774C465.806 260.609 478.695 237.733 487.288 223.145C511.083 235.412 532.895 241.711 553.054 241.711C599.652 241.711 639.641 227.787 663.436 206.568C687.23 185.017 700.78 157.831 700.78 128.655C700.78 94.1745 682.273 60.3571 646.911 37.4805C675.333 20.9034 703.755 12.6148 731.846 12.6148C760.928 12.9463 788.689 23.8872 814.797 45.4376L815.458 44.443C788.689 21.5664 760.598 9.96243 730.524 9.96243ZM473.738 208.889C463.823 199.605 456.883 188.664 452.587 175.734C450.274 168.109 448.952 159.157 448.952 149.211C448.952 140.922 446.969 136.612 442.673 136.281C437.385 136.281 434.41 143.243 434.41 148.879C434.41 155.842 438.376 165.788 445.977 179.05C452.918 191.648 461.51 202.589 471.755 211.541C464.154 222.813 451.265 243.038 432.758 272.545C414.581 302.052 398.057 326.587 383.846 346.811C369.636 367.035 354.433 385.601 338.57 402.51C283.71 461.856 229.511 491.364 175.642 491.364C133.67 491.364 98.9695 478.765 71.8698 453.236C45.1006 427.707 31.5508 395.216 31.5508 355.762C31.5508 316.972 42.1263 280.502 63.2772 246.685C84.7587 212.536 112.519 186.012 146.559 166.451C180.599 146.89 216.622 137.275 253.966 137.275H258.593C232.485 177.06 219.596 213.862 219.596 247.679C219.596 274.534 228.189 296.748 245.043 314.319C261.898 331.891 283.71 340.511 310.149 340.511C332.291 340.511 350.798 334.875 365.009 323.934C351.459 331.891 335.596 335.87 317.089 335.87C290.98 335.87 270.491 327.581 254.958 310.672C239.425 293.764 231.824 272.545 231.824 247.679C231.824 214.193 246.365 177.392 275.448 137.607C311.471 139.928 349.807 149.542 390.787 166.451C353.772 146.89 317.419 134.623 281.727 129.318C313.123 92.1852 350.137 62.6779 392.769 40.796C435.402 18.5826 479.356 7.64163 524.963 7.64163C567.926 7.64163 604.61 18.251 634.684 39.1382L627.413 43.7799C600.644 61.6832 569.578 90.196 534.216 129.65C514.718 151.532 494.558 178.055 473.738 208.889ZM552.724 237.733C539.504 237.401 528.268 236.075 519.345 233.423C510.422 230.439 500.177 226.129 488.94 220.493C505.795 191.317 523.641 164.13 542.148 139.264C573.214 97.4899 602.957 66.6564 631.379 47.0953L638.98 42.1222C665.419 62.0148 678.638 88.2067 678.638 120.366C678.638 159.82 658.478 196.953 619.151 220.493C599.652 232.097 577.51 237.733 552.724 237.733Z" fill="#BCE5A1" fill-opacity="0.2" shape-rendering="crispEdges"/>
</g>
</g>
<defs>
<filter id="filter0_d_1902_13508" x="12.001" y="1" width="805.457" height="502" filterUnits="userSpaceOnUse" color-interpolation-filters="sRGB">
<feFlood flood-opacity="0" result="BackgroundImageFix"/>
<feColorMatrix in="SourceAlpha" type="matrix" values="0 0 0 0 0 0 0 0 0 0 0 0 0 0 0 0 0 0 127 0" result="hardAlpha"/>
<feOffset dx="-2" dy="2"/>
<feGaussianBlur stdDeviation="2"/>
<feComposite in2="hardAlpha" operator="out"/>
<feColorMatrix type="matrix" values="0 0 0 0 0.587201 0 0 0 0 0.7125 0 0 0 0 0.504687 0 0 0 0.8 0"/>
<feBlend mode="normal" in2="BackgroundImageFix" result="effect1_dropShadow_1902_13508"/>
<feBlend mode="normal" in="SourceGraphic" in2="effect1_dropShadow_1902_13508" result="shape"/>
</filter>
<clipPath id="clip0_1902_13508">
<rect width="1440" height="500" fill="white" transform="translate(0.000976562)"/>
</clipPath>
</defs>
</svg>
