<svg width="263" height="105" viewBox="0 0 263 105" fill="none" xmlns="http://www.w3.org/2000/svg">
<g style="mix-blend-mode:multiply">
<path d="M225.759 68.3965V102.587H225.774V68.3965H225.759Z" fill="#191919" fill-opacity="0.9"/>
<path d="M0 0V105H263V0H0ZM39.6731 2.4126H46.6856L39.6731 9.5468V2.4126ZM39.6731 12.9955L50.0725 2.4126H58.9948L39.6731 22.0686V12.9955ZM39.6731 25.5173L62.3967 2.4274H71.2892L40.0461 34.2057H39.6731V25.5173ZM2.43201 70.8091H8.77313L2.43201 77.2773V70.8091ZM2.43201 80.7112L12.175 70.8091H21.0824L2.43201 89.7695V80.7112ZM2.43201 93.233L2.46185 93.2034L24.4991 70.8091H33.3916L2.43201 102.291V93.233ZM37.241 102.587H30.1838L37.241 95.394V102.587ZM37.241 91.9453L26.7819 102.587H17.8596L37.241 82.8722V91.9453ZM37.241 79.4235L14.4578 102.587H5.55035L36.8084 70.8091H37.241V79.4235ZM37.241 68.3965H2.43201V2.4126H37.241V68.3965ZM74.4672 102.587H39.6731V36.6183H74.4672V102.587ZM74.4672 34.2057H68.0664L74.4672 27.7079V34.2057ZM74.4672 24.274C74.4672 24.274 74.3627 24.348 74.318 24.3924L64.6645 34.2057H55.7571L74.4672 15.1861V24.274ZM74.4672 11.7226L52.3702 34.2057H43.4479L74.4672 2.66422V11.7226ZM76.8992 70.8239H84.6279L76.8992 78.6834V70.8239ZM76.8992 82.1321L88.0297 70.8239H96.9371L76.8992 91.2052V82.1321ZM78.0182 102.587H76.8992V94.6539L100.339 70.8239H109.246L78.063 102.528C78.063 102.528 78.0331 102.558 78.0182 102.587ZM111.708 102.587H106.024L111.708 96.8297V102.587ZM111.708 93.3662L102.652 102.587H93.7144L111.708 84.2931V93.3662ZM111.708 80.8592L90.3275 102.587H81.4051L111.708 71.7712V80.8592ZM111.723 68.4113H76.8992V2.4274H111.723V68.4113ZM151.396 2.4274H159.006L151.396 10.1685V2.4274ZM151.396 13.6319L162.407 2.4274H171.315L151.396 22.6903V13.6319ZM151.396 26.1538L174.732 2.4274H183.624L152.381 34.1909H151.396V26.1538ZM114.155 36.6331H120.631L114.155 43.2196V36.6331ZM114.155 46.6683L124.032 36.6331H132.94L114.155 55.7415V46.6683ZM114.155 59.1754L136.342 36.6331H145.249L114.155 68.2485V59.1754ZM114.155 70.8239H121.645L114.155 78.4466V70.8239ZM114.155 81.8805L125.062 70.8239H133.954L114.155 90.9684V81.8805ZM114.155 102.587V94.4171L137.371 70.8239H146.279L115.035 102.587H114.155ZM148.845 102.587H143.056L148.845 96.6965V102.587ZM148.845 93.2626C148.845 93.2626 148.8 93.2922 148.77 93.3218L139.654 102.587H130.747L148.845 84.1747V93.2626ZM148.845 80.726L127.345 102.587H118.437L148.845 71.6528V80.726ZM148.845 68.3965H142.041L148.845 61.4695V68.3965ZM148.845 58.0209L138.639 68.3965H129.732L148.845 48.9625V58.0209ZM148.845 45.499L126.33 68.3965H117.423L148.666 36.6331H148.845V45.499ZM148.964 34.2057H114.155V2.4274H148.845V34.1909H148.964V34.2057ZM186.086 102.602H151.396V36.6035H186.086V102.602ZM186.086 34.2057H180.416L186.086 28.448V34.2057ZM186.086 24.9845L177.014 34.2057H168.107L186.086 15.9261V24.9845ZM186.086 12.4626L164.69 34.2057H155.798L186.086 3.38948V12.4626ZM225.759 2.4274H231.921L225.774 8.68833H225.759V2.4126V2.4274ZM225.759 12.3294H225.774L235.472 2.4274H244.156L225.774 21.1214H225.759V12.3294ZM225.759 24.9105H225.774L247.826 2.47181C247.826 2.47181 247.856 2.4422 247.856 2.4274H256.39L225.774 33.5544H225.759V24.9105ZM188.518 70.8239H194.769L188.518 77.1885V70.8239ZM188.518 80.652L198.186 70.8239H207.079L188.518 89.7103V80.652ZM188.518 93.1738L210.495 70.8239H219.403L188.518 102.217V93.1738ZM223.342 102.602H216.165L223.327 95.3348V102.602H223.342ZM223.342 91.8565L212.793 102.602H203.871L223.342 82.8129V91.8565ZM223.342 79.3346L200.484 102.602H191.562L222.835 70.8239H223.357V79.3346H223.342ZM223.342 68.4113H188.518V2.4126H223.342V68.4113ZM260.568 102.602H225.759V36.6183H260.568V102.602ZM260.568 34.2205H253.794L260.568 27.3231V34.2205ZM260.568 23.1195C260.478 23.1639 260.389 23.2379 260.314 23.312L249.721 34.0873C249.721 34.0873 249.646 34.1761 249.616 34.2205H241.395L260.568 14.7272V23.1195ZM260.568 10.6125H260.553L237.442 34.1169C237.442 34.1169 237.382 34.1909 237.352 34.2205H228.997L260.195 2.50141C260.195 2.50141 260.255 2.4422 260.27 2.4126H260.568V10.6125Z" fill="#191919" fill-opacity="0.9"/>
<path d="M225.759 2.4126V8.68833H225.774L225.774 2.41262L225.759 2.4126ZM225.759 21.1214H225.774L225.774 12.2998H225.759L225.759 21.1214ZM225.759 24.9105L225.759 33.5692H225.774V24.8957H225.759L225.759 24.9105Z" fill="#191919" fill-opacity="0.9"/>
<path d="M170.076 45.1882H167.286C166.899 45.1882 166.585 45.4996 166.585 45.8838V92.1525C166.585 92.5367 166.899 92.8482 167.286 92.8482H170.076C170.464 92.8482 170.778 92.5367 170.778 92.1525V45.8838C170.778 45.4996 170.464 45.1882 170.076 45.1882Z" fill="#191919" fill-opacity="0.9"/>
<path d="M140.788 9.04358V11.8706C140.788 12.2407 140.489 12.5367 140.116 12.5367H134.327C133.954 12.5367 133.656 12.8327 133.656 13.2027V28.1076C133.656 28.4776 133.358 28.7736 132.985 28.7736H130.135C129.762 28.7736 129.463 28.4776 129.463 28.1076V13.2027C129.463 12.8327 129.165 12.5367 128.792 12.5367H122.988C122.615 12.5367 122.317 12.2407 122.317 11.8706V9.04358C122.317 8.67355 122.615 8.37753 122.988 8.37753H140.116C140.489 8.37753 140.788 8.67355 140.788 9.04358Z" fill="#191919" fill-opacity="0.9"/>
<path d="M104.666 9.01395V62.5056C104.666 62.7721 104.457 62.9793 104.188 62.9793H100.831C100.622 62.9793 100.428 62.8461 100.369 62.6388L89.0891 25.4729C88.9249 24.9401 88.1491 25.0585 88.1491 25.6061V62.4908C88.1491 62.7573 87.9402 62.9645 87.6716 62.9645H84.4339C84.1654 62.9645 83.9565 62.7573 83.9565 62.4908V9.01395C83.9565 8.74753 84.1654 8.54031 84.4339 8.54031H87.791C87.9999 8.54031 88.1938 8.67352 88.2535 8.88074L99.5333 46.0467C99.6974 46.5795 100.473 46.4611 100.473 45.9134V9.01395C100.473 8.74753 100.682 8.54031 100.951 8.54031H104.188C104.457 8.54031 104.666 8.74753 104.666 9.01395Z" fill="#191919" fill-opacity="0.9"/>
<path d="M19.4112 61.8988C13.2641 61.6768 8.48959 56.4667 8.48959 50.3686C8.48959 42.1391 8.48959 28.6848 8.48959 20.4701C8.48959 14.372 13.2641 9.16198 19.4112 8.93996C25.8568 8.70314 31.1684 13.8392 31.1684 20.1741V28.448C31.1684 28.9364 30.7656 29.3361 30.2732 29.3361H27.8711C27.3787 29.3361 26.9758 28.9364 26.9758 28.448V20.4109C26.9758 16.7106 24.2156 13.4691 20.5004 13.1287C16.2631 12.7439 12.6971 16.0594 12.6971 20.1741V50.4426C12.6971 54.143 15.4574 57.3844 19.1725 57.7248C23.4099 58.1097 26.9758 54.7942 26.9758 50.6795V42.4056C26.9758 41.9171 27.3787 41.5175 27.8711 41.5175H30.2732C30.7656 41.5175 31.1684 41.9171 31.1684 42.4056V50.6795C31.1684 57.0144 25.8568 62.1504 19.4112 61.9136V61.8988Z" fill="#191919" fill-opacity="0.9"/>
<path d="M58.6367 44.7885H55.5035C55.22 44.7885 54.9664 44.9958 54.9216 45.2622L45.2682 93.6918C45.1936 94.0619 45.477 94.4023 45.8501 94.4023H48.9087C49.1922 94.4023 49.4458 94.1951 49.4906 93.9287L52.6686 77.9877C52.7283 77.7065 52.967 77.5141 53.2505 77.5141H60.8599C61.1434 77.5141 61.397 77.7213 61.4418 77.9877L64.6198 93.9287C64.6795 94.2099 64.9182 94.4023 65.2017 94.4023H68.2603C68.6333 94.4023 68.9168 94.0619 68.8422 93.6918L59.2037 45.2622C59.144 44.981 58.9053 44.7885 58.6218 44.7885H58.6367ZM53.7429 72.6297L56.4882 58.8793C56.6225 58.2429 57.5326 58.2429 57.6669 58.8793L60.3973 72.6297C60.4719 72.9997 60.1885 73.3401 59.8154 73.3401H54.3397C53.9667 73.3401 53.6832 72.9997 53.7578 72.6297H53.7429Z" fill="#191919" fill-opacity="0.9"/>
<path d="M244.842 44.7885H241.5C241.276 44.7885 241.082 44.9514 241.037 45.1734L231.339 93.8547C231.279 94.1507 231.503 94.4171 231.802 94.4171H235.114C235.338 94.4171 235.532 94.2543 235.577 94.0323L238.799 77.8841C238.844 77.6621 239.038 77.4993 239.262 77.4993H247.08C247.304 77.4993 247.498 77.6621 247.543 77.8841L250.75 94.0323C250.795 94.2543 250.989 94.4171 251.213 94.4171H254.525C254.824 94.4171 255.047 94.1507 254.988 93.8547L245.29 45.1734C245.245 44.9514 245.051 44.7885 244.827 44.7885H244.842ZM239.814 72.7777L242.708 58.2429C242.813 57.7396 243.529 57.7396 243.633 58.2429L246.528 72.7777C246.588 73.0737 246.364 73.3401 246.065 73.3401H240.276C239.978 73.3401 239.754 73.0737 239.814 72.7777Z" fill="#191919" fill-opacity="0.9"/>
<path d="M216.3 9.14715V62.3428C216.3 62.6832 216.016 62.9645 215.673 62.9645H212.569C212.286 62.9645 212.047 62.7868 211.973 62.5204L201.006 26.4054C200.797 25.7097 199.768 25.8725 199.768 26.583V62.3428C199.768 62.6832 199.484 62.9645 199.141 62.9645H196.202C195.859 62.9645 195.575 62.6832 195.575 62.3428V9.14715C195.575 8.80672 195.859 8.5255 196.202 8.5255H199.305C199.589 8.5255 199.828 8.70311 199.902 8.96953L210.869 45.0846C211.077 45.7802 212.107 45.6174 212.107 44.9069V9.14715C212.107 8.80672 212.39 8.5255 212.734 8.5255H215.673C216.016 8.5255 216.3 8.80672 216.3 9.14715Z" fill="#191919" fill-opacity="0.9"/>
</g>
</svg>
