<svg width="288" height="34" viewBox="0 0 288 34" fill="none" xmlns="http://www.w3.org/2000/svg">
<path d="M25.3962 0C30.8315 0 35.4022 4.3215 35.5554 9.71379H30.4776C30.4776 7.04206 28.1904 4.85864 25.3999 4.85864H10.1592C7.36497 4.85864 5.08143 7.04555 5.08143 9.71379V24.2827C5.08143 26.9545 7.36862 29.1379 10.1592 29.1379H25.3962C28.1904 29.1379 30.474 26.951 30.474 24.2827H35.5518C35.5518 29.4309 31.0832 33.9965 25.3926 33.9965H10.1592C4.72394 33.9965 0 29.7727 0 24.2827V9.71379C0 4.46799 4.46859 0.146492 10.1592 0H25.3962ZM69.7684 33.9965V24.2827H44.3722V33.9965H39.2945V9.71379C39.2945 4.56565 43.763 0 49.4537 0H64.6907C70.1259 0 74.6967 4.3215 74.8499 9.71379V33.9965H69.7684ZM49.45 4.85515C46.6558 4.85515 44.3722 7.04206 44.3722 9.7103V19.4241H69.7684V9.71379C69.7684 7.04206 67.4813 4.85864 64.6907 4.85864H49.4537L49.45 4.85515ZM111.547 33.993L101.388 24.2792H84.6771V33.993H79.5994V0H104.996C110.329 0 115.155 4.3215 115.155 9.71379V14.5689C115.155 18.6986 112.309 22.4376 108.096 23.7979L115.155 30.547V33.9965H111.547V33.993ZM110.073 9.7103C110.073 7.03857 107.786 4.85515 104.996 4.85515H84.6771V19.4241H104.996C107.79 19.4241 110.073 17.2372 110.073 14.5689V9.7103ZM119.397 0H144.793C150.127 0 154.953 4.3215 154.953 9.71379C154.953 12.6262 153.785 15.0572 151.498 17C153.785 18.9428 154.953 21.3703 154.953 24.2862C154.953 29.532 150.484 33.8535 144.793 34H119.397V0ZM124.475 14.5654H144.793C147.588 14.5654 149.871 12.3785 149.871 9.7103C149.871 7.04206 147.584 4.85515 144.793 4.85515H124.475V14.5689V14.5654ZM124.475 19.4206V29.1344H144.793C147.588 29.1344 149.871 26.9475 149.871 24.2792C149.871 21.611 147.584 19.4241 144.793 19.4241H124.475V19.4206ZM159.199 0H164.276V33.9965H159.199V0ZM204.589 33.9965H199.511L174.111 7.86869V33.9965H169.033V0H174.111L199.507 25.7407V0H204.585V33.9965H204.589ZM244.387 24.2827C244.387 29.6262 239.816 33.9965 234.227 33.9965H218.99C213.354 33.9965 208.831 29.675 208.831 24.2827V9.71379C208.831 4.37033 213.402 0 218.99 0H234.227C239.612 0 244.387 4.41916 244.387 9.71379V24.2827ZM239.309 9.71379C239.309 7.04206 237.022 4.85864 234.231 4.85864H218.994C216.2 4.85864 213.916 7.04555 213.916 9.71379V24.2827C213.916 26.9545 216.203 29.1379 218.994 29.1379H234.231C237.025 29.1379 239.309 26.951 239.309 24.2827V9.71379ZM288 8.51395V0.129052H283.334V5.26672H282.437V0.129052H277.768V5.16557L267.645 12.4448L257.522 5.16557V0.129052H253.346V5.26672H252.448V0.129052H247.29V8.51395L260.634 17.0628L247.29 27.1184V33.9965H252.448V29.1414H253.346V33.9965H257.522V29.8529L267.645 22.4586L277.768 29.8529V33.9965H282.437V29.1414H283.334V33.9965H288V27.1184L274.383 17.0628L288 8.51395Z" fill="#FCFCFC"/>
</svg>
