<svg width="292" height="67" viewBox="0 0 292 67" fill="none" xmlns="http://www.w3.org/2000/svg">
<path d="M61.1055 67H5.68149C2.55454 67 0 64.4373 0 61.3004V5.6996C0 2.56269 2.55454 0 5.68149 0H61.1055C64.2325 0 66.787 2.56269 66.787 5.6996V61.3004C66.787 64.4373 64.2325 67 61.1055 67Z" fill="white"/>
<path d="M53.7494 24.7394C52.4154 19.7279 47.9166 18.1334 45.1208 18.5937C44.9079 18.6222 44.7045 18.6839 44.5152 18.774C43.6495 16.6053 41.3268 15.3049 38.9757 15.808C37.8119 16.0548 36.8327 16.7049 36.1515 17.5781C35.2148 15.5612 32.9772 14.3795 30.716 14.8636C29.609 15.1009 28.6676 15.6988 27.9959 16.5056L26.6949 10.3789C26.132 7.72602 23.5254 6.02706 20.881 6.5918C18.2366 7.15654 16.543 9.77143 17.106 12.4243L21.198 31.6966C18.9083 29.9028 15.5259 29.2763 13.3215 30.1448C11.4008 30.9041 10.502 32.7692 11.0744 34.7956C11.4812 36.2098 12.8295 37.7996 15.7152 40.2816L15.8902 40.4335C18.9036 43.0816 23.4592 47.0822 25.6779 50.651C26.4963 51.9608 28.0763 55.5011 29.188 58.154C29.6469 59.3689 31.137 60.9302 33.4881 60.4272L50.6982 56.7588C53.2196 56.2225 53.8724 54.1106 53.6974 52.7913C53.4987 50.9358 53.5176 49.1419 53.5791 48.4537C53.6359 47.9317 54.3266 44.6999 54.7429 42.7684L54.7665 42.6545C55.495 39.2471 55.7978 37.7996 55.8498 37.2444C56.0864 34.7244 54.2414 26.595 53.7494 24.7394Z" fill="#191919"/>
<path d="M50.315 54.9174L33.1049 58.5858C31.4492 58.937 30.9336 57.4611 30.9336 57.4611C30.5977 56.6591 28.4264 51.5052 27.2674 49.6497C24.902 45.8484 20.2234 41.7386 17.1296 39.0193L16.9451 38.8579C15.3793 37.5101 13.2505 35.5691 12.8768 34.2688C12.5598 33.1631 12.9761 32.2946 14.0121 31.8865C16.122 31.056 20.1572 32.3136 21.3919 34.7481C21.8035 35.5596 22.0069 36.0342 22.1772 36.5705C22.2434 36.7698 22.3617 37.083 22.4137 37.1732C22.6313 37.5528 23.0334 37.7379 23.4214 37.6572C23.9275 37.5481 24.2539 37.0498 24.1451 36.542L18.9414 12.0399C18.5914 10.3979 19.6368 8.77957 21.2784 8.43314C22.9152 8.08195 24.5283 9.1355 24.8737 10.7775L29.2731 31.521C29.3536 31.9007 29.6516 32.1759 30.0111 32.2424C30.1294 32.2661 30.2571 32.2661 30.3848 32.2376C30.5693 32.1997 30.7302 32.1048 30.8532 31.9766C31.0566 31.7678 31.1559 31.4641 31.1039 31.1556C31.1039 31.1509 28.8001 20.2832 28.8001 20.2832C28.4547 18.6554 29.4907 17.0514 31.1181 16.7049C32.7407 16.3585 34.3396 17.3978 34.685 19.0303L37.3294 31.5163C37.4382 32.0193 37.9302 32.342 38.4364 32.2376C38.9425 32.1285 39.2595 31.6349 39.1554 31.1271L37.0598 21.2323C36.7144 19.6046 37.7504 18.0005 39.3778 17.6541C41.0004 17.3076 42.5993 18.3469 42.9447 19.9795L45.3904 31.5163C45.4992 32.0193 45.9912 32.342 46.4974 32.2376C46.9988 32.1285 47.3205 31.6349 47.2164 31.1271C47.2164 31.1271 45.5229 22.9835 45.0687 20.9903C45.0403 20.8717 45.064 20.7483 45.1302 20.6486C45.1964 20.5489 45.3005 20.473 45.4188 20.4588C47.0603 20.174 50.8212 20.9666 51.9565 25.233C52.6661 27.9143 54.1846 35.1705 54.0143 37.0783C53.967 37.5813 53.4892 39.8023 52.9405 42.3745C52.4012 44.8755 51.7957 47.7134 51.7436 48.2829C51.6632 49.1846 51.6585 51.1303 51.8666 53.0239C51.8477 53.0144 52.0748 54.5425 50.315 54.9174Z" fill="#F4F5FB"/>
<path d="M86.0502 11.1334H77.7905V53.9635H86.0502V11.1334Z" fill="#F4F5FB"/>
<path d="M113.644 25.5414C111.946 24.4642 110.02 23.9279 107.877 23.9279C105.649 23.9279 103.658 24.4167 101.893 25.3896C100.937 25.9211 100.105 26.5713 99.3716 27.3211V24.5353H91.4147V53.9588H99.3716V37.0878C99.3716 35.9108 99.6223 34.8715 100.133 33.9793C100.639 33.0871 101.335 32.3943 102.229 31.9054C103.118 31.4166 104.131 31.1746 105.266 31.1746C107.007 31.1746 108.426 31.7251 109.519 32.8214C110.612 33.9176 111.16 35.3413 111.16 37.0878V53.9635H119.117V35.3224C119.117 33.3339 118.63 31.4736 117.66 29.7461C116.681 28.0187 115.342 26.6187 113.644 25.5414Z" fill="#F4F5FB"/>
<path d="M137.888 21.1849C137.888 19.7232 138.281 18.5937 139.071 17.8059C139.861 17.0134 140.982 16.6195 142.439 16.6195C143.248 16.6195 143.915 16.7429 144.445 16.9849C144.97 17.2269 145.457 17.5734 145.902 18.0195L150.945 12.9036C149.852 11.7646 148.617 10.8724 147.241 10.2223C145.864 9.57211 144.223 9.2494 142.321 9.2494C139.809 9.2494 137.623 9.77617 135.764 10.8345C133.9 11.8928 132.462 13.3212 131.45 15.1293C130.438 16.9375 129.931 19.0208 129.931 21.3747V24.5448H123.129V31.5495H129.931V53.9683H137.888V31.5448H146.574V24.5353H137.888V21.1849Z" fill="#F4F5FB"/>
<path d="M172.408 25.9069C170.038 24.5448 167.356 23.8662 164.361 23.8662C161.447 23.8662 158.793 24.5448 156.404 25.9069C154.015 27.2689 152.132 29.096 150.756 31.3929C149.379 33.6898 148.693 36.2762 148.693 39.1616C148.693 42.047 149.393 44.6572 150.789 46.9921C152.184 49.327 154.067 51.173 156.437 52.5351C158.807 53.8971 161.471 54.5757 164.423 54.5757C167.379 54.5757 170.038 53.8971 172.408 52.5351C174.778 51.173 176.646 49.327 178.023 46.9921C179.4 44.6572 180.086 42.047 180.086 39.1616C180.086 36.281 179.395 33.6898 178.023 31.3929C176.651 29.096 174.778 27.2689 172.408 25.9069ZM171.012 43.3331C170.383 44.529 169.494 45.4639 168.339 46.1331C167.185 46.8022 165.861 47.1392 164.361 47.1392C162.904 47.1392 161.608 46.8022 160.472 46.1331C159.337 45.4639 158.448 44.529 157.8 43.3331C157.152 42.1372 156.83 40.7657 156.83 39.2186C156.83 37.6762 157.152 36.3142 157.8 35.1373C158.448 33.9603 159.337 33.0349 160.472 32.3658C161.608 31.6966 162.904 31.3597 164.361 31.3597C165.861 31.3597 167.176 31.6966 168.311 32.3658C169.442 33.0349 170.336 33.9603 170.984 35.1373C171.632 36.3142 171.954 37.6762 171.954 39.2186C171.954 40.7609 171.641 42.1325 171.012 43.3331Z" fill="#F4F5FB"/>
<path d="M206.005 27.0506C205.262 26.3292 204.411 25.7075 203.422 25.2045C201.742 24.3503 199.808 23.9231 197.622 23.9231C194.992 23.9231 192.622 24.5638 190.517 25.8404C188.412 27.1218 186.761 28.8587 185.568 31.0512C184.372 33.2437 183.776 35.721 183.776 38.483C183.776 41.245 184.372 43.7413 185.568 45.9765C186.761 48.2117 188.412 49.9676 190.517 51.2442C192.622 52.5256 194.992 53.1615 197.622 53.1615C199.77 53.1615 201.681 52.7486 203.36 51.9134C204.344 51.4246 205.196 50.8076 205.943 50.0815V52.554C205.943 54.7893 205.224 56.5357 203.786 57.7933C202.348 59.0509 200.394 59.6821 197.925 59.6821C195.943 59.6821 194.249 59.3262 192.854 58.6143C191.458 57.9025 190.19 56.8774 189.06 55.5391L184.022 60.6028C185.436 62.6339 187.338 64.2048 189.727 65.3248C192.116 66.44 194.869 67 197.986 67C201.104 67 203.857 66.3925 206.246 65.1729C208.635 63.9532 210.508 62.259 211.861 60.0855C213.219 57.912 213.895 55.3635 213.895 52.4401V24.5353H206V27.0506H206.005ZM205.522 42.3555C204.917 43.4707 204.075 44.344 203.001 44.9751C201.927 45.6063 200.664 45.9195 199.207 45.9195C197.75 45.9195 196.473 45.5968 195.38 44.9467C194.287 44.2965 193.435 43.4138 192.83 42.2986C192.224 41.1833 191.917 39.9352 191.917 38.5542C191.917 37.1305 192.22 35.8634 192.83 34.7481C193.435 33.6329 194.287 32.7597 195.38 32.1285C196.473 31.4973 197.75 31.1841 199.207 31.1841C200.664 31.1841 201.932 31.5021 203.001 32.1285C204.075 32.7597 204.912 33.6186 205.522 34.7197C206.128 35.8159 206.431 37.0973 206.431 38.5589C206.431 39.9732 206.128 41.2403 205.522 42.3555Z" fill="#F4F5FB"/>
<path d="M236.508 41.4111C236.508 43.2382 236.044 44.6619 235.112 45.6775C234.18 46.6931 232.884 47.2009 231.228 47.2009C230.136 47.2009 229.185 46.9778 228.376 46.5317C227.567 46.0856 226.957 45.426 226.555 44.5528C226.148 43.6796 225.949 42.6355 225.949 41.4159V24.5353H217.931V41.5914C217.931 44.1494 218.498 46.4036 219.629 48.3541C220.764 50.3046 222.33 51.8279 224.336 52.9242C226.342 54.0205 228.636 54.571 231.228 54.571C233.816 54.571 236.115 54.03 238.121 52.9574C240.127 51.8802 241.683 50.3663 242.795 48.4158C243.907 46.4653 244.465 44.1921 244.465 41.5914V24.5353H236.508V41.4111Z" fill="#F4F5FB"/>
<path d="M252.488 10.6351C251.192 10.6351 250.118 11.0812 249.271 11.9734C248.42 12.8656 247.994 13.9429 247.994 15.2005C247.994 16.5009 248.42 17.5876 249.271 18.4608C250.123 19.334 251.196 19.7706 252.488 19.7706C253.822 19.7706 254.905 19.334 255.738 18.4608C256.566 17.5876 256.982 16.5009 256.982 15.2005C256.982 13.9429 256.566 12.8656 255.738 11.9734C254.905 11.086 253.827 10.6351 252.488 10.6351Z" fill="#F4F5FB"/>
<path d="M256.495 24.5259H248.481V53.9493H256.495V24.5259Z" fill="#F4F5FB"/>
<path d="M283.109 24.5353V27.3638C282.3 26.5001 281.359 25.7692 280.257 25.2045C278.596 24.3503 276.713 23.9231 274.608 23.9231C271.936 23.9231 269.528 24.5923 267.38 25.9353C265.232 27.2736 263.553 29.1055 262.342 31.4166C261.126 33.7325 260.521 36.3522 260.521 39.2755C260.521 42.1609 261.131 44.7568 262.342 47.0727C263.558 49.3887 265.237 51.2158 267.38 52.5588C269.528 53.8971 271.936 54.571 274.608 54.571C276.713 54.571 278.596 54.1344 280.257 53.2612C281.359 52.6822 282.305 51.9466 283.109 51.0876V53.9635H291.005V24.5401H283.109V24.5353ZM281.468 44.9751C280.091 46.4558 278.289 47.1961 276.065 47.1961C274.608 47.1961 273.322 46.8639 272.21 46.19C271.098 45.5209 270.228 44.586 269.599 43.3901C268.969 42.1942 268.657 40.7989 268.657 39.2186C268.657 37.6762 268.969 36.3047 269.599 35.1041C270.228 33.9081 271.094 32.9732 272.21 32.3041C273.322 31.6349 274.608 31.298 276.065 31.298C277.56 31.298 278.866 31.6349 279.982 32.3041C281.094 32.9732 281.964 33.9081 282.594 35.1041C283.218 36.3047 283.535 37.6762 283.535 39.2186C283.53 41.5772 282.844 43.4945 281.468 44.9751Z" fill="#F4F5FB"/>
</svg>
