<svg width="213" height="103" viewBox="0 0 213 103" fill="none" xmlns="http://www.w3.org/2000/svg">
<path d="M23.6887 0.152813V21.2396H18.597V8.05318L14.0637 21.2396H9.65342L5.09171 8.02456V21.2396H0V0.152813H6.22741L11.9154 14.8467L17.4897 0.152813H23.6887Z" fill="#FCFCFC"/>
<path d="M48.428 0V21.2394H43.3363V0H48.428Z" fill="#FCFCFC"/>
<path d="M82.6409 17.3657H74.7478L73.4323 21.2396H68.0661L75.7888 0.152813H81.6566L89.3699 21.2396H83.9469L82.6314 17.3657H82.6409ZM81.3254 13.4632L78.7038 5.64872L76.0538 13.4632H81.3254Z" fill="#FCFCFC"/>
<path d="M14.6221 58.0606H6.729L5.41349 61.9345H0.0567825L7.77006 40.8477H13.6378L21.3511 61.9345H15.9281L14.6126 58.0606H14.6221ZM13.3066 54.1581L10.685 46.3436L8.03505 54.1581H13.3066Z" fill="#FCFCFC"/>
<path d="M55.4788 61.9436H50.3871L41.8694 48.9004V61.9436H36.7776V40.7042H41.8694L50.3871 53.862V40.7042H55.4788V61.9436Z" fill="#FCFCFC"/>
<path d="M86.7957 56.8198C85.9155 58.4324 84.6378 59.6918 82.9816 60.5887C81.3254 61.4856 79.3663 61.9436 77.1233 61.9436H69.164V40.7042H77.1233C79.3852 40.7042 81.3443 41.1431 82.9911 42.0305C84.6378 42.9083 85.906 44.1583 86.7862 45.7517C87.6664 47.3547 88.1112 49.1962 88.1112 51.2762C88.1112 53.3563 87.6664 55.2073 86.7862 56.8198H86.7957ZM81.3159 55.7512C82.4232 54.6921 82.9721 53.1941 82.9721 51.2762C82.9721 49.3584 82.4232 47.8604 81.3159 46.8013C80.2181 45.7421 78.666 45.2078 76.6785 45.2078H74.2651V57.3446H76.6785C78.666 57.3446 80.2086 56.8103 81.3159 55.7512Z" fill="#FCFCFC"/>
<path d="M5.56491 81.552L10.7229 97.534L15.8808 81.552H21.3322L13.9975 102.791H7.41988L0.113565 81.552H5.56491Z" fill="#FCFCFC"/>
<path d="M44.7275 90.0823H51.854V93.9561H44.7275V98.6697H52.7437V102.782H39.6358V81.5426H52.7437V85.6264H44.7275V90.0823Z" fill="#FCFCFC"/>
<path d="M81.3727 102.791L76.811 94.7669H75.6469V102.791H70.5552V81.552H79.2527C80.9184 81.552 82.3286 81.8382 83.4832 82.4202C84.6378 83.0023 85.499 83.7942 86.0764 84.8056C86.6537 85.817 86.9376 86.9715 86.9376 88.2787C86.9376 89.8244 86.5117 91.1316 85.6694 92.2098C84.8271 93.288 83.5968 94.0322 81.9878 94.433L86.9944 102.782H81.3632L81.3727 102.791ZM75.6469 91.2557H78.8079C79.8206 91.2557 80.5682 91.0267 81.0414 90.5782C81.5146 90.1298 81.7607 89.4619 81.7607 88.584C81.7607 87.7062 81.5146 87.086 81.032 86.5994C80.5493 86.1223 79.8016 85.8743 78.8079 85.8743H75.6469V91.2557Z" fill="#FCFCFC"/>
<path d="M119.258 99.9086C118.69 100.853 117.857 101.597 116.759 102.16C115.652 102.723 114.317 103 112.756 103C110.39 103 108.44 102.418 106.916 101.254C105.383 100.09 104.55 98.4678 104.418 96.3877H109.841C109.917 97.1892 110.2 97.819 110.693 98.277C111.175 98.7349 111.8 98.9639 112.557 98.9639C113.21 98.9639 113.731 98.7827 114.109 98.4201C114.488 98.0575 114.677 97.5804 114.677 96.9793C114.677 96.4354 114.507 95.987 114.157 95.6244C113.806 95.2618 113.38 94.9661 112.86 94.7371C112.339 94.5081 111.63 94.2314 110.712 93.9069C109.377 93.4489 108.289 93.0005 107.446 92.5711C106.604 92.1418 105.875 91.5025 105.27 90.6533C104.664 89.8041 104.361 88.6973 104.361 87.3328C104.361 86.0734 104.683 84.9761 105.317 84.0601C105.951 83.1346 106.831 82.4285 107.957 81.9419C109.084 81.4553 110.361 81.2072 111.819 81.2072C114.166 81.2072 116.021 81.7701 117.403 82.8865C118.784 84.0124 119.561 85.5486 119.74 87.5141H114.223C114.119 86.8176 113.873 86.2547 113.466 85.8444C113.059 85.4341 112.51 85.2242 111.809 85.2242C111.213 85.2242 110.73 85.3864 110.361 85.7012C109.992 86.0257 109.812 86.4932 109.812 87.1134C109.812 87.6095 109.973 88.0389 110.305 88.3919C110.636 88.745 111.043 89.0312 111.544 89.2507C112.037 89.4701 112.756 89.7564 113.693 90.0903C115.046 90.5483 116.144 91.0063 117.005 91.4548C117.857 91.9032 118.595 92.5616 119.21 93.4203C119.826 94.2791 120.138 95.405 120.138 96.7885C120.138 97.9144 119.854 98.9449 119.286 99.8799L119.258 99.9086Z" fill="#FCFCFC"/>
<path d="M151.332 99.9086C150.764 100.853 149.931 101.597 148.833 102.16C147.726 102.723 146.391 103 144.83 103C142.464 103 140.514 102.418 138.99 101.254C137.457 100.09 136.624 98.4678 136.492 96.3877H141.915C141.991 97.1892 142.274 97.819 142.767 98.277C143.249 98.7349 143.874 98.9639 144.631 98.9639C145.284 98.9639 145.805 98.7827 146.183 98.4201C146.562 98.0575 146.751 97.5804 146.751 96.9793C146.751 96.4354 146.581 95.987 146.23 95.6244C145.88 95.2618 145.454 94.9661 144.934 94.7371C144.413 94.5081 143.704 94.2314 142.786 93.9069C141.451 93.4489 140.363 93.0005 139.52 92.5711C138.678 92.1418 137.949 91.5025 137.344 90.6533C136.738 89.8041 136.435 88.6973 136.435 87.3328C136.435 86.0734 136.757 84.9761 137.391 84.0601C138.025 83.1346 138.905 82.4285 140.031 81.9419C141.158 81.4553 142.435 81.2072 143.893 81.2072C146.24 81.2072 148.095 81.7701 149.477 82.8865C150.858 84.0124 151.635 85.5486 151.814 87.5141H146.297C146.193 86.8176 145.947 86.2547 145.54 85.8444C145.133 85.4341 144.584 85.2242 143.883 85.2242C143.287 85.2242 142.804 85.3864 142.435 85.7012C142.066 86.0257 141.886 86.4932 141.886 87.1134C141.886 87.6095 142.047 88.0389 142.379 88.3919C142.71 88.745 143.117 89.0312 143.618 89.2507C144.111 89.4701 144.83 89.7564 145.767 90.0903C147.12 90.5483 148.218 91.0063 149.079 91.4548C149.931 91.9032 150.669 92.5616 151.284 93.4203C151.9 94.2791 152.212 95.405 152.212 96.7885C152.212 97.9144 151.928 98.9449 151.36 99.8799L151.332 99.9086Z" fill="#FCFCFC"/>
<path d="M173.279 90.0823H180.405V93.9561H173.279V98.6697H181.295V102.782H168.187V81.5426H181.295V85.6264H173.279V90.0823Z" fill="#FCFCFC"/>
<path d="M204.795 98.8603H213V102.791H199.703V81.552H204.795V98.8603Z" fill="#FCFCFC"/>
<path d="M181.295 52.5063H104.342V61.9333H181.295V52.5063Z" fill="#FCFCFC"/>
<path d="M213 52.5063H199.703V61.9333H213V52.5063Z" fill="#FCFCFC"/>
</svg>
