<svg width="231" height="52" viewBox="0 0 231 52" fill="none" xmlns="http://www.w3.org/2000/svg">
<g clip-path="url(#clip0_2204_3793)">
<path d="M139.062 32.7097C139.062 25.9476 136.858 23.1169 130.718 23.1169C124.316 23.1169 122.112 26.2621 122.112 32.7097C122.112 39.1573 124.316 42.3024 130.718 42.3024C136.91 42.25 139.062 39.4194 139.062 32.7097ZM151.604 32.6048C151.604 42.9839 146.881 52 134.969 52C128.777 52 124.631 49.746 122.165 45.8145V50.8468H109.675V0H122.165V19.5524C124.631 15.7258 128.777 13.3669 134.969 13.3669C146.828 13.3669 151.604 22.5403 151.604 32.6048Z" fill="white"/>
<path d="M167.766 28.6212H183.247C182.827 24.0607 180.571 21.597 175.69 21.597C171.177 21.597 168.554 23.3793 167.766 28.6212ZM182.775 39.8914H194.897C193.637 46.1293 188.704 52.0003 175.48 52.0003C160.63 52.0003 155.435 42.5648 155.435 32.6051C155.435 22.0688 161.522 13.3672 175.48 13.3672C190.331 13.3672 195.054 22.7503 195.054 32.8148C195.054 33.968 195.002 35.0688 194.844 35.8551H167.557C168.291 41.6736 171.125 43.6132 175.795 43.6132C179.521 43.6656 181.778 42.0406 182.775 39.8914Z" fill="white"/>
<path d="M196.366 0V9.17339H201.561V50.8468H214.05V0H196.366Z" fill="white"/>
<path d="M231 39.9434H219.245V50.8466H231V39.9434Z" fill="white"/>
<path d="M44.5 0V9.17339H49.6951V50.8468H62.1845V0H44.5Z" fill="white"/>
<path d="M93.6699 50.847H104.428C104.008 47.9115 103.798 44.7664 103.798 40.9922V26.4196C103.798 18.0849 98.1304 13.3672 86.6381 13.3672C75.1459 13.3672 68.4814 18.9236 68.1141 26.6817H80.236C80.2885 23.4841 82.44 21.7019 86.7956 21.7019C90.9412 21.7019 92.2531 23.0123 92.2531 25.214C92.2531 27.1011 91.361 27.9922 88.055 28.5688L79.8162 30.0365C69.7933 31.714 67.3794 35.593 67.3794 41.4115C67.3794 47.8591 72.1547 52.0003 79.4489 52.0003C86.7956 52.0003 91.3085 48.8027 93.1452 43.4559C93.0927 46.339 93.3026 48.7503 93.6699 50.847ZM92.2531 33.9156C92.2531 40.468 88.8946 43.8753 84.1718 43.8753C81.6529 43.8753 79.6588 42.5648 79.6588 39.9962C79.6588 37.5325 80.9707 36.2744 84.4341 35.3833L86.5332 34.8591C88.7897 34.2825 90.4689 33.8107 92.2006 32.5003V33.9156H92.2531Z" fill="white"/>
<path d="M32.2728 40.1533L30.0688 46.7582V50.8469H41.9284V13.9961H30.0688V27.8872C30.0688 38.3187 25.8707 41.6735 19.4686 41.6735C13.8012 41.6735 11.8596 39.105 11.8596 32.3429V13.9961H0V34.23C0 45.7098 5.77238 52.0525 15.2706 52.0525C23.2469 52.0525 27.8648 46.8106 29.3342 40.2058H32.2728V40.1533Z" fill="white"/>
</g>
<defs>
<clipPath id="clip0_2204_3793">
<rect width="231" height="52" fill="white"/>
</clipPath>
</defs>
</svg>
