<svg width="232" height="34" viewBox="0 0 232 34" fill="none" xmlns="http://www.w3.org/2000/svg">
<path d="M20.6184 0.799805H22.4184V9.79981H20.6184V6.19981H18.8184V4.39981H17.0184V2.59981H9.81836V0.799805H18.8184V2.59981H20.6184V0.799805ZM6.21836 2.59981H9.81836V4.39981H8.01836V6.19981H6.21836V9.79981H4.41836V18.7998H6.21836V22.3998H8.01836V24.1998H4.41836V22.3998H2.61836V18.7998H0.818359V9.79981H2.61836V6.19981H4.41836V4.39981H6.21836V2.59981ZM20.6184 18.7998V20.5998H18.8184V18.7998H20.6184ZM18.8184 20.5998V22.3998H17.0184V20.5998H18.8184ZM17.0184 24.1998H13.4184V22.3998H17.0184V24.1998ZM8.01836 25.9998V24.1998H13.4184V25.9998H8.01836Z" fill="black"/>
<path d="M40.4324 11.5998H42.2324V18.7998H40.4324V22.3998H38.6324V24.1998H35.0324V22.3998H36.8324V18.7998H38.6324V11.5998H36.8324V9.79981H31.4324V7.99981H38.6324V9.79981H40.4324V11.5998ZM35.0324 24.1998V25.9998H27.8324V24.1998H26.0324V22.3998H24.2324V15.1998H26.0324V11.5998H27.8324V9.79981H31.4324V11.5998H29.6324V15.1998H27.8324V22.3998H29.6324V24.1998H35.0324Z" fill="black"/>
<path d="M53.0184 13.3998H54.8184V15.1998H53.0184V16.9998H51.2184V20.5998H49.4184V25.9998H45.8184V20.5998H47.6184V15.1998H49.4184V9.79981H47.6184V7.99981H53.0184V13.3998ZM65.6184 13.3998H67.4184V15.1998H63.8184V20.5998H62.0184V24.1998H63.8184V25.9998H58.4184V20.5998H60.2184V15.1998H62.0184V11.5998H60.2184V9.79981H58.4184V7.99981H63.8184V9.79981H65.6184V13.3998ZM76.4184 9.79981H78.2184V15.1998H76.4184V20.5998H74.6184V24.1998H76.4184V25.9998H71.0184V20.5998H72.8184V15.1998H74.6184V11.5998H72.8184V9.79981H71.0184V7.99981H76.4184V9.79981ZM45.8184 11.5998V9.79981H47.6184V11.5998H45.8184ZM56.6184 11.5998V9.79981H58.4184V11.5998H56.6184ZM69.2184 11.5998V9.79981H71.0184V11.5998H69.2184ZM54.8184 13.3998V11.5998H56.6184V13.3998H54.8184ZM67.4184 13.3998V11.5998H69.2184V13.3998H67.4184ZM65.6184 22.3998V24.1998H63.8184V22.3998H65.6184ZM78.2184 22.3998V24.1998H76.4184V22.3998H78.2184Z" fill="black"/>
<path d="M90.8184 0.799805V4.39981H87.2184V0.799805H90.8184ZM89.0184 7.99981V16.9998H87.2184V20.5998H85.4184V24.1998H87.2184V25.9998H81.8184V20.5998H83.6184V15.1998H85.4184V9.79981H83.6184V7.99981H89.0184ZM81.8184 11.5998V9.79981H83.6184V11.5998H81.8184ZM89.0184 22.3998V24.1998H87.2184V22.3998H89.0184Z" fill="black"/>
<path d="M99.8113 13.3998H101.611V15.1998H99.8113V16.9998H98.0113V20.5998H96.2113V25.9998H92.6113V20.5998H94.4113V15.1998H96.2113V9.79981H94.4113V7.99981H99.8113V13.3998ZM110.611 9.79981H112.411V15.1998H110.611V20.5998H108.811V24.1998H110.611V25.9998H105.211V20.5998H107.011V15.1998H108.811V11.5998H107.011V9.79981H105.211V7.99981H110.611V9.79981ZM92.6113 11.5998V9.79981H94.4113V11.5998H92.6113ZM103.411 11.5998V9.79981H105.211V11.5998H103.411ZM101.611 13.3998V11.5998H103.411V13.3998H101.611ZM112.411 22.3998V24.1998H110.611V22.3998H112.411Z" fill="black"/>
<path d="M121.425 18.7998H117.825V11.5998H119.625V9.79981H121.425V7.99981H128.625V9.79981H123.225V11.5998H121.425V18.7998ZM135.825 7.99981V11.5998H132.225V16.9998H130.425V18.7998H128.625V20.5998H121.425V18.7998H126.825V16.9998H128.625V9.79981H132.225V7.99981H135.825ZM116.025 20.5998V18.7998H117.825V24.1998H130.425V25.9998H132.225V29.5998H130.425V31.3998H128.625V33.1998H116.025V31.3998H114.225V27.7998H117.825V29.5998H119.625V31.3998H126.825V29.5998H128.625V25.9998H116.025V24.1998H114.225V20.5998H116.025Z" fill="black"/>
<path d="M161.011 0.799805V2.59981H155.611V4.39981H153.811V7.99981H155.611V9.79981H157.411V11.5998H159.211V13.3998H161.011V15.1998H162.811V16.9998H164.611V22.3998H162.811V24.1998H161.011V25.9998H152.011V24.1998H159.211V22.3998H161.011V18.7998H159.211V16.9998H157.411V15.1998H155.611V13.3998H153.811V11.5998H152.011V9.79981H150.211V4.39981H152.011V2.59981H153.811V0.799805H161.011ZM164.611 0.799805H166.411V4.39981H164.611V0.799805ZM161.011 2.59981H162.811V4.39981H161.011V2.59981ZM162.811 4.39981H164.611V7.99981H162.811V4.39981ZM150.211 18.7998V22.3998H148.411V18.7998H150.211ZM146.611 22.3998H148.411V25.9998H146.611V22.3998ZM150.211 22.3998H152.011V24.1998H150.211V22.3998Z" fill="black"/>
<path d="M184.397 11.5998H186.197V18.7998H184.397V22.3998H182.597V24.1998H178.997V22.3998H180.797V18.7998H182.597V11.5998H180.797V9.79981H175.397V7.99981H182.597V9.79981H184.397V11.5998ZM178.997 24.1998V25.9998H171.797V24.1998H169.997V22.3998H168.197V15.1998H169.997V11.5998H171.797V9.79981H175.397V11.5998H173.597V15.1998H171.797V22.3998H173.597V24.1998H178.997Z" fill="black"/>
<path d="M205.983 11.5998H207.783V18.7998H205.983V22.3998H204.183V24.1998H200.583V22.3998H202.383V18.7998H204.183V11.5998H202.383V9.79981H196.983V7.99981H204.183V9.79981H205.983V11.5998ZM200.583 24.1998V25.9998H193.383V24.1998H191.583V22.3998H189.783V15.1998H191.583V11.5998H193.383V9.79981H196.983V11.5998H195.183V15.1998H193.383V22.3998H195.183V24.1998H200.583Z" fill="black"/>
<path d="M218.569 13.3998H220.369V15.1998H218.569V16.9998H216.769V20.5998H214.969V25.9998H211.369V20.5998H213.169V15.1998H214.969V9.79981H213.169V7.99981H218.569V13.3998ZM229.369 9.79981H231.169V15.1998H229.369V20.5998H227.569V24.1998H229.369V25.9998H223.969V20.5998H225.769V15.1998H227.569V11.5998H225.769V9.79981H223.969V7.99981H229.369V9.79981ZM211.369 11.5998V9.79981H213.169V11.5998H211.369ZM222.169 11.5998V9.79981H223.969V11.5998H222.169ZM220.369 13.3998V11.5998H222.169V13.3998H220.369ZM231.169 22.3998V24.1998H229.369V22.3998H231.169Z" fill="black"/>
</svg>
