<svg width="317" height="35" viewBox="0 0 317 35" fill="none" xmlns="http://www.w3.org/2000/svg">
<path d="M14.041 6.47461C17.3105 6.47461 19.8477 7.33594 21.6523 9.05859C23.457 10.7812 24.459 12.7383 24.6582 14.9297H21.248C20.8613 13.2656 20.0879 11.9473 18.9277 10.9746C17.7793 10.002 16.1621 9.51562 14.0762 9.51562C11.5332 9.51562 9.47656 10.4121 7.90625 12.2051C6.34766 13.9863 5.56836 16.7227 5.56836 20.4141C5.56836 23.4375 6.27148 25.8926 7.67773 27.7793C9.0957 29.6543 11.2051 30.5918 14.0059 30.5918C16.584 30.5918 18.5469 29.6016 19.8945 27.6211C20.6094 26.5781 21.1426 25.207 21.4941 23.5078H24.9043C24.5996 26.2266 23.5918 28.5059 21.8809 30.3457C19.8301 32.5605 17.0645 33.668 13.584 33.668C10.584 33.668 8.06445 32.7598 6.02539 30.9434C3.3418 28.541 2 24.832 2 19.8164C2 16.0078 3.00781 12.8848 5.02344 10.4473C7.20312 7.79883 10.209 6.47461 14.041 6.47461ZM40.3203 6.47461C44.8789 6.47461 48.2539 7.93945 50.4453 10.8691C52.1562 13.1543 53.0117 16.0781 53.0117 19.6406C53.0117 23.4961 52.0332 26.7012 50.0762 29.2559C47.7793 32.2559 44.5039 33.7559 40.25 33.7559C36.2773 33.7559 33.1543 32.4434 30.8809 29.8184C28.8535 27.2871 27.8398 24.0879 27.8398 20.2207C27.8398 16.7285 28.707 13.7402 30.4414 11.2559C32.668 8.06836 35.9609 6.47461 40.3203 6.47461ZM40.6719 30.627C43.7539 30.627 45.9805 29.5254 47.3516 27.3223C48.7344 25.1074 49.4258 22.5645 49.4258 19.6934C49.4258 16.6582 48.6289 14.2148 47.0352 12.3633C45.4531 10.5117 43.2852 9.58594 40.5312 9.58594C37.8594 9.58594 35.6797 10.5059 33.9922 12.3457C32.3047 14.1738 31.4609 16.875 31.4609 20.4492C31.4609 23.3086 32.1816 25.7227 33.623 27.6914C35.0762 29.6484 37.4258 30.627 40.6719 30.627ZM57.1074 7.17773H62.1172L69.5352 29.0098L76.9004 7.17773H81.8574V33H78.5352V17.7598C78.5352 17.2324 78.5469 16.3594 78.5703 15.1406C78.5938 13.9219 78.6055 12.6152 78.6055 11.2207L71.2402 33H67.7773L60.3594 11.2207V12.0117C60.3594 12.6445 60.3711 13.6113 60.3945 14.9121C60.4297 16.2012 60.4473 17.1504 60.4473 17.7598V33H57.1074V7.17773ZM87.9746 7.17773H91.5078V33H87.9746V7.17773ZM97.2031 7.17773H101.334L114.377 28.0957V7.17773H117.699V33H113.779L100.543 12.0996V33H97.2031V7.17773ZM134.381 6.50977C136.807 6.50977 138.904 6.97852 140.674 7.91602C143.24 9.26367 144.811 11.625 145.385 15H141.922C141.5 13.1133 140.627 11.7422 139.303 10.8867C137.979 10.0195 136.309 9.58594 134.293 9.58594C131.902 9.58594 129.887 10.4824 128.246 12.2754C126.617 14.0684 125.803 16.7402 125.803 20.291C125.803 23.3613 126.477 25.8633 127.824 27.7969C129.172 29.7188 131.369 30.6797 134.416 30.6797C136.748 30.6797 138.676 30.0059 140.199 28.6582C141.734 27.2988 142.52 25.1074 142.555 22.084H134.469V19.1836H145.807V33H143.557L142.713 29.6777C141.529 30.9785 140.48 31.8809 139.566 32.3848C138.031 33.252 136.08 33.6855 133.713 33.6855C130.654 33.6855 128.023 32.6953 125.82 30.7148C123.418 28.2305 122.217 24.8203 122.217 20.4844C122.217 16.1602 123.389 12.7207 125.732 10.166C127.959 7.72852 130.842 6.50977 134.381 6.50977ZM170.662 29.2559C171.939 29.2559 172.977 29.1152 173.773 28.834C175.285 28.2949 176.041 27.293 176.041 25.8281C176.041 24.9727 175.666 24.3105 174.916 23.8418C174.166 23.3848 172.988 22.9805 171.383 22.6289L168.641 22.0137C165.945 21.4043 164.082 20.7422 163.051 20.0273C161.305 18.832 160.432 16.9629 160.432 14.4199C160.432 12.0996 161.275 10.1719 162.963 8.63672C164.65 7.10156 167.129 6.33398 170.398 6.33398C173.129 6.33398 175.455 7.06055 177.377 8.51367C179.311 9.95508 180.324 12.0527 180.418 14.8066H175.215C175.121 13.248 174.441 12.1406 173.176 11.4844C172.332 11.0508 171.283 10.834 170.029 10.834C168.635 10.834 167.521 11.1152 166.689 11.6777C165.857 12.2402 165.441 13.0254 165.441 14.0332C165.441 14.959 165.852 15.6504 166.672 16.1074C167.199 16.4121 168.324 16.7695 170.047 17.1797L174.512 18.252C176.469 18.7207 177.945 19.3477 178.941 20.1328C180.488 21.3516 181.262 23.1152 181.262 25.4238C181.262 27.791 180.354 29.7598 178.537 31.3301C176.732 32.8887 174.178 33.668 170.873 33.668C167.498 33.668 164.844 32.9004 162.91 31.3652C160.977 29.8184 160.01 27.6973 160.01 25.002H165.178C165.342 26.1855 165.664 27.0703 166.145 27.6562C167.023 28.7227 168.529 29.2559 170.662 29.2559ZM196.73 33.7207C193.027 33.7207 190.197 32.7129 188.24 30.6973C185.615 28.2246 184.303 24.6621 184.303 20.0098C184.303 15.2637 185.615 11.7012 188.24 9.32227C190.197 7.30664 193.027 6.29883 196.73 6.29883C200.434 6.29883 203.264 7.30664 205.221 9.32227C207.834 11.7012 209.141 15.2637 209.141 20.0098C209.141 24.6621 207.834 28.2246 205.221 30.6973C203.264 32.7129 200.434 33.7207 196.73 33.7207ZM201.846 26.7598C203.1 25.1777 203.727 22.9277 203.727 20.0098C203.727 17.1035 203.094 14.8594 201.828 13.2773C200.574 11.6836 198.875 10.8867 196.73 10.8867C194.586 10.8867 192.875 11.6777 191.598 13.2598C190.32 14.8418 189.682 17.0918 189.682 20.0098C189.682 22.9277 190.32 25.1777 191.598 26.7598C192.875 28.3418 194.586 29.1328 196.73 29.1328C198.875 29.1328 200.58 28.3418 201.846 26.7598ZM224.75 33.7207C221.047 33.7207 218.217 32.7129 216.26 30.6973C213.635 28.2246 212.322 24.6621 212.322 20.0098C212.322 15.2637 213.635 11.7012 216.26 9.32227C218.217 7.30664 221.047 6.29883 224.75 6.29883C228.453 6.29883 231.283 7.30664 233.24 9.32227C235.854 11.7012 237.16 15.2637 237.16 20.0098C237.16 24.6621 235.854 28.2246 233.24 30.6973C231.283 32.7129 228.453 33.7207 224.75 33.7207ZM229.865 26.7598C231.119 25.1777 231.746 22.9277 231.746 20.0098C231.746 17.1035 231.113 14.8594 229.848 13.2773C228.594 11.6836 226.895 10.8867 224.75 10.8867C222.605 10.8867 220.895 11.6777 219.617 13.2598C218.34 14.8418 217.701 17.0918 217.701 20.0098C217.701 22.9277 218.34 25.1777 219.617 26.7598C220.895 28.3418 222.605 29.1328 224.75 29.1328C226.895 29.1328 228.6 28.3418 229.865 26.7598ZM262.262 33H256.848L246.266 14.5957V33H241.221V7.08984H246.898L257.217 25.1777V7.08984H262.262V33Z" fill="black"/>
<path d="M285.333 30.6865V31.8433H288.755V33H302.153V31.8433H305.575V30.6865H307.853V29.5297H308.997V28.373H310.14V27.2162H311.283V26.0595H312.427V24.9027H313.57V23.746H314.713V21.4406H315.857V17.9785H317V12.5043H315.857V10.199H314.713V7.89361H313.57V2.21575H312.499V1.06714H311.356V0H308.232V1.15675H307.089V10.3863H305.913V11.5431H304.77V13.8484H303.626V14.9889H302.483V16.1456H301.34V17.3024H300.196V18.4591H299.053V19.6159H297.91V20.7726H295.631V21.9294H292.209V23.0862H285.366V24.2429H283.087V25.3997H282V29.546H283.055V30.7028H285.333V30.6865ZM309.069 11.2417V2.0121H310.502V3.07924H311.573V9.91385H312.717V11.0706H313.86V13.376H315.003V17.1395H313.86V20.6016H312.717V22.9069H311.573V24.0637H310.43V25.2204H309.287V26.3772H308.143V27.5339H307V28.6907H304.721V29.8474H301.3V31.0042H289.601V29.8474H286.179V28.6907H283.932V26.255H286.211V25.0982H293.055V23.9415H296.477V22.7847H298.755V21.628H299.899V20.4712H301.042V19.3145H302.185V18.1577H303.329V17.001H304.472V15.8605H305.615V14.7038H306.758V12.3984H307.902V11.2417H309.077H309.069Z" fill="black"/>
</svg>
