<?xml version="1.0" encoding="UTF-8"?><svg id="a" xmlns="http://www.w3.org/2000/svg" viewBox="0 0 745.61 243.3"><defs><style>.b{fill:#fff;}</style></defs><g><path class="b" d="M228.01,89.61c0,67.62-48.34,86.62-91.65,86.62-25.99,0-51.69-7.82-69.3-25.71v92.77H0V5.78H67.06V28.7C84.67,10.81,110.37,2.99,136.36,2.99c43.31,0,91.65,19,91.65,86.62Zm-53.95,0c0-24.59-17.04-30.74-46.94-30.74s-46.94,6.15-46.94,30.74,17.05,30.74,46.94,30.74,46.94-6.15,46.94-30.74Z"/><path class="b" d="M304.77,5.78V173.44h-67.06V5.78h67.06Z"/><path class="b" d="M389.75,89.61L312.63,5.78h86.62l38,48.9L475.25,5.78h86.62l-77.12,83.83,77.12,83.83h-86.62l-38-48.9-38,48.9h-86.62l77.12-83.83Z"/></g><rect class="b" x="568.73" y="5.94" width="167.72" height="167.72" transform="translate(742.39 -562.79) rotate(90)"/></svg>