<?xml version="1.0" encoding="UTF-8"?><svg id="a" xmlns="http://www.w3.org/2000/svg" xmlns:xlink="http://www.w3.org/1999/xlink" viewBox="0 0 1176.26 366.03"><defs><style>.e{fill:#fff;}.f{clip-path:url(#c);}.g{clip-path:url(#d);}</style><clipPath id="c"><path class="e" d="M114.86,0c61.46,.3,110.14,51.11,109.83,112.83v251.75H113.09c-61.45-.3-111.04-51.12-110.74-112.82V0H114.86Z"/></clipPath><clipPath id="d"><path class="e" d="M114.86,0c61.46,.3,110.14,51.11,109.83,112.83v251.75H113.09c-61.45-.3-111.04-51.12-110.74-112.82V0H114.86Z"/></clipPath></defs><g id="b"><g><polygon class="e" points="375.33 118.15 404.86 118.15 457.47 263.19 510.41 118.15 539.62 118.15 468.74 303.47 446.21 303.47 375.33 118.15"/><rect class="e" x="560.67" y="118.23" width="30.24" height="30.2"/><path class="e" d="M767.93,253.35c-8.1,15.83-19.67,28.13-34.69,36.92-15.02,8.81-31.63,13.2-49.82,13.2h-45.07v61.67h-28.77V117.83h72.35c26.7,0,49.47,8.96,68.36,26.86,18.86,17.87,28.32,40.07,28.32,66.56,0,14.62-3.56,28.66-10.68,42.09Zm-129.57,23.15h41.21c18.98,0,35.03-6.19,48.18-18.53,13.15-12.36,19.72-27.94,19.72-46.7s-6.42-33.86-19.27-45.83c-12.85-11.93-28.77-17.93-47.73-17.93h-42.11v129Z"/><path class="e" d="M950.6,253.35c-8.11,15.83-19.67,28.13-34.69,36.92-15.04,8.81-31.63,13.2-49.83,13.2h-45.06v61.67h-28.77V117.83h72.36c26.68,0,49.47,8.96,68.35,26.86,18.87,17.87,28.32,40.07,28.32,66.56,0,14.62-3.56,28.66-10.68,42.09Zm-129.58,23.15h41.23c18.97,0,35.04-6.19,48.17-18.53,13.15-12.36,19.72-27.94,19.72-46.7s-6.42-33.86-19.27-45.83c-12.85-11.93-28.77-17.93-47.74-17.93h-42.12v129Z"/><path class="e" d="M1075.14,306.16c-27.28,0-50.81-9.21-70.57-27.6-19.78-18.39-29.65-40.93-29.65-67.61s9.87-49.32,29.65-67.91c19.76-18.59,43.29-27.89,70.57-27.89s51.21,9.29,71.17,27.89c19.97,18.58,29.95,41.22,29.95,67.91s-9.98,49.22-29.95,67.61c-19.96,18.39-43.69,27.6-71.17,27.6Zm0-163.41c-19.57,0-36.37,6.6-50.41,19.86-14.05,13.25-21.04,29.36-21.04,48.34,.19,18.97,7.3,34.88,21.33,47.75,14.04,12.83,30.74,19.25,50.12,19.25s36.42-6.41,50.56-19.25c14.14-12.88,21.3-28.78,21.5-47.75,.2-18.98-6.86-35.09-21.19-48.34-14.34-13.25-31.3-19.86-50.86-19.86Z"/><rect class="e" x="560.67" y="163.49" width="30.24" height="139.98"/></g><g><g><path class="e" d="M114.86,0c61.46,.3,110.14,51.11,109.83,112.83v251.75H113.09c-61.45-.3-111.04-51.12-110.74-112.82V0H114.86Z"/><g class="f"><g><path class="e" d="M114.86,0c61.46,.3,110.14,51.11,109.83,112.83v251.75H113.09c-61.45-.3-111.04-51.12-110.74-112.82V0H114.86Z"/><g class="g"><polygon class="e" points="2.35 0 224.69 0 224.69 364.58 2.35 364.58 2.35 0 2.35 0"/></g></g></g></g><path class="e" d="M230.24,122.9v94.07l58.69,.28c13.98-31.45,27.97-62.9,41.95-94.35h-100.64Z"/><path class="e" d="M230.24,221.84c.06,21.56,.12,43.12,.18,64.68,9.31-.07,18.63-.13,27.94-.2,9.34-21.43,18.68-42.85,28.02-64.28-18.71-.07-37.43-.13-56.14-.2Z"/><path class="e" d="M230.2,291.64c-.39,16.6-.72,33.27-1,50.01-.13,7.83-.25,15.64-.36,23.43l26.24-73.4c-8.29-.01-16.59-.03-24.88-.04Z"/><path class="e" d="M293.22,221.84c-5.13,10.91-10.26,21.81-15.4,32.72-4.82,10.75-9.63,21.49-14.45,32.24,13.41-.08,26.83-.17,40.24-.25,20.18-21.47,40.36-42.94,60.54-64.42-23.64-.1-47.29-.19-70.93-.29Z"/><path class="e" d="M261.24,291.66c-6.25,14.54-12.47,29.28-18.64,44.21-4.06,9.81-8.04,19.57-11.96,29.27,22.77-24.46,45.55-48.92,68.32-73.37l-37.71-.11Z"/><path class="e" d="M305.07,291.64c-23.34,24.48-46.69,48.96-70.03,73.44,41.92-24.42,83.85-48.84,125.77-73.27-18.58-.06-37.16-.11-55.74-.17Z"/></g></g></svg>