<svg width="488" height="468" viewBox="0 0 488 468" fill="none" xmlns="http://www.w3.org/2000/svg">
<path d="M450.763 121.34C450.263 120.593 449.638 119.847 449.138 119.349C443.886 112.754 440.636 102.178 439.511 87.9929C438.885 82.0203 438.385 76.0476 437.885 70.075C437.26 62.4848 436.635 54.7702 435.635 47.0556L435.26 44.3181C434.009 33.7416 432.384 20.6766 425.258 11.9665C419.756 5.24731 412.755 1.26557 405.128 0.394565C392 -1.09859 381.498 1.63886 373.997 8.73134C360.869 21.0498 361.869 41.954 361.994 42.7006V109.768C361.244 112.505 362.494 115.741 365.745 118.727C368.621 121.464 372.871 123.953 377.622 125.819C381.998 127.437 386.249 128.308 389.875 128.308C395.126 128.308 399.002 126.566 400.252 123.331C400.627 122.211 400.752 120.967 400.377 119.722C400.377 113.376 400.377 106.906 400.502 100.56C400.627 82.0202 400.627 62.8581 400.502 43.9449C400.502 39.9631 401.377 39.9631 401.753 39.9631C403.003 39.9631 403.378 40.0875 403.378 40.212C404.378 41.083 404.378 46.8067 404.378 50.664C404.378 57.0099 404.378 63.4803 404.503 69.8262C404.628 78.5362 404.628 87.6196 404.628 96.4541C404.503 113.376 407.379 126.068 413.755 136.023C416.631 140.626 420.632 144.235 424.382 147.843C426.133 149.461 428.008 151.203 429.759 153.069C434.384 157.922 437.635 163.77 440.511 172.107C445.637 187.163 448.638 207.196 447.887 222.003C447.137 224.741 448.387 227.976 451.638 231.087C454.514 233.824 458.765 236.313 463.516 238.179C467.767 239.797 472.142 240.668 475.893 240.668C476.268 240.668 476.768 240.668 477.144 240.668C481.895 240.419 485.02 238.677 486.145 235.815C486.395 235.068 486.521 234.197 486.521 233.326C495.397 175.84 461.89 134.903 450.763 121.34ZM445.012 170.365C441.886 161.282 438.26 154.936 433.134 149.461C431.384 147.595 429.383 145.728 427.508 144.111C423.757 140.626 420.257 137.391 417.756 133.285C412.005 124.077 409.254 112.381 409.379 96.3296C409.379 87.3707 409.379 78.4118 409.254 69.5773C409.254 63.2314 409.129 56.7611 409.129 50.4152C409.129 42.2028 408.879 38.5944 406.629 36.4791C405.003 34.9859 403.003 34.7371 401.377 34.8615C398.502 34.8615 395.251 36.4791 395.251 44.0693C395.376 62.8581 395.251 82.0202 395.251 100.56C395.251 104.666 395.251 108.648 395.251 112.754C392.501 110.515 388.875 108.399 384.624 106.782C379.873 105.04 374.997 104.169 370.996 104.418C369.371 104.542 367.995 104.791 366.87 105.164V42.7006C366.87 42.4517 365.87 23.2896 377.372 12.5886C383.749 6.61603 392.876 4.25188 404.503 5.6206C410.88 6.36718 416.631 9.72677 421.382 15.4505C427.633 23.0407 429.133 35.3592 430.259 45.1891L430.634 47.9266C431.509 55.5168 432.259 63.2314 432.884 70.6972C433.384 76.5454 433.884 82.6424 434.51 88.615C435.76 103.92 439.26 114.994 445.262 122.584C445.762 123.206 446.262 123.829 446.887 124.7C457.139 137.267 487.521 174.471 482.02 225.985C479.144 223.248 475.018 220.883 470.267 219.141C465.516 217.399 460.64 216.528 456.639 216.777C455.139 216.902 453.764 217.151 452.638 217.524C452.763 202.343 449.888 184.675 445.012 170.365ZM476.518 235.442C473.268 235.566 469.017 234.82 464.891 233.326C460.765 231.833 457.139 229.594 454.764 227.354C452.763 225.363 452.138 223.87 452.388 223.123C452.638 222.377 454.139 221.63 457.014 221.381C460.265 221.257 464.516 222.003 468.642 223.496C472.768 224.99 476.393 227.229 478.769 229.469C480.269 230.838 480.894 232.082 481.144 232.953C481.144 233.202 481.269 233.451 481.144 233.575V233.7C480.769 234.446 479.269 235.317 476.518 235.442Z" fill="white"/>
<path d="M463.89 248.88C459.264 246.889 454.513 245.769 450.388 245.894C447.512 245.894 445.261 246.516 443.636 247.636C442.386 248.258 418.631 260.825 391.375 262.691C383.498 250.124 374.496 240.045 365.62 231.957C367.62 229.22 369.62 226.483 371.496 223.621C375.122 218.27 378.497 212.298 381.498 206.823C390 191.145 396.626 174.222 401.127 156.304C402.127 153.567 401.002 150.207 397.876 146.972C395.126 144.11 391 141.373 386.374 139.382C381.748 137.391 376.872 136.271 372.871 136.396C368.12 136.396 364.869 138.013 363.619 140.875C353.492 165.014 339.739 186.416 324.736 205.081C321.36 203.588 318.11 202.468 314.734 201.721C304.607 199.481 293.979 202.219 286.228 209.062C278.851 215.657 275.225 225.114 276.351 234.944C277.226 242.036 279.976 247.636 281.227 249.875C247.97 278.867 218.964 294.297 218.338 294.545C206.086 301.887 192.458 308.357 178.08 314.081L169.953 308.108C154.075 296.785 131.195 299.523 130.195 299.647C93.0618 305.62 81.6844 334.861 79.434 341.953C40.8008 349.543 11.4195 352.405 10.7944 352.53C5.16822 352.53 0.542243 360.991 0.042137 372.189C-0.457969 383.637 3.54288 392.596 9.41912 392.845C9.54415 392.845 9.54415 392.845 9.66918 392.845C10.0443 392.845 10.4193 392.845 10.7944 392.72C30.6736 391.103 53.9286 388.49 78.9338 384.135C79.0589 402.55 87.6857 422.459 101.939 436.893C126.319 461.53 157.951 468 187.832 468C199.209 468 210.462 467.005 220.839 465.885C273.1 459.663 319.11 444.358 357.618 420.344C363.619 416.611 369.37 412.629 374.872 408.523C375.872 408.274 376.747 407.776 377.497 407.03C381.748 402.923 378.747 393.342 370.496 384.881C362.369 376.544 353.117 373.309 348.741 377.042C313.358 400.808 195.584 441.994 150.199 421.215C135.696 414.62 126.694 406.159 123.443 396.08C120.193 386.125 123.693 377.291 124.944 374.678C141.447 370.696 158.201 365.968 175.079 360.369L228.215 399.688C229.466 400.808 231.091 401.43 233.091 401.43C237.717 401.43 243.844 398.444 249.595 393.094C258.097 385.254 261.473 376.171 257.472 371.941C256.847 371.194 255.971 370.696 255.096 370.447L218.588 343.819C253.846 328.515 287.978 308.606 317.984 282.973C331.112 293.301 351.742 296.785 366.87 297.905C368.62 301.265 370.246 304.873 371.871 308.606C371.996 308.855 381.123 337.971 370.996 355.018C368.995 357.258 368.87 360.742 370.496 364.972C371.996 368.83 374.747 372.936 378.372 376.669C384.249 382.641 390.625 386.001 395.501 386.001C397.501 386.001 399.127 385.379 400.377 384.259C401.002 383.637 401.377 382.89 401.752 382.144C415.755 358.875 413.505 335.483 413.38 334.612C412.63 320.8 410.379 308.233 407.003 297.034C447.637 292.555 469.392 275.259 475.893 269.037C477.018 268.291 478.018 267.42 478.518 266.176C480.894 260.825 474.518 253.359 463.89 248.88ZM365.62 148.963C368.12 152.323 372.621 155.682 378.497 158.046C383.123 160.037 387.749 161.033 391.75 161.033C391.875 161.033 391.875 161.033 392 161.033C393 161.033 394.001 160.908 394.876 160.784C390.625 176.089 384.624 190.771 377.247 204.334C374.246 209.809 370.996 215.533 367.495 220.759C365.745 223.372 363.869 225.985 361.994 228.598C347.991 216.528 335.113 209.933 329.487 207.32C343.115 190.025 355.868 170.614 365.62 148.963ZM5.16822 372.314C5.5433 362.608 9.2941 357.382 11.0445 357.382C12.7948 357.507 16.0455 362.982 15.6704 372.812C15.5454 377.167 14.5452 381.273 13.1699 384.259C12.0447 386.623 10.7944 387.619 10.0443 387.743C9.91923 387.743 9.91923 387.743 9.7942 387.743C7.91881 387.619 4.79314 382.019 5.16822 372.314ZM148.073 425.694C157.45 429.925 169.578 431.791 183.206 431.791C236.467 431.791 313.609 404.043 346.741 384.135C347.366 388.614 350.491 394.213 355.492 399.315C359.118 403.048 363.244 405.91 366.995 407.527C367.12 407.527 367.245 407.652 367.37 407.652C363.369 410.514 359.118 413.375 354.867 415.989C316.984 439.63 271.725 454.686 220.214 460.783C183.706 465.138 137.696 465.885 105.439 433.284C91.8116 419.473 83.6849 400.435 83.8099 383.139C95.1873 381.148 106.815 378.784 118.692 376.047C117.067 380.775 115.567 388.614 118.317 397.449C122.318 409.02 132.195 418.477 148.073 425.694ZM17.1708 387.121C17.2958 386.872 17.4208 386.623 17.5458 386.374C19.2962 382.766 20.4215 378.038 20.5465 372.936C20.7965 366.217 19.5463 360.369 17.2958 356.636C27.548 355.516 50.3028 352.53 78.1837 347.179V347.303L81.4344 346.557C94.6872 343.944 109.065 340.709 123.818 336.851L125.944 336.354C126.694 336.105 127.569 335.98 128.319 335.732C132.195 334.861 135.696 334.736 138.947 335.234C142.072 335.732 144.698 337.722 147.448 339.838C147.948 340.211 148.574 340.709 149.074 341.082L170.078 356.636C114.316 374.927 59.3047 383.264 17.1708 387.121ZM253.096 374.927C253.221 374.927 253.346 374.927 253.346 375.051C253.596 375.176 253.721 375.176 253.846 375.3C255.096 376.544 253.471 382.766 246.219 389.485C238.968 396.204 232.591 397.324 231.466 395.955C230.216 394.711 231.841 388.49 239.093 381.77C244.594 376.669 249.72 374.802 252.221 374.802C252.596 374.802 252.846 374.802 253.096 374.927ZM247.345 370.821C243.719 372.065 239.593 374.554 235.717 378.162C230.716 382.89 227.465 387.992 226.465 392.223L152.199 337.1C151.699 336.727 151.074 336.229 150.574 335.856C150.074 335.483 149.574 335.109 149.074 334.736C148.949 334.736 148.949 334.612 148.824 334.612C147.198 333.367 145.448 332.248 143.448 331.377C142.322 330.879 141.197 330.506 139.822 330.381C135.946 329.759 131.945 330.008 127.319 331.003C126.444 331.252 125.569 331.377 124.819 331.625L122.818 332.123L85.3102 340.709C88.6859 331.625 99.9383 309.601 131.07 304.624C131.32 304.624 153.075 302.011 167.203 312.214L247.345 370.821ZM213.962 340.211L182.956 317.44C196.459 311.966 209.336 305.744 220.964 298.776C221.589 298.403 257.347 279.489 295.48 243.654L296.605 242.783C297.355 242.409 303.856 239.796 318.86 246.267C318.985 246.267 326.736 249.502 336.863 258.088C301.731 294.794 258.722 321.173 213.962 340.211ZM321.86 279.489C328.237 273.766 334.488 267.918 340.489 261.572C347.991 268.664 356.493 278.618 364.119 292.43C350.366 291.186 333.113 287.826 321.86 279.489ZM396.876 380.651C395.251 382.144 388.499 379.904 381.873 373.185C378.747 369.95 376.247 366.341 375.122 363.106C373.996 360.244 374.246 358.502 374.872 358.004C375.372 357.507 377.122 357.258 379.998 358.378C383.123 359.622 386.749 362.235 389.875 365.47C396.501 372.314 398.502 379.157 396.876 380.651ZM407.753 326.275C407.879 326.897 407.879 327.519 407.879 328.141C408.129 330.381 408.254 332.745 408.379 335.109C408.379 335.358 410.129 353.649 400.877 373.185C399.377 369.701 396.876 365.843 393.25 362.235C389.625 358.502 385.499 355.64 381.748 354.023C380.248 353.401 378.747 353.027 377.497 352.903C384.999 333.99 376.872 308.233 376.497 306.864C375.872 305.371 375.247 303.878 374.621 302.384C373.996 300.891 373.371 299.523 372.621 298.154C371.746 296.412 370.871 294.67 369.996 292.928C368.995 291.061 367.995 289.319 366.995 287.577C366.87 287.329 366.745 287.08 366.62 286.831C364.619 283.347 362.494 280.112 360.493 277.125C360.368 277.001 360.243 276.752 360.118 276.628C357.993 273.641 355.868 270.904 353.742 268.415C353.617 268.291 353.617 268.166 353.492 268.166C352.492 266.922 351.367 265.678 350.366 264.558C348.241 262.194 345.99 259.954 343.99 257.963C342.74 256.719 341.489 255.723 340.364 254.604C329.612 245.396 321.36 242.036 320.735 241.787C319.61 241.29 318.61 240.916 317.609 240.543C317.234 240.419 316.984 240.294 316.609 240.17C315.984 239.921 315.359 239.672 314.609 239.548C314.234 239.423 313.859 239.299 313.484 239.174C312.983 239.05 312.358 238.801 311.858 238.677C311.483 238.552 311.108 238.428 310.858 238.428C310.358 238.303 309.858 238.179 309.358 238.054C308.983 237.93 308.733 237.93 308.357 237.806C307.857 237.681 307.482 237.681 306.982 237.557C306.732 237.557 306.357 237.432 306.107 237.432C305.607 237.308 305.232 237.308 304.732 237.308C304.482 237.308 304.232 237.308 304.107 237.183C297.355 236.561 294.229 238.428 293.729 238.677L284.852 245.769C283.602 243.28 281.977 239.174 281.477 234.197C280.477 225.985 283.602 218.146 289.729 212.546C296.23 206.698 305.232 204.459 313.734 206.325C314.859 206.574 316.109 206.947 317.234 207.32C317.484 207.445 317.734 207.445 317.984 207.569C317.984 207.569 322.485 209.062 327.361 211.302C330.112 212.546 332.738 214.164 335.613 215.906C344.615 221.257 358.368 230.34 371.371 244.4L371.496 244.525C372.371 245.52 373.371 246.64 374.246 247.636C374.246 247.76 374.371 247.76 374.371 247.884C384.374 259.456 393.751 274.139 400.127 292.306C400.127 292.43 400.127 292.43 400.252 292.555C401.252 295.292 402.002 298.029 402.877 300.891C403.002 301.389 403.128 302.011 403.378 302.509C403.753 303.878 404.128 305.371 404.503 306.864C404.878 308.233 405.128 309.601 405.378 310.97C405.628 311.966 405.753 312.837 405.878 313.832C406.128 315.201 406.378 316.569 406.628 317.938C406.753 318.56 406.878 319.307 407.003 319.929C407.253 322.044 407.503 324.035 407.753 326.275ZM405.378 292.181C402.252 283.098 398.502 274.886 394.376 267.544C414.63 265.678 432.509 258.461 441.011 254.479C442.136 259.083 447.762 264.309 455.889 267.669C459.514 269.162 463.14 270.157 466.266 270.531C456.139 277.872 436.385 288.822 405.378 292.181Z" fill="white"/>
</svg>
