<svg width="784" height="486" viewBox="0 0 784 486" fill="none" xmlns="http://www.w3.org/2000/svg">
<g filter="url(#filter0_d_1653_3608)">
<path d="M345.922 355.668C284.498 434.584 220.823 474.202 154.254 474.202C127.562 474.202 103.442 468.082 81.574 455.52C59.7058 443.28 42.983 424.92 31.7273 400.763C23.3659 383.047 19.1852 363.721 19.1852 342.784C19.1852 315.084 25.6171 287.383 38.4807 260.004C50.058 235.202 65.4944 212.977 84.7899 193.973C105.693 173.358 129.169 157.575 155.862 146.946C183.197 135.995 211.175 130.519 240.119 130.519C214.713 169.171 202.171 204.925 202.171 237.779C202.171 265.802 210.854 287.705 228.22 303.81C245.586 319.915 267.454 327.968 294.146 327.968C313.12 327.968 329.843 322.492 343.671 311.863C330.486 319.593 315.049 323.458 297.04 323.458C243.978 318.627 214.07 289.315 214.07 237.779C214.07 204.925 228.22 169.171 256.52 130.841C291.573 133.096 328.878 142.437 368.755 158.864C332.737 139.86 297.362 127.942 262.63 122.788C271.956 111.837 280.961 102.174 289.644 93.7992C352.676 35.4986 422.461 6.50941 499.321 6.50941C543.058 6.50941 578.754 16.1725 606.09 35.1765L599.015 39.686C574.895 55.7911 544.987 83.814 508.969 123.755C484.528 150.489 454.942 191.396 419.888 245.832C385.156 300.267 360.394 336.987 345.922 355.668ZM548.525 231.015C574.574 246.798 587.759 270.956 587.759 303.488C587.759 327.001 581.327 350.193 568.142 373.062C554.957 395.931 536.304 414.935 512.185 430.396C488.066 446.179 461.695 453.91 433.073 453.91C399.949 453.91 374.222 446.823 356.213 432.329L355.57 433.295C378.081 450.367 409.919 458.741 450.761 458.741C498.678 458.741 541.771 440.703 568.463 413.647C595.155 386.912 610.913 352.125 610.913 317.338C610.913 280.941 593.869 248.73 560.102 229.726C594.512 224.251 621.526 211.689 641.143 191.718C660.76 171.426 670.408 148.879 670.408 123.433C670.408 88.6455 652.399 55.7911 617.988 33.566C645.967 17.783 672.981 9.73043 699.673 9.73043C728.294 9.73043 755.63 20.3598 781.357 41.2965L782 40.3302C754.022 18.1051 729.581 6.83153 699.673 6.83153C671.051 6.83153 642.429 14.8841 613.808 30.6671C581.649 11.6631 543.379 2 499.321 2C415.064 2 342.385 29.3787 280.961 84.4582C268.097 95.7318 256.841 107.972 246.872 121.178C238.189 120.856 232.079 120.534 227.898 120.534C202.492 120.534 176.765 125.365 151.359 134.706C120.165 145.98 98.6183 159.508 74.1774 183.022C53.2739 203.314 36.5512 227.15 24.6523 253.884C12.1102 281.907 6 309.93 6 338.275C6 362.11 11.1455 384.658 21.1148 406.239C40.0887 440.703 74.1774 463.573 110.196 472.914C128.205 477.745 147.5 480 167.76 480C207.959 480 245.907 471.303 281.925 453.91C318.265 436.516 346.565 412.036 367.147 380.47C381.94 357.923 405.095 317.982 436.932 260.648C468.77 203.314 495.14 160.474 516.044 132.451C545.952 92.1887 574.895 62.5552 602.874 42.907L610.27 38.0755C635.998 57.7237 648.861 84.1361 648.861 117.313C648.861 142.437 639.857 165.306 621.526 186.243C603.517 206.857 580.041 219.741 551.097 224.895C527.621 214.265 504.788 208.79 481.955 208.79C473.915 208.79 469.413 211.689 469.413 215.232C469.413 220.385 475.845 224.573 488.387 227.472C501.251 230.371 514.114 231.981 526.656 231.981C534.053 231.981 541.45 231.659 548.525 231.015ZM526.335 227.472C513.471 227.472 501.572 226.505 490.638 224.251C480.026 221.996 474.559 219.097 474.559 215.554C474.559 213.299 477.131 212.011 481.955 212.011C500.286 212.011 519.903 216.842 540.485 226.505C535.983 227.15 531.159 227.472 526.335 227.472Z" fill="#BCE5A1"/>
</g>
<defs>
<filter id="filter0_d_1653_3608" x="0" y="0" width="784" height="486" filterUnits="userSpaceOnUse" color-interpolation-filters="sRGB">
<feFlood flood-opacity="0" result="BackgroundImageFix"/>
<feColorMatrix in="SourceAlpha" type="matrix" values="0 0 0 0 0 0 0 0 0 0 0 0 0 0 0 0 0 0 127 0" result="hardAlpha"/>
<feOffset dx="-2" dy="2"/>
<feGaussianBlur stdDeviation="2"/>
<feComposite in2="hardAlpha" operator="out"/>
<feColorMatrix type="matrix" values="0 0 0 0 0.587201 0 0 0 0 0.7125 0 0 0 0 0.504687 0 0 0 1 0"/>
<feBlend mode="normal" in2="BackgroundImageFix" result="effect1_dropShadow_1653_3608"/>
<feBlend mode="normal" in="SourceGraphic" in2="effect1_dropShadow_1653_3608" result="shape"/>
</filter>
</defs>
</svg>
