<svg width="802" height="494" viewBox="0 0 802 494" fill="none" xmlns="http://www.w3.org/2000/svg">
<g clip-path="url(#clip0_1653_3607)">
<g filter="url(#filter0_d_1653_3607)">
<path d="M367.311 367.507C303.829 449.063 238.021 490.008 169.221 490.008C141.634 490.008 116.707 483.683 94.1061 470.701C71.5052 458.051 54.2221 439.077 42.5893 414.111C33.9478 395.802 29.627 375.829 29.627 354.191C29.627 325.563 36.2743 296.935 49.569 268.64C61.5342 243.008 77.4878 220.039 97.4298 200.399C119.034 179.094 143.296 162.783 170.883 151.798C199.134 140.48 228.05 134.821 257.963 134.821C231.706 174.767 218.743 211.717 218.743 245.671C218.743 274.632 227.717 297.268 245.665 313.912C263.613 330.557 286.214 338.879 313.8 338.879C333.41 338.879 350.693 333.22 364.985 322.234C351.358 330.224 335.404 334.218 316.792 334.218C261.951 329.225 231.041 298.933 231.041 245.671C231.041 211.717 245.665 174.767 274.913 135.154C311.141 137.484 349.696 147.137 390.909 164.115C353.684 144.474 317.124 132.158 281.228 126.832C290.867 115.513 300.173 105.527 309.147 96.8719C374.291 36.6199 446.414 6.66036 525.85 6.66036C571.052 6.66036 607.945 16.6469 636.196 36.287L628.884 40.9474C603.956 57.5916 573.046 86.5525 535.821 127.83C510.561 155.46 479.983 197.736 443.756 253.993C407.86 310.251 382.268 348.199 367.311 367.507ZM576.702 238.681C603.624 254.992 617.251 279.958 617.251 313.579C617.251 337.88 610.603 361.848 596.976 385.482C583.349 409.117 564.072 428.757 539.145 444.736C514.217 461.047 486.963 469.036 457.383 469.036C423.149 469.036 396.56 461.713 377.947 446.733L377.282 447.732C400.548 465.375 433.452 474.03 475.663 474.03C525.185 474.03 569.722 455.388 597.309 427.426C624.895 399.796 641.181 363.845 641.181 327.893C641.181 290.278 623.566 256.989 588.667 237.349C624.23 231.69 652.149 218.708 672.424 198.069C692.698 177.097 702.669 153.795 702.669 127.497C702.669 91.5458 684.056 57.5916 648.493 34.6226C677.409 18.3113 705.328 9.98919 732.914 9.98919C762.495 9.98919 790.746 20.9744 817.335 42.6119L818 41.6132C789.084 18.6442 763.824 6.99326 732.914 6.99326C703.334 6.99326 673.753 15.3153 644.172 31.6267C610.936 11.9865 571.384 2 525.85 2C438.77 2 363.655 30.2951 300.173 87.2183C286.879 98.8692 275.246 111.519 264.942 125.167C255.969 124.834 249.654 124.501 245.333 124.501C219.076 124.501 192.487 129.495 166.23 139.148C133.99 150.799 111.722 164.78 86.4617 189.081C64.8579 210.053 47.5748 234.686 35.2773 262.315C22.315 291.276 16 320.237 16 349.531C16 374.164 21.3179 397.466 31.6212 419.77C51.2308 455.388 86.4617 479.023 123.687 488.677C142.299 493.67 162.241 496 183.18 496C224.726 496 263.945 487.012 301.17 469.036C338.728 451.061 367.976 425.761 389.247 393.139C404.536 369.837 428.467 328.559 461.371 269.306C494.275 210.053 521.529 165.779 543.133 136.818C574.043 95.2075 603.956 64.5822 632.872 44.2763L640.516 39.283C667.106 59.5889 680.4 86.8854 680.4 121.172C680.4 147.137 671.094 170.772 652.149 192.41C633.537 213.714 609.274 227.03 579.361 232.356C555.098 221.371 531.5 215.712 507.902 215.712C499.593 215.712 494.94 218.708 494.94 222.369C494.94 227.695 501.587 232.023 514.55 235.019C527.844 238.015 541.139 239.679 554.101 239.679C561.746 239.679 569.39 239.346 576.702 238.681ZM553.769 235.019C540.474 235.019 528.177 234.02 516.876 231.69C505.908 229.36 500.258 226.364 500.258 222.702C500.258 220.372 502.917 219.04 507.902 219.04C526.847 219.04 547.121 224.034 568.393 234.02C563.74 234.686 558.754 235.019 553.769 235.019Z" fill="#BCE5A1" fill-opacity="0.3" shape-rendering="crispEdges"/>
</g>
</g>
<defs>
<filter id="filter0_d_1653_3607" x="10" y="0" width="802" height="494" filterUnits="userSpaceOnUse" color-interpolation-filters="sRGB">
<feFlood flood-opacity="0" result="BackgroundImageFix"/>
<feColorMatrix in="SourceAlpha" type="matrix" values="0 0 0 0 0 0 0 0 0 0 0 0 0 0 0 0 0 0 127 0" result="hardAlpha"/>
<feOffset dx="-2" dy="2"/>
<feGaussianBlur stdDeviation="2"/>
<feComposite in2="hardAlpha" operator="out"/>
<feColorMatrix type="matrix" values="0 0 0 0 0.587201 0 0 0 0 0.7125 0 0 0 0 0.504687 0 0 0 1 0"/>
<feBlend mode="normal" in2="BackgroundImageFix" result="effect1_dropShadow_1653_3607"/>
<feBlend mode="normal" in="SourceGraphic" in2="effect1_dropShadow_1653_3607" result="shape"/>
</filter>
<clipPath id="clip0_1653_3607">
<rect width="802" height="494" fill="white"/>
</clipPath>
</defs>
</svg>
