<svg width="496" height="476" viewBox="0 0 496 476" fill="none" xmlns="http://www.w3.org/2000/svg">
<path d="M491.731 270.067C491.672 269.091 491.572 268.115 491.473 267.139C491.413 266.621 491.354 266.123 491.314 265.606C491.155 264.271 490.975 262.957 490.796 261.642C490.777 261.463 490.737 261.304 490.717 261.144C490.578 260.288 490.438 259.412 490.299 258.555C490.041 257.101 489.762 255.667 489.464 254.233C489.364 253.755 489.265 253.297 489.165 252.839C488.748 250.947 488.27 249.075 487.753 247.243C487.634 246.804 487.494 246.366 487.375 245.908C487.116 244.992 486.838 244.096 486.539 243.18C486.4 242.722 486.241 242.283 486.102 241.825C484.311 236.408 482.163 231.17 479.657 226.151C479.239 225.335 478.841 224.518 478.423 223.741C477.468 221.949 476.494 220.176 475.459 218.443C475.061 217.766 474.644 217.089 474.226 216.432C474.186 216.372 474.166 216.312 474.126 216.253C473.749 215.655 473.371 215.058 472.993 214.46C472.515 213.703 472.018 212.966 471.501 212.229C471.322 211.971 471.162 211.712 470.983 211.473C470.944 211.413 470.904 211.333 470.844 211.273C470.426 210.676 470.009 210.098 469.591 209.521C466.786 205.657 463.762 201.953 460.54 198.447C458.411 196.137 457.039 193.229 456.681 190.122L453.677 164.032L450.216 131.687L450.036 130.054V130.034C449.201 124.059 446.297 118.742 442.079 114.838L442.099 114.818L355.865 13.3835C355.865 13.3835 339.215 2.3099 329.507 4.22188C319.799 6.13386 297.44 3.70406 305.198 59.51C305.198 59.51 316.736 129.178 251.747 186.258C251.747 186.258 200.444 245.669 101.06 268.513C101.06 268.513 74.1453 278.95 48.0064 277.575C21.8675 276.201 -14.8344 296.496 15.3427 341.049C40.3676 378.014 82.0228 417.807 120.714 441.647C121.569 442.185 122.465 442.683 123.38 443.121C124.434 443.639 125.488 444.137 126.543 444.635C127.497 445.073 128.452 445.551 129.387 445.989C130.342 446.447 131.297 446.885 132.272 447.323C133.246 447.762 134.201 448.2 135.176 448.618C136.151 449.036 137.125 449.474 138.1 449.873C139.075 450.291 140.069 450.709 141.044 451.108C142.039 451.506 143.034 451.904 144.008 452.303C145.003 452.701 145.997 453.079 147.012 453.478C148.007 453.856 149.021 454.234 150.036 454.613C151.05 454.991 152.065 455.35 153.079 455.708C154.094 456.067 155.108 456.425 156.143 456.784C157.177 457.142 158.192 457.481 159.226 457.819C160.261 458.158 161.295 458.497 162.329 458.815C163.364 459.134 164.418 459.473 165.452 459.791C166.507 460.11 167.541 460.409 168.596 460.727C169.65 461.026 170.704 461.325 171.758 461.624C172.813 461.922 173.887 462.201 174.941 462.48C176.015 462.759 177.07 463.038 178.144 463.316C179.218 463.595 180.292 463.854 181.367 464.113C182.441 464.372 183.515 464.631 184.609 464.87C185.703 465.109 186.777 465.348 187.871 465.587C188.966 465.826 190.06 466.045 191.154 466.264C192.248 466.483 193.342 466.702 194.456 466.901C195.55 467.12 196.664 467.32 197.758 467.519C198.872 467.718 199.966 467.897 201.08 468.096C202.194 468.276 203.308 468.455 204.422 468.634C205.536 468.813 206.67 468.973 207.784 469.132C208.918 469.291 210.032 469.451 211.166 469.59C212.3 469.73 213.434 469.869 214.548 470.008C215.681 470.148 216.815 470.267 217.949 470.387C219.083 470.506 220.237 470.626 221.371 470.725C222.524 470.825 223.658 470.924 224.812 471.024C225.966 471.124 227.12 471.203 228.254 471.283C229.407 471.363 230.561 471.442 231.715 471.502C232.869 471.562 234.042 471.622 235.196 471.681C236.35 471.741 237.523 471.781 238.677 471.821C239.851 471.861 241.005 471.9 242.178 471.92C243.352 471.94 244.526 471.96 245.699 471.98C246.873 472 248.047 472 249.22 472C363.901 472 460.023 406.535 485.465 318.504C485.465 318.484 485.465 318.484 485.485 318.464C485.724 317.667 485.943 316.851 486.161 316.054C486.181 315.954 486.221 315.875 486.241 315.775C486.42 315.138 486.579 314.501 486.738 313.883C487.037 312.708 487.335 311.533 487.614 310.358C487.793 309.621 487.952 308.904 488.111 308.167C488.23 307.59 488.37 307.012 488.489 306.414C488.588 305.976 488.668 305.518 488.767 305.08C489.125 303.327 489.444 301.595 489.742 299.842C490.12 297.591 490.458 295.341 490.737 293.07C490.876 292.035 490.995 290.999 491.095 289.944C491.135 289.565 491.174 289.187 491.214 288.808C491.274 288.171 491.334 287.534 491.393 286.876C491.473 286.02 491.552 285.144 491.612 284.287C491.612 284.128 491.632 283.969 491.652 283.809C491.712 283.152 491.751 282.475 491.771 281.818C491.791 281.459 491.811 281.101 491.831 280.742C491.871 280.125 491.891 279.507 491.91 278.89C491.91 278.79 491.91 278.691 491.91 278.591C491.91 278.173 491.95 277.755 491.95 277.317C492.09 274.887 491.91 272.477 491.731 270.067Z" fill="black"/>
<path d="M235.315 200.679C234.957 200.997 234.579 201.316 234.221 201.635C234.579 201.336 234.937 201.017 235.315 200.679Z" fill="black"/>
<path d="M248.683 188.927C247.271 190.182 245.938 191.337 244.645 192.472C246.197 191.138 247.569 189.923 248.683 188.927Z" fill="black"/>
<path d="M244.168 192.911C240.746 195.919 237.802 198.508 235.296 200.699C238.339 198.03 241.462 195.281 244.168 192.911Z" fill="black"/>
<path d="M249.32 188.389C249.121 188.569 248.922 188.748 248.703 188.927C248.902 188.748 249.101 188.569 249.32 188.389Z" fill="black"/>
<path d="M244.665 192.472C244.506 192.611 244.347 192.751 244.187 192.89C244.327 192.77 244.506 192.611 244.665 192.472Z" fill="black"/>
<path d="M251.15 186.776C250.911 186.975 250.692 187.174 250.473 187.373C250.732 187.154 250.951 186.955 251.15 186.776Z" fill="black"/>
<path d="M251.766 186.238C251.667 186.318 251.587 186.397 251.488 186.477C251.667 186.318 251.766 186.238 251.766 186.238Z" fill="black"/>
<path d="M250.016 187.772C249.777 187.971 249.539 188.19 249.32 188.389C249.559 188.17 249.797 187.971 250.016 187.772Z" fill="black"/>
<path d="M250.473 187.373C250.334 187.493 250.175 187.633 250.016 187.772C250.155 187.633 250.314 187.512 250.473 187.373Z" fill="black"/>
<path d="M251.488 186.477C251.388 186.557 251.269 186.656 251.13 186.795C251.269 186.676 251.369 186.577 251.488 186.477Z" fill="black"/>
<path d="M224.434 210.258C224.335 210.337 224.255 210.417 224.176 210.477C224.255 210.397 224.335 210.337 224.434 210.258Z" fill="black"/>
<path d="M224.176 210.477C223.599 210.975 223.201 211.333 223.022 211.493C223.181 211.333 223.559 211.015 224.176 210.477Z" fill="black"/>
<path d="M223.001 211.493C222.843 211.631 222.843 211.631 223.001 211.493Z" fill="black"/>
<path d="M225.25 209.521C224.951 209.78 224.673 210.019 224.414 210.258C224.673 210.039 224.951 209.78 225.25 209.521Z" fill="black"/>
<path d="M227.855 207.231C226.801 208.147 225.946 208.904 225.25 209.521C225.986 208.884 226.881 208.107 227.855 207.231Z" fill="black"/>
<path d="M234.221 201.635C232.849 202.83 231.615 203.925 230.521 204.881C231.695 203.865 232.948 202.77 234.221 201.635Z" fill="black"/>
<path d="M229.407 205.877C229.149 206.116 228.89 206.335 228.631 206.554C228.89 206.335 229.149 206.096 229.407 205.877Z" fill="black"/>
<path d="M10.2898 309.74C10.3296 308.345 10.4489 306.951 10.6478 305.557C10.8468 304.203 11.1452 302.868 11.5231 301.554C11.9011 300.259 12.3387 298.985 12.8758 297.75C13.393 296.515 14.0097 295.34 14.6662 294.185C15.3425 293.05 16.0785 291.934 16.8742 290.879C17.6699 289.823 18.5452 288.827 19.4603 287.891C20.3753 286.955 21.37 286.059 22.4044 285.222C23.4388 284.386 24.5329 283.629 25.6469 282.932C26.7808 282.235 27.9544 281.598 29.1679 281.04C30.4012 280.482 31.6545 280.004 32.9276 279.586C34.2405 279.168 35.5534 278.849 36.9061 278.61C38.7561 278.272 40.6459 278.172 42.5357 278.013C44.3659 277.853 46.196 277.694 48.0062 277.515C49.8164 277.336 51.6466 277.136 53.4568 276.937C55.267 276.738 57.0772 276.519 58.8676 276.28C60.6579 276.061 62.4682 275.802 64.2585 275.563C66.0488 275.304 67.8392 275.045 69.6096 274.766C71.3801 274.487 73.1704 274.189 74.9408 273.89C76.7113 273.591 78.4618 273.273 80.2323 272.954C81.9828 272.635 83.7334 272.297 85.4839 271.938C87.2345 271.58 88.9651 271.221 90.7157 270.843C92.4463 270.464 94.177 270.086 95.9077 269.688C97.6184 269.289 99.3491 268.871 101.06 268.453C102.771 268.035 104.461 267.596 106.172 267.158C107.863 266.72 109.554 266.262 111.245 265.784C112.936 265.326 114.607 264.828 116.278 264.35C117.949 263.852 119.62 263.354 121.271 262.836C122.922 262.319 124.573 261.801 126.224 261.263C127.875 260.725 129.506 260.187 131.138 259.63C132.769 259.072 134.38 258.514 136.011 257.917C137.623 257.339 139.234 256.742 140.845 256.144C142.437 255.547 144.028 254.929 145.619 254.312C147.211 253.695 148.782 253.057 150.354 252.42C151.925 251.783 153.477 251.125 155.048 250.468C156.6 249.811 158.152 249.134 159.683 248.437C161.215 247.76 162.747 247.062 164.279 246.346C165.79 245.648 167.322 244.931 168.834 244.195C170.346 243.478 171.838 242.741 173.33 241.984C174.762 241.267 176.174 240.55 177.607 239.813C228.512 213.444 269.292 175.403 294.158 130.352C301.617 116.968 306.133 99.5014 306.133 80.4015C306.133 76.8564 305.974 73.3511 305.675 69.9254L304.024 32.0841V31.9846C303.965 31.2676 303.925 30.5307 303.925 29.7937C303.925 23.9781 305.855 18.6007 309.137 14.2987C311.882 10.6739 315.562 7.80596 319.819 6.07323C322.803 4.87824 326.085 4.20108 329.527 4.20108C342.457 4.20108 353.139 13.7809 354.87 26.2486V26.2685L355.049 27.9017L358.51 60.246L361.514 86.3366C361.872 89.4635 363.245 92.3713 365.373 94.6617C368.616 98.167 371.639 101.871 374.424 105.735C374.842 106.313 375.26 106.91 375.678 107.488C375.737 107.548 375.777 107.627 375.817 107.687C375.996 107.926 376.175 108.185 376.334 108.444C376.851 109.181 377.349 109.938 377.826 110.675C378.204 111.272 378.602 111.87 378.96 112.467C379 112.527 379.02 112.587 379.059 112.646C379.477 113.303 379.895 113.981 380.293 114.658C381.327 116.391 382.322 118.163 383.257 119.956C383.674 120.752 384.092 121.569 384.49 122.365C386.997 127.384 389.165 132.622 390.935 138.04C391.075 138.478 391.234 138.936 391.373 139.394C391.671 140.29 391.93 141.206 392.208 142.123C392.328 142.561 392.467 142.999 392.586 143.457C393.104 145.309 393.561 147.181 393.999 149.054C394.098 149.512 394.198 149.99 394.297 150.448C394.596 151.882 394.894 153.316 395.133 154.77C395.272 155.626 395.411 156.482 395.55 157.359C395.57 157.518 395.61 157.677 395.63 157.857C395.809 159.171 395.988 160.486 396.147 161.82C396.207 162.338 396.267 162.836 396.306 163.354C396.406 164.329 396.485 165.305 396.565 166.281C396.724 168.691 396.903 171.101 396.824 173.531C396.804 173.949 396.784 174.367 396.784 174.806C396.784 174.905 396.784 175.005 396.784 175.104C396.764 175.722 396.724 176.339 396.704 176.957C396.684 177.315 396.664 177.674 396.645 178.032C396.605 178.689 396.565 179.366 396.525 180.024C396.525 180.183 396.505 180.342 396.485 180.502C396.426 181.358 396.346 182.234 396.267 183.091C396.207 183.728 396.147 184.365 396.087 185.023C396.048 185.401 396.008 185.78 395.968 186.158C395.849 187.194 395.729 188.229 395.61 189.285C395.332 191.555 394.993 193.806 394.615 196.056C394.317 197.809 393.999 199.562 393.641 201.294C393.541 201.733 393.462 202.191 393.362 202.629C393.243 203.206 393.124 203.784 392.984 204.382C392.825 205.118 392.666 205.835 392.487 206.572C392.208 207.747 391.91 208.922 391.612 210.098C391.453 210.735 391.273 211.372 391.114 211.99C391.094 212.089 391.055 212.169 391.035 212.268C390.816 213.085 390.597 213.882 390.358 214.678C390.358 214.698 390.358 214.698 390.339 214.718C364.896 302.749 268.775 368.214 154.094 368.214C152.92 368.214 151.746 368.214 150.573 368.194C149.399 368.175 148.225 368.155 147.052 368.135C145.878 368.115 144.724 368.075 143.551 368.035C142.397 367.995 141.223 367.955 140.069 367.896C138.916 367.836 137.742 367.776 136.588 367.716C135.434 367.657 134.281 367.577 133.127 367.497C131.973 367.418 130.819 367.338 129.685 367.238C128.532 367.139 127.398 367.039 126.244 366.94C125.11 366.84 123.956 366.721 122.822 366.601C121.689 366.482 120.555 366.362 119.421 366.223C118.287 366.083 117.153 365.944 116.039 365.804C114.905 365.665 113.791 365.506 112.657 365.346C111.543 365.187 110.409 365.028 109.295 364.849C108.181 364.669 107.067 364.49 105.953 364.311C104.839 364.131 103.725 363.932 102.631 363.733C101.517 363.534 100.423 363.335 99.3292 363.116C98.2351 362.917 97.141 362.698 96.027 362.478C94.9329 362.259 93.8388 362.02 92.7447 361.801C91.6506 361.562 90.5764 361.323 89.4823 361.084C88.4081 360.845 87.3141 360.586 86.2399 360.327C85.1657 360.069 84.0914 359.81 83.0172 359.531C81.943 359.252 80.8887 358.993 79.8145 358.714C78.7602 358.435 77.686 358.137 76.6317 357.858C75.5774 357.559 74.5231 357.26 73.4688 356.962C72.4145 356.663 71.3801 356.344 70.3257 356.025C69.2913 355.707 68.237 355.388 67.2026 355.05C66.1682 354.731 65.1338 354.392 64.0993 354.054C63.0649 353.715 62.0504 353.377 61.016 353.018C60.0015 352.66 58.967 352.321 57.9525 351.943C56.938 351.584 55.9235 351.206 54.909 350.847C53.8944 350.469 52.8998 350.09 51.8853 349.712C50.8906 349.334 49.896 348.935 48.8815 348.537C47.8868 348.139 46.8922 347.74 45.9175 347.342C44.9228 346.944 43.9481 346.525 42.9734 346.107C41.9986 345.689 41.0239 345.271 40.0492 344.852C39.0744 344.434 38.1196 343.996 37.1448 343.558C36.19 343.12 35.2152 342.681 34.2604 342.223C33.3055 341.785 32.3507 341.307 31.4158 340.869C30.3614 340.371 29.3071 339.873 28.2528 339.355C27.3378 338.897 26.4426 338.419 25.5872 337.882C24.7318 337.344 23.8963 336.766 23.0807 336.149C22.285 335.531 21.5092 334.894 20.7533 334.197C20.0173 333.52 19.3011 332.803 18.6248 332.046C17.9484 331.289 17.3119 330.513 16.6952 329.716C16.0984 328.919 15.5215 328.083 14.9844 327.226C14.9645 327.206 14.9645 327.186 14.9446 327.167C14.5269 326.509 14.1688 325.832 13.8108 325.115C12.0801 321.729 10.9462 318.065 10.4887 314.281C10.3296 312.807 10.2699 311.273 10.2898 309.74Z" fill="white"/>
<path d="M234.221 201.635C234.579 201.316 234.957 200.997 235.315 200.679C234.937 201.017 234.579 201.336 234.221 201.635ZM234.221 201.635C232.849 202.83 231.615 203.925 230.521 204.881C231.695 203.865 232.948 202.77 234.221 201.635ZM249.32 188.389C249.121 188.569 248.922 188.748 248.703 188.927C248.902 188.748 249.101 188.569 249.32 188.389ZM249.32 188.389C249.539 188.19 249.777 187.971 250.016 187.772M249.32 188.389C249.559 188.17 249.797 187.971 250.016 187.772M250.473 187.373C250.692 187.174 250.911 186.975 251.15 186.776C250.951 186.955 250.732 187.154 250.473 187.373ZM250.473 187.373C250.334 187.493 250.175 187.633 250.016 187.772M250.473 187.373C250.314 187.512 250.155 187.633 250.016 187.772M251.488 186.477C251.587 186.397 251.667 186.318 251.766 186.238C251.766 186.238 251.667 186.318 251.488 186.477ZM251.488 186.477C251.388 186.557 251.269 186.656 251.13 186.795C251.269 186.676 251.369 186.577 251.488 186.477ZM224.176 210.477C224.255 210.417 224.335 210.337 224.434 210.258C224.335 210.337 224.255 210.397 224.176 210.477ZM224.176 210.477C223.599 210.975 223.201 211.333 223.022 211.493C223.181 211.333 223.559 211.015 224.176 210.477ZM225.25 209.521C224.951 209.78 224.673 210.019 224.414 210.258C224.673 210.039 224.951 209.78 225.25 209.521ZM225.25 209.521C225.946 208.904 226.801 208.147 227.855 207.231M225.25 209.521C225.986 208.884 226.881 208.107 227.855 207.231M227.855 207.231C228.114 207.012 228.373 206.793 228.631 206.554M230.522 204.9C230.144 205.238 229.766 205.557 229.408 205.876M228.631 206.554C228.89 206.335 229.149 206.116 229.407 205.877C229.149 206.096 228.89 206.335 228.631 206.554ZM491.731 270.067C491.672 269.091 491.572 268.115 491.473 267.139C491.413 266.621 491.354 266.123 491.314 265.606C491.155 264.271 490.975 262.957 490.796 261.642C490.777 261.463 490.737 261.304 490.717 261.144C490.578 260.288 490.438 259.412 490.299 258.555C490.041 257.101 489.762 255.667 489.464 254.233C489.364 253.755 489.265 253.297 489.165 252.839C488.748 250.947 488.27 249.075 487.753 247.243C487.634 246.804 487.494 246.366 487.375 245.908C487.116 244.992 486.838 244.096 486.539 243.18C486.4 242.722 486.241 242.283 486.102 241.825C484.311 236.408 482.163 231.17 479.657 226.151C479.239 225.335 478.841 224.518 478.423 223.741C477.468 221.949 476.494 220.176 475.459 218.443C475.061 217.766 474.644 217.089 474.226 216.432C474.186 216.372 474.166 216.312 474.126 216.253C473.749 215.655 473.371 215.058 472.993 214.46C472.515 213.703 472.018 212.966 471.501 212.229C471.322 211.971 471.162 211.712 470.983 211.473C470.944 211.413 470.904 211.333 470.844 211.273C470.426 210.676 470.009 210.098 469.591 209.521C466.786 205.657 463.762 201.953 460.54 198.447C458.411 196.137 457.039 193.229 456.681 190.122L453.677 164.032L450.216 131.687L450.036 130.054V130.034C449.201 124.059 446.297 118.742 442.079 114.838L442.099 114.818L355.865 13.3835C355.865 13.3835 339.215 2.3099 329.507 4.22188C319.799 6.13386 297.44 3.70406 305.198 59.51C305.198 59.51 316.736 129.178 251.747 186.258C251.747 186.258 200.444 245.669 101.06 268.513C101.06 268.513 74.1453 278.95 48.0064 277.575C21.8675 276.201 -14.8344 296.496 15.3427 341.049C40.3676 378.014 82.0228 417.807 120.714 441.647C121.569 442.185 122.465 442.683 123.38 443.121C124.434 443.639 125.488 444.137 126.543 444.635C127.497 445.073 128.452 445.551 129.387 445.989C130.342 446.447 131.297 446.885 132.272 447.323C133.246 447.762 134.201 448.2 135.176 448.618C136.151 449.036 137.125 449.474 138.1 449.873C139.075 450.291 140.069 450.709 141.044 451.108C142.039 451.506 143.034 451.904 144.008 452.303C145.003 452.701 145.997 453.079 147.012 453.478C148.007 453.856 149.021 454.234 150.036 454.613C151.05 454.991 152.065 455.35 153.079 455.708C154.094 456.067 155.108 456.425 156.143 456.784C157.177 457.142 158.192 457.481 159.226 457.819C160.261 458.158 161.295 458.497 162.329 458.815C163.364 459.134 164.418 459.473 165.452 459.791C166.507 460.11 167.541 460.409 168.596 460.727C169.65 461.026 170.704 461.325 171.758 461.624C172.813 461.922 173.887 462.201 174.941 462.48C176.015 462.759 177.07 463.038 178.144 463.316C179.218 463.595 180.292 463.854 181.367 464.113C182.441 464.372 183.515 464.631 184.609 464.87C185.703 465.109 186.777 465.348 187.871 465.587C188.966 465.826 190.06 466.045 191.154 466.264C192.248 466.483 193.342 466.702 194.456 466.901C195.55 467.12 196.664 467.32 197.758 467.519C198.872 467.718 199.966 467.897 201.08 468.096C202.194 468.276 203.308 468.455 204.422 468.634C205.536 468.813 206.67 468.973 207.784 469.132C208.918 469.291 210.032 469.451 211.166 469.59C212.3 469.73 213.434 469.869 214.548 470.008C215.681 470.148 216.815 470.267 217.949 470.387C219.083 470.506 220.237 470.626 221.371 470.725C222.524 470.825 223.658 470.924 224.812 471.024C225.966 471.124 227.12 471.203 228.254 471.283C229.407 471.363 230.561 471.442 231.715 471.502C232.869 471.562 234.042 471.622 235.196 471.681C236.35 471.741 237.523 471.781 238.677 471.821C239.851 471.861 241.005 471.9 242.178 471.92C243.352 471.94 244.526 471.96 245.699 471.98C246.873 472 248.047 472 249.22 472C363.901 472 460.023 406.535 485.465 318.504C485.465 318.484 485.465 318.484 485.485 318.464C485.724 317.667 485.943 316.851 486.161 316.054C486.181 315.954 486.221 315.875 486.241 315.775C486.42 315.138 486.579 314.501 486.738 313.883C487.037 312.708 487.335 311.533 487.614 310.358C487.793 309.621 487.952 308.904 488.111 308.167C488.23 307.59 488.37 307.012 488.489 306.414C488.588 305.976 488.668 305.518 488.767 305.08C489.125 303.327 489.444 301.595 489.742 299.842C490.12 297.591 490.458 295.341 490.737 293.07C490.876 292.035 490.995 290.999 491.095 289.944C491.135 289.565 491.174 289.187 491.214 288.808C491.274 288.171 491.334 287.534 491.393 286.876C491.473 286.02 491.552 285.144 491.612 284.287C491.612 284.128 491.632 283.969 491.652 283.809C491.712 283.152 491.751 282.475 491.771 281.818C491.791 281.459 491.811 281.101 491.831 280.742C491.871 280.125 491.891 279.507 491.91 278.89C491.91 278.79 491.91 278.691 491.91 278.591C491.91 278.173 491.95 277.755 491.95 277.317C492.09 274.887 491.91 272.477 491.731 270.067ZM248.683 188.927C247.271 190.182 245.938 191.337 244.645 192.472C246.197 191.138 247.569 189.923 248.683 188.927ZM244.168 192.911C240.746 195.919 237.802 198.508 235.296 200.699C238.339 198.03 241.462 195.281 244.168 192.911ZM244.665 192.472C244.506 192.611 244.347 192.751 244.187 192.89C244.327 192.77 244.506 192.611 244.665 192.472ZM223.001 211.493C222.843 211.631 222.843 211.631 223.001 211.493ZM10.2898 309.74C10.3296 308.345 10.4489 306.951 10.6478 305.557C10.8468 304.203 11.1452 302.868 11.5231 301.554C11.9011 300.259 12.3387 298.985 12.8758 297.75C13.393 296.515 14.0097 295.34 14.6662 294.185C15.3425 293.05 16.0785 291.934 16.8742 290.879C17.6699 289.823 18.5452 288.827 19.4603 287.891C20.3753 286.955 21.37 286.059 22.4044 285.222C23.4388 284.386 24.5329 283.629 25.6469 282.932C26.7808 282.235 27.9544 281.598 29.1679 281.04C30.4012 280.482 31.6545 280.004 32.9276 279.586C34.2405 279.168 35.5534 278.849 36.9061 278.61C38.7561 278.272 40.6459 278.172 42.5357 278.013C44.3659 277.853 46.196 277.694 48.0062 277.515C49.8164 277.336 51.6466 277.136 53.4568 276.937C55.267 276.738 57.0772 276.519 58.8676 276.28C60.6579 276.061 62.4682 275.802 64.2585 275.563C66.0488 275.304 67.8392 275.045 69.6096 274.766C71.3801 274.487 73.1704 274.189 74.9408 273.89C76.7113 273.591 78.4618 273.273 80.2323 272.954C81.9828 272.635 83.7334 272.297 85.4839 271.938C87.2345 271.58 88.9651 271.221 90.7157 270.843C92.4463 270.464 94.177 270.086 95.9077 269.688C97.6184 269.289 99.3491 268.871 101.06 268.453C102.771 268.035 104.461 267.596 106.172 267.158C107.863 266.72 109.554 266.262 111.245 265.784C112.936 265.326 114.607 264.828 116.278 264.35C117.949 263.852 119.62 263.354 121.271 262.836C122.922 262.319 124.573 261.801 126.224 261.263C127.875 260.725 129.506 260.187 131.138 259.63C132.769 259.072 134.38 258.514 136.011 257.917C137.623 257.339 139.234 256.742 140.845 256.144C142.437 255.547 144.028 254.929 145.619 254.312C147.211 253.695 148.782 253.057 150.354 252.42C151.925 251.783 153.477 251.125 155.048 250.468C156.6 249.811 158.152 249.134 159.683 248.437C161.215 247.76 162.747 247.062 164.279 246.346C165.79 245.648 167.322 244.931 168.834 244.195C170.346 243.478 171.838 242.741 173.33 241.984C174.762 241.267 176.174 240.55 177.607 239.813C228.512 213.444 269.292 175.403 294.158 130.352C301.617 116.968 306.133 99.5014 306.133 80.4015C306.133 76.8564 305.974 73.3511 305.675 69.9254L304.024 32.0841V31.9846C303.965 31.2676 303.925 30.5307 303.925 29.7937C303.925 23.9781 305.855 18.6007 309.137 14.2987C311.882 10.6739 315.562 7.80596 319.819 6.07323C322.803 4.87824 326.085 4.20108 329.527 4.20108C342.457 4.20108 353.139 13.7809 354.87 26.2486V26.2685L355.049 27.9017L358.51 60.246L361.514 86.3366C361.872 89.4635 363.245 92.3713 365.373 94.6617C368.616 98.167 371.639 101.871 374.424 105.735C374.842 106.313 375.26 106.91 375.678 107.488C375.737 107.548 375.777 107.627 375.817 107.687C375.996 107.926 376.175 108.185 376.334 108.444C376.851 109.181 377.349 109.938 377.826 110.675C378.204 111.272 378.602 111.87 378.96 112.467C379 112.527 379.02 112.587 379.059 112.646C379.477 113.303 379.895 113.981 380.293 114.658C381.327 116.391 382.322 118.163 383.257 119.956C383.674 120.752 384.092 121.569 384.49 122.365C386.997 127.384 389.165 132.622 390.935 138.04C391.075 138.478 391.234 138.936 391.373 139.394C391.671 140.29 391.93 141.206 392.208 142.123C392.328 142.561 392.467 142.999 392.586 143.457C393.104 145.309 393.561 147.181 393.999 149.054C394.098 149.512 394.198 149.99 394.297 150.448C394.596 151.882 394.894 153.316 395.133 154.77C395.272 155.626 395.411 156.482 395.55 157.359C395.57 157.518 395.61 157.677 395.63 157.857C395.809 159.171 395.988 160.486 396.147 161.82C396.207 162.338 396.267 162.836 396.306 163.354C396.406 164.329 396.485 165.305 396.565 166.281C396.724 168.691 396.903 171.101 396.824 173.531C396.804 173.949 396.784 174.367 396.784 174.806C396.784 174.905 396.784 175.005 396.784 175.104C396.764 175.722 396.724 176.339 396.704 176.957C396.684 177.315 396.664 177.674 396.645 178.032C396.605 178.689 396.565 179.366 396.525 180.024C396.525 180.183 396.505 180.342 396.485 180.502C396.426 181.358 396.346 182.234 396.267 183.091C396.207 183.728 396.147 184.365 396.087 185.023C396.048 185.401 396.008 185.78 395.968 186.158C395.849 187.194 395.729 188.229 395.61 189.285C395.332 191.555 394.993 193.806 394.615 196.056C394.317 197.809 393.999 199.562 393.641 201.294C393.541 201.733 393.462 202.191 393.362 202.629C393.243 203.206 393.124 203.784 392.984 204.382C392.825 205.118 392.666 205.835 392.487 206.572C392.208 207.747 391.91 208.922 391.612 210.098C391.453 210.735 391.273 211.372 391.114 211.99C391.094 212.089 391.055 212.169 391.035 212.268C390.816 213.085 390.597 213.882 390.358 214.678C390.358 214.698 390.358 214.698 390.339 214.718C364.896 302.749 268.775 368.214 154.094 368.214C152.92 368.214 151.746 368.214 150.573 368.194C149.399 368.175 148.225 368.155 147.052 368.135C145.878 368.115 144.724 368.075 143.551 368.035C142.397 367.995 141.223 367.955 140.069 367.896C138.916 367.836 137.742 367.776 136.588 367.716C135.434 367.657 134.281 367.577 133.127 367.497C131.973 367.418 130.819 367.338 129.685 367.238C128.532 367.139 127.398 367.039 126.244 366.94C125.11 366.84 123.956 366.721 122.822 366.601C121.689 366.482 120.555 366.362 119.421 366.223C118.287 366.083 117.153 365.944 116.039 365.804C114.905 365.665 113.791 365.506 112.657 365.346C111.543 365.187 110.409 365.028 109.295 364.849C108.181 364.669 107.067 364.49 105.953 364.311C104.839 364.131 103.725 363.932 102.631 363.733C101.517 363.534 100.423 363.335 99.3292 363.116C98.2351 362.917 97.141 362.698 96.027 362.478C94.9329 362.259 93.8388 362.02 92.7447 361.801C91.6506 361.562 90.5764 361.323 89.4823 361.084C88.4081 360.845 87.3141 360.586 86.2399 360.327C85.1657 360.069 84.0914 359.81 83.0172 359.531C81.943 359.252 80.8887 358.993 79.8145 358.714C78.7602 358.435 77.686 358.137 76.6317 357.858C75.5774 357.559 74.5231 357.26 73.4688 356.962C72.4145 356.663 71.3801 356.344 70.3257 356.025C69.2913 355.707 68.237 355.388 67.2026 355.05C66.1682 354.731 65.1338 354.392 64.0993 354.054C63.0649 353.715 62.0504 353.377 61.016 353.018C60.0015 352.66 58.967 352.321 57.9525 351.943C56.938 351.584 55.9235 351.206 54.909 350.847C53.8944 350.469 52.8998 350.09 51.8853 349.712C50.8906 349.334 49.896 348.935 48.8815 348.537C47.8868 348.139 46.8922 347.74 45.9175 347.342C44.9228 346.944 43.9481 346.525 42.9734 346.107C41.9986 345.689 41.0239 345.271 40.0492 344.852C39.0744 344.434 38.1196 343.996 37.1448 343.558C36.19 343.12 35.2152 342.681 34.2604 342.223C33.3055 341.785 32.3507 341.307 31.4158 340.869C30.3614 340.371 29.3071 339.873 28.2528 339.355C27.3378 338.897 26.4426 338.419 25.5872 337.882C24.7318 337.344 23.8963 336.766 23.0807 336.149C22.285 335.531 21.5092 334.894 20.7533 334.197C20.0173 333.52 19.3011 332.803 18.6248 332.046C17.9484 331.289 17.3119 330.513 16.6952 329.716C16.0984 328.919 15.5215 328.083 14.9844 327.226C14.9645 327.206 14.9645 327.186 14.9446 327.167C14.5269 326.509 14.1688 325.832 13.8108 325.115C12.0801 321.729 10.9462 318.065 10.4887 314.281C10.3296 312.807 10.2699 311.273 10.2898 309.74Z" stroke="black" stroke-width="6.0072" stroke-miterlimit="10"/>
</svg>
