<?xml version="1.0" encoding="utf-8"?>
<!-- Generator: Adobe Illustrator 24.0.0, SVG Export Plug-In . SVG Version: 6.00 Build 0)  -->
<svg version="1.1" id="Layer_1" xmlns="http://www.w3.org/2000/svg" xmlns:xlink="http://www.w3.org/1999/xlink" x="0px" y="0px"
	 viewBox="0 0 90 90" style="enable-background:new 0 0 90 90;" xml:space="preserve">
<g>
	<path d="M6,59.5H0.5L7.8,45h5.8l2.9,14.5h-5.6l-0.2-1.8h-4L6,59.5z M10.3,54.3l-0.2-2.6c-0.1-0.6-0.1-1.2-0.1-1.9H9.9l-1.7,4.4
		H10.3z"/>
	<path d="M28.3,50.9c-0.7-0.8-1.7-1.5-2.9-1.5c-1.6,0-3.1,1.2-3.3,2.8c-0.3,1.6,0.9,2.8,2.5,2.8c1.2,0,2.3-0.5,3.2-1.3l-1,5.4
		c-0.9,0.4-2.9,0.6-3.8,0.6c-4.1,0-6.8-3.2-6.2-7.3c0.7-4.2,4.5-7.6,8.8-7.6c1.2,0,2.4,0.2,3.4,0.6L28.3,50.9z"/>
	<path d="M30.4,45h11.1l-0.7,4.7l-2.9-0.1l-1.6,9.9H31l1.6-9.9l-2.9,0.1L30.4,45z"/>
	<path d="M42.3,45h5.3l-2.3,14.5H40L42.3,45z"/>
	<path d="M64.1,45l-7.9,14.5h-4.5L48.4,45h5.5l0.9,6.6c0.1,0.7,0.1,1.4,0,2.2h0.1c0.1-0.7,0.4-1.4,0.7-2.2l3-6.6L64.1,45z"/>
	<path d="M77.7,52.3c-0.7,4.6-4.8,7.4-9.2,7.4c-4.4,0-7.6-2.8-6.8-7.4c0.7-4.6,4.8-7.5,9.2-7.5C75.3,44.8,78.4,47.7,77.7,52.3z
		 M67,52.4c-0.3,1.7,0.7,2.8,2.3,2.8c1.6,0,2.9-1.1,3.1-2.8c0.2-1.5-0.6-2.8-2.3-2.8C68.4,49.5,67.2,50.8,67,52.4z"/>
	<path d="M76.7,29.6c0,0,1.5,0,3.6,2c1.3,1.3,1.6,3.2,1.6,3.2s-1.8,0-2.5,0.3c-1.9,0.6-2.6,1.3-2.6,1.3s0.8-2,0.6-3.6
		C77.2,31,76.7,29.6,76.7,29.6z"/>
	<path d="M74.8,38c1.4-0.5,4.4-1.1,7.4-1c4.4,0.2,7.3,1.9,7.3,1.9s-5.3,0.2-7,0.4c-2.7,0.3-5,0.9-5,0.9s2.1,2.2,2.8,4.4
		c0.9,2.6,0.3,5,0.3,5s-1.5-3.4-2.9-5c-1.1-1.3-3.5-3.4-3.5-3.4s-1.1,0.3-3.7,1.3c-2.6,1-5,2.7-5,2.7s1.6-2.6,3.9-4.1
		c1.5-1,2.4-1.6,2.4-1.6c-0.7-0.5-1.7-1.2-2.6-1.6c-1.4-0.7-5.9-2.7-5.9-2.7s3.2,0.1,6.4,1C73.1,36.9,74.8,38,74.8,38z"/>
</g>
</svg>
