<?xml version="1.0" encoding="utf-8"?>
<!-- Generator: Adobe Illustrator 24.0.0, SVG Export Plug-In . SVG Version: 6.00 Build 0)  -->
<svg version="1.1" id="Layer_1" xmlns="http://www.w3.org/2000/svg" xmlns:xlink="http://www.w3.org/1999/xlink" x="0px" y="0px"
	 viewBox="0 0 90 90" style="enable-background:new 0 0 90 90;" xml:space="preserve">
<g>
	<path d="M69.1,53.1c0.7-0.2,1.3-0.5,1.7-1c0.3-0.4,0.6-0.2,0.2,0.2c-2.6,2.8-5.8,4.4-9.6,4.4c-4.8,0-8-3.3-8.1-8.2
		c0-5.4,0-10.7,0-16.1c0-2.2-1.4-3.2-2.3-3.5c-0.9-0.3-1.2-0.1-1.2-0.3c0-0.2,0.6-0.1,0.8-0.1c2.7,0.1,5.4,0.3,8.1,0
		c2.2-0.3,4.2-0.7,5.9-2.3c0,0,0.6-0.6,0.6,0.2c0,2.5,0,16.5,0,20.9c0,0.8,0.1,2.4,0.2,2.6C65.6,50.9,66.4,53.2,69.1,53.1z"/>
	<path d="M87.8,53.1c0.7-0.2,1.3-0.5,1.7-1c0.3-0.4,0.6-0.2,0.2,0.2c-2.6,2.8-5.8,4.4-9.6,4.4c-4.8,0-8-3.3-8.1-8.2
		c0-5.4,0-10.7,0-16.1c0-2.2-1.4-3.2-2.3-3.5c-0.9-0.3-1.2-0.1-1.2-0.3c0-0.2,0.6-0.1,0.8-0.1c2.7,0.1,5.4,0.3,8.1,0
		c2.2-0.3,4.2-0.7,5.9-2.3c0,0,0.6-0.6,0.6,0.2c0,2.5,0,16.5,0,20.9c0,0.8,0.1,2.4,0.2,2.6C84.3,50.9,85.1,53.2,87.8,53.1z"/>
	<path d="M50.4,53.1c0.7-0.2,1.3-0.5,1.7-1c0.3-0.4,0.6-0.2,0.2,0.2c-2.6,2.8-5.8,4.4-9.6,4.4c-4.8,0-8-3.3-8.1-8.2
		c0-5.4,0-10.7,0-16.1c0-2.2-1.4-3.2-2.3-3.5c-0.9-0.3-1.2-0.1-1.2-0.3c0-0.2,0.6-0.1,0.8-0.1c2.7,0.1,5.4,0.3,8.1,0
		c2.2-0.3,4.2-0.7,5.9-2.3c0,0,0.6-0.6,0.6,0.2c0,2.5,0,16.5,0,20.9c0,0.8,0.1,2.4,0.2,2.6C47,50.9,47.7,53.2,50.4,53.1z"/>
	<path d="M16.4,25.6c-2.7-0.1-16.3,0.4-16.3,15.6c0,15,13.6,15.6,16.3,15.6c2.7,0,16.3-0.6,16.3-15.6C32.7,25.9,19,25.5,16.4,25.6z
		 M16.4,56.2c-0.7,0-1.5-0.4-2.1-1.2c-1.2-1.6-1.6-3.5-1.9-5.3c-0.9-5.7-0.8-11.4,0-17.1c0.3-1.9,0.7-3.7,1.9-5.2
		c0.6-0.8,1.3-1.1,2.1-1.1c0.7,0,1.5,0.4,2.1,1.1c1.2,1.5,1.6,3.4,1.9,5.2c0.8,5.7,0.9,11.4,0,17.1c-0.3,1.9-0.7,3.8-1.9,5.3
		C17.8,55.8,17.1,56.2,16.4,56.2z"/>
	<path d="M70.8,52.1c-0.5,0.5-1.1,0.8-1.7,1c-2.7,0.2-3.4-2.2-3.6-3.1c0-0.2-0.2-1.9-0.2-2.6c0-4.4,0-18.3,0-20.9
		c0-0.8-0.6-0.2-0.6-0.2c-1.7,1.5-3.7,2-5.9,2.3c-2.7,0.3-5.4,0.1-8.1,0c-0.3,0-0.8-0.1-0.8,0.1c0,0.2,0.3,0,1.2,0.3
		c0.9,0.3,2.3,1.3,2.3,3.5c0,5.4,0,10.7,0,16.1c0,4.9,3.3,8.2,8.1,8.2c3.9,0,7-1.6,9.6-4.4C71.4,51.9,71.2,51.7,70.8,52.1z"/>
	<path d="M83.9,23.1c-0.1-0.1-0.2-0.1-0.3,0c-0.1,0-1.1,0.3-1.1,0.3c-1.7,0.4-3.2,0-4.3-1.2c-0.6-0.6-1.1-1.5-1.6-2.7l-0.2-0.5
		c-0.9-2.2-2.8-2.6-4.4-2.3c0,0-3.7,1-2.9,4.9c0.1,0.6,0.5,1.3,1,1.9c1,1.3,2.3,2.1,3.9,2.4c0,0,0.1,0,0.1,0c1.5,0.3,3,0.3,4.5-0.1
		c1.4-0.3,2.8-0.9,4.4-1.9c0.1-0.1,0.2-0.1,0.4-0.3c0.2-0.1,0.4-0.2,0.4-0.3c0,0,0,0,0,0C84,23.3,84,23.2,83.9,23.1z"/>
	<path d="M0.9,65.5c0-0.1,0-0.2,0-0.3c0-0.1,0-0.2,0-0.3c-0.1,0-0.2,0-0.3,0c-0.1,0-0.2,0-0.3,0v-0.5c0.3,0,0.5,0,0.6,0
		c0.2,0,0.3-0.1,0.4-0.1c0.1,0,0.2-0.1,0.2-0.1h0.3v2.7c0.2-0.2,0.4-0.3,0.6-0.4c0.2-0.1,0.5-0.1,0.7-0.1c0.4,0,0.7,0.1,1,0.3
		c0.3,0.2,0.5,0.5,0.7,0.8c0.2,0.3,0.3,0.8,0.3,1.2c0,0.5-0.1,1-0.3,1.3c-0.2,0.4-0.5,0.7-0.8,0.9c-0.3,0.2-0.7,0.3-1.2,0.3
		c-0.2,0-0.4,0-0.7-0.1C2,71,1.7,70.8,1.5,70.6L1.3,71H0.9L0.9,65.5z M1.9,69.6c0,0.3,0,0.5,0.1,0.7c0.1,0.2,0.2,0.3,0.3,0.3
		c0.1,0.1,0.3,0.1,0.4,0.1c0.3,0,0.5-0.1,0.7-0.2c0.2-0.2,0.3-0.4,0.4-0.7c0.1-0.3,0.1-0.6,0.1-1c0-0.4,0-0.7-0.1-1
		c-0.1-0.3-0.2-0.5-0.4-0.7c-0.2-0.2-0.4-0.3-0.7-0.3c-0.2,0-0.4,0-0.5,0.1c-0.2,0.1-0.3,0.2-0.4,0.3V69.6z"/>
	<path d="M7.7,70.6c0.2,0,0.3,0,0.4-0.1c0.1-0.1,0.1-0.2,0.1-0.4c0-0.2,0-0.3,0-0.5v-1.9c0-0.1,0-0.2,0-0.3c0-0.1,0-0.2,0-0.3
		c-0.1,0-0.2,0-0.3,0c-0.1,0-0.2,0-0.3,0v-0.5c0.3,0,0.5,0,0.6,0c0.2,0,0.3-0.1,0.4-0.1c0.1,0,0.2-0.1,0.2-0.1h0.3v3.5
		c0,0.1,0,0.2,0,0.3c0,0.1,0,0.2,0,0.3c0.1,0,0.2,0,0.3,0c0.1,0,0.2,0,0.3,0V71h-2L7.7,70.6L7.7,70.6z M8.7,65.5
		c-0.2,0-0.3-0.1-0.4-0.2c-0.1-0.1-0.2-0.3-0.2-0.4c0-0.2,0.1-0.3,0.2-0.4c0.1-0.1,0.2-0.2,0.4-0.2c0.2,0,0.3,0.1,0.4,0.2
		c0.1,0.1,0.2,0.3,0.2,0.4c0,0.2-0.1,0.3-0.2,0.4C8.9,65.4,8.8,65.5,8.7,65.5z"/>
	<path d="M14.1,71.2c-0.3,0-0.5,0-0.8-0.1c-0.2-0.1-0.4-0.2-0.6-0.3l0,0.3h-0.5l0-1.6h0.4c0,0.2,0.1,0.4,0.2,0.6
		c0.1,0.2,0.3,0.3,0.5,0.4c0.2,0.1,0.4,0.2,0.7,0.2c0.1,0,0.3,0,0.4-0.1c0.1,0,0.2-0.1,0.3-0.2c0.1-0.1,0.1-0.2,0.1-0.4
		c0-0.2,0-0.3-0.1-0.4c-0.1-0.1-0.2-0.2-0.4-0.3c-0.2-0.1-0.3-0.2-0.5-0.2c-0.2-0.1-0.4-0.2-0.5-0.2c-0.2-0.1-0.4-0.2-0.5-0.3
		c-0.2-0.1-0.3-0.2-0.4-0.4c-0.1-0.2-0.1-0.4-0.1-0.6c0-0.1,0-0.3,0.1-0.5s0.1-0.3,0.3-0.4c0.1-0.1,0.3-0.3,0.5-0.3
		c0.2-0.1,0.5-0.1,0.8-0.1c0.2,0,0.3,0,0.5,0.1c0.2,0.1,0.4,0.2,0.6,0.3l0-0.3h0.5V68H15c0-0.2-0.1-0.4-0.2-0.6
		c-0.1-0.2-0.2-0.3-0.4-0.4c-0.2-0.1-0.4-0.2-0.6-0.2c-0.2,0-0.4,0.1-0.6,0.2C13.1,67,13,67.2,13,67.4c0,0.2,0.1,0.3,0.2,0.4
		c0.1,0.1,0.3,0.2,0.4,0.3c0.2,0.1,0.4,0.2,0.6,0.2c0.3,0.1,0.5,0.2,0.7,0.3c0.2,0.1,0.4,0.3,0.5,0.5c0.1,0.2,0.2,0.4,0.2,0.7
		c0,0.3-0.1,0.6-0.2,0.8c-0.2,0.2-0.3,0.4-0.6,0.5C14.6,71.1,14.4,71.2,14.1,71.2z"/>
	<path d="M19.9,71.2c-0.2,0-0.3,0-0.5-0.1c-0.2,0-0.3-0.1-0.4-0.2c-0.1-0.1-0.2-0.3-0.3-0.5c-0.1-0.2-0.1-0.5-0.1-0.9l0-2.5H18v-0.5
		c0.2,0,0.3-0.1,0.5-0.2c0.2-0.1,0.3-0.3,0.4-0.5c0.1-0.2,0.2-0.4,0.3-0.6h0.4v1.3H21v0.5l-1.4,0l0,2.4c0,0.2,0,0.4,0.1,0.6
		c0,0.2,0.1,0.3,0.2,0.4c0.1,0.1,0.2,0.1,0.4,0.1c0.1,0,0.3,0,0.4-0.1c0.1-0.1,0.3-0.2,0.4-0.4l0.3,0.3c-0.1,0.2-0.3,0.4-0.4,0.5
		c-0.1,0.1-0.3,0.2-0.4,0.3c-0.1,0.1-0.3,0.1-0.4,0.1C20.1,71.2,20,71.2,19.9,71.2z"/>
	<path d="M23.6,70.6c0.2,0,0.3,0,0.4-0.1c0.1-0.1,0.1-0.2,0.1-0.4c0-0.2,0-0.3,0-0.5v-1.9c0-0.1,0-0.2,0-0.3s0-0.2,0-0.3
		c-0.1,0-0.2,0-0.3,0c-0.1,0-0.2,0-0.3,0v-0.5h0.3c0.3,0,0.4,0,0.6-0.1c0.1-0.1,0.2-0.1,0.3-0.2H25c0,0.1,0,0.2,0,0.4
		c0,0.2,0,0.3,0,0.5c0.1-0.2,0.2-0.3,0.4-0.5c0.2-0.1,0.3-0.2,0.5-0.3c0.2-0.1,0.4-0.1,0.6-0.1c0.2,0,0.3,0.1,0.5,0.2
		c0.1,0.1,0.2,0.3,0.2,0.5c0,0.1,0,0.1,0,0.2c0,0.1-0.1,0.1-0.2,0.2c-0.1,0.1-0.2,0.1-0.3,0.1c-0.1,0-0.2-0.1-0.3-0.1
		c-0.1-0.1-0.1-0.2-0.1-0.4c-0.1,0-0.3,0-0.4,0.1c-0.1,0.1-0.3,0.2-0.4,0.4c-0.1,0.1-0.2,0.3-0.3,0.5v2c0,0.1,0,0.2,0,0.3
		c0,0.1,0,0.2,0,0.3c0.1,0,0.2,0,0.3,0c0.1,0,0.2,0,0.3,0V71h-2L23.6,70.6L23.6,70.6z"/>
	<path d="M31.6,71.2c-0.4,0-0.8-0.1-1.2-0.3c-0.3-0.2-0.6-0.5-0.8-0.8c-0.2-0.4-0.3-0.8-0.3-1.2c0-0.5,0.1-0.9,0.3-1.3
		c0.2-0.4,0.5-0.7,0.8-0.9c0.3-0.2,0.7-0.3,1.1-0.3c0.4,0,0.8,0.1,1.2,0.3c0.3,0.2,0.6,0.5,0.8,0.8c0.2,0.4,0.3,0.8,0.3,1.2
		c0,0.5-0.1,0.9-0.3,1.3c-0.2,0.4-0.5,0.7-0.8,0.9C32.4,71.1,32,71.2,31.6,71.2z M31.7,70.7c0.3,0,0.5-0.1,0.7-0.3
		c0.2-0.2,0.3-0.4,0.4-0.7c0.1-0.3,0.1-0.6,0.1-0.9c0-0.3,0-0.5-0.1-0.8c0-0.3-0.1-0.5-0.2-0.7c-0.1-0.2-0.2-0.4-0.4-0.5
		c-0.2-0.1-0.3-0.2-0.6-0.2c-0.3,0-0.5,0.1-0.7,0.3c-0.2,0.2-0.3,0.4-0.4,0.7c-0.1,0.3-0.1,0.6-0.1,0.9c0,0.4,0,0.7,0.1,1
		c0.1,0.3,0.2,0.6,0.4,0.8C31.1,70.6,31.4,70.7,31.7,70.7z M31.1,65.8l-0.3-0.3l0.7-1.3c0.1-0.1,0.2-0.2,0.3-0.2c0.1,0,0.2,0,0.2,0
		c0.1,0,0.1,0,0.2,0.1c0,0,0.1,0.1,0.1,0.2c0,0.1,0,0.2,0,0.3c0,0.1-0.1,0.2-0.2,0.3L31.1,65.8z"/>
	<path d="M42.6,71.2c-0.3,0-0.5,0-0.8-0.1c-0.3-0.1-0.5-0.2-0.7-0.3c-0.2-0.1-0.4-0.3-0.5-0.6c-0.1-0.2-0.2-0.5-0.2-0.8
		c0-0.4,0.1-0.8,0.4-1.1c0.3-0.3,0.6-0.6,1-0.7c-0.2-0.2-0.3-0.4-0.4-0.6c-0.1-0.2-0.2-0.4-0.2-0.5c0-0.2-0.1-0.4-0.1-0.5
		c0-0.5,0.2-0.8,0.5-1.1s0.7-0.4,1.2-0.4c0.3,0,0.6,0.1,0.8,0.2c0.2,0.1,0.4,0.3,0.5,0.5c0.1,0.2,0.2,0.4,0.2,0.7
		c0,0.2-0.1,0.5-0.2,0.7c-0.1,0.2-0.3,0.4-0.5,0.6c-0.2,0.2-0.5,0.4-0.8,0.5c0.1,0.1,0.3,0.3,0.4,0.5c0.2,0.2,0.4,0.4,0.6,0.6
		c0.2,0.2,0.4,0.4,0.6,0.6c0-0.1,0-0.2,0.1-0.3c0-0.1,0-0.2,0-0.3c0-0.2,0-0.3-0.1-0.4c0-0.1-0.1-0.2-0.2-0.3
		c-0.1-0.1-0.2-0.1-0.4-0.1v-0.4h1.6v0.5l-0.7,0c0.1,0.1,0.1,0.2,0.2,0.3c0,0.1,0.1,0.3,0.1,0.4c0,0.1,0,0.3,0,0.5
		c0,0.2-0.1,0.4-0.1,0.5c0.1,0,0.1,0.1,0.2,0.2c0.1,0.1,0.1,0.1,0.2,0.2c0.3,0.2,0.5,0.4,0.7,0.5c0.2,0.1,0.3,0.2,0.5,0.2V71h-0.9
		c-0.1,0-0.2-0.1-0.4-0.2c-0.2-0.1-0.4-0.3-0.7-0.5c-0.2,0.2-0.5,0.4-0.8,0.6C43.4,71.1,43,71.2,42.6,71.2z M42.8,70.7
		c0.3,0,0.6,0,0.8-0.2c0.2-0.1,0.4-0.3,0.6-0.4c-0.1,0-0.1-0.1-0.2-0.2c-0.1-0.1-0.1-0.1-0.2-0.2c-0.4-0.4-0.7-0.7-1-1
		c-0.3-0.3-0.5-0.5-0.7-0.8c-0.2,0.1-0.3,0.2-0.4,0.4c-0.1,0.2-0.2,0.3-0.2,0.5c0,0.2-0.1,0.3-0.1,0.4c0,0.3,0.1,0.6,0.2,0.8
		c0.1,0.2,0.3,0.4,0.5,0.5C42.3,70.6,42.5,70.6,42.8,70.7z M42.7,67.3c0.3-0.2,0.5-0.5,0.7-0.7c0.1-0.3,0.2-0.5,0.2-0.8
		c0-0.3-0.1-0.5-0.2-0.7c-0.1-0.2-0.3-0.3-0.6-0.3c-0.2,0-0.4,0.1-0.5,0.3c-0.2,0.2-0.2,0.4-0.2,0.7c0,0.2,0.1,0.5,0.2,0.7
		C42.4,66.8,42.5,67.1,42.7,67.3z"/>
	<path d="M52.6,70.6c0.2,0,0.3,0,0.4-0.1c0.1-0.1,0.1-0.2,0.1-0.4c0-0.2,0-0.3,0-0.5v-4.1c0-0.1,0-0.2,0-0.3c0-0.1,0-0.2,0-0.3
		c-0.1,0-0.2,0-0.3,0c-0.1,0-0.2,0-0.3,0v-0.5c0.3,0,0.5,0,0.6,0c0.2,0,0.3-0.1,0.4-0.1c0.1,0,0.2-0.1,0.2-0.1h0.3v5.8
		c0,0.1,0,0.2,0,0.3c0,0.1,0,0.2,0,0.3c0.1,0,0.2,0,0.3,0c0.1,0,0.2,0,0.3,0V71h-2V70.6z"/>
	<path d="M59.3,71.2c-0.4,0-0.8-0.1-1.2-0.3c-0.3-0.2-0.6-0.5-0.8-0.8c-0.2-0.4-0.3-0.8-0.3-1.2c0-0.5,0.1-0.9,0.3-1.3
		c0.2-0.4,0.5-0.7,0.8-0.9c0.3-0.2,0.7-0.3,1.1-0.3c0.4,0,0.8,0.1,1.2,0.3c0.3,0.2,0.6,0.5,0.8,0.8c0.2,0.4,0.3,0.8,0.3,1.2
		c0,0.5-0.1,0.9-0.3,1.3c-0.2,0.4-0.5,0.7-0.8,0.9C60.2,71.1,59.8,71.2,59.3,71.2z M59.4,70.7c0.3,0,0.5-0.1,0.7-0.3
		c0.2-0.2,0.3-0.4,0.4-0.7c0.1-0.3,0.1-0.6,0.1-0.9c0-0.3,0-0.5-0.1-0.8c0-0.3-0.1-0.5-0.2-0.7c-0.1-0.2-0.2-0.4-0.4-0.5
		c-0.2-0.1-0.3-0.2-0.6-0.2c-0.3,0-0.5,0.1-0.7,0.3c-0.2,0.2-0.3,0.4-0.4,0.7c-0.1,0.3-0.1,0.6-0.1,0.9c0,0.4,0,0.7,0.1,1
		c0.1,0.3,0.2,0.6,0.4,0.8C58.9,70.6,59.1,70.7,59.4,70.7z"/>
	<path d="M66,71.2c-0.3,0-0.6-0.1-0.8-0.2c-0.2-0.1-0.4-0.3-0.5-0.6s-0.2-0.7-0.2-1.2v-1.4c0-0.1,0-0.2,0-0.3c0-0.1,0-0.2,0-0.3
		c-0.1,0-0.2,0-0.3,0c-0.1,0-0.2,0-0.3,0v-0.5h0.2c0.3,0,0.5,0,0.7-0.1c0.2-0.1,0.3-0.1,0.3-0.2h0.3v2.8c0,0.5,0.1,0.8,0.2,1.1
		c0.1,0.2,0.4,0.4,0.7,0.3c0.2,0,0.4-0.1,0.6-0.2c0.2-0.1,0.3-0.3,0.5-0.4v-2.2c0-0.1,0-0.3,0-0.4c0-0.1,0-0.2,0-0.3
		c-0.1,0-0.2,0-0.3,0c-0.1,0-0.2,0-0.3,0v-0.5h0.3c0.3,0,0.5,0,0.6-0.1c0.2-0.1,0.3-0.1,0.3-0.2h0.3l0,3.4c0,0.1,0,0.2,0,0.4
		c0,0.2,0,0.3,0,0.4c0.1,0,0.2,0,0.3,0c0.1,0,0.2,0,0.3,0V71h-1.4c0-0.1,0-0.2,0-0.3c0-0.1,0-0.2,0-0.2c-0.2,0.2-0.4,0.3-0.6,0.5
		C66.6,71.1,66.3,71.2,66,71.2z"/>
	<path d="M71.4,71v-0.4c0.2,0,0.3,0,0.4-0.1c0.1-0.1,0.1-0.2,0.1-0.4c0-0.2,0-0.3,0-0.5l0-1.9c0-0.1,0-0.2,0-0.3s0-0.2,0-0.3
		c-0.1,0-0.2,0-0.3,0c-0.1,0-0.2,0-0.3,0v-0.5c0.3,0,0.5,0,0.6,0c0.2,0,0.3-0.1,0.4-0.1c0.1,0,0.1-0.1,0.2-0.1h0.3
		c0,0.1,0,0.1,0,0.2c0,0,0,0.1,0,0.2c0,0.1,0,0.1,0,0.2c0.1-0.1,0.3-0.2,0.4-0.3c0.2-0.1,0.3-0.2,0.5-0.2c0.2-0.1,0.3-0.1,0.5-0.1
		c0.5,0,0.9,0.2,1.2,0.5c0.2,0.3,0.4,0.8,0.4,1.6v1.6c0,0.1,0,0.2,0,0.3c0,0.1,0,0.2,0,0.3c0.1,0,0.2,0,0.3,0c0.1,0,0.2,0,0.3,0V71
		h-2v-0.4c0.2,0,0.3,0,0.4-0.1c0.1-0.1,0.1-0.2,0.1-0.4c0-0.2,0-0.3,0-0.5v-1.3c0-0.5-0.1-0.8-0.2-1.1c-0.1-0.2-0.4-0.4-0.7-0.4
		c-0.2,0-0.4,0-0.6,0.1c-0.2,0.1-0.3,0.2-0.5,0.4c0,0.1,0,0.1,0,0.2s0,0.1,0,0.2v2.1c0,0.1,0,0.2,0,0.3c0,0.1,0,0.2,0,0.3
		c0.1,0,0.2,0,0.3,0c0.1,0,0.2,0,0.3,0V71L71.4,71L71.4,71z"/>
	<path d="M80.9,73.5c-0.5,0-1-0.1-1.3-0.2c-0.3-0.1-0.6-0.3-0.7-0.5c-0.1-0.2-0.2-0.4-0.2-0.6c0-0.2,0-0.3,0.1-0.5
		c0.1-0.1,0.2-0.3,0.3-0.4c0.1-0.1,0.3-0.2,0.4-0.3c-0.2-0.1-0.4-0.2-0.5-0.3c-0.1-0.1-0.2-0.3-0.2-0.5c0-0.2,0.1-0.4,0.2-0.6
		c0.2-0.2,0.4-0.3,0.7-0.4c-0.3-0.1-0.5-0.3-0.6-0.5c-0.2-0.2-0.2-0.5-0.3-0.8c0-0.4,0.1-0.7,0.3-1c0.2-0.3,0.4-0.5,0.7-0.6
		c0.3-0.2,0.6-0.2,0.9-0.2c0.2,0,0.4,0,0.6,0.1c0.2,0.1,0.4,0.1,0.5,0.2c0.1-0.2,0.2-0.3,0.3-0.5c0.1-0.1,0.2-0.3,0.4-0.3
		c0.1-0.1,0.3-0.1,0.5-0.1c0.2,0,0.3,0,0.4,0.1c0.1,0.1,0.1,0.2,0.1,0.4c0,0,0,0.1,0,0.2s-0.1,0.1-0.1,0.2c-0.1,0-0.2,0.1-0.3,0.1
		c-0.1,0-0.2,0-0.3-0.1c-0.1-0.1-0.1-0.1-0.1-0.2c-0.1,0-0.2,0.1-0.3,0.2c-0.1,0.1-0.1,0.3-0.2,0.4c0.2,0.1,0.3,0.3,0.4,0.5
		c0.1,0.2,0.1,0.4,0.1,0.6c0,0.3-0.1,0.7-0.3,0.9c-0.2,0.3-0.4,0.5-0.7,0.6c-0.3,0.2-0.6,0.2-1,0.2c-0.1,0-0.2,0-0.3,0
		c-0.1,0-0.2,0-0.3,0c-0.2,0-0.4,0-0.5,0.1c-0.1,0.1-0.2,0.2-0.1,0.3c0,0.1,0.2,0.2,0.4,0.3c0.2,0,0.5,0.1,1,0.1
		c0.5,0,0.9,0.1,1.2,0.2c0.3,0.1,0.6,0.2,0.8,0.4c0.2,0.2,0.3,0.5,0.3,0.8c0,0.3-0.1,0.5-0.2,0.7c-0.1,0.2-0.3,0.4-0.5,0.5
		c-0.2,0.1-0.5,0.2-0.8,0.3C81.4,73.5,81.1,73.5,80.9,73.5z M80.9,73.1c0.5,0,0.9-0.1,1.1-0.3c0.3-0.2,0.4-0.4,0.4-0.6
		c0-0.2-0.1-0.3-0.2-0.5c-0.1-0.1-0.3-0.2-0.6-0.2c-0.2,0-0.5-0.1-0.8-0.1c-0.2,0-0.3,0-0.5,0c-0.2,0-0.3,0-0.5,0
		c-0.1,0.1-0.2,0.2-0.3,0.4c-0.1,0.1-0.1,0.3-0.1,0.4c0,0.3,0.1,0.5,0.4,0.7C80.2,73,80.5,73.1,80.9,73.1z M80.8,69.3
		c0.2,0,0.4-0.1,0.5-0.2c0.1-0.1,0.2-0.3,0.3-0.4c0.1-0.2,0.1-0.4,0.1-0.6c0-0.3,0-0.5-0.1-0.7c-0.1-0.2-0.2-0.4-0.3-0.5
		c-0.1-0.1-0.3-0.2-0.5-0.2c-0.3,0-0.5,0.1-0.7,0.4c-0.2,0.2-0.2,0.5-0.2,0.9c0,0.3,0,0.5,0.1,0.7c0.1,0.2,0.2,0.4,0.3,0.5
		C80.4,69.3,80.6,69.3,80.8,69.3z"/>
	<path d="M87.7,71.2c-0.4,0-0.8-0.1-1.1-0.3c-0.3-0.2-0.6-0.5-0.8-0.8c-0.2-0.4-0.3-0.8-0.3-1.3c0-0.4,0.1-0.8,0.3-1.2
		c0.2-0.4,0.5-0.7,0.8-0.9c0.3-0.2,0.7-0.3,1.2-0.3c0.3,0,0.5,0,0.7,0.1c0.2,0.1,0.4,0.2,0.6,0.4c0.2,0.2,0.3,0.4,0.4,0.7
		c0.1,0.3,0.2,0.6,0.2,1l-3.1,0.1c0,0.4,0,0.8,0.1,1.1c0.1,0.3,0.2,0.6,0.5,0.8c0.2,0.2,0.5,0.3,0.8,0.3c0.2,0,0.3,0,0.5-0.1
		c0.2-0.1,0.4-0.1,0.5-0.3c0.2-0.1,0.3-0.2,0.4-0.4l0.3,0.2c-0.2,0.3-0.4,0.5-0.6,0.6c-0.2,0.2-0.5,0.3-0.7,0.3
		C88.1,71.1,87.9,71.2,87.7,71.2z M86.6,68h2.1c0-0.2,0-0.4-0.1-0.6c-0.1-0.2-0.2-0.3-0.3-0.4c-0.1-0.1-0.3-0.2-0.5-0.2
		c-0.3,0-0.6,0.1-0.8,0.3C86.8,67.3,86.6,67.6,86.6,68z"/>
</g>
</svg>
