<?xml version="1.0" encoding="utf-8"?>
<!-- Generator: Adobe Illustrator 24.0.0, SVG Export Plug-In . SVG Version: 6.00 Build 0)  -->
<svg version="1.1" id="Layer_1" xmlns="http://www.w3.org/2000/svg" xmlns:xlink="http://www.w3.org/1999/xlink" x="0px" y="0px"
	 viewBox="0 0 90 90" style="enable-background:new 0 0 90 90;" xml:space="preserve">
<style type="text/css">
	.st0{fill:#0C0C0C;}
	.st1{fill:#010101;}
	.st2{fill:#010101;stroke:#010101;stroke-width:0.5;stroke-miterlimit:10;}
</style>
<g>
	<path class="st0" d="M90,51.5H0v0.7h90V51.5z"/>
	<path class="st1" d="M7.2,21.6c-0.4-0.6-0.9-1.1-1.3-1.4c-0.5-0.3-0.8-0.5-1.1-0.5H0v26.6h2.2V35h2.5c0.4,0,0.9-0.2,1.4-0.5
		c0.5-0.3,0.9-0.8,1.3-1.4c0.4-0.6,0.7-1.4,0.9-2.4c0.2-1,0.4-2.1,0.4-3.4c0-1.3-0.2-2.4-0.5-3.3C8,23,7.6,22.2,7.2,21.6z M2.2,21.9
		h1.7c0.5,0,0.8,0.2,1.1,0.5c0.3,0.3,0.6,0.7,0.8,1.3c0.2,0.5,0.4,1.1,0.5,1.8c0.1,0.6,0.2,1.3,0.2,1.9c0,0.1,0,0.3,0,0.4
		c0,0.1,0,0.2,0,0.4c-0.1,0.5-0.1,1.1-0.2,1.7c-0.1,0.6-0.2,1.1-0.4,1.5c-0.2,0.4-0.4,0.8-0.6,1.1c-0.3,0.3-0.6,0.4-1,0.4h-2V21.9z"
		/>
	<path class="st1" d="M26.4,37.7c-0.1-0.5-0.3-0.9-0.4-1.3c-0.2-0.6-0.5-1.3-0.9-1.9c0.6-0.5,1.2-1.3,1.7-2.4
		c0.5-1.2,0.8-2.8,0.8-4.8c0-1.1-0.1-2.1-0.4-3c-0.2-0.9-0.5-1.7-0.9-2.4c-0.4-0.7-0.8-1.2-1.3-1.5c-0.5-0.4-1-0.6-1.4-0.6h-4.8
		v26.6h2.3V35h1.3c0.2,0.1,0.3,0.3,0.5,0.5c0.2,0.2,0.4,0.5,0.6,0.9c0.2,0.4,0.4,1,0.6,1.6c0.2,0.7,0.4,1.6,0.7,2.7l1.3,5.6h2.5
		l-2.2-8.8V37.7z M21.1,21.9h1.6c0.5,0,1,0.2,1.3,0.5c0.3,0.3,0.6,0.7,0.8,1.3c0.2,0.5,0.3,1.1,0.4,1.8c0.1,0.6,0.2,1.3,0.2,1.9
		c0,0.1,0,0.3,0,0.4c0,0.1,0,0.2,0,0.4c-0.1,0.5-0.1,1.1-0.2,1.7c-0.1,0.6-0.2,1.1-0.4,1.5c-0.2,0.4-0.4,0.8-0.7,1.1
		c-0.3,0.3-0.6,0.4-1,0.4h-2L21.1,21.9L21.1,21.9z"/>
	<path class="st1" d="M42.8,19.7l-4.3,26.6h2.4L44,26.2l3.3,20.2h2.4l-4.5-26.6H42.8z"/>
	<path class="st1" d="M66.4,37.1l-4.3-17.3l0-0.1h-2.3v26.6h2.2V29l4.4,17.3h2.2V19.7h-2.2V37.1z"/>
	<path class="st1" d="M85.5,19.7H83l-4.3,26.6h2.4l3.1-20.2l3.3,20.2H90L85.5,19.7z"/>
	<path class="st2" d="M11.3,57.1h0.6v11.8c0,0.3-0.1,0.7-0.3,0.9c-0.2,0.3-0.5,0.4-0.9,0.5H9c-0.4,0-0.6-0.2-0.8-0.4
		C8,69.6,7.9,69.3,7.9,69v-2.9h0.6v2.4c0,0.4,0.1,0.7,0.2,0.9c0.1,0.2,0.3,0.3,0.7,0.3h0.9c0.4,0,0.7-0.1,0.9-0.3
		c0.1-0.2,0.2-0.5,0.2-0.9V57.1z"/>
	<path class="st2" d="M19,69.4c0.1,0.2,0.4,0.3,0.9,0.3h0.9c0.3,0,0.6-0.1,0.7-0.3c0.1-0.2,0.2-0.5,0.2-0.9V57.1h0.6V69
		c0,0.3-0.1,0.6-0.3,0.9c-0.2,0.3-0.5,0.4-0.8,0.4h-1.8c-0.4,0-0.7-0.2-0.9-0.5c-0.2-0.3-0.3-0.6-0.3-0.9V57.1h0.6v11.4
		C18.7,68.9,18.8,69.2,19,69.4z"/>
	<path class="st2" d="M28.4,57.1H29v13.2h-0.7V57.1z"/>
	<path class="st2" d="M36,69.4c0.1,0.2,0.4,0.3,0.9,0.3h1c0.3,0,0.6-0.1,0.7-0.3c0.1-0.2,0.2-0.5,0.2-0.9v-2.4h0.6V69
		c0,0.3-0.1,0.6-0.3,0.9c-0.2,0.3-0.5,0.4-0.8,0.4h-1.8c-0.4,0-0.7-0.2-0.9-0.5c-0.2-0.3-0.3-0.6-0.3-0.9V58.5c0-0.4,0.1-0.7,0.3-1
		c0.2-0.3,0.5-0.4,0.9-0.4h1.7c0.4,0,0.7,0.2,0.9,0.4c0.2,0.3,0.3,0.5,0.3,0.8v2.9h-0.6v-2.4c0-0.4-0.1-0.7-0.2-0.9
		c-0.1-0.2-0.3-0.3-0.7-0.3h-1.3c-0.2,0-0.4,0.1-0.5,0.3c-0.1,0.2-0.2,0.5-0.2,0.8v9.7C35.8,68.9,35.9,69.2,36,69.4z"/>
	<path class="st2" d="M45.5,57.1h4.1v0.6h-3.5v5.5h3.1v0.6h-3.1v5.9h3.5v0.6h-4.1V57.1z"/>
	<path class="st2" d="M55.8,57.1h2.2c0.4,0,0.7,0.1,0.9,0.2c0.2,0.2,0.4,0.4,0.6,0.7c0.1,0.3,0.3,0.6,0.3,1c0.1,0.4,0.1,0.9,0.1,1.4
		c0,0.5-0.1,1.1-0.2,1.6c-0.1,0.5-0.3,1-0.6,1.3c0.4,0.2,0.6,0.6,0.8,1.2c0.2,0.6,0.3,1.2,0.3,2c0,0.4,0,0.9-0.1,1.3
		c-0.1,0.5-0.2,0.9-0.4,1.2c-0.2,0.4-0.4,0.7-0.7,0.9c-0.3,0.2-0.6,0.4-1,0.4h-2.2L55.8,57.1L55.8,57.1z M57.7,63.2
		c0.4,0,0.6-0.1,0.8-0.2c0.2-0.2,0.4-0.5,0.5-0.9c0.1-0.4,0.2-1,0.2-1.6c0-0.4,0-0.8,0-1.1c0-0.3-0.1-0.6-0.2-0.8
		c-0.1-0.2-0.3-0.4-0.5-0.5c-0.2-0.1-0.5-0.2-0.8-0.2h-1.3v5.5L57.7,63.2L57.7,63.2z M57.9,69.7c0.5-0.2,0.9-0.5,1.2-1
		c0.3-0.5,0.4-1.2,0.4-2c0-0.6-0.1-1.2-0.2-1.7c-0.1-0.5-0.3-0.8-0.6-1c-0.1-0.1-0.2-0.1-0.4-0.1c-0.2,0-0.3,0-0.5,0h-1.5v5.8
		L57.9,69.7L57.9,69.7z"/>
	<path class="st2" d="M67,70.3h-0.7l2.1-13.2h0.8l2.2,13.2h-0.7l-2-11.9L67,70.3z"/>
	<path class="st2" d="M77.7,57.1h2.2c0.2,0,0.4,0.1,0.6,0.3c0.2,0.2,0.4,0.4,0.6,0.7c0.2,0.3,0.3,0.7,0.4,1.1
		c0.1,0.4,0.2,0.9,0.2,1.5c0,1.1-0.1,1.9-0.4,2.5c-0.3,0.6-0.6,1-1,1.1c0.2,0.4,0.4,0.7,0.5,1.1c0.1,0.3,0.2,0.8,0.4,1.3l0.9,3.6
		h-0.7l-0.6-2.7c-0.1-0.6-0.3-1.1-0.4-1.5c-0.1-0.4-0.2-0.7-0.4-0.9s-0.2-0.4-0.3-0.5c-0.1-0.1-0.2-0.2-0.3-0.3h-1.1v5.8h-0.6
		L77.7,57.1L77.7,57.1z M79.6,63.8c0.3,0,0.6-0.1,0.8-0.3c0.2-0.2,0.3-0.5,0.4-0.8c0.1-0.3,0.2-0.6,0.2-1c0-0.4,0.1-0.7,0.1-1
		c0-0.4-0.1-0.7-0.1-1.1c0-0.4-0.1-0.7-0.2-1c-0.1-0.3-0.3-0.5-0.5-0.7c-0.2-0.2-0.5-0.3-0.8-0.3h-1.2v6.1L79.6,63.8L79.6,63.8z"/>
</g>
</svg>
