<?xml version="1.0" encoding="utf-8"?>
<!-- Generator: Adobe Illustrator 24.0.0, SVG Export Plug-In . SVG Version: 6.00 Build 0)  -->
<svg version="1.1" id="Layer_1" xmlns="http://www.w3.org/2000/svg" xmlns:xlink="http://www.w3.org/1999/xlink" x="0px" y="0px"
	 viewBox="0 0 90 90" style="enable-background:new 0 0 90 90;" xml:space="preserve">
<path d="M2.4,47c0,0.1,0,0.1,0,0.2s0.1,0.2,0.3,0.5c0.2,0.2,0.4,0.4,0.7,0.6c0.3,0.2,0.7,0.3,1.4,0.5c0.6,0.1,1.3,0.2,2.2,0.2
	c1.2,0,2.1-0.2,2.9-0.5c0.8-0.3,1.2-0.7,1.2-1.3c0-0.4-0.2-0.7-0.6-0.9C10.1,46,9.6,45.9,9,45.8c-0.6-0.1-1.3-0.2-2.1-0.2
	c-0.8-0.1-1.5-0.1-2.3-0.2c-0.8-0.1-1.5-0.2-2.1-0.4c-0.6-0.2-1.2-0.4-1.6-0.8c-0.4-0.4-0.6-0.9-0.6-1.4c0-1.1,0.6-1.9,1.7-2.4
	c1.1-0.6,2.7-0.9,4.7-0.9c1.2,0,2.3,0.1,3.1,0.3c0.9,0.2,1.5,0.5,2,0.8c0.4,0.3,0.7,0.6,1,0.9c0.2,0.3,0.4,0.6,0.4,0.8l0.1,0.3h-2.5
	c0,0,0-0.1-0.1-0.2c0-0.1-0.1-0.2-0.3-0.3s-0.4-0.3-0.7-0.4c-0.3-0.1-0.7-0.2-1.2-0.3C8,41.1,7.4,41,6.7,41c-1.2,0-2.2,0.2-2.9,0.5
	s-1.1,0.6-1.1,1v0c0,0.3,0.2,0.5,0.6,0.7c0.4,0.2,0.9,0.3,1.5,0.4c0.6,0.1,1.3,0.1,2.1,0.2c0.8,0.1,1.5,0.1,2.3,0.3
	c0.8,0.1,1.5,0.3,2.1,0.5c0.6,0.2,1.1,0.5,1.5,1c0.4,0.4,0.6,1,0.6,1.6c0,0.7-0.2,1.2-0.6,1.7c-0.4,0.5-1,0.9-1.6,1.1
	c-0.7,0.3-1.4,0.4-2.1,0.5c-0.7,0.1-1.5,0.2-2.3,0.2c-0.9,0-1.7-0.1-2.5-0.2c-0.7-0.1-1.4-0.3-1.8-0.5c-0.5-0.2-0.9-0.4-1.3-0.7
	C1,49,0.7,48.7,0.5,48.5c-0.2-0.2-0.3-0.5-0.4-0.7c-0.1-0.2-0.2-0.4-0.2-0.5c0-0.1,0-0.2,0-0.2L2.4,47L2.4,47z"/>
<path d="M14.1,45c0-1.6,0.7-3,2.2-4.1c1.4-1.1,3.3-1.6,5.6-1.6c2.3,0,4.1,0.5,5.6,1.6s2.2,2.4,2.2,4.1c0,1.6-0.7,3-2.2,4.1
	c-1.4,1.1-3.3,1.6-5.6,1.6c-2.3,0-4.1-0.5-5.6-1.6C14.8,48,14.1,46.6,14.1,45z M16.6,45c0,1.1,0.5,2,1.5,2.7c1,0.7,2.2,1.1,3.8,1.1
	c1.6,0,2.9-0.4,3.8-1.1c1-0.7,1.4-1.6,1.4-2.7c0-1.1-0.5-2-1.4-2.7c-1-0.7-2.2-1.1-3.8-1.1c-1.6,0-2.8,0.4-3.8,1.1
	C17.1,43,16.6,43.9,16.6,45z"/>
<path d="M57.8,39.5v11H55l-9.6-8.8v8.8h-2.8l-9.6-8.8v8.8h-2.4v-11h2.8l9.6,8.9v-8.9h2.8l9.6,8.9v-8.9H57.8z"/>
<path d="M58.8,45c0-1.6,0.7-3,2.2-4.1c1.4-1.1,3.3-1.6,5.6-1.6c2.3,0,4.1,0.5,5.6,1.6s2.2,2.4,2.2,4.1c0,1.6-0.7,3-2.2,4.1
	c-1.4,1.1-3.3,1.6-5.6,1.6c-2.3,0-4.1-0.5-5.6-1.6C59.5,48,58.8,46.6,58.8,45z M61.2,45c0,1.1,0.5,2,1.5,2.7c1,0.7,2.2,1.1,3.8,1.1
	c1.6,0,2.9-0.4,3.8-1.1c1-0.7,1.4-1.6,1.4-2.7c0-1.1-0.5-2-1.4-2.7c-1-0.7-2.2-1.1-3.8-1.1c-1.6,0-2.8,0.4-3.8,1.1
	C61.7,43,61.2,43.9,61.2,45z"/>
<path d="M75.2,39.5H78l9.6,8.9v-8.9H90v11h-2.8l-9.6-8.8v8.8h-2.4V39.5z"/>
</svg>
