<?xml version="1.0" encoding="utf-8"?>
<!-- Generator: Adobe Illustrator 24.0.0, SVG Export Plug-In . SVG Version: 6.00 Build 0)  -->
<svg version="1.1" id="Layer_1" xmlns="http://www.w3.org/2000/svg" xmlns:xlink="http://www.w3.org/1999/xlink" x="0px" y="0px"
	 viewBox="0 0 90 90" style="enable-background:new 0 0 90 90;" xml:space="preserve">
<path d="M36.3,35.4c0.1,0,0.1,0,0.2-0.1c0.1,0,0.1-0.1,0.1-0.1c0.4-1,1.2-2,1.8-2.7c0.1-0.2,0.2-0.3,0.3-0.5c0-0.2,0-0.4,0-0.6
	c-0.1-0.2-0.2-0.4-0.3-0.5c-0.1-0.1-0.3-0.2-0.5-0.3l0,0c-0.1,0-0.1,0-0.2,0c-0.2,0-0.4,0.1-0.6,0.2c-0.2,0.1-0.3,0.3-0.4,0.5
	c-0.8,1.6-0.7,3.1-0.6,3.9c0,0.1,0.1,0.2,0.1,0.2C36.2,35.3,36.3,35.4,36.3,35.4z"/>
<path d="M74.2,76.6c-2.9,0-5.8-0.9-8.2-2.5c-2.4-1.6-4.3-3.9-5.4-6.6c-1.1-2.7-1.4-5.7-0.8-8.5c0.6-2.9,2-5.5,4-7.6
	c2.1-2.1,4.7-3.5,7.6-4c2.9-0.6,5.8-0.3,8.5,0.8c2.7,1.1,5,3,6.6,5.4c1.6,2.4,2.5,5.3,2.5,8.2c0,3.9-1.6,7.7-4.3,10.4
	C81.9,75.1,78.1,76.6,74.2,76.6z M74.2,47.4c-2.9,0-5.7,0.9-8.1,2.4c-2.4,1.6-4.2,3.9-5.3,6.5c-1.1,2.6-1.4,5.6-0.8,8.4
	c0.6,2.8,1.9,5.4,4,7.4c2,2,4.6,3.4,7.4,4c2.8,0.6,5.7,0.3,8.4-0.8c2.7-1.1,4.9-3,6.5-5.3c1.6-2.4,2.4-5.2,2.4-8.1
	c0-3.8-1.5-7.5-4.3-10.2C81.7,48.9,78.1,47.4,74.2,47.4z"/>
<path d="M74.3,71.9c-2.3,0-4.5-0.8-6.3-2.2c-1.8-1.4-3-3.5-3.4-5.7c-0.4-2.2-0.1-4.6,1-6.6c1.1-2,2.8-3.6,4.9-4.5
	c2.1-0.9,4.5-1,6.6-0.3c2.2,0.7,4.1,2.1,5.3,4c1.3,1.9,1.8,4.2,1.6,6.4c-0.2,2.3-1.2,4.4-2.8,6c-0.9,0.9-2,1.6-3.2,2.1
	C76.9,71.6,75.6,71.9,74.3,71.9z M74.3,52.3c-1.9,0-3.8,0.6-5.4,1.6c-1.6,1.1-2.8,2.6-3.6,4.4c-0.7,1.8-0.9,3.7-0.6,5.6
	c0.4,1.9,1.3,3.6,2.7,5c1.4,1.4,3.1,2.3,5,2.7c1.9,0.4,3.8,0.2,5.6-0.6c1.8-0.7,3.3-2,4.4-3.6c1.1-1.6,1.6-3.5,1.6-5.4
	c0-2.6-1-5-2.8-6.9C79.3,53.3,76.9,52.3,74.3,52.3L74.3,52.3z"/>
<path d="M64.5,55.6c0.5,0.3,0.5,0.7,0.2,1.3c-0.6,1.1-1.1,0.7-1.3,0.6c0.1-0.1,0.1-0.2,0.3-0.5c0.3,0.2,0.5-0.1,0.7-0.4
	c0.2-0.4,0.2-0.5,0-0.6c-0.1-0.1-0.2,0.1-0.5,0.4c-0.4,0.6-0.7,0.8-1.1,0.6c-0.3-0.2-0.5-0.6-0.2-1.3c0.4-0.8,1-0.8,1.3-0.6
	l-0.3,0.5c-0.1-0.1-0.4-0.1-0.6,0.3c-0.2,0.4-0.1,0.5,0,0.6c0.1,0.1,0.2,0,0.5-0.4C63.6,55.8,64,55.3,64.5,55.6z"/>
<path d="M63.8,53.5l-0.3-0.1l0.3-0.9l0.4,0.1L63.8,53.5z M65.9,53.1c0.6,0.5,0.6,1.2,0.1,1.7c-0.5,0.5-1.1,0.7-1.7,0.1
	c-0.6-0.5-0.6-1.2-0.1-1.7C64.6,52.7,65.3,52.6,65.9,53.1z M65.6,53.5c-0.4-0.3-0.7-0.2-1,0.1c-0.3,0.3-0.3,0.7,0,1
	c0.4,0.3,0.7,0.2,1-0.1C65.9,54.2,65.9,53.8,65.6,53.5L65.6,53.5z"/>
<path d="M65.2,52.2l1.9-1.4l0.3,0.4l-0.7,0.6l1.2,1.5l-0.4,0.3L66.2,52l-0.7,0.6L65.2,52.2z"/>
<path d="M70.5,51.7L70,51.9l-0.3-0.3l-1.1,0.6l0.1,0.4l-0.5,0.2l-0.3-2.5l0.8-0.4L70.5,51.7z M69.3,51.3l-0.8-0.8l-0.1,0.1l0.1,1.1
	L69.3,51.3z"/>
<path d="M71.9,48.8l0.5-0.1l0.5,2.4l-0.7,0.2l-1.4-1.4l-0.1,0l0.4,1.7l-0.5,0.1l-0.5-2.4l0.7-0.2l0,0l1.4,1.4l0.1,0L71.9,48.8z"/>
<path d="M75.7,49.8c0,0.8-0.6,1.2-1.3,1.2c-0.7,0-1.2-0.4-1.2-1.2c0-0.8,0.6-1.2,1.3-1.2C75.2,48.6,75.7,49.1,75.7,49.8z M75.2,49.8
	c0-0.5-0.3-0.7-0.7-0.7c-0.4,0-0.7,0.2-0.7,0.7c0,0.5,0.3,0.7,0.7,0.7C74.9,50.5,75.2,50.3,75.2,49.8L75.2,49.8z"/>
<path d="M79.6,51.5c-0.2,0.6-0.6,0.6-1.3,0.3c-1.1-0.4-0.9-1-0.8-1.3l0.5,0.2c-0.1,0.3,0.1,0.5,0.4,0.6c0.4,0.1,0.6,0.1,0.6-0.1
	c0.1-0.2-0.1-0.2-0.5-0.5c-0.6-0.4-0.9-0.6-0.7-1c0.1-0.3,0.5-0.6,1.2-0.3c0.9,0.3,0.9,0.9,0.7,1.2l-0.5-0.2
	c0.1-0.2,0.1-0.4-0.4-0.6c-0.4-0.1-0.5,0-0.6,0.1c0,0.1,0.1,0.2,0.4,0.4C79.3,50.7,79.8,51,79.6,51.5z"/>
<path d="M79.6,52.4l1.2-2.1l0.5,0.3L80,52.7L79.6,52.4z"/>
<path d="M83.4,52.2l-0.3,0.4L82,51.6L81.7,52l1.1,0.9l-0.3,0.4l-1.1-0.9l-0.3,0.4l1.1,0.9l-0.3,0.4l-1.1-0.9l-0.4-0.3l1.5-1.9
	L83.4,52.2z"/>
<path d="M83.8,52.5l1.5,1.8l-0.4,0.3l-0.6-0.7l-1.5,1.2l-0.3-0.4l1.5-1.2l-0.6-0.7L83.8,52.5z"/>
<path d="M86.6,56.7l-0.4,0.2l-0.7-1.3l-0.4,0.2l0.7,1.3l-0.4,0.2l-0.7-1.3l-0.4,0.2l0.7,1.3l-0.4,0.2l-0.9-1.8l2.1-1.1L86.6,56.7z"
	/>
<path d="M61.6,63.5c-0.1,0-0.2,0-0.3,0c-0.1,0-0.2-0.1-0.2-0.1c-0.1-0.1-0.1-0.1-0.2-0.2c0-0.1-0.1-0.2,0-0.3c0-0.3,0-1.5,0-1.5
	l2.4-0.1l0,0.9c0,0.1,0,0.2,0,0.3c0,0.5-0.2,0.8-0.7,0.8c-0.3,0-0.4-0.1-0.5-0.2C62.1,63.3,62,63.5,61.6,63.5z M61.7,63
	c0.2,0,0.3-0.2,0.3-0.4c0-0.2,0-0.6,0-0.7l-0.5,0l0,0.4c0,0.2,0,0,0,0.2C61.4,62.8,61.4,63,61.7,63L61.7,63z M62.8,61.8l-0.5,0
	c0,0.2,0,0.4,0,0.6c0,0.2,0,0.4,0.3,0.4c0.2,0,0.2-0.2,0.2-0.5C62.9,62.2,62.9,61.9,62.8,61.8L62.8,61.8z"/>
<path d="M63.9,65.8l-1.8-0.6l-0.8,0.2l-0.1-0.5l0.8-0.2l1.3-1.4l0.1,0.6l-0.9,0.9l0,0.1l1.2,0.4L63.9,65.8z"/>
<path d="M65.6,68.7l0.3,0.5l-2.5,0.6L63,69.2l1.5-2.1l0.3,0.5l-1.2,1.6l0,0L65.6,68.7z"/>
<path d="M64.4,71l1.8-1.7l0.4,0.4l-1.8,1.7L64.4,71z"/>
<path d="M67.2,72.2l0.4,0.3c-0.4,0.4-1,0.4-1.5,0c-0.5-0.4-0.7-1.1-0.2-1.7c0.5-0.6,1.2-0.6,1.7-0.2c0.5,0.4,0.7,1,0.4,1.5l-0.4-0.3
	c0.1-0.3,0-0.5-0.3-0.7c-0.3-0.2-0.7-0.3-1,0.1c-0.3,0.4-0.2,0.7,0.1,1C66.7,72.4,67,72.4,67.2,72.2L67.2,72.2z"/>
<path d="M68.5,71.4l2.1,1l-0.2,0.4l-0.8-0.4l-0.8,1.7L68.3,74l0.8-1.7l-0.8-0.4L68.5,71.4z"/>
<path d="M72.8,74.1c-0.2,0.8-0.8,1.1-1.5,0.9c-0.7-0.2-1.1-0.7-0.9-1.5c0.2-0.8,0.8-1.1,1.5-0.9C72.6,72.8,73,73.4,72.8,74.1z
	 M72.3,74c0.1-0.5-0.1-0.7-0.6-0.8c-0.4-0.1-0.8,0-0.9,0.5c-0.1,0.5,0.1,0.7,0.6,0.8C71.9,74.6,72.2,74.5,72.3,74z"/>
<path d="M74.9,74.5l0.5,0.9l-0.6,0l-0.4-0.8c-0.1,0-0.1,0-0.1,0l-0.6,0l0,0.8l-0.5,0l0-2.4l0.5,0l0.7,0c0.3,0,0.9,0,0.9,0.8
	C75.3,74.2,75.2,74.3,74.9,74.5z M74.9,73.8c0-0.3-0.3-0.3-0.5-0.3l-0.6,0l0,0.7l0.6,0C74.5,74.1,74.9,74.1,74.9,73.8z"/>
<path d="M79.1,72.9c0.3,0.9-0.5,1.1-0.7,1.2l-0.5,0.2l0.2,0.6L77.6,75l-0.8-2.3l0.5-0.2l0.5-0.2C78.1,72.3,78.8,72.1,79.1,72.9z
	 M78.7,73c-0.1-0.4-0.5-0.3-0.6-0.2L77.5,73l0.3,0.8l0.5-0.2C78.4,73.6,78.8,73.4,78.7,73z"/>
<path d="M81.7,71.7c0.4,0.7,0.2,1.3-0.4,1.7c-0.6,0.4-1.3,0.3-1.7-0.4c-0.4-0.7-0.2-1.3,0.4-1.7C80.6,71,81.3,71.1,81.7,71.7z
	 M81.3,72c-0.2-0.4-0.6-0.4-1-0.2c-0.4,0.2-0.5,0.6-0.3,1c0.3,0.4,0.6,0.4,1,0.2C81.4,72.8,81.5,72.4,81.3,72z"/>
<path d="M83.5,70.5l1,0.3L84,71.2l-0.8-0.3c0,0-0.1,0.1-0.1,0.1l-0.4,0.4l0.6,0.6l-0.4,0.4l-1.7-1.7l0.4-0.4
	c0.1-0.1,0.4-0.4,0.5-0.5c0.2-0.2,0.7-0.7,1.2-0.1C83.6,70,83.5,70.2,83.5,70.5z M82.9,70c-0.2-0.2-0.5,0-0.6,0.1l-0.4,0.4l0.5,0.5
	l0.4-0.4C82.9,70.5,83.2,70.3,82.9,70z"/>
<path d="M84,67.3l0.4,0.3l-0.9,1.3l0.4,0.3l0.8-1.2l0.4,0.3l-0.8,1.2l0.8,0.5l-0.3,0.4l-2-1.3L84,67.3z"/>
<path d="M86.3,68l-2.2-1l0.2-0.5l2.2,1L86.3,68z"/>
<path d="M86.3,64.5c0.4,0.1,1.1,0.5,0.8,1.5c0,0.1-0.3,0.9-0.3,1l-2.3-0.7l0.3-1C85.1,64.3,85.8,64.3,86.3,64.5z M86.1,65
	c-0.3-0.1-0.7-0.1-0.9,0.4l-0.1,0.5l1.4,0.4c0-0.1,0.1-0.3,0.1-0.5C86.8,65.3,86.4,65.1,86.1,65z"/>
<path d="M87.5,64.2l-2.4-0.3l0.1-0.5l2.4,0.3L87.5,64.2z"/>
<path d="M86.4,60.7c0.8,0,1.2,0.5,1.2,1.2c0,0.7-0.4,1.2-1.2,1.3c-0.8,0-1.2-0.5-1.2-1.2C85.2,61.2,85.6,60.7,86.4,60.7z M86.4,61.2
	c-0.5,0-0.7,0.3-0.7,0.7c0,0.4,0.2,0.7,0.7,0.7c0.5,0,0.7-0.3,0.7-0.7S86.9,61.2,86.4,61.2L86.4,61.2z"/>
<path d="M62.2,59.6c0.2,0,0.4-0.2,0.4-0.4c0-0.2-0.2-0.4-0.4-0.4s-0.4,0.2-0.4,0.4C61.8,59.5,61.9,59.6,62.2,59.6z"/>
<path d="M86.1,59.5c0.2,0,0.4-0.2,0.4-0.4c0-0.2-0.2-0.4-0.4-0.4c-0.2,0-0.4,0.2-0.4,0.4C85.7,59.3,85.9,59.5,86.1,59.5z"/>
<path d="M79.1,55.1c-0.1,0.3-0.2,0.6-0.3,0.8c-0.3,0.7-0.6,1.3-1.1,1.9c-0.5,0.6-1.1,1.1-1.9,1.4c-0.6,0.2-1.2,0.3-1.9,0.3
	c-0.6,0-1.2-0.2-1.8-0.3c-0.4-0.1-0.9-0.1-1.3-0.2c-0.2,0-0.4,0-0.6,0.1c-0.2,0.1-0.4,0.2-0.5,0.4c-0.1,0.2-0.2,0.4-0.2,0.6
	c0,0.3,0,0.6,0,0.9c0,0.1,0,0.2,0,0.3c0,0.1,0,0.1-0.1,0.2c0,0-0.1,0.1-0.1,0c0,0,0,0,0,0c0,0,0,0,0-0.1c0-0.1,0-0.2,0-0.3
	c0.1-0.9,0.2-1.8,0.2-2.7c0-0.7,0-1.5,0.1-2.2c0-0.5,0-1.1,0-1.6c0-0.1,0-0.2,0.1-0.2c0.1,0,0.1,0.1,0.1,0.2c0,0.2,0,0.4,0,0.6
	c0,0,0,0.1,0,0.1c0,0,0.1,0,0.1-0.1c0.2-0.2,0.5-0.4,0.8-0.6c1-0.6,2-0.6,3,0c0.4,0.2,0.8,0.5,1.1,0.9c0.4,0.4,0.9,0.8,1.4,1.1
	c0.2,0.1,0.4,0.2,0.7,0.3c0.2,0,0.4,0,0.6,0c0.2-0.1,0.4-0.2,0.6-0.3c0.3-0.3,0.6-0.7,0.7-1.2c0.1-0.2,0.1-0.3,0.1-0.5
	c0-0.1,0-0.1,0.1-0.2c0.1-0.1,0.1-0.1,0.2,0c0.1,0.2,0.2,0.4,0.2,0.6c0.1,1.2-0.1,2.5-0.8,3.5c-0.4,0.6-0.8,1.1-1.2,1.6
	c-0.5,0.6-1,1.3-1.5,2c-0.3,0.5-0.5,1.2-0.5,1.8c0,0.4,0.1,0.8,0.4,1.1c0.1,0.2,0.4,0.4,0.6,0.5c0.3,0.1,0.5,0.1,0.8,0.1
	c0.2,0,0.3,0,0.3,0.2c0,0.2,0,0.4,0,0.6c-0.2,1.3-1.4,2.5-2.7,2.7c-0.7,0.2-1.5,0.1-2.1-0.2c-0.5-0.2-0.9-0.5-1.2-0.9
	c-0.3-0.4-0.6-0.9-0.7-1.4c-0.4-1.5,0-2.9,1.1-4c0.7-0.7,1.4-1.2,2.2-1.7c0.6-0.4,1.2-0.7,1.8-1.1c0.9-0.5,1.7-1.2,2.4-1.9
	c0.8-0.8,1.1-1.8,1-2.9C79.2,55.4,79.1,55.3,79.1,55.1z"/>
<path d="M89.3,26c-0.2-0.5-0.6-0.9-1.1-1.1c-0.4-0.2-0.8-0.4-1.3-0.4c-2.1,0-3.2,2.2-4,3.8c-0.4,0.8-0.9,1.5-1.6,2.1
	c-0.1,0.1-0.2,0.1-0.2-0.1c0-1.8-0.2-3.8-1.5-5.5c-0.8-1-2.2-1.5-3.1-1.5c-1.4,0-2.6,1.1-3.2,1.8c-0.8,1-1.3,2.1-1.6,3.4
	c-0.3,1.3-0.3,2.5-0.2,4c0,1.5,0.5,2.8,0.9,3.9c0.1,0.1,0.1,0.3,0.1,0.4c0,0.5-0.7,0.9-1.1,0.9c-0.3,0-0.5,0-0.7-0.1
	c-0.2-0.1-0.4-0.3-0.6-0.5C70,36.7,70,36.1,70,35.6c0-0.1,0-0.2,0-0.3c0-0.3,0-0.6,0-1v-0.2c0-0.1,0-0.2,0-0.3v-2.1l0-2.6
	c0-0.7-0.1-2.5-0.9-3c-0.2-0.1-0.4-0.2-0.6-0.2h-0.1c-0.4,0-0.7,0.2-1.1,0.5c-0.7,0.7-1.2,1.5-1.5,2.3c-0.8,1.9-1.5,4.1-2,6.8
	c0,0.1-0.1,0.3-0.1,0.5v-2.9c0-0.5,0-0.9,0-1.4v-0.2c0-0.4,0-0.9,0-1.4v-0.7c0-0.1,0-0.3-0.1-0.4c-0.1-0.1-0.2-0.2-0.3-0.3L63,28.6
	c-0.2-0.1-0.3-0.2-0.5-0.2c-0.2-0.1-0.4-0.2-0.7-0.3c-0.1,0-0.1,0-0.2,0c-0.2,0-0.4,0.1-0.5,0.2c-0.1,0.1-0.2,0.3-0.2,0.5v0.1
	c0,0.2,0,0.4,0,0.6c0,0.5,0,1,0,1.6v0.2c0,0.4,0,0.8,0,1.1c0,0.3,0,0.7,0,1.1l-0.1,2.7c0,0.3,0,0.5,0,0.8c0,1.4,0,2.9-0.7,4
	c-0.1,0.1-0.2,0.3-0.3,0.3c-0.5,0.3-0.9-0.2-1-0.5c-0.6-1.1-0.6-2.4-0.5-3.7c0-0.3,0-0.6,0-0.8c0.1-2.3,0.1-4.6,0.2-6.8
	c0-0.1,0-0.1,0-0.2c0-0.1-0.1-0.1-0.1-0.1c0,0-0.1-0.1-0.2-0.1c-0.1,0-0.1,0-0.2,0l-0.9,0.3c-0.5,0.2-0.8,1.2-0.9,2c0,0,0,0,0,0
	c0,0,0,0-0.1,0c0,0,0,0-0.1,0c0,0,0,0,0,0c-0.2-0.4-0.7-1.1-1.5-1.1c-2,0.1-3.7,1.8-4.4,3.4c-0.7,1.5-0.9,3.1-1,4.6
	c0,0.6-0.1,1.2-0.1,1.8v0c0,0.7,0,1.5-0.1,2.2c-0.1,0.9-0.3,1.7-0.9,2.3c0,0-0.1,0.1-0.1,0.1c-0.1,0-0.2,0.1-0.3,0.1
	c-0.3,0-0.6-0.3-0.7-0.7c-0.8-1.6-0.6-3.4-0.5-5.2l0.4-4.7c0.3-3.5,0.4-4.4,0.5-4.6c4.9-0.6,9.4-3.5,12.4-7.7c0.6-0.8,0.9-1.8,1-2.8
	c0-0.7-0.1-1.3-0.3-2c-0.1-0.2-0.2-0.3-0.3-0.4s-0.3-0.2-0.5-0.2h0c-0.2,0-0.3,0-0.5,0.1c-0.1,0.1-0.2,0.2-0.3,0.3
	c-2.5,4.7-6.5,7.9-11.1,8.9l0.4-5.5v-0.1l-0.2,0.1c-1.4,0.3-2.5,2.3-3.2,5.8h0c-3.3,0-7.9-0.6-11.3-3.6l0,0l0-0.2
	c-0.1-2.6-1.7-4.8-4.2-5.9c-0.5-0.2-1-0.4-1.6-0.5C26.9,16.1,26.4,16,26,16c-0.2,0-0.5,0-0.7,0c-3,0-5.7,1.1-7.7,3
	c-2.3,2.2-3.4,5.6-3.1,9.3c0.1,1.8,0.8,3.7,2,5.3c0.8,1.1,1.7,2.1,2.7,3.1c0.3,0.3,0.7,0.7,1,1.1c1.1,1.2,2.4,2.7,2.9,4.6
	c0.5,1.6,0.4,3.4-0.2,5c-1.4,3.8-5.1,6.3-9.2,6.3c-0.7,0-1.4-0.1-2.1-0.2c-2.6-0.6-4.9-2.3-6.1-4.5c-1.3-2.3-1.7-5.9,0-8.4
	c0.3-0.5,0.8-0.9,1.3-1.3s1.1-0.5,1.7-0.6c0.1,0,0.3,0,0.4,0c0.5,0,1,0.1,1.4,0.4c0.4,0.2,0.8,0.6,1.1,1c0.2,0.3,0.3,0.7,0.4,1.1
	c0,0.4-0.2,0.8-0.5,1.2c-0.5,0.7-1,1.6-0.4,2.8c0.4,0.9,1.2,1.3,2.4,1.3c0.5,0,1.1-0.1,1.6-0.3c0.7-0.3,1.3-0.7,1.7-1.3
	c0.5-0.7,0.9-1.6,1-2.6c0.1-1-0.1-2-0.6-3.1c0-0.1-0.1-0.2-0.1-0.2c-0.5-1-1.2-1.8-2.1-2.5c-1.2-0.9-2.8-1.4-4.5-1.4
	c-2.7,0-5.5,1.2-7.2,3.2c-1.4,1.7-2.3,3.8-2.5,6.3C0.2,46.7,0.7,49,1.6,51c1.7,3.6,5.2,6.2,9.2,7.1c1.3,0.3,2.7,0.4,4.1,0.4
	c2.9,0,5.7-0.7,8-1.9c3.9-2.1,6.5-6.4,6.7-11.2c0.1-3.3-0.9-6.5-2.9-8.9c-0.8-0.9-1.7-1.7-2.6-2.5c-0.8-0.7-1.6-1.4-2.3-2.2
	c-1.1-1.2-2.4-3.2-2.6-5.6c-0.1-0.9,0.1-1.9,0.4-2.8c0.3-0.9,0.8-1.7,1.5-2.4c0.6-0.7,1.4-1.2,2.2-1.6c0.8-0.4,1.8-0.6,2.7-0.6
	c0.6,0,1.5,0.1,2.1,0.7c0.3,0.2,0.5,0.6,0.6,0.9c0.1,0.4,0.1,0.6,0.1,0.6h0c-0.1,0-0.1,0-0.2,0c-0.2,0-0.4,0-0.5,0
	c-1.6,0-3.3,1-4.4,2.5c-0.3,0.5-0.6,1-0.7,1.6c-0.1,0.6-0.1,1.2,0.1,1.7c0.1,0.5,0.4,0.9,0.7,1.2c0.3,0.3,0.7,0.6,1.1,0.8
	c0.5,0.2,1,0.3,1.4,0.3c0.3,0,0.7,0,1-0.1c1.1-0.2,2.1-0.6,3-1.2c0.9-0.6,1.5-1.3,2.1-2l0.3-0.4c2.8,2.7,6.9,4.3,11.3,4.6
	c-0.5,3.5-0.6,7-0.7,8.4c0,0.2,0,0.3,0,0.5c0,0.3,0,0.7-0.1,1c-0.2,1-0.7,2.7-2.3,3.5c0,0,0,0,0,0s0,0,0,0c0,0,0,0,0,0c0,0,0,0,0,0
	c0-0.5-0.1-1-0.1-1.5v0c-0.1-0.6-0.2-1.2-0.3-1.7c-0.2-0.8-0.6-2-1.6-2.7c-0.6-0.4-1.2-0.7-1.9-0.8c-2.5-0.3-4.3,1.4-5.2,3.1
	c-0.9,1.7-1.3,3.7-1.1,5.8c0.1,1.4,0.5,3.4,2,4.7c0.6,0.5,1.5,1.2,2.7,1.2h0c1.1,0,2.4-0.6,3.2-1.4c0.7-0.7,1.2-1.6,1.6-2.9
	c0.2-0.7,0.4-1.3,0.5-2c1.2-0.2,2-0.5,2.6-1c0.2,1.9,1.9,3.5,3.8,3.5H47c1.7,0,3.3-1.5,3.9-3.6c0,0,0,0,0,0c0,0,0,0,0,0c0,0,0,0,0,0
	s0,0,0,0c0.4,0.8,1.2,1.4,1.9,1.5c0.2,0,0.3,0,0.5,0c0.8,0,1.5-0.3,2-0.8c0.6-0.6,1.1-1.5,1.4-2.6c0,0,0,0,0,0s0,0,0,0c0,0,0,0,0,0
	c0,0,0,0,0,0c0.3,0.5,1.4,1.6,2.6,1.6c0.2,0,0.4,0,0.6-0.1c0.9-0.3,1.9-1.5,2.3-3c0,0,0,0,0,0c0,0,0,0,0,0c0,0,0,0,0,0c0,0,0,0,0,0
	c0.2,0.7,0.6,1.3,1,1.5c0.1,0.1,0.3,0.1,0.5,0.1c0.2,0,0.3,0,0.5-0.1c0.2-0.1,0.4-0.2,0.5-0.3c0.2-0.1,0.3-0.3,0.4-0.5
	c0.1-0.2,0.1-0.5,0.1-0.7c0-0.2,0-0.4,0.1-0.6c0.3-3,0.6-6.1,1.9-9c0.2-0.3,0.3-0.6,0.5-0.9l0,0.8l0,0.4c0,1.3-0.1,2.7-0.2,4.1
	c-0.1,1.3,0,2.6,0.9,3.6c0.6,0.6,1.4,0.9,2.3,0.9c0.3,0,0.6,0,0.9-0.1l0,0l0.1,0c1.1-0.4,1.8-1.6,2-2.1c0,0,0-0.1,0.1-0.1
	c0,0,0.1,0,0.1,0c0,0,0.1,0,0.1,0c0,0,0.1,0,0.1,0.1c0.4,0.5,1.3,0.7,1.8,0.7c1.4,0,2.7-0.9,3.7-2.3c0.1-0.1,0.2-0.2,0.2-0.4
	c0.3-0.5,0.5-1,0.7-1.5c0.1-0.3,0.2-0.6,0.3-0.9c0-0.1,0.1-0.4,0.2-0.7c0.1-0.3,0.2-0.5,0.5-0.6c1.6-0.8,3.2-3.3,3.7-4
	c0.3-0.5,0.9-0.7,1.4-0.3c0.2,0.2,0.4,0.5,0.4,0.8c0.1,0.6-0.1,1.2-0.2,1.7c-0.1,0.5-0.3,1.1-0.5,1.6c-0.4,1.1-0.9,2.1-1.4,3.1
	c-1,1.7-2.3,3.3-3.7,4.7c-0.8,0.8-1.7,1.5-2.6,2.2c-3.4,2.6-8.9,4.8-14.7,6.5c-7.1,2.1-14.8,3.5-21.9,4.8c-2.7,0.5-6.4,1.3-9,2
	c-6.4,1.7-11.2,4.2-14.5,7.7c-1.6,1.6-2.6,3.3-3.2,5.1c-0.7,2.1-0.5,4.2,0.3,5.9c0.8,1.6,2.4,2.8,4.1,3.1c0.3,0,0.5,0.1,0.8,0.1
	c1.3,0,2.6-0.6,3.4-1.5c0.7-0.8,1-1.8,1.3-2.7c0.1-0.3,0.2-0.5,0.3-0.8c1.6-4.4,5.1-6.6,9.9-8.5c5.3-2.2,11.9-4.3,17.2-6.1
	c3-1,6-1.9,9-3c1.6-2.6,3.9-4.6,6.7-5.8c2.8-1.2,5.8-1.5,8.8-0.9c2-1.1,3.9-2.4,5.7-4c2.7-2.4,4.6-5.4,5.9-8.7
	c0.6-1.4,1-2.9,1.1-4.5C90.1,29,90.1,27.4,89.3,26z M29.2,24.9c0,0,0,0.1-0.1,0.1c-0.3,0.5-0.9,0.9-1.3,1.2
	c-0.5,0.3-1.1,0.5-1.7,0.5h0c-0.3,0-0.6-0.1-0.7-0.2c-0.3-0.3-0.3-0.8-0.3-1.1c0.1-0.5,0.3-0.9,0.7-1.2c0.5-0.5,1.3-0.8,2-0.8
	c0.4,0,0.7,0.1,1.1,0.3c0.2,0.1,0.3,0.3,0.4,0.6C29.4,24.4,29.3,24.7,29.2,24.9z M37.6,45.1c-0.2,1.1-0.4,2.3-0.9,3.3
	c-0.2,0.4-0.6,1.1-1.1,1.1c-0.7,0-1.1-1.1-1.2-1.7c-0.2-0.7-0.4-1.5-0.4-2.3c-0.1-1.2-0.1-2.5,0.1-3.7c0.1-0.4,0.2-0.8,0.3-1.1
	c0,0,0,0,0-0.1c0,0,0,0,0.1,0c0,0,0,0,0.1,0c0,0,0,0,0,0.1c0.2,1.2,1,3,2.9,3.8c0.1,0,0.2,0.1,0.2,0.2C37.6,44.9,37.6,45,37.6,45.1z
	 M37.6,43c-2.2-1.1-3-3.7-2-4.5c0,0,0,0,0,0c0.9-0.7,1.5,0.7,1.7,1.3c0.3,1,0.5,2,0.5,3.1c0,0,0,0.1,0,0.1c0,0,0,0-0.1,0.1
	C37.7,43,37.7,43,37.6,43C37.6,43,37.6,43,37.6,43z M55.3,36.8c-0.1,1.5-0.1,3.1-0.4,4.6c-0.1,0.5-0.2,1-0.3,1.5
	c-0.1,0.3-0.2,0.6-0.5,0.7c-0.3,0.1-0.7-0.2-0.8-0.5c-0.3-0.5-0.5-1-0.6-1.5c-0.7-2.9-0.2-5.9,1.2-8.6c0.1-0.1,0.1-0.2,0.2-0.4
	c0.2-0.3,0.7-0.8,1.1-0.4c0.3,0.2,0.3,0.6,0.3,0.8c0,0.4,0,0.8,0,1.2C55.3,35.1,55.3,35.9,55.3,36.8z M78.3,32.3
	c-0.2,1-0.4,2.1-0.9,3c-0.2,0.4-0.6,1.1-1.1,1.1c-0.7,0-1.1-1.1-1.2-1.7c-0.2-0.7-0.4-1.5-0.4-2.3c-0.1-1.2-0.1-2.5,0.1-3.7
	c0.1-0.5,0.2-1,0.4-1.5c0,0,0,0,0,0c0,0,0,0,0,0c0,0,0,0,0,0c0,0,0,0,0,0c-0.1,1.2,0.7,3.7,2.9,4.5c0.1,0,0.2,0.1,0.2,0.2
	C78.3,32.1,78.3,32.2,78.3,32.3L78.3,32.3z M78.1,30.1c-2.1-1.2-2.9-3.8-2-4.6l0.1,0c0,0,0,0,0.1-0.1c0.9-0.7,1.5,0.7,1.7,1.3
	c0.3,1,0.5,2.1,0.5,3.2c0,0,0,0.1,0,0.1c0,0-0.1,0.1-0.1,0.1c0,0-0.1,0-0.1,0C78.2,30.1,78.1,30.1,78.1,30.1L78.1,30.1z"/>
</svg>
