<svg width="253" height="29" viewBox="0 0 253 29" fill="none" xmlns="http://www.w3.org/2000/svg">
<path d="M4.78 9.25V4.24H9.19C9.61 4.24 10.01 4.28 10.39 4.36C10.79 4.42 11.14 4.54 11.44 4.72C11.74 4.9 11.98 5.15 12.16 5.47C12.34 5.79 12.43 6.2 12.43 6.7C12.43 7.6 12.16 8.25 11.62 8.65C11.08 9.05 10.39 9.25 9.55 9.25H4.78ZM0.0700002 0.579999V22H10.45C11.41 22 12.34 21.88 13.24 21.64C14.16 21.4 14.97 21.03 15.67 20.53C16.39 20.03 16.96 19.39 17.38 18.61C17.8 17.81 18.01 16.87 18.01 15.79C18.01 14.45 17.68 13.31 17.02 12.37C16.38 11.41 15.4 10.74 14.08 10.36C15.04 9.9 15.76 9.31 16.24 8.59C16.74 7.87 16.99 6.97 16.99 5.89C16.99 4.89 16.82 4.05 16.48 3.37C16.16 2.69 15.7 2.15 15.1 1.75C14.5 1.33 13.78 1.03 12.94 0.849999C12.1 0.669999 11.17 0.579999 10.15 0.579999H0.0700002ZM4.78 18.34V12.46H9.91C10.93 12.46 11.75 12.7 12.37 13.18C12.99 13.64 13.3 14.42 13.3 15.52C13.3 16.08 13.2 16.54 13 16.9C12.82 17.26 12.57 17.55 12.25 17.77C11.93 17.97 11.56 18.12 11.14 18.22C10.72 18.3 10.28 18.34 9.82 18.34H4.78ZM20.563 11.26C20.623 10.26 20.873 9.43 21.313 8.77C21.753 8.11 22.313 7.58 22.993 7.18C23.673 6.78 24.433 6.5 25.273 6.34C26.133 6.16 26.993 6.07 27.853 6.07C28.633 6.07 29.423 6.13 30.223 6.25C31.023 6.35 31.753 6.56 32.413 6.88C33.073 7.2 33.613 7.65 34.033 8.23C34.453 8.79 34.663 9.54 34.663 10.48V18.55C34.663 19.25 34.703 19.92 34.783 20.56C34.863 21.2 35.003 21.68 35.203 22H30.883C30.803 21.76 30.733 21.52 30.673 21.28C30.633 21.02 30.603 20.76 30.583 20.5C29.903 21.2 29.103 21.69 28.183 21.97C27.263 22.25 26.323 22.39 25.363 22.39C24.623 22.39 23.933 22.3 23.293 22.12C22.653 21.94 22.093 21.66 21.613 21.28C21.133 20.9 20.753 20.42 20.473 19.84C20.213 19.26 20.083 18.57 20.083 17.77C20.083 16.89 20.233 16.17 20.533 15.61C20.853 15.03 21.253 14.57 21.733 14.23C22.233 13.89 22.793 13.64 23.413 13.48C24.053 13.3 24.693 13.16 25.333 13.06C25.973 12.96 26.603 12.88 27.223 12.82C27.843 12.76 28.393 12.67 28.873 12.55C29.353 12.43 29.733 12.26 30.013 12.04C30.293 11.8 30.423 11.46 30.403 11.02C30.403 10.56 30.323 10.2 30.163 9.94C30.023 9.66 29.823 9.45 29.563 9.31C29.323 9.15 29.033 9.05 28.693 9.01C28.373 8.95 28.023 8.92 27.643 8.92C26.803 8.92 26.143 9.1 25.663 9.46C25.183 9.82 24.903 10.42 24.823 11.26H20.563ZM30.403 14.41C30.223 14.57 29.993 14.7 29.713 14.8C29.453 14.88 29.163 14.95 28.843 15.01C28.543 15.07 28.223 15.12 27.883 15.16C27.543 15.2 27.203 15.25 26.863 15.31C26.543 15.37 26.223 15.45 25.903 15.55C25.603 15.65 25.333 15.79 25.093 15.97C24.873 16.13 24.693 16.34 24.553 16.6C24.413 16.86 24.343 17.19 24.343 17.59C24.343 17.97 24.413 18.29 24.553 18.55C24.693 18.81 24.883 19.02 25.123 19.18C25.363 19.32 25.643 19.42 25.963 19.48C26.283 19.54 26.613 19.57 26.953 19.57C27.793 19.57 28.443 19.43 28.903 19.15C29.363 18.87 29.703 18.54 29.923 18.16C30.143 17.76 30.273 17.36 30.313 16.96C30.373 16.56 30.403 16.24 30.403 16V14.41ZM37.9696 6.49V22H42.2296V13.87C42.2296 12.29 42.4896 11.16 43.0096 10.48C43.5296 9.78 44.3696 9.43 45.5296 9.43C46.5496 9.43 47.2596 9.75 47.6596 10.39C48.0596 11.01 48.2596 11.96 48.2596 13.24V22H52.5196V12.46C52.5196 11.5 52.4296 10.63 52.2496 9.85C52.0896 9.05 51.7996 8.38 51.3796 7.84C50.9596 7.28 50.3796 6.85 49.6396 6.55C48.9196 6.23 47.9896 6.07 46.8496 6.07C45.9496 6.07 45.0696 6.28 44.2096 6.7C43.3496 7.1 42.6496 7.75 42.1096 8.65H42.0196V6.49H37.9696ZM55.5728 11.26C55.6328 10.26 55.8828 9.43 56.3228 8.77C56.7628 8.11 57.3228 7.58 58.0028 7.18C58.6828 6.78 59.4428 6.5 60.2828 6.34C61.1428 6.16 62.0028 6.07 62.8628 6.07C63.6428 6.07 64.4328 6.13 65.2328 6.25C66.0328 6.35 66.7628 6.56 67.4228 6.88C68.0828 7.2 68.6228 7.65 69.0428 8.23C69.4628 8.79 69.6728 9.54 69.6728 10.48V18.55C69.6728 19.25 69.7128 19.92 69.7928 20.56C69.8728 21.2 70.0128 21.68 70.2128 22H65.8928C65.8128 21.76 65.7428 21.52 65.6828 21.28C65.6428 21.02 65.6128 20.76 65.5928 20.5C64.9128 21.2 64.1128 21.69 63.1928 21.97C62.2728 22.25 61.3328 22.39 60.3728 22.39C59.6328 22.39 58.9428 22.3 58.3028 22.12C57.6628 21.94 57.1028 21.66 56.6228 21.28C56.1428 20.9 55.7628 20.42 55.4828 19.84C55.2228 19.26 55.0928 18.57 55.0928 17.77C55.0928 16.89 55.2428 16.17 55.5428 15.61C55.8628 15.03 56.2628 14.57 56.7428 14.23C57.2428 13.89 57.8028 13.64 58.4228 13.48C59.0628 13.3 59.7028 13.16 60.3428 13.06C60.9828 12.96 61.6128 12.88 62.2328 12.82C62.8528 12.76 63.4028 12.67 63.8828 12.55C64.3628 12.43 64.7428 12.26 65.0228 12.04C65.3028 11.8 65.4328 11.46 65.4128 11.02C65.4128 10.56 65.3328 10.2 65.1728 9.94C65.0328 9.66 64.8328 9.45 64.5728 9.31C64.3328 9.15 64.0428 9.05 63.7028 9.01C63.3828 8.95 63.0328 8.92 62.6528 8.92C61.8128 8.92 61.1528 9.1 60.6728 9.46C60.1928 9.82 59.9128 10.42 59.8328 11.26H55.5728ZM65.4128 14.41C65.2328 14.57 65.0028 14.7 64.7228 14.8C64.4628 14.88 64.1728 14.95 63.8528 15.01C63.5528 15.07 63.2328 15.12 62.8928 15.16C62.5528 15.2 62.2128 15.25 61.8728 15.31C61.5528 15.37 61.2328 15.45 60.9128 15.55C60.6128 15.65 60.3428 15.79 60.1028 15.97C59.8828 16.13 59.7028 16.34 59.5628 16.6C59.4228 16.86 59.3528 17.19 59.3528 17.59C59.3528 17.97 59.4228 18.29 59.5628 18.55C59.7028 18.81 59.8928 19.02 60.1328 19.18C60.3728 19.32 60.6528 19.42 60.9728 19.48C61.2928 19.54 61.6228 19.57 61.9628 19.57C62.8028 19.57 63.4528 19.43 63.9128 19.15C64.3728 18.87 64.7128 18.54 64.9328 18.16C65.1528 17.76 65.2828 17.36 65.3228 16.96C65.3828 16.56 65.4128 16.24 65.4128 16V14.41ZM72.9794 6.49V22H77.2394V13.87C77.2394 12.29 77.4994 11.16 78.0194 10.48C78.5394 9.78 79.3794 9.43 80.5394 9.43C81.5594 9.43 82.2694 9.75 82.6694 10.39C83.0694 11.01 83.2694 11.96 83.2694 13.24V22H87.5294V12.46C87.5294 11.5 87.4394 10.63 87.2594 9.85C87.0994 9.05 86.8094 8.38 86.3894 7.84C85.9694 7.28 85.3894 6.85 84.6494 6.55C83.9294 6.23 82.9994 6.07 81.8594 6.07C80.9594 6.07 80.0794 6.28 79.2194 6.7C78.3594 7.1 77.6594 7.75 77.1194 8.65H77.0294V6.49H72.9794ZM90.5826 11.26C90.6426 10.26 90.8926 9.43 91.3326 8.77C91.7726 8.11 92.3326 7.58 93.0126 7.18C93.6926 6.78 94.4526 6.5 95.2926 6.34C96.1526 6.16 97.0126 6.07 97.8726 6.07C98.6526 6.07 99.4426 6.13 100.243 6.25C101.043 6.35 101.773 6.56 102.433 6.88C103.093 7.2 103.633 7.65 104.053 8.23C104.473 8.79 104.683 9.54 104.683 10.48V18.55C104.683 19.25 104.723 19.92 104.803 20.56C104.883 21.2 105.023 21.68 105.223 22H100.903C100.823 21.76 100.753 21.52 100.693 21.28C100.653 21.02 100.623 20.76 100.603 20.5C99.9226 21.2 99.1226 21.69 98.2026 21.97C97.2826 22.25 96.3426 22.39 95.3826 22.39C94.6426 22.39 93.9526 22.3 93.3126 22.12C92.6726 21.94 92.1126 21.66 91.6326 21.28C91.1526 20.9 90.7726 20.42 90.4926 19.84C90.2326 19.26 90.1026 18.57 90.1026 17.77C90.1026 16.89 90.2526 16.17 90.5526 15.61C90.8726 15.03 91.2726 14.57 91.7526 14.23C92.2526 13.89 92.8126 13.64 93.4326 13.48C94.0726 13.3 94.7126 13.16 95.3526 13.06C95.9926 12.96 96.6226 12.88 97.2426 12.82C97.8626 12.76 98.4126 12.67 98.8926 12.55C99.3726 12.43 99.7526 12.26 100.033 12.04C100.313 11.8 100.443 11.46 100.423 11.02C100.423 10.56 100.343 10.2 100.183 9.94C100.043 9.66 99.8426 9.45 99.5826 9.31C99.3426 9.15 99.0526 9.05 98.7126 9.01C98.3926 8.95 98.0426 8.92 97.6626 8.92C96.8226 8.92 96.1626 9.1 95.6826 9.46C95.2026 9.82 94.9226 10.42 94.8426 11.26H90.5826ZM100.423 14.41C100.243 14.57 100.013 14.7 99.7326 14.8C99.4726 14.88 99.1826 14.95 98.8626 15.01C98.5626 15.07 98.2426 15.12 97.9026 15.16C97.5626 15.2 97.2226 15.25 96.8826 15.31C96.5626 15.37 96.2426 15.45 95.9226 15.55C95.6226 15.65 95.3526 15.79 95.1126 15.97C94.8926 16.13 94.7126 16.34 94.5726 16.6C94.4326 16.86 94.3626 17.19 94.3626 17.59C94.3626 17.97 94.4326 18.29 94.5726 18.55C94.7126 18.81 94.9026 19.02 95.1426 19.18C95.3826 19.32 95.6626 19.42 95.9826 19.48C96.3026 19.54 96.6326 19.57 96.9726 19.57C97.8126 19.57 98.4626 19.43 98.9226 19.15C99.3826 18.87 99.7226 18.54 99.9426 18.16C100.163 17.76 100.293 17.36 100.333 16.96C100.393 16.56 100.423 16.24 100.423 16V14.41ZM106.249 0.579999V2.32H113.689V22H115.729V2.32H123.199V0.579999H106.249ZM132.629 13.18H122.609C122.689 12.48 122.849 11.8 123.089 11.14C123.349 10.46 123.689 9.87 124.109 9.37C124.529 8.85 125.039 8.44 125.639 8.14C126.239 7.82 126.929 7.66 127.709 7.66C128.469 7.66 129.149 7.82 129.749 8.14C130.349 8.44 130.859 8.85 131.279 9.37C131.699 9.87 132.019 10.45 132.239 11.11C132.479 11.77 132.609 12.46 132.629 13.18ZM122.609 14.77H134.519C134.559 13.69 134.459 12.63 134.219 11.59C133.979 10.53 133.579 9.6 133.019 8.8C132.479 7.98 131.769 7.32 130.889 6.82C130.009 6.32 128.949 6.07 127.709 6.07C126.489 6.07 125.429 6.31 124.529 6.79C123.649 7.25 122.929 7.87 122.369 8.65C121.809 9.41 121.389 10.28 121.109 11.26C120.849 12.24 120.719 13.24 120.719 14.26C120.719 15.36 120.849 16.41 121.109 17.41C121.389 18.39 121.809 19.26 122.369 20.02C122.929 20.76 123.649 21.35 124.529 21.79C125.429 22.21 126.489 22.42 127.709 22.42C129.669 22.42 131.179 21.94 132.239 20.98C133.319 20.02 134.059 18.66 134.459 16.9H132.569C132.269 18.1 131.729 19.06 130.949 19.78C130.169 20.5 129.089 20.86 127.709 20.86C126.809 20.86 126.039 20.67 125.399 20.29C124.759 19.91 124.229 19.43 123.809 18.85C123.389 18.27 123.079 17.62 122.879 16.9C122.699 16.16 122.609 15.45 122.609 14.77ZM147.976 11.38H149.866C149.646 9.6 148.956 8.27 147.796 7.39C146.656 6.51 145.256 6.07 143.596 6.07C142.416 6.07 141.366 6.29 140.446 6.73C139.546 7.17 138.786 7.76 138.166 8.5C137.546 9.24 137.076 10.11 136.756 11.11C136.436 12.09 136.276 13.14 136.276 14.26C136.276 15.38 136.436 16.44 136.756 17.44C137.076 18.42 137.546 19.28 138.166 20.02C138.786 20.76 139.546 21.35 140.446 21.79C141.366 22.21 142.416 22.42 143.596 22.42C145.356 22.42 146.796 21.9 147.916 20.86C149.036 19.8 149.726 18.33 149.986 16.45H148.096C148.036 17.09 147.876 17.68 147.616 18.22C147.356 18.76 147.026 19.23 146.626 19.63C146.226 20.01 145.766 20.31 145.246 20.53C144.726 20.75 144.176 20.86 143.596 20.86C142.696 20.86 141.906 20.67 141.226 20.29C140.546 19.91 139.976 19.41 139.516 18.79C139.076 18.17 138.736 17.47 138.496 16.69C138.276 15.89 138.166 15.08 138.166 14.26C138.166 13.44 138.276 12.64 138.496 11.86C138.736 11.06 139.076 10.35 139.516 9.73C139.976 9.11 140.546 8.61 141.226 8.23C141.906 7.85 142.696 7.66 143.596 7.66C144.856 7.66 145.836 7.99 146.536 8.65C147.236 9.31 147.716 10.22 147.976 11.38ZM152.583 0.579999V22H154.473V12.97C154.493 12.21 154.613 11.51 154.833 10.87C155.073 10.21 155.393 9.65 155.793 9.19C156.213 8.71 156.713 8.34 157.293 8.08C157.893 7.8 158.573 7.66 159.333 7.66C160.093 7.66 160.723 7.78 161.223 8.02C161.743 8.26 162.153 8.59 162.453 9.01C162.753 9.43 162.963 9.93 163.083 10.51C163.203 11.07 163.263 11.68 163.263 12.34V22H165.153V12.04C165.153 11.12 165.063 10.29 164.883 9.55C164.703 8.81 164.393 8.19 163.953 7.69C163.513 7.17 162.923 6.77 162.183 6.49C161.463 6.21 160.563 6.07 159.483 6.07C158.383 6.07 157.373 6.36 156.453 6.94C155.533 7.5 154.893 8.25 154.533 9.19H154.473V0.579999H152.583ZM168.696 6.52V22H170.586V12.97C170.606 12.21 170.726 11.51 170.946 10.87C171.186 10.21 171.506 9.65 171.906 9.19C172.326 8.71 172.826 8.34 173.406 8.08C174.006 7.8 174.686 7.66 175.446 7.66C176.206 7.66 176.836 7.78 177.336 8.02C177.856 8.26 178.266 8.59 178.566 9.01C178.866 9.43 179.076 9.93 179.196 10.51C179.316 11.07 179.376 11.68 179.376 12.34V22H181.266V12.04C181.266 11.12 181.176 10.29 180.996 9.55C180.816 8.81 180.506 8.19 180.066 7.69C179.626 7.17 179.036 6.77 178.296 6.49C177.576 6.21 176.676 6.07 175.596 6.07C174.496 6.07 173.486 6.36 172.566 6.94C171.646 7.5 171.006 8.25 170.646 9.19H170.586V6.52H168.696ZM191.379 7.66C192.279 7.66 193.069 7.85 193.749 8.23C194.429 8.61 194.989 9.11 195.429 9.73C195.889 10.35 196.229 11.06 196.449 11.86C196.689 12.64 196.809 13.44 196.809 14.26C196.809 15.08 196.689 15.89 196.449 16.69C196.229 17.47 195.889 18.17 195.429 18.79C194.989 19.41 194.429 19.91 193.749 20.29C193.069 20.67 192.279 20.86 191.379 20.86C190.479 20.86 189.689 20.67 189.009 20.29C188.329 19.91 187.759 19.41 187.299 18.79C186.859 18.17 186.519 17.47 186.279 16.69C186.059 15.89 185.949 15.08 185.949 14.26C185.949 13.44 186.059 12.64 186.279 11.86C186.519 11.06 186.859 10.35 187.299 9.73C187.759 9.11 188.329 8.61 189.009 8.23C189.689 7.85 190.479 7.66 191.379 7.66ZM191.379 6.07C190.199 6.07 189.149 6.29 188.229 6.73C187.329 7.17 186.569 7.76 185.949 8.5C185.329 9.24 184.859 10.11 184.539 11.11C184.219 12.09 184.059 13.14 184.059 14.26C184.059 15.38 184.219 16.44 184.539 17.44C184.859 18.42 185.329 19.28 185.949 20.02C186.569 20.76 187.329 21.35 188.229 21.79C189.149 22.21 190.199 22.42 191.379 22.42C192.559 22.42 193.599 22.21 194.499 21.79C195.419 21.35 196.189 20.76 196.809 20.02C197.429 19.28 197.899 18.42 198.219 17.44C198.539 16.44 198.699 15.38 198.699 14.26C198.699 13.14 198.539 12.09 198.219 11.11C197.899 10.11 197.429 9.24 196.809 8.5C196.189 7.76 195.419 7.17 194.499 6.73C193.599 6.29 192.559 6.07 191.379 6.07ZM201.539 0.579999V22H203.429V0.579999H201.539ZM213.586 7.66C214.486 7.66 215.276 7.85 215.956 8.23C216.636 8.61 217.196 9.11 217.636 9.73C218.096 10.35 218.436 11.06 218.656 11.86C218.896 12.64 219.016 13.44 219.016 14.26C219.016 15.08 218.896 15.89 218.656 16.69C218.436 17.47 218.096 18.17 217.636 18.79C217.196 19.41 216.636 19.91 215.956 20.29C215.276 20.67 214.486 20.86 213.586 20.86C212.686 20.86 211.896 20.67 211.216 20.29C210.536 19.91 209.966 19.41 209.506 18.79C209.066 18.17 208.726 17.47 208.486 16.69C208.266 15.89 208.156 15.08 208.156 14.26C208.156 13.44 208.266 12.64 208.486 11.86C208.726 11.06 209.066 10.35 209.506 9.73C209.966 9.11 210.536 8.61 211.216 8.23C211.896 7.85 212.686 7.66 213.586 7.66ZM213.586 6.07C212.406 6.07 211.356 6.29 210.436 6.73C209.536 7.17 208.776 7.76 208.156 8.5C207.536 9.24 207.066 10.11 206.746 11.11C206.426 12.09 206.266 13.14 206.266 14.26C206.266 15.38 206.426 16.44 206.746 17.44C207.066 18.42 207.536 19.28 208.156 20.02C208.776 20.76 209.536 21.35 210.436 21.79C211.356 22.21 212.406 22.42 213.586 22.42C214.766 22.42 215.806 22.21 216.706 21.79C217.626 21.35 218.396 20.76 219.016 20.02C219.636 19.28 220.106 18.42 220.426 17.44C220.746 16.44 220.906 15.38 220.906 14.26C220.906 13.14 220.746 12.09 220.426 11.11C220.106 10.11 219.636 9.24 219.016 8.5C218.396 7.76 217.626 7.17 216.706 6.73C215.806 6.29 214.766 6.07 213.586 6.07ZM236.796 20.74V6.52H234.906V9.19H234.846C234.666 8.77 234.406 8.37 234.066 7.99C233.746 7.61 233.376 7.28 232.956 7C232.536 6.7 232.066 6.47 231.546 6.31C231.046 6.15 230.506 6.07 229.926 6.07C228.806 6.07 227.806 6.28 226.926 6.7C226.066 7.1 225.336 7.66 224.736 8.38C224.156 9.08 223.706 9.91 223.386 10.87C223.086 11.81 222.936 12.81 222.936 13.87C222.936 14.97 223.066 16.01 223.326 16.99C223.586 17.95 223.996 18.79 224.556 19.51C225.136 20.23 225.866 20.8 226.746 21.22C227.626 21.62 228.686 21.82 229.926 21.82C231.066 21.82 232.056 21.53 232.896 20.95C233.756 20.37 234.406 19.6 234.846 18.64H234.906V20.74C234.906 22.62 234.516 24.06 233.736 25.06C232.956 26.06 231.686 26.56 229.926 26.56C229.406 26.56 228.896 26.5 228.396 26.38C227.896 26.28 227.436 26.11 227.016 25.87C226.616 25.63 226.266 25.31 225.966 24.91C225.686 24.53 225.496 24.05 225.396 23.47H223.506C223.566 24.29 223.786 24.99 224.166 25.57C224.566 26.17 225.056 26.66 225.636 27.04C226.236 27.42 226.906 27.7 227.646 27.88C228.386 28.06 229.146 28.15 229.926 28.15C231.186 28.15 232.246 27.98 233.106 27.64C233.986 27.3 234.696 26.81 235.236 26.17C235.776 25.53 236.166 24.75 236.406 23.83C236.666 22.91 236.796 21.88 236.796 20.74ZM229.926 20.23C229.046 20.23 228.286 20.06 227.646 19.72C227.006 19.36 226.476 18.9 226.056 18.34C225.636 17.76 225.326 17.1 225.126 16.36C224.926 15.62 224.826 14.86 224.826 14.08C224.826 13.28 224.916 12.5 225.096 11.74C225.296 10.96 225.606 10.27 226.026 9.67C226.446 9.07 226.976 8.59 227.616 8.23C228.256 7.85 229.026 7.66 229.926 7.66C230.826 7.66 231.586 7.85 232.206 8.23C232.846 8.61 233.366 9.11 233.766 9.73C234.166 10.35 234.456 11.04 234.636 11.8C234.816 12.56 234.906 13.32 234.906 14.08C234.906 14.86 234.796 15.62 234.576 16.36C234.376 17.1 234.066 17.76 233.646 18.34C233.226 18.9 232.706 19.36 232.086 19.72C231.466 20.06 230.746 20.23 229.926 20.23ZM238.646 6.52L244.826 21.94L244.166 23.68C244.006 24.04 243.856 24.37 243.716 24.67C243.576 24.97 243.406 25.22 243.206 25.42C243.006 25.64 242.766 25.81 242.486 25.93C242.226 26.05 241.886 26.11 241.466 26.11C241.246 26.11 241.026 26.09 240.806 26.05C240.606 26.03 240.396 26 240.176 25.96V27.55C240.336 27.61 240.516 27.64 240.716 27.64C240.936 27.66 241.236 27.68 241.616 27.7C242.216 27.7 242.706 27.64 243.086 27.52C243.486 27.42 243.826 27.24 244.106 26.98C244.406 26.74 244.676 26.4 244.916 25.96C245.156 25.54 245.416 25 245.696 24.34L252.416 6.52H250.526L245.756 19.72L240.656 6.52H238.646Z" fill="white"/>
</svg>
