<svg width="174" height="24" viewBox="0 0 174 24" fill="none" xmlns="http://www.w3.org/2000/svg">
<path d="M0 0.00217869H8.58834C11.7504 -0.0490035 15.222 0.781284 15.222 4.65265C15.222 6.31464 14.2454 7.66671 12.8044 8.39321C14.759 8.96475 15.9679 10.6793 15.9679 12.7835C15.9679 17.1994 12.7537 18.55 8.81912 18.55H0V0.00217869ZM4.78318 7.30275H8.48561C9.30884 7.30275 10.4403 6.86059 10.4403 5.53554C10.4403 4.1849 9.48896 3.74274 8.48561 3.74274H4.78318V7.30275ZM4.78318 14.6801H8.61507C10.1321 14.6801 11.1861 14.1341 11.1861 12.6015C11.1861 10.9651 10.0547 10.4192 8.61507 10.4192H4.78318V14.6801Z" fill="black"/>
<path d="M17.9984 9.22491C18.0758 7.4577 18.8976 6.31463 20.0811 5.61372C21.2632 4.9384 22.8069 4.67822 24.3239 4.67822C27.4873 4.67822 30.5467 5.37914 30.5467 9.19789V15.0952C30.5467 16.2383 30.5467 17.4851 31.0603 18.55H26.6627C26.5079 18.1349 26.4573 17.7183 26.4052 17.2776C25.2738 18.4718 23.602 18.9396 22.009 18.9396C19.4633 18.9396 17.458 17.6401 17.458 14.8606C17.458 10.4703 22.1891 10.8087 25.2231 10.1846C25.9689 10.0282 26.3799 9.76943 26.3799 8.93772C26.3799 7.92402 25.171 7.53447 24.2718 7.53447C23.063 7.53447 22.2918 8.08042 22.0864 9.22348H17.9984V9.22491ZM23.6555 16.2127C25.7382 16.2127 26.4319 15.0184 26.3292 12.2375C25.7114 12.6271 24.58 12.7053 23.6287 12.9655C22.6521 13.1986 21.8289 13.6152 21.8289 14.6801C21.8303 15.772 22.6788 16.2127 23.6555 16.2127Z" fill="black"/>
<path d="M33.2222 5.06924H37.465V6.91322H37.5156C38.3135 5.53557 40.1134 4.67969 41.7064 4.67969C46.1546 4.67969 46.5149 7.9525 46.5149 9.90169V18.5529H42.144V12.0329C42.144 10.1889 42.3495 8.31789 39.9586 8.31789C38.3135 8.31789 37.593 9.72113 37.593 11.2011V18.5529H33.2222V5.06924Z" fill="black"/>
<path d="M49.0351 9.22491C49.1125 7.4577 49.9343 6.31463 51.1178 5.61372C52.2998 4.9384 53.8436 4.67822 55.3606 4.67822C58.5226 4.67822 61.5833 5.37914 61.5833 9.19789V15.0952C61.5833 16.2383 61.5833 17.4851 62.0984 18.55H57.7008C57.546 18.1349 57.4953 17.7183 57.4433 17.2776C56.3119 18.4718 54.6401 18.9396 53.0471 18.9396C50.5014 18.9396 48.4961 17.6401 48.4961 14.8606C48.4961 10.4703 53.2272 10.8087 56.2612 10.1846C57.007 10.0282 57.4179 9.76943 57.4179 8.93772C57.4179 7.92402 56.2091 7.53447 55.3099 7.53447C54.1011 7.53447 53.3299 8.08042 53.1245 9.22348H49.0351V9.22491ZM54.6921 16.2127C56.7748 16.2127 57.4686 15.0184 57.3659 12.2375C56.7481 12.6271 55.6167 12.7053 54.6654 12.9655C53.6888 13.1986 52.8655 13.6152 52.8655 14.6801C52.867 15.772 53.7155 16.2127 54.6921 16.2127Z" fill="black"/>
<path d="M64.2573 5.06924H68.5001V6.91322H68.5508C69.3487 5.53557 71.1485 4.67969 72.7415 4.67969C77.1898 4.67969 77.55 7.9525 77.55 9.90169V18.5529H73.1792V12.0329C73.1792 10.1889 73.3846 8.31789 70.9937 8.31789C69.3487 8.31789 68.6282 9.72113 68.6282 11.2011V18.5529H64.2573V5.06924Z" fill="black"/>
<path d="M80.0712 9.22491C80.1486 7.4577 80.9718 6.31463 82.1539 5.61372C83.336 4.9384 84.8797 4.67822 86.3967 4.67822C89.5587 4.67822 92.6195 5.37914 92.6195 9.19789V15.0952C92.6195 16.2383 92.6195 17.4851 93.1345 18.55H88.7369C88.5821 18.1349 88.5315 17.7183 88.4794 17.2776C87.348 18.4718 85.6762 18.9396 84.0832 18.9396C81.5375 18.9396 79.5322 17.6401 79.5322 14.8606C79.5322 10.4703 84.2633 10.8087 87.2973 10.1846C88.0432 10.0282 88.4541 9.76943 88.4541 8.93772C88.4541 7.92402 87.2453 7.53447 86.346 7.53447C85.1372 7.53447 84.3661 8.08042 84.1606 9.22348H80.0712V9.22491ZM85.7283 16.2127C87.811 16.2127 88.5047 15.0184 88.402 12.2375C87.7842 12.6271 86.6528 12.7053 85.7015 12.9655C84.7249 13.1986 83.9017 13.6152 83.9017 14.6801C83.9017 15.772 84.7502 16.2127 85.7283 16.2127Z" fill="black"/>
<path d="M96.7134 18.573V0.147461H102.945C103.451 0.147461 103.949 0.160257 104.439 0.185848C104.929 0.211439 105.41 0.271153 105.883 0.364987C106.356 0.458821 106.816 0.59957 107.263 0.787238C107.711 0.974906 108.146 1.22229 108.568 1.52938C109.176 1.97296 109.674 2.51464 110.062 3.15441C110.451 3.79419 110.759 4.46809 110.987 5.17611C111.215 5.88413 111.375 6.60068 111.468 7.32576C111.561 8.05084 111.608 8.72047 111.608 9.33466C111.608 9.94885 111.57 10.5716 111.494 11.2028C111.418 11.8341 111.295 12.4525 111.126 13.0582C110.957 13.6638 110.734 14.2439 110.455 14.7984C110.176 15.3528 109.826 15.8604 109.404 16.321C108.982 16.7987 108.521 17.1826 108.023 17.4726C107.525 17.7627 107.002 17.9887 106.453 18.1508C105.904 18.3129 105.334 18.4238 104.743 18.4835C104.152 18.5432 103.553 18.573 102.945 18.573H96.7134ZM98.4358 17.0888H102.565C103.341 17.0888 104.072 17.0418 104.756 16.948C105.44 16.8542 106.136 16.6196 106.845 16.2443C107.453 15.9372 107.952 15.5192 108.34 14.9903C108.728 14.4614 109.037 13.8856 109.264 13.2629C109.492 12.6402 109.653 11.9876 109.746 11.3052C109.839 10.6227 109.885 9.96591 109.885 9.33466C109.885 8.66929 109.843 7.99113 109.758 7.30017C109.674 6.60921 109.514 5.95237 109.277 5.32966C109.041 4.70694 108.72 4.1354 108.315 3.61505C107.909 3.0947 107.386 2.66392 106.744 2.3227C106.204 2.03267 105.562 1.845 104.819 1.7597C104.076 1.6744 103.325 1.63174 102.565 1.63174H98.4358V17.0888Z" fill="black"/>
<path d="M115.711 12.3031C115.711 13.0197 115.804 13.6979 115.99 14.3376C116.175 14.9774 116.45 15.5319 116.813 16.001C117.176 16.4702 117.636 16.8456 118.193 17.1271C118.751 17.4086 119.392 17.5493 120.118 17.5493C121.115 17.5493 121.968 17.2849 122.677 16.756C123.386 16.2271 123.859 15.4764 124.095 14.504H125.792C125.607 15.1352 125.362 15.7195 125.058 16.257C124.754 16.7944 124.374 17.2635 123.918 17.6645C123.462 18.0654 122.922 18.3768 122.297 18.5985C121.672 18.8203 120.946 18.9312 120.118 18.9312C119.071 18.9312 118.168 18.7521 117.408 18.3938C116.648 18.0355 116.023 17.545 115.534 16.9223C115.044 16.2996 114.681 15.566 114.444 14.7215C114.208 13.877 114.09 12.9685 114.09 11.996C114.09 11.0236 114.229 10.1108 114.508 9.2578C114.786 8.40476 115.183 7.65835 115.698 7.01858C116.213 6.3788 116.842 5.87551 117.585 5.5087C118.328 5.1419 119.173 4.9585 120.118 4.9585C121.925 4.9585 123.344 5.58547 124.374 6.83944C125.404 8.0934 125.911 9.91464 125.894 12.3031H115.711ZM124.273 11.0236C124.273 10.3753 124.184 9.76536 124.007 9.19382C123.829 8.62229 123.568 8.12753 123.221 7.70954C122.875 7.29155 122.44 6.95886 121.917 6.71148C121.393 6.4641 120.794 6.34041 120.118 6.34041C119.443 6.34041 118.848 6.46837 118.333 6.72428C117.818 6.98019 117.379 7.32141 117.015 7.74792C116.652 8.17444 116.361 8.6692 116.142 9.23221C115.922 9.79521 115.779 10.3923 115.711 11.0236H124.273Z" fill="black"/>
<path d="M129.744 14.4272C129.98 15.5703 130.407 16.3764 131.023 16.8456C131.639 17.3147 132.522 17.5493 133.67 17.5493C134.227 17.5493 134.709 17.4811 135.114 17.3446C135.519 17.2081 135.853 17.0247 136.114 16.7944C136.376 16.5641 136.575 16.3039 136.71 16.0138C136.845 15.7238 136.912 15.4167 136.912 15.0926C136.912 14.4443 136.705 13.9623 136.292 13.6467C135.878 13.331 135.359 13.0837 134.734 12.9045C134.109 12.7254 133.434 12.5718 132.708 12.4439C131.981 12.3159 131.306 12.124 130.681 11.8681C130.056 11.6122 129.537 11.2454 129.123 10.7677C128.71 10.29 128.503 9.61607 128.503 8.74597C128.503 7.63703 128.904 6.72855 129.706 6.02053C130.508 5.31251 131.644 4.9585 133.113 4.9585C134.531 4.9585 135.684 5.27838 136.57 5.91816C137.457 6.55794 137.993 7.6285 138.179 9.12984H136.634C136.499 8.1062 136.114 7.38538 135.481 6.9674C134.848 6.54941 134.05 6.34041 133.087 6.34041C132.125 6.34041 131.39 6.54941 130.884 6.9674C130.377 7.38538 130.124 7.93559 130.124 8.61802C130.124 9.21515 130.331 9.67152 130.744 9.98714C131.158 10.3028 131.677 10.5587 132.302 10.7549C132.927 10.9511 133.602 11.1259 134.329 11.2795C135.055 11.433 135.73 11.6506 136.355 11.9321C136.98 12.2136 137.499 12.5932 137.913 13.0709C138.327 13.5486 138.533 14.2139 138.533 15.067C138.533 15.6982 138.398 16.257 138.128 16.7432C137.858 17.2294 137.486 17.6346 137.014 17.9588C136.541 18.2829 135.979 18.526 135.329 18.6881C134.679 18.8502 133.966 18.9312 133.189 18.9312C132.412 18.9312 131.724 18.8161 131.124 18.5857C130.525 18.3554 130.014 18.0355 129.592 17.6261C129.17 17.2166 128.84 16.7389 128.604 16.193C128.368 15.647 128.233 15.0584 128.199 14.4272H129.744Z" fill="black"/>
<path d="M141.674 2.42507V0.147461H143.346V2.42507H141.674ZM141.75 18.573V5.31686H143.27V18.573H141.75Z" fill="black"/>
<path d="M157.278 5.31677H158.797V17.2934C158.797 18.1806 158.709 19.0293 158.531 19.8397C158.354 20.6501 158.037 21.3624 157.582 21.9766C157.126 22.5908 156.501 23.0812 155.707 23.4481C154.913 23.8149 153.892 23.9983 152.642 23.9983C151.68 23.9983 150.852 23.8746 150.16 23.6272C149.467 23.3798 148.902 23.0685 148.463 22.6931C148.024 22.3178 147.69 21.9041 147.462 21.452C147.234 20.9998 147.112 20.5776 147.095 20.1852H148.716C148.834 20.68 149.02 21.0851 149.273 21.4008C149.527 21.7164 149.826 21.9638 150.172 22.1429C150.519 22.322 150.903 22.4457 151.325 22.514C151.747 22.5822 152.186 22.6163 152.642 22.6163C153.672 22.6163 154.5 22.4372 155.125 22.0789C155.749 21.7207 156.222 21.2515 156.543 20.6714C156.864 20.0914 157.071 19.4345 157.164 18.7009C157.256 17.9673 157.294 17.2166 157.278 16.4489C156.788 17.2678 156.117 17.8863 155.264 18.3042C154.411 18.7222 153.52 18.9312 152.591 18.9312C151.595 18.9312 150.73 18.7393 149.995 18.3554C149.261 17.9716 148.653 17.4597 148.171 16.82C147.69 16.1802 147.331 15.4338 147.095 14.5807C146.858 13.7277 146.74 12.8405 146.74 11.9193C146.74 10.9468 146.85 10.0341 147.07 9.18102C147.289 8.32799 147.639 7.59011 148.121 6.9674C148.602 6.34468 149.214 5.85418 149.957 5.49591C150.7 5.13763 151.604 4.9585 152.667 4.9585C153.09 4.9585 153.52 5.01821 153.959 5.13763C154.398 5.25706 154.825 5.42767 155.239 5.64946C155.652 5.87124 156.032 6.15274 156.378 6.49396C156.725 6.83517 157.007 7.21904 157.227 7.64556H157.278V5.31677ZM157.278 11.996C157.278 11.1942 157.18 10.4478 156.986 9.75682C156.792 9.06587 156.509 8.46874 156.138 7.96545C155.766 7.46216 155.302 7.0655 154.745 6.77546C154.187 6.48543 153.554 6.34041 152.845 6.34041C152.203 6.34041 151.612 6.45557 151.072 6.68589C150.531 6.91621 150.058 7.25316 149.653 7.69674C149.248 8.14032 148.931 8.682 148.703 9.32178C148.475 9.96155 148.361 10.6994 148.361 11.5354C148.328 12.3714 148.395 13.1519 148.564 13.877C148.733 14.6021 149.003 15.2376 149.375 15.7835C149.746 16.3295 150.219 16.7602 150.793 17.0759C151.367 17.3915 152.051 17.5493 152.845 17.5493C153.537 17.5493 154.158 17.4 154.707 17.1015C155.255 16.8029 155.72 16.402 156.1 15.8987C156.48 15.3954 156.771 14.8068 156.974 14.1329C157.176 13.459 157.278 12.7467 157.278 11.996Z" fill="black"/>
<path d="M164.141 18.573H162.621V5.31677H164.141V7.15933C164.749 6.51102 165.378 5.98214 166.028 5.57268C166.678 5.16322 167.459 4.9585 168.371 4.9585C169.182 4.9585 169.933 5.09925 170.625 5.38075C171.318 5.66225 171.9 6.15275 172.373 6.85224C172.694 7.32994 172.884 7.82043 172.943 8.32372C173.002 8.82701 173.032 9.35163 173.032 9.89757V18.573H171.512V9.92316C171.512 8.72891 171.25 7.83323 170.727 7.2361C170.203 6.63898 169.334 6.34041 168.118 6.34041C167.645 6.34041 167.214 6.41292 166.826 6.55794C166.438 6.70296 166.087 6.89489 165.775 7.13374C165.462 7.37259 165.196 7.64556 164.977 7.95265C164.757 8.25975 164.588 8.5839 164.47 8.92511C164.318 9.35163 164.225 9.76109 164.192 10.1535C164.158 10.5459 164.141 10.9724 164.141 11.433V18.573Z" fill="black"/>
</svg>
