<svg width="197" height="19" viewBox="0 0 197 19" fill="none" xmlns="http://www.w3.org/2000/svg">
<path d="M4.424 7.8H8.24C8.912 7.8 9.464 7.64 9.896 7.32C10.328 7 10.544 6.48 10.544 5.76C10.544 5.36 10.472 5.032 10.328 4.776C10.184 4.52 9.992 4.32 9.752 4.176C9.512 4.032 9.232 3.936 8.912 3.888C8.608 3.824 8.288 3.792 7.952 3.792H4.424V7.8ZM0.656 0.863999H8.72C9.536 0.863999 10.28 0.935999 10.952 1.08C11.624 1.224 12.2 1.464 12.68 1.8C13.16 2.12 13.528 2.552 13.784 3.096C14.056 3.64 14.192 4.312 14.192 5.112C14.192 5.976 13.992 6.696 13.592 7.272C13.208 7.848 12.632 8.32 11.864 8.688C12.92 8.992 13.704 9.528 14.216 10.296C14.744 11.048 15.008 11.96 15.008 13.032C15.008 13.896 14.84 14.648 14.504 15.288C14.168 15.912 13.712 16.424 13.136 16.824C12.576 17.224 11.928 17.52 11.192 17.712C10.472 17.904 9.728 18 8.96 18H0.656V0.863999ZM4.424 15.072H8.456C8.824 15.072 9.176 15.04 9.512 14.976C9.848 14.896 10.144 14.776 10.4 14.616C10.656 14.44 10.856 14.208 11 13.92C11.16 13.632 11.24 13.264 11.24 12.816C11.24 11.936 10.992 11.312 10.496 10.944C10 10.56 9.344 10.368 8.528 10.368H4.424V15.072ZM17.0504 9.408C17.0984 8.608 17.2984 7.944 17.6504 7.416C18.0024 6.888 18.4504 6.464 18.9944 6.144C19.5384 5.824 20.1464 5.6 20.8184 5.472C21.5064 5.328 22.1944 5.256 22.8824 5.256C23.5064 5.256 24.1384 5.304 24.7784 5.4C25.4184 5.48 26.0024 5.648 26.5304 5.904C27.0584 6.16 27.4904 6.52 27.8264 6.984C28.1624 7.432 28.3304 8.032 28.3304 8.784V15.24C28.3304 15.8 28.3624 16.336 28.4264 16.848C28.4904 17.36 28.6024 17.744 28.7624 18H25.3064C25.2424 17.808 25.1864 17.616 25.1384 17.424C25.1064 17.216 25.0824 17.008 25.0664 16.8C24.5224 17.36 23.8824 17.752 23.1464 17.976C22.4104 18.2 21.6584 18.312 20.8904 18.312C20.2984 18.312 19.7464 18.24 19.2344 18.096C18.7224 17.952 18.2744 17.728 17.8904 17.424C17.5064 17.12 17.2024 16.736 16.9784 16.272C16.7704 15.808 16.6664 15.256 16.6664 14.616C16.6664 13.912 16.7864 13.336 17.0264 12.888C17.2824 12.424 17.6024 12.056 17.9864 11.784C18.3864 11.512 18.8344 11.312 19.3304 11.184C19.8424 11.04 20.3544 10.928 20.8664 10.848C21.3784 10.768 21.8824 10.704 22.3784 10.656C22.8744 10.608 23.3144 10.536 23.6984 10.44C24.0824 10.344 24.3864 10.208 24.6104 10.032C24.8344 9.84 24.9384 9.568 24.9224 9.216C24.9224 8.848 24.8584 8.56 24.7304 8.352C24.6184 8.128 24.4584 7.96 24.2504 7.848C24.0584 7.72 23.8264 7.64 23.5544 7.608C23.2984 7.56 23.0184 7.536 22.7144 7.536C22.0424 7.536 21.5144 7.68 21.1304 7.968C20.7464 8.256 20.5224 8.736 20.4584 9.408H17.0504ZM24.9224 11.928C24.7784 12.056 24.5944 12.16 24.3704 12.24C24.1624 12.304 23.9304 12.36 23.6744 12.408C23.4344 12.456 23.1784 12.496 22.9064 12.528C22.6344 12.56 22.3624 12.6 22.0904 12.648C21.8344 12.696 21.5784 12.76 21.3224 12.84C21.0824 12.92 20.8664 13.032 20.6744 13.176C20.4984 13.304 20.3544 13.472 20.2424 13.68C20.1304 13.888 20.0744 14.152 20.0744 14.472C20.0744 14.776 20.1304 15.032 20.2424 15.24C20.3544 15.448 20.5064 15.616 20.6984 15.744C20.8904 15.856 21.1144 15.936 21.3704 15.984C21.6264 16.032 21.8904 16.056 22.1624 16.056C22.8344 16.056 23.3544 15.944 23.7224 15.72C24.0904 15.496 24.3624 15.232 24.5384 14.928C24.7144 14.608 24.8184 14.288 24.8504 13.968C24.8984 13.648 24.9224 13.392 24.9224 13.2V11.928ZM30.9757 5.592H34.2157V7.32H34.2877C34.7197 6.6 35.2797 6.08 35.9677 5.76C36.6557 5.424 37.3597 5.256 38.0797 5.256C38.9917 5.256 39.7357 5.384 40.3117 5.64C40.9037 5.88 41.3677 6.224 41.7037 6.672C42.0397 7.104 42.2717 7.64 42.3997 8.28C42.5437 8.904 42.6157 9.6 42.6157 10.368V18H39.2077V10.992C39.2077 9.968 39.0477 9.208 38.7277 8.712C38.4077 8.2 37.8397 7.944 37.0237 7.944C36.0957 7.944 35.4237 8.224 35.0077 8.784C34.5917 9.328 34.3837 10.232 34.3837 11.496V18H30.9757V5.592ZM45.0583 9.408C45.1063 8.608 45.3063 7.944 45.6583 7.416C46.0103 6.888 46.4583 6.464 47.0023 6.144C47.5463 5.824 48.1543 5.6 48.8263 5.472C49.5143 5.328 50.2023 5.256 50.8903 5.256C51.5143 5.256 52.1463 5.304 52.7863 5.4C53.4263 5.48 54.0103 5.648 54.5383 5.904C55.0663 6.16 55.4983 6.52 55.8343 6.984C56.1703 7.432 56.3383 8.032 56.3383 8.784V15.24C56.3383 15.8 56.3703 16.336 56.4343 16.848C56.4983 17.36 56.6103 17.744 56.7703 18H53.3143C53.2503 17.808 53.1943 17.616 53.1463 17.424C53.1143 17.216 53.0903 17.008 53.0743 16.8C52.5303 17.36 51.8903 17.752 51.1543 17.976C50.4183 18.2 49.6663 18.312 48.8983 18.312C48.3063 18.312 47.7543 18.24 47.2423 18.096C46.7303 17.952 46.2823 17.728 45.8983 17.424C45.5143 17.12 45.2103 16.736 44.9863 16.272C44.7783 15.808 44.6743 15.256 44.6743 14.616C44.6743 13.912 44.7943 13.336 45.0343 12.888C45.2903 12.424 45.6103 12.056 45.9943 11.784C46.3943 11.512 46.8423 11.312 47.3383 11.184C47.8503 11.04 48.3623 10.928 48.8743 10.848C49.3863 10.768 49.8903 10.704 50.3863 10.656C50.8823 10.608 51.3223 10.536 51.7063 10.44C52.0903 10.344 52.3943 10.208 52.6183 10.032C52.8423 9.84 52.9463 9.568 52.9303 9.216C52.9303 8.848 52.8663 8.56 52.7383 8.352C52.6263 8.128 52.4663 7.96 52.2583 7.848C52.0663 7.72 51.8343 7.64 51.5623 7.608C51.3063 7.56 51.0263 7.536 50.7223 7.536C50.0503 7.536 49.5223 7.68 49.1383 7.968C48.7543 8.256 48.5303 8.736 48.4663 9.408H45.0583ZM52.9303 11.928C52.7863 12.056 52.6023 12.16 52.3783 12.24C52.1703 12.304 51.9383 12.36 51.6823 12.408C51.4423 12.456 51.1863 12.496 50.9143 12.528C50.6423 12.56 50.3703 12.6 50.0983 12.648C49.8423 12.696 49.5863 12.76 49.3303 12.84C49.0903 12.92 48.8743 13.032 48.6823 13.176C48.5063 13.304 48.3623 13.472 48.2503 13.68C48.1383 13.888 48.0823 14.152 48.0823 14.472C48.0823 14.776 48.1383 15.032 48.2503 15.24C48.3623 15.448 48.5143 15.616 48.7063 15.744C48.8983 15.856 49.1223 15.936 49.3783 15.984C49.6343 16.032 49.8983 16.056 50.1703 16.056C50.8423 16.056 51.3623 15.944 51.7303 15.72C52.0983 15.496 52.3703 15.232 52.5463 14.928C52.7223 14.608 52.8263 14.288 52.8583 13.968C52.9063 13.648 52.9303 13.392 52.9303 13.2V11.928ZM58.9835 5.592H62.2235V7.32H62.2955C62.7275 6.6 63.2875 6.08 63.9755 5.76C64.6635 5.424 65.3675 5.256 66.0875 5.256C66.9995 5.256 67.7435 5.384 68.3195 5.64C68.9115 5.88 69.3755 6.224 69.7115 6.672C70.0475 7.104 70.2795 7.64 70.4075 8.28C70.5515 8.904 70.6235 9.6 70.6235 10.368V18H67.2155V10.992C67.2155 9.968 67.0555 9.208 66.7355 8.712C66.4155 8.2 65.8475 7.944 65.0315 7.944C64.1035 7.944 63.4315 8.224 63.0155 8.784C62.5995 9.328 62.3915 10.232 62.3915 11.496V18H58.9835V5.592ZM73.0661 9.408C73.1141 8.608 73.3141 7.944 73.6661 7.416C74.0181 6.888 74.4661 6.464 75.0101 6.144C75.5541 5.824 76.1621 5.6 76.8341 5.472C77.5221 5.328 78.2101 5.256 78.8981 5.256C79.5221 5.256 80.1541 5.304 80.7941 5.4C81.4341 5.48 82.0181 5.648 82.5461 5.904C83.0741 6.16 83.5061 6.52 83.8421 6.984C84.1781 7.432 84.3461 8.032 84.3461 8.784V15.24C84.3461 15.8 84.3781 16.336 84.4421 16.848C84.5061 17.36 84.6181 17.744 84.7781 18H81.3221C81.2581 17.808 81.2021 17.616 81.1541 17.424C81.1221 17.216 81.0981 17.008 81.0821 16.8C80.5381 17.36 79.8981 17.752 79.1621 17.976C78.4261 18.2 77.6741 18.312 76.9061 18.312C76.3141 18.312 75.7621 18.24 75.2501 18.096C74.7381 17.952 74.2901 17.728 73.9061 17.424C73.5221 17.12 73.2181 16.736 72.9941 16.272C72.7861 15.808 72.6821 15.256 72.6821 14.616C72.6821 13.912 72.8021 13.336 73.0421 12.888C73.2981 12.424 73.6181 12.056 74.0021 11.784C74.4021 11.512 74.8501 11.312 75.3461 11.184C75.8581 11.04 76.3701 10.928 76.8821 10.848C77.3941 10.768 77.8981 10.704 78.3941 10.656C78.8901 10.608 79.3301 10.536 79.7141 10.44C80.0981 10.344 80.4021 10.208 80.6261 10.032C80.8501 9.84 80.9541 9.568 80.9381 9.216C80.9381 8.848 80.8741 8.56 80.7461 8.352C80.6341 8.128 80.4741 7.96 80.2661 7.848C80.0741 7.72 79.8421 7.64 79.5701 7.608C79.3141 7.56 79.0341 7.536 78.7301 7.536C78.0581 7.536 77.5301 7.68 77.1461 7.968C76.7621 8.256 76.5381 8.736 76.4741 9.408H73.0661ZM80.9381 11.928C80.7941 12.056 80.6101 12.16 80.3861 12.24C80.1781 12.304 79.9461 12.36 79.6901 12.408C79.4501 12.456 79.1941 12.496 78.9221 12.528C78.6501 12.56 78.3781 12.6 78.1061 12.648C77.8501 12.696 77.5941 12.76 77.3381 12.84C77.0981 12.92 76.8821 13.032 76.6901 13.176C76.5141 13.304 76.3701 13.472 76.2581 13.68C76.1461 13.888 76.0901 14.152 76.0901 14.472C76.0901 14.776 76.1461 15.032 76.2581 15.24C76.3701 15.448 76.5221 15.616 76.7141 15.744C76.9061 15.856 77.1301 15.936 77.3861 15.984C77.6421 16.032 77.9061 16.056 78.1781 16.056C78.8501 16.056 79.3701 15.944 79.7381 15.72C80.1061 15.496 80.3781 15.232 80.5541 14.928C80.7301 14.608 80.8341 14.288 80.8661 13.968C80.9141 13.648 80.9381 13.392 80.9381 13.2V11.928ZM89.0553 9.264H94.6713C95.8073 9.264 96.7273 8.976 97.4313 8.4C98.1353 7.824 98.4873 6.944 98.4873 5.76C98.4873 4.576 98.1353 3.696 97.4313 3.12C96.7273 2.544 95.8073 2.256 94.6713 2.256H89.0553V9.264ZM87.4233 0.863999H95.0313C95.7993 0.863999 96.4953 0.975999 97.1193 1.2C97.7433 1.408 98.2793 1.728 98.7273 2.16C99.1753 2.576 99.5193 3.088 99.7593 3.696C99.9993 4.304 100.119 4.992 100.119 5.76C100.119 6.528 99.9993 7.216 99.7593 7.824C99.5193 8.432 99.1753 8.952 98.7273 9.384C98.2793 9.8 97.7433 10.12 97.1193 10.344C96.4953 10.552 95.7993 10.656 95.0313 10.656H89.0553V18H87.4233V0.863999ZM102.253 5.616H103.645V8.52H103.693C104.077 7.512 104.669 6.736 105.469 6.192C106.285 5.648 107.253 5.4 108.373 5.448V6.96C107.685 6.928 107.061 7.024 106.501 7.248C105.941 7.456 105.453 7.76 105.037 8.16C104.637 8.56 104.325 9.04 104.101 9.6C103.877 10.144 103.765 10.744 103.765 11.4V18H102.253V5.616ZM114.633 6.528C113.913 6.528 113.281 6.68 112.737 6.984C112.193 7.288 111.737 7.688 111.369 8.184C111.017 8.68 110.745 9.248 110.553 9.888C110.377 10.512 110.289 11.152 110.289 11.808C110.289 12.464 110.377 13.112 110.553 13.752C110.745 14.376 111.017 14.936 111.369 15.432C111.737 15.928 112.193 16.328 112.737 16.632C113.281 16.936 113.913 17.088 114.633 17.088C115.353 17.088 115.985 16.936 116.529 16.632C117.073 16.328 117.521 15.928 117.873 15.432C118.241 14.936 118.513 14.376 118.689 13.752C118.881 13.112 118.977 12.464 118.977 11.808C118.977 11.152 118.881 10.512 118.689 9.888C118.513 9.248 118.241 8.68 117.873 8.184C117.521 7.688 117.073 7.288 116.529 6.984C115.985 6.68 115.353 6.528 114.633 6.528ZM114.633 5.256C115.577 5.256 116.409 5.432 117.129 5.784C117.865 6.136 118.481 6.608 118.977 7.2C119.473 7.792 119.849 8.488 120.105 9.288C120.361 10.072 120.489 10.912 120.489 11.808C120.489 12.704 120.361 13.552 120.105 14.352C119.849 15.136 119.473 15.824 118.977 16.416C118.481 17.008 117.865 17.48 117.129 17.832C116.409 18.168 115.577 18.336 114.633 18.336C113.689 18.336 112.849 18.168 112.113 17.832C111.393 17.48 110.785 17.008 110.289 16.416C109.793 15.824 109.417 15.136 109.161 14.352C108.905 13.552 108.777 12.704 108.777 11.808C108.777 10.912 108.905 10.072 109.161 9.288C109.417 8.488 109.793 7.792 110.289 7.2C110.785 6.608 111.393 6.136 112.113 5.784C112.849 5.432 113.689 5.256 114.633 5.256ZM133.633 18H132.241V15.648H132.193C132.033 16.048 131.793 16.416 131.473 16.752C131.169 17.088 130.817 17.376 130.417 17.616C130.017 17.84 129.585 18.016 129.121 18.144C128.673 18.272 128.225 18.336 127.777 18.336C126.833 18.336 126.009 18.168 125.305 17.832C124.617 17.48 124.041 17.008 123.577 16.416C123.113 15.808 122.769 15.112 122.545 14.328C122.321 13.528 122.209 12.688 122.209 11.808C122.209 10.928 122.321 10.096 122.545 9.312C122.769 8.512 123.113 7.816 123.577 7.224C124.041 6.616 124.617 6.136 125.305 5.784C126.009 5.432 126.833 5.256 127.777 5.256C128.241 5.256 128.689 5.312 129.121 5.424C129.569 5.536 129.985 5.712 130.369 5.952C130.753 6.176 131.089 6.456 131.377 6.792C131.681 7.128 131.913 7.52 132.073 7.968H132.121V0.863999H133.633V18ZM123.721 11.808C123.721 12.448 123.793 13.088 123.937 13.728C124.097 14.352 124.337 14.912 124.657 15.408C124.993 15.904 125.417 16.312 125.929 16.632C126.441 16.936 127.057 17.088 127.777 17.088C128.577 17.088 129.249 16.936 129.793 16.632C130.353 16.312 130.801 15.904 131.137 15.408C131.489 14.912 131.737 14.352 131.881 13.728C132.041 13.088 132.121 12.448 132.121 11.808C132.121 11.168 132.041 10.536 131.881 9.912C131.737 9.272 131.489 8.704 131.137 8.208C130.801 7.712 130.353 7.312 129.793 7.008C129.249 6.688 128.577 6.528 127.777 6.528C127.057 6.528 126.441 6.688 125.929 7.008C125.417 7.312 124.993 7.712 124.657 8.208C124.337 8.704 124.097 9.272 123.937 9.912C123.793 10.536 123.721 11.168 123.721 11.808ZM146.55 18H145.158V15.768H145.11C144.71 16.6 144.126 17.24 143.358 17.688C142.606 18.12 141.766 18.336 140.838 18.336C140.054 18.336 139.382 18.224 138.822 18C138.278 17.792 137.83 17.488 137.478 17.088C137.142 16.688 136.894 16.2 136.734 15.624C136.574 15.048 136.494 14.392 136.494 13.656V5.616H138.006V13.68C138.038 14.8 138.294 15.648 138.774 16.224C139.27 16.8 140.118 17.088 141.318 17.088C141.974 17.088 142.534 16.952 142.998 16.68C143.462 16.392 143.846 16.016 144.15 15.552C144.454 15.088 144.678 14.56 144.822 13.968C144.966 13.36 145.038 12.744 145.038 12.12V5.616H146.55V18ZM158.145 9.504C157.937 8.576 157.553 7.848 156.993 7.32C156.433 6.792 155.649 6.528 154.641 6.528C153.921 6.528 153.289 6.68 152.745 6.984C152.201 7.288 151.745 7.688 151.377 8.184C151.025 8.68 150.753 9.248 150.561 9.888C150.385 10.512 150.297 11.152 150.297 11.808C150.297 12.464 150.385 13.112 150.561 13.752C150.753 14.376 151.025 14.936 151.377 15.432C151.745 15.928 152.201 16.328 152.745 16.632C153.289 16.936 153.921 17.088 154.641 17.088C155.105 17.088 155.545 17 155.961 16.824C156.377 16.648 156.745 16.408 157.065 16.104C157.385 15.784 157.649 15.408 157.857 14.976C158.065 14.544 158.193 14.072 158.241 13.56H159.753C159.545 15.064 158.993 16.24 158.097 17.088C157.201 17.92 156.049 18.336 154.641 18.336C153.697 18.336 152.857 18.168 152.121 17.832C151.401 17.48 150.793 17.008 150.297 16.416C149.801 15.824 149.425 15.136 149.169 14.352C148.913 13.552 148.785 12.704 148.785 11.808C148.785 10.912 148.913 10.072 149.169 9.288C149.425 8.488 149.801 7.792 150.297 7.2C150.793 6.608 151.401 6.136 152.121 5.784C152.857 5.432 153.697 5.256 154.641 5.256C155.969 5.256 157.089 5.608 158.001 6.312C158.929 7.016 159.481 8.08 159.657 9.504H158.145ZM164.254 5.616H166.774V6.888H164.254V15.24C164.254 15.736 164.318 16.128 164.446 16.416C164.59 16.688 164.934 16.84 165.478 16.872C165.91 16.872 166.342 16.848 166.774 16.8V18.072C166.55 18.072 166.326 18.08 166.102 18.096C165.878 18.112 165.654 18.12 165.43 18.12C164.422 18.12 163.718 17.928 163.318 17.544C162.918 17.144 162.726 16.416 162.742 15.36V6.888H160.582V5.616H162.742V1.896H164.254V5.616ZM168.98 0.863999H170.492V3.288H168.98V0.863999ZM168.98 5.616H170.492V18H168.98V5.616ZM178.617 6.528C177.897 6.528 177.265 6.68 176.721 6.984C176.177 7.288 175.721 7.688 175.353 8.184C175.001 8.68 174.729 9.248 174.537 9.888C174.361 10.512 174.273 11.152 174.273 11.808C174.273 12.464 174.361 13.112 174.537 13.752C174.729 14.376 175.001 14.936 175.353 15.432C175.721 15.928 176.177 16.328 176.721 16.632C177.265 16.936 177.897 17.088 178.617 17.088C179.337 17.088 179.969 16.936 180.513 16.632C181.057 16.328 181.505 15.928 181.857 15.432C182.225 14.936 182.497 14.376 182.673 13.752C182.865 13.112 182.961 12.464 182.961 11.808C182.961 11.152 182.865 10.512 182.673 9.888C182.497 9.248 182.225 8.68 181.857 8.184C181.505 7.688 181.057 7.288 180.513 6.984C179.969 6.68 179.337 6.528 178.617 6.528ZM178.617 5.256C179.561 5.256 180.393 5.432 181.113 5.784C181.849 6.136 182.465 6.608 182.961 7.2C183.457 7.792 183.833 8.488 184.089 9.288C184.345 10.072 184.473 10.912 184.473 11.808C184.473 12.704 184.345 13.552 184.089 14.352C183.833 15.136 183.457 15.824 182.961 16.416C182.465 17.008 181.849 17.48 181.113 17.832C180.393 18.168 179.561 18.336 178.617 18.336C177.673 18.336 176.833 18.168 176.097 17.832C175.377 17.48 174.769 17.008 174.273 16.416C173.777 15.824 173.401 15.136 173.145 14.352C172.889 13.552 172.761 12.704 172.761 11.808C172.761 10.912 172.889 10.072 173.145 9.288C173.401 8.488 173.777 7.792 174.273 7.2C174.769 6.608 175.377 6.136 176.097 5.784C176.833 5.432 177.673 5.256 178.617 5.256ZM186.697 5.616H188.209V7.752H188.257C188.545 7 189.057 6.4 189.793 5.952C190.529 5.488 191.337 5.256 192.217 5.256C193.081 5.256 193.801 5.368 194.377 5.592C194.969 5.816 195.441 6.136 195.793 6.552C196.145 6.952 196.393 7.448 196.537 8.04C196.681 8.632 196.753 9.296 196.753 10.032V18H195.241V10.272C195.241 9.744 195.193 9.256 195.097 8.808C195.001 8.344 194.833 7.944 194.593 7.608C194.353 7.272 194.025 7.008 193.609 6.816C193.209 6.624 192.705 6.528 192.097 6.528C191.489 6.528 190.945 6.64 190.465 6.864C190.001 7.072 189.601 7.368 189.265 7.752C188.945 8.12 188.689 8.568 188.497 9.096C188.321 9.608 188.225 10.168 188.209 10.776V18H186.697V5.616Z" fill="black"/>
</svg>
