<svg width="220" height="26" viewBox="0 0 220 26" fill="none" xmlns="http://www.w3.org/2000/svg">
<path d="M127.009 1.27686H130.337L138.557 21.7934L146.745 1.27686H150.073V24.6795H147.81V4.45712H147.743L139.623 24.6795H137.494L129.339 4.45712H129.272V24.6795H127.009V1.27686Z" fill="white"/>
<path d="M169.511 16.2235C169.511 21.0737 166.65 25.1705 161.391 25.1705C156.133 25.1705 153.271 21.0737 153.271 16.2235C153.271 11.3732 156.133 7.27637 161.391 7.27637C166.65 7.27637 169.511 11.3732 169.511 16.2235ZM155.366 16.2235C155.366 19.8288 157.362 23.4342 161.389 23.4342C165.416 23.4342 167.413 19.8288 167.413 16.2235C167.413 12.6181 165.416 9.01269 161.389 9.01269C157.362 9.01269 155.366 12.6181 155.366 16.2235Z" fill="white"/>
<path d="M175.702 7.76634H179.198V9.50267H175.702V20.9089C175.702 22.2524 175.903 23.0399 177.4 23.1385C177.999 23.1385 178.598 23.1063 179.198 23.0399V24.8103C178.566 24.8103 177.966 24.8767 177.334 24.8767C174.538 24.8767 173.573 23.9583 173.608 21.074V9.50267H170.611V7.76634H173.608V2.68652H175.704V7.76634H175.702Z" fill="white"/>
<path d="M181.992 1.27686H184.088V4.58807H181.992V1.27686ZM181.992 7.76654H184.088V24.6795H181.992V7.76654Z" fill="white"/>
<path d="M203.226 16.2235C203.226 21.0737 200.365 25.1705 195.106 25.1705C189.848 25.1705 186.986 21.0737 186.986 16.2235C186.986 11.3732 189.848 7.27637 195.106 7.27637C200.365 7.27637 203.226 11.3732 203.226 16.2235ZM189.081 16.2235C189.081 19.8288 191.077 23.4342 195.105 23.4342C199.132 23.4342 201.128 19.8288 201.128 16.2235C201.128 12.6181 199.132 9.01269 195.105 9.01269C191.077 9.01269 189.081 12.6181 189.081 16.2235Z" fill="white"/>
<path d="M206.055 7.76785H208.152V10.6844H208.219C208.984 8.65215 211.281 7.27637 213.711 7.27637C218.536 7.27637 220 9.76785 220 13.7983V24.6791H217.904V14.1248C217.904 11.2082 216.938 9.01269 213.543 9.01269C210.148 9.01269 208.217 11.5042 208.152 14.8136V24.6791H206.055V7.76785Z" fill="white"/>
<path d="M127.009 1.27686H130.337L138.557 21.7934L146.745 1.27686H150.073V24.6795H147.81V4.45712H147.743L139.623 24.6795H137.494L129.339 4.45712H129.272V24.6795H127.009V1.27686Z" fill="white"/>
<path d="M169.511 16.2235C169.511 21.0737 166.65 25.1705 161.391 25.1705C156.133 25.1705 153.271 21.0737 153.271 16.2235C153.271 11.3732 156.133 7.27637 161.391 7.27637C166.65 7.27637 169.511 11.3732 169.511 16.2235ZM155.366 16.2235C155.366 19.8288 157.362 23.4342 161.389 23.4342C165.416 23.4342 167.413 19.8288 167.413 16.2235C167.413 12.6181 165.416 9.01269 161.389 9.01269C157.362 9.01269 155.366 12.6181 155.366 16.2235Z" fill="white"/>
<path d="M175.702 7.76634H179.198V9.50267H175.702V20.9089C175.702 22.2524 175.903 23.0399 177.4 23.1385C177.999 23.1385 178.598 23.1063 179.198 23.0399V24.8103C178.566 24.8103 177.966 24.8767 177.334 24.8767C174.538 24.8767 173.573 23.9583 173.608 21.074V9.50267H170.611V7.76634H173.608V2.68652H175.704V7.76634H175.702Z" fill="white"/>
<path d="M181.992 1.27686H184.088V4.58807H181.992V1.27686ZM181.992 7.76654H184.088V24.6795H181.992V7.76654Z" fill="white"/>
<path d="M203.226 16.2235C203.226 21.0737 200.365 25.1705 195.106 25.1705C189.848 25.1705 186.986 21.0737 186.986 16.2235C186.986 11.3732 189.848 7.27637 195.106 7.27637C200.365 7.27637 203.226 11.3732 203.226 16.2235ZM189.081 16.2235C189.081 19.8288 191.077 23.4342 195.105 23.4342C199.132 23.4342 201.128 19.8288 201.128 16.2235C201.128 12.6181 199.132 9.01269 195.105 9.01269C191.077 9.01269 189.081 12.6181 189.081 16.2235Z" fill="white"/>
<path d="M206.055 7.76785H208.152V10.6844H208.219C208.984 8.65215 211.281 7.27637 213.711 7.27637C218.536 7.27637 220 9.76785 220 13.7983V24.6791H217.904V14.1248C217.904 11.2082 216.938 9.01269 213.543 9.01269C210.148 9.01269 208.217 11.5042 208.152 14.8136V24.6791H206.055V7.76785Z" fill="white"/>
<path d="M0.725586 0.97262H11.8419C15.9366 0.906252 20.4283 1.95558 20.4283 6.83988C20.4283 8.93675 19.1642 10.6426 17.299 11.5592C19.829 12.2802 21.3937 14.4435 21.3937 17.0982C21.3937 22.6695 17.2335 24.3735 12.1407 24.3735H0.725586V0.97262ZM6.91672 10.1834H11.709C12.7745 10.1834 14.239 9.62554 14.239 7.95379C14.239 6.28204 13.0077 5.6919 11.709 5.6919H6.91672V10.1816V10.1834ZM6.91672 19.491H11.8766C13.8401 19.491 15.2044 18.8022 15.2044 16.8686C15.2044 14.804 13.7399 14.1152 11.8766 14.1152H6.91672V19.491Z" fill="white"/>
<path d="M24.0216 12.6064C24.1218 10.3768 25.1873 8.93469 26.7173 8.05039C28.2492 7.19837 30.2455 6.87012 32.209 6.87012C36.3037 6.87012 40.2635 7.75442 40.2635 12.5724V20.0127C40.2635 21.4549 40.2635 23.028 40.9283 24.3715H35.2363C35.0359 23.8477 34.9704 23.3221 34.903 22.7661C33.4385 24.2746 31.2746 24.8629 29.2109 24.8629C25.9159 24.8629 23.3203 23.2235 23.3203 19.7168C23.3203 14.1777 29.4441 14.6046 33.3711 13.8172C34.3365 13.6199 34.8684 13.2934 34.8684 12.2441C34.8684 10.9652 33.3037 10.4737 32.1398 10.4737C30.5752 10.4737 29.577 11.1625 29.3111 12.6046H24.0198L24.0216 12.6064ZM31.3438 21.4226C34.0396 21.4226 34.9376 19.9141 34.8046 16.4073C34.005 16.8988 32.5405 16.9975 31.3092 17.3257C30.0451 17.6199 28.9796 18.1455 28.9796 19.489C28.9796 20.8324 30.0779 21.4226 31.342 21.4226H31.3438Z" fill="white"/>
<path d="M43.7261 7.3616H49.2178V9.68806H49.2852C50.3161 7.95173 52.6476 6.87012 54.7095 6.87012C60.4671 6.87012 60.9334 10.9993 60.9334 13.4585V24.3733H55.2759V16.1472C55.2759 13.8208 55.5419 11.4603 52.4472 11.4603C50.3179 11.4603 49.3853 13.2307 49.3853 15.0979V24.3733H43.7279V7.3616H43.7261Z" fill="white"/>
<path d="M64.1934 12.6064C64.2936 10.3768 65.3592 8.93469 66.8892 8.05039C68.4211 7.19837 70.4174 6.87012 72.3809 6.87012C76.4755 6.87012 80.4354 7.75442 80.4354 12.5724V20.0127C80.4354 21.4549 80.4354 23.028 81.1002 24.3715H75.4082C75.2078 23.8477 75.1422 23.3221 75.0748 22.7661C73.6104 24.2746 71.4465 24.8629 69.3828 24.8629C66.0878 24.8629 63.4922 23.2235 63.4922 19.7168C63.4922 14.1777 69.6159 14.6046 73.543 13.8172C74.5084 13.6199 75.0402 13.2934 75.0402 12.2441C75.0402 10.9652 73.4756 10.4737 72.3117 10.4737C70.7471 10.4737 69.7489 11.1625 69.483 12.6046H64.1916L64.1934 12.6064ZM71.5157 21.4226C74.2115 21.4226 75.1094 19.9141 74.9765 16.4073C74.1769 16.8988 72.7124 16.9975 71.4811 17.3257C70.217 17.6199 69.1515 18.1455 69.1515 19.489C69.1515 20.8324 70.2498 21.4226 71.5139 21.4226H71.5157Z" fill="white"/>
<path d="M83.8975 7.3616H89.3892V9.68806H89.4566C90.4875 7.95173 92.819 6.87012 94.8808 6.87012C100.638 6.87012 101.105 10.9993 101.105 13.4585V24.3733H95.4473V16.1472C95.4473 13.8208 95.7133 11.4603 92.6186 11.4603C90.4893 11.4603 89.5567 13.2307 89.5567 15.0979V24.3733H83.8993V7.3616H83.8975Z" fill="white"/>
<path d="M104.366 12.6064C104.466 10.3768 105.532 8.93469 107.062 8.05039C108.594 7.19837 110.59 6.87012 112.554 6.87012C116.648 6.87012 120.608 7.75442 120.608 12.5724V20.0127C120.608 21.4549 120.608 23.028 121.273 24.3715H115.581C115.381 23.8477 115.315 23.3221 115.248 22.7661C113.783 24.2746 111.619 24.8629 109.556 24.8629C106.261 24.8629 103.665 23.2235 103.665 19.7168C103.665 14.1777 109.789 14.6046 113.716 13.8172C114.681 13.6199 115.213 13.2934 115.213 12.2441C115.213 10.9652 113.648 10.4737 112.485 10.4737C110.92 10.4737 109.922 11.1625 109.656 12.6046H104.364L104.366 12.6064ZM111.689 21.4226C114.384 21.4226 115.282 19.9141 115.149 16.4073C114.35 16.8988 112.885 16.9975 111.654 17.3257C110.39 17.6199 109.324 18.1455 109.324 19.489C109.324 20.8324 110.423 21.4226 111.687 21.4226H111.689Z" fill="white"/>
<path d="M0.725586 0.97262H11.8419C15.9366 0.906252 20.4283 1.95558 20.4283 6.83988C20.4283 8.93675 19.1642 10.6426 17.299 11.5592C19.829 12.2802 21.3937 14.4435 21.3937 17.0982C21.3937 22.6695 17.2335 24.3735 12.1407 24.3735H0.725586V0.97262ZM6.91672 10.1834H11.709C12.7745 10.1834 14.239 9.62553 14.239 7.95379C14.239 6.28204 13.0077 5.6919 11.709 5.6919H6.91672V10.1816V10.1834ZM6.91672 19.491H11.8766C13.8401 19.491 15.2044 18.8022 15.2044 16.8686C15.2044 14.804 13.7399 14.1152 11.8766 14.1152H6.91672V19.491Z" fill="white"/>
<path d="M24.0216 12.6064C24.1218 10.3768 25.1873 8.93469 26.7173 8.05039C28.2492 7.19837 30.2455 6.87012 32.209 6.87012C36.3037 6.87012 40.2635 7.75442 40.2635 12.5724V20.0127C40.2635 21.4549 40.2635 23.028 40.9283 24.3715H35.2363C35.0359 23.8477 34.9704 23.3221 34.903 22.7661C33.4385 24.2746 31.2746 24.8629 29.2109 24.8629C25.9159 24.8629 23.3203 23.2235 23.3203 19.7168C23.3203 14.1777 29.4441 14.6046 33.3711 13.8172C34.3365 13.6199 34.8684 13.2934 34.8684 12.2441C34.8684 10.9652 33.3037 10.4737 32.1398 10.4737C30.5752 10.4737 29.577 11.1625 29.3111 12.6046H24.0198L24.0216 12.6064ZM31.3438 21.4226C34.0396 21.4226 34.9376 19.9141 34.8046 16.4073C34.005 16.8988 32.5405 16.9975 31.3092 17.3257C30.0451 17.6199 28.9796 18.1455 28.9796 19.489C28.9796 20.8324 30.0779 21.4226 31.342 21.4226H31.3438Z" fill="white"/>
<path d="M43.7261 7.3616H49.2178V9.68806H49.2852C50.3161 7.95173 52.6476 6.87012 54.7095 6.87012C60.4671 6.87012 60.9334 10.9993 60.9334 13.4585V24.3733H55.2759V16.1472C55.2759 13.8208 55.5419 11.4603 52.4472 11.4603C50.3179 11.4603 49.3853 13.2307 49.3853 15.0979V24.3733H43.7279V7.3616H43.7261Z" fill="white"/>
<path d="M64.1934 12.6064C64.2936 10.3768 65.3592 8.93469 66.8892 8.05039C68.4211 7.19837 70.4174 6.87012 72.3809 6.87012C76.4755 6.87012 80.4354 7.75442 80.4354 12.5724V20.0127C80.4354 21.4549 80.4354 23.028 81.1002 24.3715H75.4082C75.2078 23.8477 75.1422 23.3221 75.0748 22.7661C73.6104 24.2746 71.4465 24.8629 69.3828 24.8629C66.0878 24.8629 63.4922 23.2235 63.4922 19.7168C63.4922 14.1777 69.6159 14.6046 73.543 13.8172C74.5084 13.6199 75.0402 13.2934 75.0402 12.2441C75.0402 10.9652 73.4756 10.4737 72.3117 10.4737C70.7471 10.4737 69.7489 11.1625 69.483 12.6046H64.1916L64.1934 12.6064ZM71.5157 21.4226C74.2115 21.4226 75.1094 19.9141 74.9765 16.4073C74.1769 16.8988 72.7124 16.9975 71.4811 17.3257C70.217 17.6199 69.1515 18.1455 69.1515 19.489C69.1515 20.8324 70.2498 21.4226 71.5139 21.4226H71.5157Z" fill="white"/>
<path d="M83.8975 7.3616H89.3892V9.68806H89.4566C90.4875 7.95173 92.819 6.87012 94.8808 6.87012C100.638 6.87012 101.105 10.9993 101.105 13.4585V24.3733H95.4473V16.1472C95.4473 13.8208 95.7133 11.4603 92.6186 11.4603C90.4893 11.4603 89.5567 13.2307 89.5567 15.0979V24.3733H83.8993V7.3616H83.8975Z" fill="white"/>
<path d="M104.366 12.6064C104.466 10.3768 105.532 8.93469 107.062 8.05039C108.594 7.19837 110.59 6.87012 112.554 6.87012C116.648 6.87012 120.608 7.75442 120.608 12.5724V20.0127C120.608 21.4549 120.608 23.028 121.273 24.3715H115.581C115.381 23.8477 115.315 23.3221 115.248 22.7661C113.783 24.2746 111.619 24.8629 109.556 24.8629C106.261 24.8629 103.665 23.2235 103.665 19.7168C103.665 14.1777 109.789 14.6046 113.716 13.8172C114.681 13.6199 115.213 13.2934 115.213 12.2441C115.213 10.9652 113.648 10.4737 112.485 10.4737C110.92 10.4737 109.922 11.1625 109.656 12.6046H104.364L104.366 12.6064ZM111.689 21.4226C114.384 21.4226 115.282 19.9141 115.149 16.4073C114.35 16.8988 112.885 16.9975 111.654 17.3257C110.39 17.6199 109.324 18.1455 109.324 19.489C109.324 20.8324 110.423 21.4226 111.687 21.4226H111.689Z" fill="white"/>
</svg>
