<svg width="294" height="35" viewBox="0 0 294 35" fill="none" xmlns="http://www.w3.org/2000/svg">
<path d="M0 0.672338H22.2711V6.02223H7.54776V10.8631H21.4887V16.213H7.54776V21.4188H22.6051V26.7687H0V0.672338Z" fill="#FCFCFC"/>
<path d="M38.5976 8.88447H47.6148L61.0882 35H52.6435L50.2007 29.8326H35.1147L32.5956 35H24.838L38.5976 8.88447ZM42.7675 13.9462L37.4525 24.9822H47.9011L42.7675 13.9462Z" fill="#FCFCFC"/>
<path d="M69.7619 18.326C69.8287 21.6493 71.3459 22.4177 74.8669 22.4177C79.323 22.4177 80.0005 20.8233 80.0005 19.6707C80.0005 17.9322 78.2066 17.3559 75.22 16.7796L71.5176 16.0593C67.2428 15.2237 62.7485 13.6389 62.7485 8.64435C62.7485 2.23793 68.6455 0 74.5711 0C84.0559 0 86.7563 2.92947 87.0044 8.13529H79.6761C79.4566 5.45554 77.3001 5.06174 75.0387 5.06174C71.7371 5.06174 70.2963 6.18551 70.2963 7.62623C70.2963 9.40313 72.6722 9.87376 75.4299 10.4501L78.9127 11.1704C83.6551 12.1501 87.5387 13.7061 87.5387 18.8735C87.5387 26.1443 80.2391 27.4794 74.4184 27.4794C63.9603 27.4794 62.2046 22.9555 62.2046 18.326H69.7619Z" fill="#FCFCFC"/>
<path d="M104.419 25.7025L92.7487 8.88447H102.014L108.665 20.0261L115.239 8.88447H123.646L111.966 25.7025V35H104.419V25.7025Z" fill="#FCFCFC"/>
<path d="M127.596 0.672338H146.031V3.64023H131.337V12.1789H145.316V15.1468H131.337V26.7879H127.596V0.672338Z" fill="#FCFCFC"/>
<path d="M155.306 35H151.566V8.88447H164.324C172.339 8.88447 174.133 11.593 174.133 15.7903C174.133 18.9695 171.833 21.3611 168.207 21.8702V21.947C171.69 22.3793 172.625 23.7912 173.312 28.1998C173.742 30.9852 174.066 33.2999 174.782 35H170.831C170.144 33.1559 169.753 29.506 169.066 26.5766C168.637 24.694 167.415 23.3589 162.53 23.3589H155.306V35ZM155.306 20.3911H163.827C167.778 20.3911 170.182 19.4498 170.182 16.1265C170.182 12.9473 168.455 11.862 163.894 11.862H155.306V20.3911Z" fill="#FCFCFC"/>
<path d="M202.005 0.672338V3.64023H186.337V11.8908H200.994V14.8587H186.337V23.8296H202.435V26.7975H182.597V0.672338H202.005Z" fill="#FCFCFC"/>
<path d="M227.816 28.1998H211.9L208.561 35H204.391L217.721 8.88447H222.101L235.431 35H231.156L227.816 28.1998ZM226.385 25.2319L219.916 12.0637L213.417 25.2319H226.385Z" fill="#FCFCFC"/>
<path d="M237.168 23.3878L256.643 3.64023H237.96V0.672338H260.593V4.64874L241.767 23.82H261.166V26.7879H237.168V23.3878Z" fill="#FCFCFC"/>
<path d="M277.931 35V24.1081L265.612 8.88447H270.422L279.801 21.0058L289.181 8.88447H294L281.672 24.1081V34.9904H277.931V35Z" fill="#FCFCFC"/>
</svg>
