<?xml version="1.0" encoding="utf-8"?>
<!-- Generator: Adobe Illustrator 24.0.0, SVG Export Plug-In . SVG Version: 6.00 Build 0)  -->
<svg version="1.1" id="Layer_1" xmlns="http://www.w3.org/2000/svg" xmlns:xlink="http://www.w3.org/1999/xlink" x="0px" y="0px"
	 viewBox="0 0 259 111" style="enable-background:new 0 0 259 111;" xml:space="preserve">
<style type="text/css">
	.st0{clip-path:url(#SVGID_2_);fill:url(#SVGID_3_);}
	.st1{fill:#0058A9;}
</style>
<g>
	<defs>
		<path id="SVGID_1_" d="M219.5,53.8c0,25.5-11.1,44.3-25.5,57c24.3-5.1,42.9-31.9,42.9-60.8c0-2.4,0-4.7-0.1-6.8l18.8-6.4
			c2.4-0.8,3.9-2.1,3.9-4.4c0-1.5,0-2.3,0-2.3c-10.1-0.2-46.9-1.4-46.9-1.4C215.9,34,219.5,43.3,219.5,53.8 M211,22.1
			c17.2,2.6,27.9,0.6,27.9,0.6s-2.5-9.1-9.6-9.1c-11.3,0-19.2-1.2-19.2-1.2c-24-3.6-30.3-12.1-30.3-12.1
			C181.3,9.6,195.6,19.7,211,22.1"/>
	</defs>
	<clipPath id="SVGID_2_">
		<use xlink:href="#SVGID_1_"  style="overflow:visible;"/>
	</clipPath>
	
		<linearGradient id="SVGID_3_" gradientUnits="userSpaceOnUse" x1="-433.4333" y1="231.8165" x2="-431.2233" y2="231.8165" gradientTransform="matrix(35.9648 0 0 -35.9648 15768.2354 8392.7324)">
		<stop  offset="0" style="stop-color:#00B3EF"/>
		<stop  offset="0.2" style="stop-color:#00B3EF"/>
		<stop  offset="0.2605" style="stop-color:#00A9E7"/>
		<stop  offset="0.704" style="stop-color:#006EB9"/>
		<stop  offset="0.9" style="stop-color:#0058A9"/>
		<stop  offset="1" style="stop-color:#0058A9"/>
	</linearGradient>
	<rect x="179.9" y="0.2" class="st0" width="79.5" height="110.6"/>
</g>
<path class="st1" d="M0.8,91.7v-3.4c3.3-1.2,5.7-4.2,5.7-10.9V47.6h5.1V77C11.6,86,6.4,91,0.8,91.7"/>
<path class="st1" d="M30.5,79.4c-8.1,0-11.9-3.5-11.9-9.2c0-8.3,7.8-10.7,17.4-11.7v-1.9c0-4.8-2.9-6.2-6.9-6.2c-3,0-5.8,1.1-7.5,2
	l-1.2-3c1.8-1,5.3-2.3,9.5-2.3c5.8,0,10.9,2.5,10.9,10.1v20C38.5,78.5,34.8,79.4,30.5,79.4 M36.1,61.1c-7.9,1-12.6,2.7-12.6,9
	c0,4.5,2.8,6.4,7.4,6.4c2,0,3.9-0.3,5.1-1V61.1z"/>
<path class="st1" d="M66.6,78.8V56.4c0-2.9-1.2-6.1-6.5-6.1c-2.9,0-4.3,0.4-5.9,1.1v27.4h-5.1V49.2c2.8-1.3,6.4-2.2,11.4-2.2
	c8.7,0,11.2,4.8,11.2,9.3v22.5H66.6z"/>
<path class="st1" d="M86,79.3c-3.4,0-6.3-0.9-8-2.1l1.4-3.4c1.1,0.9,3.3,1.9,6.1,1.9c3.5,0,5.8-2.4,5.8-5.4c0-3.2-1.7-4.7-5.2-6
	c-6.1-2.3-7.3-5.5-7.3-8.7c0-4.6,3.7-8.6,9.3-8.6c3.2,0,5.7,1,7.3,2.1l-1.3,3.1c-0.9-0.7-2.8-1.7-5.2-1.7c-3.4,0-5.2,2.3-5.2,4.9
	c0,3,2.2,4.5,5.2,5.6c6.1,2.3,7.6,5.6,7.6,9.1C96.5,74.9,92.4,79.3,86,79.3"/>
<path class="st1" d="M108.8,79.3c-3.4,0-6.3-0.9-8-2.1l1.4-3.4c1.1,0.9,3.3,1.9,6.1,1.9c3.5,0,5.8-2.4,5.8-5.4c0-3.2-1.7-4.7-5.2-6
	c-6.1-2.3-7.3-5.5-7.3-8.7c0-4.6,3.6-8.6,9.3-8.6c3.2,0,5.7,1,7.3,2.1l-1.3,3.1c-0.9-0.7-2.8-1.7-5.2-1.7c-3.4,0-5.2,2.3-5.2,4.9
	c0,3,2.2,4.5,5.2,5.6c6.1,2.3,7.6,5.6,7.6,9.1C119.3,74.9,115.2,79.3,108.8,79.3"/>
<path class="st1" d="M129.7,65.1c0.6,7.1,3.9,10.5,9.5,10.5c3.5,0,6.1-0.9,7.7-1.8l1.3,3.4c-1.9,1.2-5.2,2.1-9.4,2.1
	c-8.2,0-13.9-5.2-13.9-16.3c0-10.6,5.2-16.1,12.6-16.1c7.5,0,12,4.9,11.9,15.3L129.7,65.1z M137.3,50.3c-4.5,0-7.9,3.7-7.8,12.1
	l14.9-2.3C144.5,53.1,141.7,50.3,137.3,50.3"/>
<path class="st1" d="M173.8,78.8V56.4c0-2.9-1.2-6.1-6.5-6.1c-2.9,0-4.3,0.4-5.9,1.1v27.4h-5.1V49.2c2.8-1.3,6.4-2.2,11.4-2.2
	c8.7,0,11.2,4.8,11.2,9.3v22.5H173.8z"/>
</svg>
