<svg width="343" height="41" viewBox="0 0 343 41" fill="none" xmlns="http://www.w3.org/2000/svg">
<path d="M72.1775 0C60.1222 0 53.0334 9.04526 53.0334 20.6662C53.0334 31.9603 60.1222 41 72.1775 41C84.2328 41 91.3215 31.9547 91.3215 20.6662C91.327 9.04526 84.2328 0 72.1775 0ZM72.1775 33.766C64.4879 33.766 61.5939 27.1912 61.5939 20.6662C61.5939 13.8144 64.4823 7.23953 72.1775 7.23953C79.867 7.23953 82.761 13.8144 82.761 20.6662C82.761 27.1856 79.867 33.766 72.1775 33.766Z" fill="#161616"/>
<path d="M140.739 11.7305H132.994V40.0682H140.739V11.7305Z" fill="#161616"/>
<path d="M140.739 0.929688H132.994V7.3439H140.739V0.929688Z" fill="#161616"/>
<path d="M115.212 9.53736V11.7308H105.775V10.0303C105.775 7.6707 106.646 6.79554 108.718 6.79554C109.699 6.79554 110.626 6.85093 111.557 6.96171V1.15125C110.251 1.09586 108.829 0.929688 107.467 0.929688C101.139 0.929688 98.03 4.54668 98.03 9.53736V11.7308H93.3942V16.9375H98.03V40.0686H105.775V16.9375H115.212V40.0686H122.956V16.9375H128.303V11.7308H122.956V10.0303C122.956 7.6707 123.827 6.79554 125.9 6.79554C126.881 6.79554 127.807 6.85093 128.739 6.96171V1.15125C127.432 1.09586 126.01 0.929688 124.649 0.929688C118.321 0.929687 115.212 4.54668 115.212 9.53736Z" fill="#161616"/>
<path d="M160.158 34.9727C155.302 34.9727 153.72 30.0928 153.72 26.0382C153.72 21.8729 155.357 16.8268 160.318 16.8268C163.537 16.8268 165.555 18.5273 166.046 21.7067H173.63C173.14 14.4727 167.032 10.9609 160.373 10.9609C151.207 10.9609 145.97 17.4859 145.97 26.3096C145.97 34.8065 151.697 40.833 160.208 40.833C167.628 40.833 172.809 36.723 173.79 29.2121H166.316C165.831 32.6684 163.758 34.9727 160.158 34.9727Z" fill="#161616"/>
<path d="M191.193 10.9609C182.627 10.9609 176.795 17.4305 176.795 25.9274C176.795 34.6957 182.301 40.8385 191.193 40.8385C197.576 40.8385 202.212 37.9859 204.394 31.3003H197.576C197.085 33.0562 194.577 34.9727 191.468 34.9727C187.158 34.9727 184.76 32.7238 184.539 27.7941H204.885C205.431 19.0756 200.789 10.9609 191.193 10.9609ZM184.534 22.8588C184.644 20.6653 186.061 16.8268 190.972 16.8268C194.737 16.8268 196.429 18.9095 197.135 22.8588H184.534Z" fill="#161616"/>
<path d="M234.458 0.929688H202.548V8.16368H214.223V40.0686H222.789V8.16368H234.458V0.929688Z" fill="#161616"/>
<path d="M257.367 19.0202C257.367 12.2238 250.604 10.9609 244.987 10.9609C238.659 10.9609 232.165 13.1544 231.73 20.4438H239.475C239.745 17.3751 241.657 16.1676 244.601 16.1676C247.329 16.1676 249.617 16.6606 249.617 20.0062C249.617 23.1856 245.196 23.0194 240.45 23.734C235.649 24.3931 230.848 25.9274 230.848 32.3416C230.848 38.1521 235.103 40.8385 240.45 40.8385C243.884 40.8385 247.489 39.908 249.942 37.3323C249.997 38.2629 250.212 39.1934 250.488 40.0742H258.343C257.632 38.922 257.362 36.3464 257.362 33.7707V19.0202H257.367ZM249.623 29.1068C249.623 30.8073 249.402 35.6318 243.35 35.6318C240.842 35.6318 238.604 34.9173 238.604 32.0148C238.604 29.1622 240.786 28.3425 243.184 27.8495C245.582 27.4119 248.311 27.3565 249.623 26.2044V29.1068Z" fill="#161616"/>
<path d="M271.33 11.7305H263.585V40.0682H271.33V11.7305Z" fill="#161616"/>
<path d="M271.33 0.929688H263.585V7.3439H271.33V0.929688Z" fill="#161616"/>
<path d="M285.403 0.929688H277.658V40.0686H285.403V0.929688Z" fill="#161616"/>
<path d="M305.202 10.9609C296.366 10.9609 290.639 16.8822 290.639 25.9274C290.639 34.9173 296.366 40.8385 305.202 40.8385C314.094 40.8385 319.821 34.9173 319.821 25.9274C319.821 16.8822 314.094 10.9609 305.202 10.9609ZM305.202 34.9727C299.966 34.9727 298.384 30.4251 298.384 25.9274C298.384 21.3799 299.966 16.8268 305.202 16.8268C310.494 16.8268 312.076 21.3743 312.076 25.9274C312.076 30.4196 310.494 34.9727 305.202 34.9727Z" fill="#161616"/>
<path d="M341.308 10.9609C337.543 10.9609 333.723 13.4258 332.306 16.993H332.196V11.7309H324.837V40.0686H332.582V27.2956C332.582 22.3049 334.544 18.1949 340.216 18.1949C341.142 18.1949 342.289 18.3057 343 18.4663V11.2379C342.509 11.0717 341.853 10.9609 341.308 10.9609Z" fill="#161616"/>
<path d="M12.0393 28.082H38.9722V1.01826H12.0393V28.082Z" fill="#FE4E17"/>
<path d="M38.9716 1.43633V0.605469H11.6639L0 12.3261V40.0712H38.9716V39.2403H28.1786V12.0824H1.41114L12.0057 1.43633H38.9716ZM0.826838 12.9132H11.2064V39.2403H0.826838V12.9132ZM27.3518 39.2403H12.0277V12.9132H27.3518V39.2403Z" fill="#161616"/>
</svg>
