<svg width="206" height="83" viewBox="0 0 206 83" fill="none" xmlns="http://www.w3.org/2000/svg">
<path d="M42.4805 33.6588C42.4805 23.2291 42.4805 12.7994 42.4805 2.36971C42.4805 1.43658 42.9603 0.968651 43.92 0.965906C47.1614 0.965906 50.4048 0.965906 53.6462 0.965906C54.6659 0.965906 55.1764 1.4702 55.1778 2.4788C55.1778 14.5552 55.1778 26.6316 55.1778 38.708C55.1778 46.9085 55.1491 55.1069 55.2044 63.3074C55.2147 64.6927 55.4378 66.1191 55.8248 67.4509C56.4187 69.4928 57.8827 70.7545 60.004 71.0468C61.0401 71.1889 62.1233 71.2197 63.1594 71.09C65.6227 70.7854 67.2321 69.3528 67.7748 66.9219C68.0778 65.5634 68.2252 64.141 68.2273 62.7455C68.256 42.6065 68.2478 22.4675 68.2498 2.32854C68.2498 0.978256 68.258 0.967965 69.636 0.967965C72.775 0.965906 75.9161 0.990607 79.0551 0.949439C79.9335 0.939148 80.2366 1.19233 80.2366 2.11859C80.2141 22.3605 80.2612 42.6024 80.1772 62.8422C80.167 65.4872 79.8148 68.2083 79.1227 70.7566C77.4498 76.9152 73.4344 80.857 67.1687 82.2999C62.7233 83.3229 58.2779 83.2673 53.9267 81.8511C48.3735 80.0418 45.0646 76.0651 43.4818 70.5158C42.673 67.6835 42.4907 64.7791 42.4887 61.8583C42.4805 52.4578 42.4846 43.0573 42.4846 33.6567H42.4785L42.4805 33.6588Z" fill="black"/>
<path d="M180.637 67.1624C180.799 65.9542 180.94 64.8447 181.1 63.7373C181.411 61.5637 181.747 59.3962 182.039 57.2205C182.14 56.4775 182.447 56.1543 183.233 56.1749C184.904 56.2202 186.579 56.144 188.25 56.2017C189.169 56.2325 189.368 55.8723 189.243 55.0346C188.422 49.5058 187.629 43.973 186.819 38.4442C185.785 31.3882 184.746 24.3321 183.706 17.2761C183.647 16.8747 183.569 16.4753 183.266 16.0369C183.192 16.3601 183.094 16.6791 183.045 17.0064C181.704 26.0982 180.367 35.1899 179.029 44.2838C177.244 56.4281 175.452 68.5724 173.691 80.7208C173.564 81.5997 173.249 81.9435 172.328 81.9291C169.223 81.8797 166.115 81.8776 163.011 81.9291C162.034 81.9455 161.866 81.5936 162.01 80.7126C163.162 73.6051 164.285 66.4934 165.415 59.3818C167.637 45.3973 169.854 31.4108 172.078 17.4263C172.897 12.2804 173.736 7.13658 174.537 1.98657C174.656 1.22703 174.977 0.947095 175.741 0.951212C181.235 0.973854 186.731 0.980029 192.224 0.95327C193.002 0.949154 193.299 1.22497 193.416 1.98451C194.475 8.79356 195.562 15.6005 196.647 22.4055C199.262 38.7921 201.881 55.1807 204.494 71.5673C204.975 74.5807 205.442 77.5962 205.909 80.6117C206.105 81.8838 206.081 81.9085 204.844 81.9106C201.43 81.9106 198.017 81.8756 194.606 81.9311C193.623 81.9476 193.232 81.6553 193.097 80.6508C192.564 76.7091 191.946 72.7797 191.358 68.8462C191.198 67.7786 190.563 67.2448 189.452 67.2448C186.96 67.2448 184.47 67.2489 181.978 67.2448C181.579 67.2448 181.177 67.1995 180.637 67.1665V67.1624Z" fill="black"/>
<path d="M6.04614 57.4532C7.68424 57.4532 9.32234 57.4882 10.9584 57.4388C11.7836 57.4141 12.0252 57.7413 12.0109 58.5276C11.9781 60.3781 11.9433 62.2347 12.0354 64.0831C12.1317 66.0509 12.4122 68.0126 13.9377 69.4719C15.9792 71.4253 18.4465 71.3841 20.9446 70.7666C23.1499 70.2212 24.2454 68.556 24.6959 66.442C25.6419 62.0104 24.745 57.9369 22.2183 54.2071C20.2075 51.2369 17.6521 48.7669 15.0004 46.4018C11.9372 43.6704 8.97424 40.8525 6.38195 37.6518C1.65604 31.8122 -0.168386 25.1143 0.45409 17.6795C0.693662 14.8287 1.21785 12.0417 2.43209 9.42344C4.40395 5.17294 7.60848 2.3077 12.0846 1.00888C16.7102 -0.333172 21.3808 -0.355814 26.0064 1.05828C31.6148 2.77289 34.9585 6.692 36.5864 12.2352C37.5345 15.4668 37.6532 18.7849 37.6184 22.1215C37.6102 22.7925 37.3154 23.0148 36.6765 23.0107C33.3327 22.9942 29.989 22.9901 26.6452 23.0148C25.8978 23.021 25.6173 22.7451 25.6153 21.9897C25.6091 20.413 25.6296 18.8281 25.4617 17.2637C24.9252 12.2887 19.7038 9.87834 15.5962 12.6839C13.9274 13.8242 13.4217 15.5923 13.1801 17.4737C12.4961 22.7781 14.2284 27.3229 17.7892 31.1206C20.5413 34.0558 23.6373 36.6658 26.4261 39.5681C28.8095 42.0484 31.1582 44.607 33.1996 47.3693C36.525 51.8688 37.7781 57.0827 37.7597 62.6649C37.7474 66.3453 37.2662 69.8918 35.7162 73.2696C33.6583 77.7568 30.2675 80.6591 25.5579 81.962C21.1228 83.1888 16.6467 83.2073 12.2136 81.962C6.09324 80.2413 2.50171 76.0546 0.888186 69.9906C-0.143815 66.125 0.0056614 62.1771 0.00975664 58.2333C0.00975664 57.5458 0.392662 57.4491 0.929138 57.4511C2.63481 57.4573 4.34048 57.4511 6.04819 57.4532H6.04614Z" fill="black"/>
<path d="M85.1009 49.6273C85.1009 39.3355 85.1111 29.0437 85.0824 18.7519C85.0804 17.8277 85.3138 17.4778 86.2803 17.4901C89.7265 17.5375 93.1747 17.5313 96.6208 17.4922C97.5156 17.4819 97.8043 17.7824 97.7982 18.6819C97.7654 23.6899 97.7798 28.6999 97.7879 33.7079C97.7879 35.0747 97.8023 35.0891 99.1496 35.0891C104.029 35.0932 108.911 35.0891 113.79 35.085C115.127 35.085 115.146 35.0953 115.148 36.4682C115.152 39.3499 115.152 42.2316 115.148 45.1133C115.146 46.6673 115.139 46.6612 113.548 46.6591C108.737 46.6529 103.925 46.6529 99.1128 46.6529C97.8187 46.6529 97.7879 46.6797 97.7879 47.9744C97.7859 54.9728 97.8023 61.9712 97.7654 68.9697C97.7613 69.9741 98.0193 70.3323 99.082 70.3261C105.464 70.2788 111.847 70.3035 118.229 70.3014C119.595 70.3014 119.609 70.3076 119.609 71.6579C119.609 74.6425 119.609 77.6271 119.605 80.6117C119.605 81.8982 119.591 81.9085 118.27 81.9085C107.793 81.9085 97.3149 81.9085 86.8373 81.9085C85.6729 81.9085 85.09 81.337 85.0886 80.1939C85.0886 70.005 85.0886 59.8161 85.0886 49.6273H85.105H85.1009Z" fill="black"/>
<path d="M124.504 41.4043C124.504 28.4078 124.504 15.4093 124.504 2.41278C124.504 0.967815 124.512 0.967815 126.001 0.965757C129.242 0.965757 132.484 0.965757 135.725 0.965757C137.189 0.965757 137.193 0.965757 137.193 2.43542C137.193 20.9195 137.193 39.4035 137.193 57.8876C137.193 61.6606 137.22 65.4315 137.193 69.2044C137.187 70.0504 137.457 70.3242 138.313 70.3201C144.694 70.2892 151.072 70.3015 157.452 70.3036C158.767 70.3036 158.783 70.3324 158.572 71.6415C158.073 74.7208 157.561 77.796 157.1 80.8815C156.988 81.6369 156.699 81.923 155.923 81.921C145.824 81.9004 135.725 81.8963 125.628 81.9251C124.68 81.9272 124.498 81.5464 124.5 80.7045C124.516 73.0227 124.5 65.3409 124.496 57.6591C124.494 52.2415 124.496 46.8219 124.496 41.4043H124.504Z" fill="black"/>
<path d="M102.401 0.976047C107.758 0.976047 113.115 0.992514 118.469 0.959581C119.315 0.953405 119.62 1.20041 119.61 2.06286C119.575 5.21832 119.583 8.37379 119.61 11.5272C119.616 12.3073 119.378 12.6119 118.551 12.6119C107.805 12.5955 97.0572 12.5996 86.3113 12.6325C85.3919 12.6346 85.0541 12.3711 85.0684 11.4099C85.1175 8.32439 85.1175 5.23685 85.0684 2.15137C85.0541 1.17982 85.4185 0.941055 86.3297 0.94723C91.6863 0.984281 97.0429 0.965756 102.397 0.965756V0.976047H102.401Z" fill="black"/>
</svg>
