<svg width="106" height="103" viewBox="0 0 106 103" fill="none" xmlns="http://www.w3.org/2000/svg">
<path d="M18.7708 0H87.2292C97.6083 0 106 8.36153 106 18.7034V84.2754C106 94.6173 97.6083 102.979 87.2292 102.979H18.7708C8.39167 102.979 0 94.6173 0 84.2754V18.7034C0 8.36153 8.39167 0 18.7708 0Z" fill="#330000"/>
<path d="M51.1854 64.9551H34.9104L31.5854 75.2991C31.4979 75.6953 31.1479 75.9594 30.7542 75.9154H22.5292C22.0479 75.9154 21.9167 75.6513 22.0479 75.1231L36.1354 34.3192C36.2667 33.8791 36.3979 33.3949 36.5729 32.8667C36.7479 31.9423 36.8354 30.9739 36.8354 30.0056C36.7917 29.7855 36.9667 29.5654 37.1854 29.5214C37.2292 29.5214 37.2729 29.5214 37.3167 29.5214H48.5167C48.8667 29.5214 49.0417 29.6534 49.0854 29.8735L65.0542 75.2111C65.1854 75.6953 65.0542 75.9154 64.6167 75.9154H55.4729C55.1667 75.9594 54.8604 75.7393 54.7729 75.4312L51.1854 64.9551ZM37.4479 56.0197H48.5604C48.2979 55.0953 47.9479 53.9949 47.5542 52.8504C47.1604 51.662 46.7667 50.3855 46.3729 49.065C45.9354 47.7004 45.5417 46.3799 45.1042 45.0154C44.6667 43.6509 44.2729 42.3744 43.9229 41.0979C43.5729 39.8654 43.2667 38.7209 42.9604 37.6645H42.8729C42.4792 39.5573 41.9979 41.45 41.3854 43.3427C40.7292 45.4556 40.0729 47.6564 39.3729 49.8573C38.7604 52.1021 38.1042 54.1709 37.4479 56.0197Z" fill="#FF9A00"/>
<path d="M74.5917 37.0483C73.1479 37.0923 71.7479 36.5201 70.6979 35.5077C69.6917 34.4073 69.1667 32.9547 69.2104 31.4581C69.1667 29.9615 69.7354 28.553 70.7854 27.5406C71.8354 26.5282 73.2354 26 74.6792 26C76.3854 26 77.6979 26.5282 78.6604 27.5406C79.6229 28.597 80.1479 30.0056 80.1042 31.4581C80.1479 32.9547 79.6229 34.4073 78.5729 35.5077C77.5667 36.5641 76.0792 37.1363 74.5917 37.0483ZM69.6917 75.2551V41.362C69.6917 40.9218 69.8667 40.7457 70.2604 40.7457H78.9229C79.3167 40.7457 79.4917 40.9658 79.4917 41.362V75.2551C79.4917 75.7393 79.3167 75.9594 78.9229 75.9594H70.3479C69.9104 75.9594 69.6917 75.6953 69.6917 75.2551Z" fill="#FF9A00"/>
</svg>
