<svg width="44" height="38" viewBox="0 0 44 38" fill="none" xmlns="http://www.w3.org/2000/svg">
<path d="M22.7826 1.11463C23.2827 0.614704 23.9609 0.333862 24.668 0.333862C25.3751 0.333862 26.0532 0.614704 26.5533 1.11463L42.5533 17.1146C43.0532 17.6147 43.3341 18.2929 43.3341 19C43.3341 19.7071 43.0532 20.3852 42.5533 20.8853L26.5533 36.8853C26.0504 37.371 25.3768 37.6398 24.6776 37.6338C23.9784 37.6277 23.3095 37.3472 22.8151 36.8528C22.3207 36.3584 22.0402 35.6896 22.0342 34.9904C22.0281 34.2912 22.2969 33.6176 22.7826 33.1146L34.2306 21.6666H3.33464C2.62739 21.6666 1.94911 21.3857 1.44902 20.8856C0.948921 20.3855 0.667969 19.7072 0.667969 19C0.667969 18.2927 0.948921 17.6144 1.44902 17.1143C1.94911 16.6142 2.62739 16.3333 3.33464 16.3333H34.2306L22.7826 4.88529C22.2827 4.38522 22.0019 3.70706 22.0019 2.99996C22.0019 2.29285 22.2827 1.6147 22.7826 1.11463Z" fill="#B8E19D"/>
</svg>
