<svg width="129" height="13" viewBox="0 0 129 13" fill="none" xmlns="http://www.w3.org/2000/svg">
<path d="M1.422 5.422H4.46C5.58 5.422 6.63 5.786 6.63 7.088C6.63 8.18 5.902 8.88 4.754 8.88H1.422V5.422ZM0.092 10H4.922C6.91 10 7.96 8.6 7.96 7.13C7.96 5.898 7.288 4.974 6.056 4.722V4.694C6.98 4.316 7.54 3.518 7.54 2.454C7.54 1.474 7.022 0.76 6.364 0.368C5.762 0.00399935 4.6 0.00399935 3.718 0.00399935H0.092V10ZM1.422 1.124H4.082C5.23 1.124 6.21 1.32 6.21 2.706C6.21 3.756 5.594 4.302 4.082 4.302H1.422V1.124ZM13.96 7.48C13.96 8.138 13.316 9.118 11.748 9.118C11.02 9.118 10.348 8.838 10.348 8.054C10.348 7.172 11.02 6.892 11.804 6.752C12.602 6.612 13.498 6.598 13.96 6.262V7.48ZM15.892 9.048C15.738 9.104 15.626 9.118 15.528 9.118C15.15 9.118 15.15 8.866 15.15 8.306V4.582C15.15 2.888 13.736 2.594 12.434 2.594C10.824 2.594 9.43798 3.224 9.36798 5.016H10.558C10.614 3.952 11.356 3.644 12.364 3.644C13.12 3.644 13.974 3.812 13.974 4.848C13.974 5.744 12.854 5.66 11.538 5.912C10.306 6.15 9.08798 6.5 9.08798 8.138C9.08798 9.58 10.166 10.168 11.482 10.168C12.49 10.168 13.372 9.818 14.03 9.048C14.03 9.832 14.422 10.168 15.038 10.168C15.416 10.168 15.682 10.098 15.892 9.972V9.048ZM16.9995 10H18.1895V5.912C18.1895 4.61 18.8895 3.644 20.3315 3.644C21.2415 3.644 21.8015 4.218 21.8015 5.1V10H22.9915V5.24C22.9915 3.686 22.4035 2.594 20.4995 2.594C19.4635 2.594 18.6515 3.014 18.1475 3.91H18.1195V2.762H16.9995V10ZM29.2588 7.48C29.2588 8.138 28.6148 9.118 27.0468 9.118C26.3188 9.118 25.6468 8.838 25.6468 8.054C25.6468 7.172 26.3188 6.892 27.1028 6.752C27.9008 6.612 28.7968 6.598 29.2588 6.262V7.48ZM31.1908 9.048C31.0368 9.104 30.9248 9.118 30.8268 9.118C30.4488 9.118 30.4488 8.866 30.4488 8.306V4.582C30.4488 2.888 29.0348 2.594 27.7328 2.594C26.1228 2.594 24.7368 3.224 24.6668 5.016H25.8568C25.9128 3.952 26.6548 3.644 27.6628 3.644C28.4188 3.644 29.2728 3.812 29.2728 4.848C29.2728 5.744 28.1528 5.66 26.8368 5.912C25.6048 6.15 24.3868 6.5 24.3868 8.138C24.3868 9.58 25.4648 10.168 26.7808 10.168C27.7888 10.168 28.6708 9.818 29.3288 9.048C29.3288 9.832 29.7208 10.168 30.3368 10.168C30.7148 10.168 30.9808 10.098 31.1908 9.972V9.048ZM32.2983 10H33.4883V5.912C33.4883 4.61 34.1883 3.644 35.6303 3.644C36.5403 3.644 37.1003 4.218 37.1003 5.1V10H38.2903V5.24C38.2903 3.686 37.7023 2.594 35.7983 2.594C34.7623 2.594 33.9503 3.014 33.4463 3.91H33.4183V2.762H32.2983V10ZM44.5576 7.48C44.5576 8.138 43.9136 9.118 42.3456 9.118C41.6176 9.118 40.9456 8.838 40.9456 8.054C40.9456 7.172 41.6176 6.892 42.4016 6.752C43.1996 6.612 44.0956 6.598 44.5576 6.262V7.48ZM46.4896 9.048C46.3356 9.104 46.2236 9.118 46.1256 9.118C45.7476 9.118 45.7476 8.866 45.7476 8.306V4.582C45.7476 2.888 44.3336 2.594 43.0316 2.594C41.4216 2.594 40.0356 3.224 39.9656 5.016H41.1556C41.2116 3.952 41.9536 3.644 42.9616 3.644C43.7176 3.644 44.5716 3.812 44.5716 4.848C44.5716 5.744 43.4516 5.66 42.1356 5.912C40.9036 6.15 39.6856 6.5 39.6856 8.138C39.6856 9.58 40.7636 10.168 42.0796 10.168C43.0876 10.168 43.9696 9.818 44.6276 9.048C44.6276 9.832 45.0196 10.168 45.6356 10.168C46.0136 10.168 46.2796 10.098 46.4896 9.972V9.048ZM49.2492 0.591999H48.0592V2.762H46.8272V3.812H48.0592V8.418C48.0592 9.748 48.5492 10 49.7812 10H50.6912V8.95H50.1452C49.4032 8.95 49.2492 8.852 49.2492 8.306V3.812H50.6912V2.762H49.2492V0.591999ZM57.0112 7.704C56.8012 8.642 56.1152 9.118 55.1352 9.118C53.5532 9.118 52.8392 7.998 52.8812 6.738H58.2992C58.3692 4.988 57.5852 2.594 55.0232 2.594C53.0492 2.594 51.6212 4.19 51.6212 6.36C51.6912 8.572 52.7832 10.168 55.0932 10.168C56.7172 10.168 57.8652 9.3 58.1872 7.704H57.0112ZM52.8812 5.688C52.9652 4.582 53.7072 3.644 54.9532 3.644C56.1292 3.644 56.9832 4.554 57.0392 5.688H52.8812ZM65.6787 5.086C65.5107 3.364 64.1947 2.594 62.5567 2.594C60.2607 2.594 59.1407 4.302 59.1407 6.472C59.1407 8.628 60.3167 10.168 62.5287 10.168C64.3487 10.168 65.4547 9.118 65.7207 7.354H64.5027C64.3487 8.446 63.6627 9.118 62.5147 9.118C61.0027 9.118 60.4007 7.802 60.4007 6.472C60.4007 5.002 60.9327 3.644 62.6547 3.644C63.6347 3.644 64.2647 4.176 64.4467 5.086H65.6787ZM67.0523 10H68.2423V5.912C68.2423 4.61 68.9423 3.644 70.3843 3.644C71.2943 3.644 71.8543 4.218 71.8543 5.1V10H73.0443V5.24C73.0443 3.686 72.4563 2.594 70.5523 2.594C69.6843 2.594 68.6623 2.958 68.2703 3.826H68.2423V0.00399935H67.0523V10ZM79.638 3.588C79.596 2.398 80.184 1.124 81.57 1.124C82.62 1.124 83.488 1.838 83.488 2.916C83.488 4.288 82.634 4.904 80.954 5.94C79.554 6.808 78.364 7.648 78.168 10H84.65V8.95H79.554C79.792 7.718 81.094 7.088 82.34 6.332C83.572 5.562 84.748 4.68 84.748 2.93C84.748 1.082 83.376 0.0739993 81.64 0.0739993C79.54 0.0739993 78.35 1.572 78.448 3.588H79.638ZM86.1993 5.128C86.1993 7.312 86.3953 10.168 89.5033 10.168C92.6113 10.168 92.8073 7.312 92.8073 5.128C92.8073 2.93 92.6113 0.0739993 89.5033 0.0739993C86.3953 0.0739993 86.1993 2.93 86.1993 5.128ZM87.4593 5.114C87.4593 3.644 87.4733 1.124 89.5033 1.124C91.5333 1.124 91.5473 3.644 91.5473 5.114C91.5473 6.598 91.5333 9.118 89.5033 9.118C87.4733 9.118 87.4593 6.598 87.4593 5.114ZM95.1966 3.588C95.1546 2.398 95.7426 1.124 97.1286 1.124C98.1786 1.124 99.0466 1.838 99.0466 2.916C99.0466 4.288 98.1926 4.904 96.5126 5.94C95.1126 6.808 93.9226 7.648 93.7266 10H100.209V8.95H95.1126C95.3506 7.718 96.6526 7.088 97.8986 6.332C99.1306 5.562 100.307 4.68 100.307 2.93C100.307 1.082 98.9346 0.0739993 97.1986 0.0739993C95.0986 0.0739993 93.9086 1.572 94.0066 3.588H95.1966ZM104.222 5.338C104.446 5.31 104.698 5.296 104.936 5.296C106.112 5.296 107.05 5.954 107.05 7.2C107.05 8.404 106.056 9.118 104.894 9.118C103.536 9.118 102.822 8.222 102.78 6.934H101.59C101.548 8.978 102.878 10.168 104.894 10.168C106.756 10.168 108.31 9.132 108.31 7.144C108.31 5.954 107.722 5.002 106.518 4.736V4.708C107.274 4.358 107.89 3.602 107.89 2.734C107.89 0.899999 106.588 0.0739993 104.866 0.0739993C102.878 0.0739993 101.87 1.39 101.8 3.28H102.99C103.004 2.118 103.564 1.124 104.866 1.124C105.874 1.124 106.63 1.684 106.63 2.72C106.63 3.798 105.748 4.344 104.74 4.344C104.572 4.344 104.404 4.344 104.222 4.33V5.338ZM119.384 6.318C119.384 7.732 118.838 9.118 117.214 9.118C115.576 9.118 114.932 7.802 114.932 6.374C114.932 5.016 115.548 3.644 117.144 3.644C118.684 3.644 119.384 4.96 119.384 6.318ZM113.784 10H114.974V9.034H115.002C115.534 9.888 116.598 10.168 117.34 10.168C119.552 10.168 120.644 8.446 120.644 6.402C120.644 4.358 119.538 2.594 117.312 2.594C116.318 2.594 115.394 2.944 115.002 3.742H114.974V0.00399935H113.784V10ZM128.033 2.762H126.773L124.743 8.684H124.715L122.601 2.762H121.257L124.127 9.958L123.637 11.19C123.413 11.61 123.147 11.848 122.657 11.848C122.419 11.848 122.181 11.75 121.957 11.68V12.772C122.223 12.87 122.503 12.898 122.783 12.898C123.847 12.898 124.337 12.38 124.883 10.966L128.033 2.762Z" fill="white"/>
</svg>
