<svg width="28" height="17" viewBox="0 0 28 17" fill="none" xmlns="http://www.w3.org/2000/svg">
<path d="M25.6694 2.26679H17.4997V0H25.6694V2.26679ZM27.6831 13.6007C27.1678 15.0708 25.3163 17.0009 21.7319 17.0009C18.1474 17.0009 15.245 15.0411 15.245 10.5687C15.245 6.13689 17.9574 3.8593 21.6216 3.8593C25.2171 3.8593 27.4125 5.87852 27.8925 8.8754C27.9962 9.67962 28.0334 10.4906 28.0037 11.3006H18.6311C18.6038 11.914 18.7675 12.5212 19.1009 13.0428C19.4343 13.5644 19.9218 13.9762 20.4998 14.2245C21.0778 14.4728 21.7195 14.546 22.341 14.4346C22.9625 14.3231 23.535 14.0322 23.9837 13.5998H27.6803L27.6831 13.6007ZM18.7164 9.06715H24.5092C24.5088 8.71161 24.4315 8.36013 24.2821 8.03556C24.1327 7.711 23.9146 7.42064 23.642 7.18337C23.3695 6.9461 23.0485 6.76725 22.7001 6.65845C22.3517 6.54965 21.9836 6.51335 21.6197 6.5519C21.2566 6.52082 20.8907 6.56225 20.5446 6.67365C20.1985 6.78504 19.8796 6.96405 19.6073 7.19965C19.3351 7.43526 19.1154 7.72247 18.9617 8.04363C18.808 8.36479 18.7236 8.71311 18.7136 9.06715H18.7164ZM7.54327 16.9865H0V0.0234061H8.11134C14.5 0.113429 14.6213 6.1936 11.2843 7.85003C15.3229 9.2787 15.4582 16.9865 7.54327 16.9865ZM3.50012 6.80036H7.68135C10.6069 6.80036 11.0721 3.40018 7.31716 3.40018H3.50012V6.80036ZM7.45616 10.2005H3.50012V13.6214H7.39778C10.9618 13.6187 10.7441 10.2005 7.45616 10.2005Z" fill="white"/>
</svg>
