<svg width="65" height="96" viewBox="0 0 65 96" fill="none" xmlns="http://www.w3.org/2000/svg">
<path d="M16.2536 96C25.2218 96 32.5003 88.832 32.5003 80V64H16.2536C7.28538 64 0.00683594 71.168 0.00683594 80C0.00683594 88.832 7.28538 96 16.2536 96Z" fill="#0ACF83"/>
<path d="M0.00683594 48C0.00683594 39.168 7.28538 32 16.2536 32H32.5003V64H16.2536C7.28538 64 0.00683594 56.832 0.00683594 48Z" fill="#A259FF"/>
<path d="M0.00683594 16C0.00683594 7.168 7.28538 0 16.2536 0H32.5003V32H16.2536C7.28538 32 0.00683594 24.832 0.00683594 16Z" fill="#F24E1E"/>
<path d="M32.5003 0H48.7467C57.715 0 64.9935 7.168 64.9935 16C64.9935 24.832 57.715 32 48.7467 32H32.5003V0Z" fill="#FF7262"/>
<path d="M64.9935 48C64.9935 56.832 57.715 64 48.7467 64C39.7785 64 32.5 56.832 32.5 48C32.5 39.168 39.7785 32 48.7467 32C57.715 32 64.9935 39.168 64.9935 48Z" fill="#1ABCFE"/>
</svg>
