<svg width="184" height="55" viewBox="0 0 184 55" fill="none" xmlns="http://www.w3.org/2000/svg">
<path d="M1.10579 41.1211C1.10579 40.7844 1.24982 40.6401 1.58653 40.6401H6.92498C7.11742 40.6401 7.21376 40.7844 7.21376 41.1211V41.3615C7.21376 41.6984 7.11765 41.8425 6.92498 41.8425H2.45238V45.3533H6.44424C6.63644 45.3533 6.73278 45.4976 6.73278 45.8343V46.0749C6.73278 46.4116 6.63668 46.5559 6.44424 46.5559H2.45238V50.3074H6.92498C7.11742 50.3074 7.21376 50.4514 7.21376 50.7881V51.0287C7.21376 51.3654 7.11765 51.5097 6.92498 51.5097H1.5386C1.20189 51.5097 1.05762 51.3654 1.05762 51.0287V41.1213L1.10579 41.1211Z" fill="#848484"/>
<path d="M9.28228 45.6901C9.28228 44.4396 9.08984 43.8145 9.08984 43.7664C9.08984 43.4778 9.71509 43.4297 9.90753 43.4297C10.2924 43.4297 10.3403 44.0549 10.4364 44.4396C11.0617 43.7182 11.9757 43.2854 12.8413 43.2854C14.4285 43.2854 15.3423 44.1989 15.3423 45.7864V51.1246C15.3423 51.317 15.1501 51.4613 14.7173 51.4613H14.6691C14.2363 51.4613 14.0439 51.3173 14.0439 51.1246V45.9304C14.0439 45.0166 13.467 44.4396 12.4569 44.4396C11.7835 44.4396 11.014 44.8726 10.5333 45.4976V51.1246C10.5333 51.317 10.3408 51.4616 9.908 51.4616H9.85983C9.42702 51.4616 9.23482 51.3173 9.23482 51.1246L9.28228 45.6901Z" fill="#848484"/>
<path d="M18.7561 50.7879C18.179 50.5473 17.7941 50.1629 17.7941 49.5374C17.7941 48.7679 18.4194 48.4312 18.9485 48.239C18.0347 47.8062 17.5537 46.9403 17.5537 45.9304C17.5537 44.4877 18.6118 43.2854 20.6318 43.2854C21.0167 43.2854 21.3534 43.3333 21.6417 43.3815H24.287C24.4792 43.3815 24.5755 43.5255 24.5755 43.8622V44.0547C24.5755 44.3914 24.4794 44.5354 24.287 44.5354H23.2289C23.5656 44.9685 23.758 45.4492 23.758 45.9784C23.758 47.4211 22.7 48.6234 20.68 48.6234H20.5357C20.1511 48.6234 19.237 48.7197 19.237 49.2486C19.237 50.4509 24.4315 49.2486 24.4315 52.2785C24.4315 53.6251 23.0849 54.6834 20.5839 54.6834C18.5636 54.6834 17.1209 54.2506 17.1209 52.6634C17.0246 51.7499 17.7462 51.1246 18.7561 50.7879ZM20.6797 53.5293C22.0743 53.5293 22.9881 53.0003 22.9881 52.2788C22.9881 51.365 21.3529 51.2689 19.9102 51.0283C19.285 51.2689 18.371 51.7978 18.371 52.471C18.3712 53.3371 19.4295 53.5293 20.6797 53.5293ZM22.363 45.9302C22.363 44.7279 21.5935 44.3911 20.6316 44.3911C19.6699 44.3911 18.9001 44.7758 18.9001 45.9302C18.9001 47.1327 19.6699 47.4695 20.6316 47.4695C21.5938 47.4695 22.363 47.1327 22.363 45.9302Z" fill="#848484"/>
<path d="M30.7319 46.4116V45.6901C30.7319 45.0166 30.2991 44.3916 29.0486 44.3916C27.6538 44.3916 26.7882 45.0166 26.6437 45.0166C26.4515 45.0166 26.1148 44.4396 26.1148 44.2471C26.1148 43.8622 27.4614 43.2854 29.0004 43.2854C30.9241 43.2854 32.0305 44.199 32.0305 45.6901V49.1048C32.0305 50.3553 32.2227 50.9806 32.2227 51.0285C32.2227 51.3173 31.5975 51.3652 31.405 51.3652C31.0204 51.3652 30.9722 50.7402 30.8761 50.3074C30.2991 50.9324 29.4332 51.4616 28.279 51.4616C26.7882 51.4616 25.6338 50.7402 25.6338 49.1532C25.6338 46.6038 28.4231 46.4116 30.7319 46.4116ZM28.327 50.3553C29.4332 50.3553 30.1066 49.8264 30.7319 49.2973V47.4699C29.1447 47.4699 27.0286 47.4699 27.0286 49.0571C27.0286 49.9225 27.4614 50.3553 28.327 50.3553Z" fill="#848484"/>
<path d="M35.5417 50.7879C34.9647 50.5473 34.5798 50.1629 34.5798 49.5374C34.5798 48.7679 35.205 48.4312 35.7342 48.239C34.8204 47.8062 34.3394 46.9403 34.3394 45.9304C34.3394 44.4877 35.3975 43.2854 37.4175 43.2854C37.8024 43.2854 38.1391 43.3333 38.4274 43.3815H41.0726C41.2648 43.3815 41.3612 43.5255 41.3612 43.8622V44.0547C41.3612 44.3914 41.2651 44.5354 41.0726 44.5354H40.0146C40.3513 44.9685 40.5437 45.4492 40.5437 45.9784C40.5437 47.4211 39.4857 48.6234 37.4656 48.6234H37.3214C36.9365 48.6234 36.0227 48.7197 36.0227 49.2486C36.0227 50.4509 41.2171 49.2486 41.2171 52.2785C41.2171 53.6251 39.8703 54.6834 37.3696 54.6834C35.3493 54.6834 33.9066 54.2506 33.9066 52.6634C33.8103 51.7499 34.4834 51.1246 35.5417 50.7879ZM37.4172 53.5293C38.812 53.5293 39.7258 53.0003 39.7258 52.2788C39.7258 51.365 38.0904 51.2689 36.6477 51.0283C36.0225 51.2689 35.1084 51.7978 35.1084 52.471C35.1087 53.3371 36.1667 53.5293 37.4172 53.5293ZM39.1006 45.9302C39.1006 44.7279 38.331 44.3911 37.3693 44.3911C36.4074 44.3911 35.6378 44.7758 35.6378 45.9302C35.6378 47.1327 36.4074 47.4695 37.3693 47.4695C38.331 47.4695 39.1006 47.1327 39.1006 45.9302Z" fill="#848484"/>
<path d="M42.9961 41.1209V40.2071C42.9961 40.0146 43.1883 39.8704 43.6211 39.8704H43.8136C44.2464 39.8704 44.4386 40.0144 44.4386 40.2071V41.1209C44.4386 41.3131 44.2464 41.4576 43.8136 41.4576H43.6211C43.1885 41.4576 42.9961 41.3133 42.9961 41.1209ZM43.044 43.6698C43.044 43.4776 43.2365 43.3331 43.6693 43.3331H43.7172C44.15 43.3331 44.3425 43.4773 44.3425 43.6698V51.0764C44.3425 51.2686 44.15 51.4131 43.7172 51.4131H43.6693C43.2365 51.4131 43.044 51.2689 43.044 51.0764V43.6698Z" fill="#848484"/>
<path d="M47.036 45.6901C47.036 44.4396 46.8438 43.8145 46.8438 43.7664C46.8438 43.4778 47.4688 43.4297 47.6614 43.4297C48.0461 43.4297 48.0942 44.0549 48.1903 44.4396C48.8154 43.7182 49.7294 43.2854 50.5952 43.2854C52.1824 43.2854 53.0962 44.1989 53.0962 45.7864V51.1246C53.0962 51.317 52.9038 51.4613 52.471 51.4613H52.423C51.99 51.4613 51.7978 51.3173 51.7978 51.1246V45.9304C51.7978 45.0166 51.2207 44.4396 50.2106 44.4396C49.5372 44.4396 48.7679 44.8726 48.2869 45.4976V51.1246C48.2869 51.317 48.0947 51.4616 47.6619 51.4616H47.6137C47.1809 51.4616 46.9887 51.3173 46.9887 51.1246L47.036 45.6901Z" fill="#848484"/>
<path d="M56.5108 50.7879C55.9339 50.5473 55.549 50.1629 55.549 49.5374C55.549 48.7679 56.174 48.4312 56.7034 48.239C55.7896 47.8062 55.3087 46.9403 55.3087 45.9304C55.3087 44.4877 56.3667 43.2854 58.3867 43.2854C58.7716 43.2854 59.1083 43.3333 59.3966 43.3815H62.0419C62.2341 43.3815 62.3304 43.5255 62.3304 43.8622V44.0547C62.3304 44.3914 62.2343 44.5354 62.0419 44.5354H60.9354C61.2724 44.9685 61.4646 45.4492 61.4646 45.9784C61.4646 47.4211 60.4065 48.6234 58.3865 48.6234H58.2422C57.8576 48.6234 56.9438 48.7197 56.9438 49.2486C56.9438 50.4509 62.138 49.2486 62.138 52.2785C62.138 53.6251 60.7914 54.6834 58.2904 54.6834C56.2704 54.6834 54.8274 54.2506 54.8274 52.6634C54.7795 51.7499 55.5006 51.1246 56.5108 50.7879ZM58.4347 53.5293C59.8292 53.5293 60.743 53.0003 60.743 52.2788C60.743 51.365 59.1079 51.2689 57.6649 51.0283C57.0399 51.2689 56.1259 51.7978 56.1259 52.471C56.1261 53.3371 57.136 53.5293 58.4347 53.5293ZM60.118 45.9302C60.118 44.7279 59.3482 44.3911 58.3865 44.3911C57.4246 44.3911 56.655 44.7758 56.655 45.9302C56.655 47.1327 57.4246 47.4695 58.3865 47.4695C59.3482 47.4695 60.118 47.1327 60.118 45.9302Z" fill="#848484"/>
<path d="M67.9577 44.4876H67.188C66.9958 44.4876 66.8994 44.3433 66.8994 44.0066V43.8144C66.8994 43.4777 66.9955 43.3334 67.188 43.3334H67.9577L68.1499 41.6983C68.1499 41.5058 68.2942 41.3613 68.6309 41.3613H68.7749C69.1116 41.3613 69.2559 41.5056 69.2559 41.6983V43.3334H70.5543C70.7468 43.3334 70.8431 43.4777 70.8431 43.8144V44.0066C70.8431 44.3433 70.747 44.4876 70.5543 44.4876H69.2559V49.2489C69.2559 50.1627 69.6408 50.4033 70.0736 50.4033C70.5064 50.4033 70.6025 50.3072 70.747 50.3072C70.9392 50.3072 71.0837 50.8841 71.0837 51.0286C71.0837 51.4614 70.3621 51.5096 69.9775 51.5096C69.2077 51.5096 68.0054 51.1729 68.0054 49.3934L67.9577 44.4876Z" fill="#848484"/>
<path d="M73.0078 40.2071C73.0078 40.0146 73.2 39.8704 73.6328 39.8704H73.681C74.1138 39.8704 74.306 40.0144 74.306 40.2071V44.3432C74.8351 43.8143 75.6526 43.2854 76.6627 43.2854C77.6726 43.2854 79.1155 43.67 79.1155 45.7864V51.1246C79.1155 51.317 78.9231 51.4613 78.4903 51.4613H78.4424C78.0096 51.4613 77.8171 51.3173 77.8171 51.1246V45.9304C77.8171 45.0166 77.2882 44.4395 76.2299 44.4395C75.0755 44.4395 74.3062 45.4976 74.3062 45.4976V51.1246C74.3062 51.317 74.114 51.4615 73.6812 51.4615H73.6331C73.2003 51.4615 73.0081 51.3173 73.0081 51.1246L73.0078 40.2071Z" fill="#848484"/>
<path d="M84.6944 43.2854C86.8105 43.2854 87.8686 44.6799 87.8686 47.277C87.8686 47.4695 87.5318 47.9023 87.3394 47.9023H82.4819C82.6262 49.5856 83.3478 50.3551 84.8387 50.3551C86.1852 50.3551 86.9066 49.7301 87.099 49.7301C87.2912 49.7301 87.6279 50.3071 87.6279 50.4996C87.6279 50.8842 86.4254 51.4613 84.8866 51.4613C82.3377 51.4613 81.1351 50.1629 81.1351 47.4215C81.0874 44.7283 82.3377 43.2854 84.6944 43.2854ZM86.4738 46.7963C86.4738 45.2091 85.8488 44.3914 84.6462 44.3914C83.2996 44.3914 82.6262 45.2091 82.4819 46.7963H86.4738Z" fill="#848484"/>
<path d="M93.6875 40.9768C93.6875 40.7846 93.8799 40.6401 94.3128 40.6401H94.4568C94.8898 40.6401 95.082 40.7844 95.082 40.9768V51.1248C95.082 51.3173 94.8898 51.4615 94.4568 51.4615H94.3128C93.8797 51.4615 93.6875 51.3175 93.6875 51.1248V40.9768Z" fill="#848484"/>
<path d="M97.8719 45.6901C97.8719 44.4396 97.6797 43.8145 97.6797 43.7664C97.6797 43.4778 98.3047 43.4297 98.4974 43.4297C98.882 43.4297 98.9302 44.0549 99.0263 44.4396C99.6513 43.7182 100.566 43.2854 101.431 43.2854C103.018 43.2854 103.932 44.1989 103.932 45.7864V51.1246C103.932 51.317 103.74 51.4613 103.307 51.4613H103.259C102.826 51.4613 102.634 51.3173 102.634 51.1246V45.9304C102.634 45.0166 102.057 44.4396 101.047 44.4396C100.373 44.4396 99.6038 44.8726 99.1229 45.4976V51.1246C99.1229 51.317 98.9306 51.4616 98.4978 51.4616H98.4497C98.0169 51.4616 97.8247 51.3173 97.8247 51.1246L97.8719 45.6901Z" fill="#848484"/>
<path d="M106.721 44.4876H105.952C105.759 44.4876 105.663 44.3433 105.663 44.0066V43.8144C105.663 43.4777 105.759 43.3334 105.952 43.3334H106.721L106.914 41.6983C106.914 41.5058 107.106 41.3613 107.394 41.3613H107.539C107.875 41.3613 108.02 41.5056 108.02 41.6983V43.3334H109.318C109.51 43.3334 109.607 43.4777 109.607 43.8144V44.0066C109.607 44.3433 109.51 44.4876 109.318 44.4876H108.02V49.2489C108.02 50.1627 108.404 50.4033 108.837 50.4033C109.27 50.4033 109.366 50.3072 109.511 50.3072C109.703 50.3072 109.847 50.8841 109.847 51.0286C109.847 51.4614 109.126 51.5096 108.741 51.5096C107.971 51.5096 106.769 51.1729 106.769 49.3934L106.721 44.4876Z" fill="#848484"/>
<path d="M114.753 43.2854C116.87 43.2854 117.928 44.6799 117.928 47.277C117.928 47.4695 117.591 47.9023 117.399 47.9023H112.541C112.685 49.5856 113.407 50.3551 114.898 50.3551C116.244 50.3551 116.966 49.7301 117.158 49.7301C117.35 49.7301 117.687 50.3071 117.687 50.4996C117.687 50.8842 116.485 51.4613 114.946 51.4613C112.397 51.4613 111.194 50.1629 111.194 47.4215C111.194 44.7283 112.397 43.2854 114.753 43.2854ZM116.533 46.7963C116.533 45.2091 115.908 44.3914 114.705 44.3914C113.359 44.3914 112.685 45.2091 112.541 46.7963H116.533Z" fill="#848484"/>
<path d="M119.996 45.6901C119.996 44.4396 119.804 43.8145 119.804 43.7664C119.804 43.4778 120.429 43.4297 120.621 43.4297C121.006 43.4297 121.054 44.0549 121.15 44.4396C121.679 43.7182 122.305 43.2854 122.93 43.2854C123.507 43.2854 123.843 43.5258 123.843 43.8622C123.843 44.151 123.699 44.6799 123.555 44.6799C123.363 44.6799 123.218 44.5359 122.689 44.5359C121.871 44.5359 121.295 45.4497 121.295 45.4497V51.0767C121.295 51.2689 121.102 51.4134 120.669 51.4134H120.621C120.188 51.4134 119.996 51.2691 119.996 51.0767L119.996 45.6901Z" fill="#848484"/>
<path d="M125.527 45.6901C125.527 44.4396 125.335 43.8145 125.335 43.7664C125.335 43.4778 125.96 43.4297 126.153 43.4297C126.537 43.4297 126.585 44.0549 126.682 44.4396C127.307 43.7182 128.221 43.2854 129.086 43.2854C130.674 43.2854 131.587 44.1989 131.587 45.7864V51.1246C131.587 51.317 131.395 51.4613 130.962 51.4613H130.914C130.481 51.4613 130.289 51.3173 130.289 51.1246V45.9304C130.289 45.0166 129.712 44.4396 128.702 44.4396C128.028 44.4396 127.259 44.8726 126.778 45.4976V51.1246C126.778 51.317 126.586 51.4616 126.153 51.4616H126.105C125.672 51.4616 125.48 51.3173 125.48 51.1246L125.527 45.6901Z" fill="#848484"/>
<path d="M137.214 43.2854C139.33 43.2854 140.388 44.6799 140.388 47.277C140.388 47.4695 140.051 47.9023 139.859 47.9023H135.002C135.146 49.5856 135.867 50.3551 137.358 50.3551C138.705 50.3551 139.426 49.7301 139.619 49.7301C139.811 49.7301 140.147 50.3071 140.147 50.4996C140.147 50.8842 138.945 51.4613 137.406 51.4613C134.857 51.4613 133.655 50.1629 133.655 47.4215C133.607 44.7283 134.857 43.2854 137.214 43.2854ZM138.993 46.7963C138.993 45.2091 138.368 44.3914 137.166 44.3914C135.819 44.3914 135.146 45.2091 135.002 46.7963H138.993Z" fill="#848484"/>
<path d="M142.697 44.4876H141.927C141.735 44.4876 141.639 44.3433 141.639 44.0066V43.8144C141.639 43.4777 141.735 43.3334 141.927 43.3334H142.697L142.889 41.6983C142.889 41.5058 143.033 41.3613 143.37 41.3613H143.514C143.851 41.3613 143.995 41.5056 143.995 41.6983V43.3334H145.294C145.486 43.3334 145.582 43.4777 145.582 43.8144V44.0066C145.582 44.3433 145.486 44.4876 145.294 44.4876H143.995V49.2489C143.995 50.1627 144.38 50.4033 144.813 50.4033C145.246 50.4033 145.342 50.3072 145.486 50.3072C145.678 50.3072 145.823 50.8841 145.823 51.0286C145.823 51.4614 145.101 51.5096 144.717 51.5096C143.947 51.5096 142.745 51.1729 142.745 49.3934L142.697 44.4876Z" fill="#848484"/>
<path d="M13.2261 1.92383C17.2659 1.92383 21.0173 3.36653 21.0173 4.47275C21.0173 5.14617 20.1517 6.82924 19.6226 6.82924C19.1898 6.82924 17.2177 5.04983 13.274 5.04983C6.0598 5.04983 3.70331 9.23413 3.70331 16.352C3.70331 22.6042 5.57882 27.8947 12.8412 27.8947C14.9573 27.8947 17.0255 27.6544 18.0835 27.3658V19.1417H13.3222C12.7451 19.1417 12.5045 18.7569 12.5045 17.9392V17.2658C12.5045 16.4001 12.7451 16.0634 13.3222 16.0634H20.4884C21.354 16.0634 21.6908 16.4481 21.6908 17.2658V28.0872C21.6908 30.3955 17.2661 31.021 12.6008 31.021C4.47283 31.021 0 26.4518 0 16.7369C0 6.54094 4.71321 1.92383 13.2261 1.92383Z" fill="white"/>
<path d="M25.9234 15.6308C25.9234 12.2639 25.4424 10.677 25.4424 10.4845C25.4424 9.71502 27.1257 9.52282 27.6546 9.52282C28.6165 9.52282 28.8572 11.158 29.0973 12.216C30.4921 10.2439 32.1274 9.13794 33.8107 9.13794C35.3979 9.13794 36.1672 9.81136 36.1672 10.7251C36.1672 11.4947 35.8305 12.9376 35.3495 12.9376C34.8206 12.9376 34.4839 12.5045 33.0891 12.5045C30.973 12.5045 29.3377 15.0055 29.3377 15.0055V29.9631C29.3377 30.5401 28.8569 30.8769 27.7025 30.8769H27.5583C26.4039 30.8769 25.9231 30.5401 25.9231 29.9631L25.9234 15.6308Z" fill="white"/>
<path d="M47.3247 9.13794C52.9035 9.13794 55.7412 12.8413 55.7412 19.7669C55.7412 20.2479 54.8756 21.4502 54.3946 21.4502H41.5053C41.842 25.971 43.7657 28.0392 47.8057 28.0392C51.3647 28.0392 53.3368 26.3077 53.7696 26.3077C54.3467 26.3077 55.2123 27.8949 55.2123 28.3279C55.2123 29.2897 51.99 30.925 47.8539 30.925C41.0725 30.925 37.8501 27.4621 37.8501 20.1518C37.802 12.9855 41.0725 9.13794 47.3247 9.13794ZM52.0861 18.5646C52.0861 14.2842 50.4507 12.1199 47.1804 12.1199C43.6214 12.1199 41.7457 14.2842 41.4571 18.5646H52.0861Z" fill="white"/>
<path d="M68.4863 9.13794C74.0651 9.13794 76.9028 12.8413 76.9028 19.7669C76.9028 20.2479 76.0372 21.4502 75.5562 21.4502H62.6669C63.0036 25.971 64.9272 28.0392 68.9675 28.0392C72.5263 28.0392 74.4984 26.3077 74.9312 26.3077C75.5083 26.3077 76.3739 27.8949 76.3739 28.3279C76.3739 29.2897 73.1518 30.925 69.0154 30.925C62.2341 30.925 59.0117 27.4621 59.0117 20.1518C59.0115 12.9855 62.2341 9.13794 68.4863 9.13794ZM73.2956 18.5646C73.2956 14.2842 71.6605 12.1199 68.3902 12.1199C64.8311 12.1199 62.9554 14.2842 62.6669 18.5646H73.2956Z" fill="white"/>
<path d="M80.6069 15.6308C80.6069 12.2639 80.126 10.677 80.126 10.4845C80.126 9.71502 81.8093 9.52282 82.3384 9.52282C83.3001 9.52282 83.5407 11.158 83.7811 12.216C85.5124 10.2923 87.8691 9.13794 90.1297 9.13794C94.314 9.13794 96.7666 11.6389 96.7666 15.7269V29.8667C96.7666 30.4438 96.2856 30.7805 95.1312 30.7805H94.9872C93.8328 30.7805 93.3518 30.4438 93.3518 29.8667V16.0154C93.3518 13.5144 91.8609 12.0717 89.1675 12.0717C87.3399 12.0717 85.3681 13.178 84.0215 14.9094V29.867C84.0215 30.444 83.5405 30.7808 82.3861 30.7808H82.2419C81.0875 30.7808 80.6065 30.444 80.6065 29.867L80.6069 15.6308Z" fill="white"/>
<path d="M104.077 23.8549C104.799 23.8549 106.818 25.7306 110.089 25.7306C111.82 25.7306 113.937 25.2015 113.937 22.7486C113.937 17.9391 102.153 19.8148 102.153 10.196C102.153 4.18412 107.059 1.82764 111.82 1.82764C116.149 1.82764 119.179 3.31827 119.179 4.6651C119.179 5.77156 117.928 8.22414 116.918 8.22414C116.389 8.22414 115.139 7.21425 112.398 7.21425C109.223 7.21425 108.598 8.70512 108.598 9.61914C108.598 14.2844 120.381 12.4084 120.381 21.9796C120.381 28.761 115.62 31.0214 111.147 31.0214C104.943 31.0214 101.576 28.8089 101.576 27.4144C101.576 26.2116 103.211 23.8549 104.077 23.8549Z" fill="#88CE02"/>
<path d="M132.693 9.08984C139.186 9.08984 142.552 12.9856 142.552 20.0555C142.552 27.1736 139.186 31.0691 132.693 31.0691C126.2 31.0691 122.785 27.1736 122.785 20.0555C122.785 12.9374 126.2 9.08984 132.693 9.08984ZM136.444 20.0555C136.444 15.9676 135.29 13.8512 132.693 13.8512C130.096 13.8512 128.893 15.9676 128.893 20.0555C128.893 24.1435 130.096 26.3078 132.693 26.3078C135.29 26.3078 136.444 24.1437 136.444 20.0555Z" fill="#88CE02"/>
<path d="M155.683 9.08984C158.569 9.08984 162.464 10.0518 162.464 11.9275C162.464 12.6973 160.973 15.0538 160.3 15.0538C160.156 15.0538 159.915 14.9095 159.579 14.765C158.857 14.3804 157.751 13.8512 156.02 13.8512C152.749 13.8512 151.403 15.8715 151.403 20.0555C151.403 24.2396 152.653 26.3078 155.779 26.3078C157.703 26.3078 159.001 25.7309 159.771 25.346C160.108 25.2018 160.348 25.1054 160.492 25.1054C161.406 25.1054 162.609 27.414 162.609 28.1835C162.609 30.4918 156.789 31.0212 155.491 31.0212C148.517 31.0212 145.198 27.4622 145.198 20.1519C145.198 12.9374 148.372 9.08984 155.683 9.08984Z" fill="#88CE02"/>
<path d="M165.542 1.29843C165.542 0.432807 166.264 0 167.995 0H169.149C170.881 0 171.602 0.432807 171.602 1.29843V17.4583L171.747 17.5062L176.7 10.0998C177.181 9.4264 177.999 9.33006 179.201 9.33006H180.692C182.231 9.33006 183.001 9.57067 183.001 9.95531C183.001 10.1475 182.856 10.4363 182.616 10.773L176.94 18.8528L183.577 29.3854C183.77 29.7703 183.914 30.0107 183.914 30.2513C183.914 30.6359 183.193 30.8763 181.606 30.8763H179.874C178.672 30.8763 177.806 30.732 177.421 30.1068L171.746 20.7283L171.602 20.7763V29.5776C171.602 30.4433 170.881 30.8761 169.149 30.8761H167.995C166.264 30.8761 165.542 30.4433 165.542 29.5776L165.542 1.29843Z" fill="#88CE02"/>
</svg>
