<svg width="23" height="23" viewBox="0 0 23 23" fill="none" xmlns="http://www.w3.org/2000/svg">
<path d="M23.0003 4.58385C23.0077 3.97982 22.8942 3.38043 22.6664 2.82094C22.4387 2.26145 22.1013 1.75318 21.6742 1.32604C21.247 0.898894 20.7388 0.561512 20.1793 0.333758C19.6198 0.106004 19.0204 -0.00753109 18.4163 -0.000150183H4.58034C3.97728 -0.00468184 3.37935 0.110835 2.82137 0.339648C2.26339 0.56846 1.75651 0.906006 1.33026 1.33263C0.904013 1.75925 0.56692 2.26642 0.338594 2.8246C0.110269 3.38278 -0.00472058 3.9808 0.000337531 4.58385V18.4158C-0.00703293 19.0195 0.106373 19.6186 0.333879 20.1778C0.561386 20.7371 0.898405 21.2451 1.32512 21.6722C1.75184 22.0993 2.25963 22.4368 2.81865 22.6648C3.37768 22.8928 3.97665 23.0067 4.58034 22.9998H18.4163C19.021 23.0097 19.6215 22.8979 20.1822 22.671C20.7428 22.4441 21.2521 22.1069 21.6797 21.6792C22.1073 21.2516 22.4446 20.7423 22.6715 20.1817C22.8984 19.6211 23.0102 19.0206 23.0003 18.4158V4.58385ZM11.5333 5.75485C10.9151 5.75283 10.3015 5.86121 9.72135 6.07486C9.14229 6.28516 8.59037 6.56378 8.07733 6.90485H2.32234V5.75485C2.31628 5.30236 2.40099 4.85324 2.57146 4.43404C2.74193 4.01484 2.99469 3.63405 3.31482 3.3142C3.63495 2.99434 4.01595 2.74191 4.4353 2.57181C4.85466 2.40171 5.30384 2.3174 5.75633 2.32385H17.2453C17.703 2.31497 18.1577 2.39802 18.5827 2.56807C19.0076 2.73812 19.3942 2.99173 19.7193 3.31386C20.0503 3.6271 20.3122 4.00604 20.4882 4.42639C20.6642 4.84675 20.7504 5.29923 20.7413 5.75485V6.90485H14.9413C14.432 6.57255 13.8894 6.29439 13.3223 6.07486C12.7507 5.85817 12.1437 5.74966 11.5323 5.75485H11.5333ZM17.2453 20.7399H5.75534C5.29967 20.7493 4.84706 20.6633 4.42665 20.4872C4.00624 20.3112 3.62734 20.0491 3.31433 19.7179C2.99476 19.3998 2.74223 19.0208 2.57167 18.6035C2.40111 18.1861 2.31598 17.7387 2.32134 17.2879V8.07985H6.90534C6.56592 8.58497 6.28732 9.12841 6.07533 9.69886C5.85794 10.2856 5.74951 10.9071 5.75534 11.5329C5.74895 12.2989 5.90505 13.0576 6.21334 13.7589C6.50846 14.4356 6.92384 15.0533 7.43933 15.5819C7.9625 16.1178 8.58875 16.5423 9.28034 16.8299C9.99216 17.1337 10.7584 17.2895 11.5323 17.2879C12.2852 17.2906 13.0309 17.1408 13.7244 16.8476C14.4178 16.5544 15.0448 16.1239 15.5673 15.5819C16.0771 15.0509 16.4885 14.4337 16.7823 13.7589C17.0906 13.0576 17.2467 12.2989 17.2403 11.5329C17.2462 10.9071 17.1377 10.2856 16.9203 9.69886C16.7088 9.13544 16.4442 8.59334 16.1303 8.07985H20.7363V17.2879C20.7405 17.7412 20.6519 18.1905 20.4762 18.6084C20.3005 19.0262 20.0412 19.4038 19.7143 19.7179C19.3939 20.0475 19.0096 20.3082 18.5849 20.4841C18.1601 20.66 17.704 20.7474 17.2443 20.7409L17.2453 20.7399ZM11.5333 8.07985C11.984 8.07422 12.4312 8.15892 12.8485 8.32895C13.2659 8.49899 13.6449 8.75092 13.9633 9.06986C14.2873 9.39188 14.5444 9.77478 14.7199 10.1965C14.8953 10.6183 14.9856 11.0706 14.9856 11.5274C14.9856 11.9841 14.8953 12.4364 14.7199 12.8582C14.5444 13.2799 14.2873 13.6628 13.9633 13.9849C13.6429 14.3002 13.2632 14.5491 12.8461 14.7171C12.4291 14.8851 11.9829 14.969 11.5333 14.9639C11.0748 14.9742 10.6189 14.893 10.1921 14.7249C9.76543 14.5568 9.37656 14.3052 9.04834 13.9849C8.40036 13.3311 8.03681 12.4479 8.03681 11.5274C8.03681 10.6069 8.40036 9.72363 9.04834 9.06986C9.37432 8.74599 9.7624 8.49134 10.1893 8.32122C10.6161 8.15109 11.073 8.06899 11.5323 8.07985H11.5333ZM16.1333 5.75485H18.4143V3.47385H16.1333V5.75485Z" fill="white"/>
</svg>
