<svg width="82" height="83" viewBox="0 0 82 83" fill="none" xmlns="http://www.w3.org/2000/svg">
<path d="M73.2143 0H8.78571C3.93527 0 0 3.94727 0 8.8125V73.4375C0 78.3027 3.93527 82.25 8.78571 82.25H73.2143C78.0647 82.25 82 78.3027 82 73.4375V8.8125C82 3.94727 78.0647 0 73.2143 0ZM44.6241 64.1477C44.6241 72.1523 39.9384 75.8059 33.1112 75.8059C26.9429 75.8059 23.3737 72.6113 21.5433 68.7375L27.8214 64.9371C29.0295 67.0852 30.1277 68.9027 32.7817 68.9027C35.3076 68.9027 36.9183 67.9113 36.9183 64.0375V37.7652H44.6241V64.1477ZM62.8545 75.8059C55.6978 75.8059 51.067 72.391 48.8156 67.9113L55.0938 64.2762C56.7411 66.975 58.9009 68.9762 62.6897 68.9762C65.8746 68.9762 67.9246 67.3789 67.9246 65.1574C67.9246 62.5137 65.8379 61.5773 62.3054 60.0168L60.3835 59.1906C54.8192 56.8223 51.1402 53.8297 51.1402 47.5324C51.1402 41.7309 55.5513 37.3246 62.4152 37.3246C67.3205 37.3246 70.8348 39.032 73.3607 43.5117L67.3571 47.3672C66.0393 44.9988 64.6116 44.0625 62.3969 44.0625C60.1455 44.0625 58.7179 45.4945 58.7179 47.3672C58.7179 49.6805 60.1455 50.6168 63.4585 52.0672L65.3804 52.8934C71.933 55.7023 75.6121 58.5848 75.6121 65.0473C75.6121 71.9871 70.1576 75.8059 62.8545 75.8059Z" fill="#F0DB4F"/>
</svg>
