<svg width="103" height="100" viewBox="0 0 103 100" fill="none" xmlns="http://www.w3.org/2000/svg">
<path d="M18.2396 0H84.7604C94.8458 0 103 8.11966 103 18.1624V81.8376C103 91.8803 94.8458 100 84.7604 100H18.2396C8.15417 100 0 91.8803 0 81.8376V18.1624C0 8.11966 8.15417 0 18.2396 0Z" fill="#001E36"/>
<path d="M21 71.7009V27.7265C21 27.4274 21.1288 27.2564 21.4292 27.2564C22.1588 27.2564 22.8454 27.2564 23.8325 27.2137C24.8625 27.1709 25.9354 27.1709 27.0942 27.1282C28.2529 27.0855 29.4975 27.0855 30.8279 27.0427C32.1583 27 33.4458 27 34.7333 27C38.2525 27 41.1708 27.4273 43.5742 28.3248C45.72 29.0513 47.6942 30.2479 49.325 31.8291C50.6983 33.1966 51.7712 34.8632 52.4579 36.7009C53.1017 38.4957 53.445 40.3333 53.445 42.2564C53.445 45.9316 52.5867 48.9658 50.87 51.359C49.1533 53.7521 46.75 55.547 43.9604 56.5726C41.0421 57.641 37.8233 58.0256 34.3042 58.0256C33.2742 58.0256 32.5875 58.0256 32.1583 57.9829C31.7292 57.9402 31.1283 57.9402 30.3129 57.9402V71.6581C30.3558 71.9573 30.1412 72.2137 29.8408 72.2564C29.7979 72.2564 29.755 72.2564 29.6692 72.2564H21.515C21.1717 72.2564 21 72.0855 21 71.7009ZM30.3558 35.5043V49.8633C30.9567 49.906 31.5146 49.9487 32.0296 49.9487H34.3042C35.9779 49.9487 37.6517 49.6923 39.2396 49.1795C40.6129 48.7949 41.8146 47.9829 42.7588 46.9145C43.66 45.8462 44.0892 44.3932 44.0892 42.5128C44.1321 41.188 43.7887 39.8633 43.1021 38.7094C42.3725 37.5983 41.3425 36.7436 40.0979 36.2735C38.51 35.6325 36.7933 35.3761 35.0337 35.4188C33.9179 35.4188 32.9308 35.4188 32.1154 35.4615C31.2571 35.4188 30.6563 35.4615 30.3558 35.5043Z" fill="#31A8FF"/>
<path d="M80.225 47.2564C78.9375 46.5726 77.5642 46.1026 76.105 45.8034C74.5171 45.4615 72.9292 45.2479 71.2983 45.2479C70.44 45.2051 69.5387 45.3333 68.7233 45.547C68.1654 45.6752 67.6933 45.9744 67.3929 46.4017C67.1783 46.7436 67.0496 47.1709 67.0496 47.5556C67.0496 47.9402 67.2213 48.3248 67.4788 48.6667C67.865 49.1367 68.38 49.5214 68.9379 49.8205C69.925 50.3333 70.955 50.8034 71.985 51.2308C74.3025 52 76.5342 53.0684 78.5942 54.3504C80.0104 55.2479 81.1692 56.4444 81.9846 57.8974C82.6713 59.265 83.0146 60.7607 82.9717 62.2991C83.0146 64.3077 82.4137 66.3162 81.2979 67.9829C80.0962 69.6923 78.4225 71.0171 76.4912 71.7863C74.3883 72.6838 71.8133 73.1538 68.7233 73.1538C66.7492 73.1538 64.8179 72.9829 62.8867 72.5983C61.3846 72.3419 59.8825 71.8718 58.5092 71.2308C58.2087 71.0598 57.9942 70.7607 58.0371 70.4188V62.9829C58.0371 62.8547 58.08 62.6838 58.2087 62.5983C58.3375 62.5128 58.4663 62.5556 58.595 62.641C60.2688 63.6239 62.0283 64.3077 63.9167 64.735C65.5475 65.1624 67.2642 65.3761 68.9808 65.3761C70.6117 65.3761 71.7704 65.1624 72.5429 64.7778C73.2296 64.4786 73.7017 63.7521 73.7017 62.9829C73.7017 62.3846 73.3583 61.8291 72.6717 61.2735C71.985 60.7179 70.5688 60.0769 68.4658 59.265C66.2771 58.4957 64.26 57.4701 62.3717 56.188C61.0412 55.2479 59.9254 54.0085 59.11 52.5556C58.4233 51.188 58.08 49.6923 58.1229 48.1966C58.1229 46.359 58.6379 44.6068 59.5821 43.0256C60.655 41.3162 62.2429 39.9487 64.0883 39.094C66.1054 38.0684 68.6375 37.5983 71.6846 37.5983C73.4442 37.5983 75.2467 37.7265 77.0062 37.9829C78.2937 38.1538 79.5383 38.4957 80.6971 38.9658C80.8687 39.0085 81.0404 39.1795 81.1263 39.3504C81.1692 39.5214 81.2121 39.6923 81.2121 39.8632V46.8291C81.2121 47 81.1262 47.1709 80.9975 47.2564C80.6112 47.3419 80.3967 47.3419 80.225 47.2564Z" fill="#31A8FF"/>
</svg>
