<svg width="93" height="93" viewBox="0 0 93 93" fill="none" xmlns="http://www.w3.org/2000/svg">
<path d="M90.3162 34.885C88.735 28.4878 85.7368 23.6639 79.3502 23.6639H71.1153V33.4772C71.1153 41.096 64.7082 47.5139 57.3975 47.5139H35.4653C29.4689 47.5139 24.4993 52.6897 24.4993 58.7557V79.8315C24.4993 85.8354 29.6743 89.355 35.4653 91.0733C42.4064 93.1229 49.0805 93.4956 57.3975 91.0733C62.9216 89.4585 68.3635 86.2081 68.3635 79.8315V71.4053H46.4519V68.5897H79.3502C85.7368 68.5897 88.0984 64.0971 90.3162 57.3686C92.6162 50.4331 92.5136 43.7667 90.3162 34.885ZM58.7734 77.0159C61.0528 77.0159 62.9011 78.8999 62.9011 81.2186C62.9011 83.5581 61.0528 85.4421 58.7734 85.4421C56.5144 85.4421 54.6457 83.5374 54.6457 81.2186C54.6662 78.8792 56.5144 77.0159 58.7734 77.0159ZM34.4591 44.7397H56.3912C62.4903 44.7397 67.3573 39.6675 67.3573 33.4979V12.4014C67.3573 6.39753 62.3466 1.90495 56.3912 0.890502C49.0394 -0.330983 41.051 -0.268873 34.4591 0.911205C25.1769 2.56746 23.493 6.02488 23.493 12.4221V20.8483H45.4457V23.6639H15.2582C8.87158 23.6639 3.28587 27.5354 1.54033 34.885C-0.472167 43.3112 -0.55431 48.5698 1.54033 57.3686C3.10105 63.9108 6.81801 68.5897 13.2046 68.5897H20.7412V58.4866C20.7412 51.1784 27.0046 44.7397 34.4591 44.7397ZM33.0832 15.2171C30.8037 15.2171 28.9555 13.3331 28.9555 11.0143C28.976 8.67488 30.8037 6.79089 33.0832 6.79089C35.3421 6.79089 37.2109 8.69558 37.2109 11.0143C37.2109 13.3331 35.3627 15.2171 33.0832 15.2171Z" fill="#2C8DDC"/>
</svg>
