<svg width="90" height="69" viewBox="0 0 90 69" fill="none" xmlns="http://www.w3.org/2000/svg">
<path d="M42.4467 51.7439C42.4045 51.8294 42.3623 51.8978 42.4467 51.7439ZM77.4806 39.3396C74.6523 39.3386 71.8616 39.9972 69.3244 41.2644C68.4947 39.5677 67.6369 38.0849 67.4962 36.9728C67.3275 35.6753 67.1447 34.9054 67.3416 33.3655C67.5384 31.8257 68.4244 29.6442 68.4103 29.4874C68.3962 29.3306 68.2134 28.5464 66.3994 28.5321C64.5853 28.5179 63.0244 28.8886 62.843 29.3733C62.5226 30.2592 62.2733 31.17 62.0977 32.0966C61.7742 33.7647 58.4709 39.7245 56.6006 42.8327C55.9819 41.6208 55.4616 40.5515 55.3491 39.696C55.1803 38.3985 54.9975 37.6286 55.1944 36.0888C55.3912 34.5489 56.2772 32.3675 56.2631 32.2106C56.2491 32.0538 56.0662 31.2696 54.2536 31.2554C52.4409 31.2411 50.8786 31.6118 50.6958 32.0966C50.513 32.5813 50.3161 33.722 49.9505 34.8198C49.5848 35.9177 45.1847 45.8411 44.033 48.4218C43.4423 49.7335 42.9361 50.7886 42.5705 51.5015C42.5142 51.6155 42.472 51.6868 42.4439 51.7439C42.4861 51.6726 42.5142 51.6013 42.5142 51.6298C42.2048 52.2429 42.022 52.5851 42.022 52.5851V52.5993C41.783 53.0556 41.5158 53.469 41.3892 53.469C41.3048 53.469 41.122 52.2714 41.4314 50.6317C42.0923 47.1813 43.6533 41.8204 43.6392 41.6351C43.6252 41.5353 43.9345 40.6085 42.6127 40.1095C41.333 39.639 40.8689 40.4231 40.7564 40.4231C40.6439 40.4231 40.5595 40.7083 40.5595 40.7083C40.5595 40.7083 41.9798 34.663 37.8328 34.663C35.2453 34.663 31.6453 37.5431 29.8763 40.1522C28.7653 40.7653 26.3606 42.0913 23.8294 43.5028C22.8591 44.0446 21.8606 44.6007 20.9184 45.1282C20.8481 45.0569 20.7919 44.9856 20.7216 44.9144C15.6886 39.4679 6.3961 35.6183 6.78985 28.304C6.93047 25.6378 7.84454 18.6372 24.6591 10.1396C38.4403 3.18174 49.4583 5.09229 51.3553 9.34111C54.0834 15.4007 45.4645 26.6786 31.1531 28.304C25.6983 28.9171 22.8309 26.7784 22.1138 25.98C21.3684 25.1388 21.2559 25.096 20.9747 25.2528C20.5106 25.5095 20.8059 26.2509 20.9747 26.6929C21.3966 27.8192 23.1544 29.8153 26.1483 30.8134C28.778 31.6831 35.1736 32.1679 42.9066 29.131C51.5944 25.7376 58.357 16.2847 56.3742 8.37158C54.3548 0.330176 41.2036 -2.30752 28.7681 2.16943C21.3586 4.83565 13.3458 9.02744 7.58157 14.4882C0.734538 20.9897 -0.360931 26.6501 0.0890692 29.0169C1.69079 37.4147 13.1067 42.8897 17.6756 46.939C17.4506 47.0673 17.2397 47.1813 17.0428 47.2954C14.752 48.4503 6.04876 53.0698 3.87048 57.946C1.40954 63.478 4.27829 67.4417 6.16126 67.9835C12.038 69.6374 18.0553 66.6575 21.2883 61.7671C24.5213 56.8767 24.1289 50.4892 22.6383 47.5806C22.6242 47.5378 22.5961 47.5093 22.582 47.4665C23.1727 47.1101 23.7773 46.7536 24.382 46.3972C25.5478 45.6985 26.6869 45.0569 27.6853 44.5009C27.1228 46.0407 26.715 47.8942 26.5041 50.5747C26.2509 53.7114 27.5306 57.7749 29.19 59.3718C29.9213 60.0704 30.8058 60.0847 31.3542 60.0847C33.2948 60.0847 34.1667 58.4593 35.1356 56.5202C36.3309 54.1534 37.3856 51.4017 37.3856 51.4017C37.3856 51.4017 36.0638 58.8442 39.6778 58.8442C40.9983 58.8442 42.3202 57.119 42.9122 56.2351V56.2493C42.9122 56.2493 42.9403 56.1923 43.0106 56.0782C43.1513 55.8644 43.2216 55.736 43.2216 55.736V55.6933C43.7559 54.7665 44.9231 52.6421 46.6795 49.1347C48.9577 44.6007 51.1359 38.9403 51.1359 38.9403C51.3464 40.1846 51.6377 41.4135 52.0078 42.6189C52.4016 43.9733 53.2313 45.4562 53.8922 46.8962C53.3578 47.6376 53.0344 48.0653 53.0344 48.0653C53.0354 48.0763 53.0404 48.0864 53.0484 48.0938C52.6266 48.6642 52.1484 49.2772 51.6562 49.8761C49.8577 52.0433 47.7187 54.5241 47.4375 55.237C47.1 56.0782 47.1844 56.7056 47.8313 57.1903C48.3094 57.561 49.1531 57.6181 50.0377 57.5468C51.6548 57.4327 52.7939 57.0335 53.3423 56.7769C54.3534 56.4093 55.309 55.9006 56.1816 55.2655C57.9394 53.9538 59.0081 52.0718 58.9097 49.5909C58.8534 48.2222 58.4175 46.8534 57.8831 45.5702C58.0378 45.3421 58.2066 45.0997 58.3613 44.8573C61.1442 40.7368 63.2958 36.2142 63.2958 36.2142C63.5063 37.4585 63.7975 38.6874 64.1677 39.8928C64.5052 41.0476 65.1647 42.3166 65.7694 43.557C63.1552 45.7099 61.538 48.2051 60.9755 49.8447C59.9348 52.8816 60.7505 54.2504 62.2833 54.564C62.9723 54.7066 63.9567 54.3787 64.688 54.065C65.774 53.6983 66.798 53.1645 67.7241 52.4824C69.4819 51.1707 71.182 49.3314 71.0695 46.8363C71.0273 45.7099 70.718 44.5836 70.3102 43.5C72.518 42.559 75.3853 42.0457 79.0416 42.4734C86.8716 43.4002 88.4044 48.3619 88.1091 50.4293C87.8137 52.4967 86.1684 53.6515 85.62 53.9937C85.0716 54.3359 84.9028 54.4642 84.945 54.7209C85.0153 55.0916 85.2684 55.0773 85.7325 54.9918C86.3794 54.8777 89.8373 53.3094 89.992 49.474C90.217 44.6263 85.62 39.2939 77.4764 39.3367L77.4806 39.3396ZM17.1272 59.9706C14.5411 62.8364 10.913 63.92 9.35344 63.0075C7.68001 62.0209 8.34094 57.8034 11.5317 54.7494C13.4723 52.8959 15.9741 51.1849 17.6334 50.1299C18.0131 49.9017 18.5616 49.5596 19.2366 49.1461C19.3491 49.0748 19.4053 49.0463 19.4053 49.0463C19.5319 48.9607 19.6725 48.8894 19.8131 48.8039C20.9789 53.1383 19.8553 56.9594 17.1272 59.9678V59.9706ZM36.0216 46.939C35.1216 49.1774 33.2245 54.8806 32.0714 54.5812C31.087 54.3245 30.4823 49.9759 31.8745 45.6985C32.5777 43.5456 34.0683 40.9792 34.9542 39.9812C36.3731 38.37 37.9341 37.8567 38.2997 38.4983C38.7919 39.3395 36.5841 45.5417 36.0216 46.939ZM51.6309 54.4956C51.2512 54.6952 50.8997 54.8235 50.7309 54.7237C50.6044 54.6524 50.8856 54.3815 50.8856 54.3815C50.8856 54.3815 52.8403 52.2571 53.6138 51.2876C54.0637 50.7173 54.5841 50.0472 55.1452 49.3058C55.1452 49.3771 55.1592 49.4483 55.1592 49.5339C55.1409 52.086 52.7236 53.8112 51.6267 54.4956H51.6309ZM63.6656 51.7153C63.3844 51.5157 63.4266 50.8456 64.3688 48.764C64.7344 47.9513 65.5767 46.5825 67.0406 45.2708C67.2063 45.7673 67.2964 46.2866 67.3078 46.8106C67.2937 50.0187 65.0297 51.2163 63.667 51.7153H63.6656Z" fill="#CD669A"/>
</svg>
