<svg width="176" height="22" viewBox="0 0 176 22" fill="none" xmlns="http://www.w3.org/2000/svg">
<path fill-rule="evenodd" clip-rule="evenodd" d="M18.1374 0C13.3008 0 10.2779 2.4 9.0687 7.2C10.8824 4.8 12.9985 3.9 15.4168 4.5C16.7966 4.842 17.7827 5.836 18.8743 6.93533C20.6525 8.72667 22.7107 10.8 27.2061 10.8C32.0427 10.8 35.0657 8.4 36.2748 3.6C34.4611 6 32.345 6.9 29.9267 6.3C28.5469 5.958 27.5608 4.964 26.4692 3.86467C24.6911 2.07333 22.6328 0 18.1374 0ZM9.0687 10.8C4.23206 10.8 1.20916 13.2 0 18C1.81374 15.6 3.92977 14.7 6.34809 15.3C7.72788 15.6427 8.71402 16.636 9.80562 17.7353C11.5838 19.5267 13.642 21.6 18.1374 21.6C22.974 21.6 25.9969 19.2 27.2061 14.4C25.3924 16.8 23.2763 17.7 20.858 17.1C19.4782 16.758 18.4921 15.764 17.4005 14.6647C15.6224 12.8733 13.5641 10.8 9.0687 10.8Z" fill="#38BDF8"/>
<path fill-rule="evenodd" clip-rule="evenodd" d="M54.4093 9.10125H51.244V15.1813C51.244 16.8026 52.3161 16.7773 54.4093 16.6759V19.1333C50.1719 19.6399 48.4871 18.4746 48.4871 15.1813V9.10125H46.1387V6.46656H48.4871V3.06389L51.244 2.25323V6.46656H54.4093V9.10125ZM66.4754 6.46656H69.2323V19.1333H66.4754V17.3093C65.5054 18.6519 63.9993 19.4626 62.0082 19.4626C58.5366 19.4626 55.6521 16.5493 55.6521 12.7999C55.6521 9.02525 58.5366 6.13723 62.0082 6.13723C63.9993 6.13723 65.5054 6.94792 66.4754 8.26525V6.46656ZM62.4422 16.8533C64.7396 16.8533 66.4754 15.1559 66.4754 12.7999C66.4754 10.4439 64.7396 8.74659 62.4422 8.74659C60.1448 8.74659 58.409 10.4439 58.409 12.7999C58.409 15.1559 60.1448 16.8533 62.4422 16.8533ZM73.8271 4.56656C72.8571 4.56656 72.0658 3.75589 72.0658 2.81856C72.0664 2.35523 72.2525 1.91113 72.5823 1.58351C72.9128 1.25589 73.3602 1.07144 73.8271 1.07056C74.294 1.07144 74.7414 1.25589 75.0719 1.58351C75.4017 1.91113 75.5878 2.35523 75.5884 2.81856C75.5884 3.75589 74.7971 4.56656 73.8271 4.56656ZM72.4487 19.1333V6.46656H75.2055V19.1333H72.4487ZM78.3964 19.1333V0.639893H81.1533V19.1333H78.3964ZM99.0475 6.46656H101.958L97.9498 19.1333H95.244L92.5892 10.5959L89.9089 19.1333H87.2031L83.1954 6.46656H86.1054L88.5815 15.2066L91.2618 6.46656H93.8911L96.5459 15.2066L99.0475 6.46656ZM105.378 4.56656C104.408 4.56656 103.617 3.75589 103.617 2.81856C103.617 2.35523 103.804 1.91113 104.133 1.58351C104.464 1.25589 104.911 1.07144 105.378 1.07056C105.845 1.07144 106.292 1.25589 106.623 1.58351C106.953 1.91113 107.139 2.35523 107.139 2.81856C107.139 3.75589 106.348 4.56656 105.378 4.56656ZM104 19.1333V6.46656H106.757V19.1333H104ZM116.661 6.13723C119.52 6.13723 121.562 8.06259 121.562 11.3559V19.1333H118.805V11.6346C118.805 9.70925 117.682 8.69592 115.946 8.69592C114.134 8.69592 112.704 9.75992 112.704 12.3439V19.1333H109.947V6.46656H112.704V8.08792C113.547 6.77059 114.925 6.13723 116.661 6.13723ZM134.632 1.39989H137.389V19.1333H134.632V17.3093C133.662 18.6519 132.156 19.4626 130.165 19.4626C126.693 19.4626 123.808 16.5493 123.808 12.7999C123.808 9.02525 126.693 6.13723 130.165 6.13723C132.156 6.13723 133.662 6.94792 134.632 8.26525V1.39989ZM130.599 16.8533C132.896 16.8533 134.632 15.1559 134.632 12.7999C134.632 10.4439 132.896 8.74659 130.599 8.74659C128.301 8.74659 126.565 10.4439 126.565 12.7999C126.565 15.1559 128.301 16.8533 130.599 16.8533ZM146.629 19.4626C142.775 19.4626 139.89 16.5493 139.89 12.7999C139.89 9.02525 142.775 6.13723 146.629 6.13723C149.131 6.13723 151.301 7.42925 152.322 9.40525L149.948 10.7733C149.386 9.58259 148.135 8.82259 146.604 8.82259C144.357 8.82259 142.647 10.5199 142.647 12.7999C142.647 15.0799 144.357 16.7773 146.604 16.7773C148.135 16.7773 149.386 15.9919 149.999 14.8266L152.373 16.1693C151.301 18.1706 149.131 19.4626 146.629 19.4626ZM156.917 9.96259C156.917 12.2679 163.783 10.8746 163.783 15.5613C163.783 18.0946 161.562 19.4626 158.806 19.4626C156.253 19.4626 154.415 18.3226 153.598 16.4986L155.972 15.1306C156.381 16.2706 157.402 16.9546 158.806 16.9546C160.031 16.9546 160.975 16.5493 160.975 15.5359C160.975 13.2813 154.109 14.5479 154.109 10.0133C154.109 7.63192 156.176 6.13723 158.78 6.13723C160.873 6.13723 162.609 7.09992 163.502 8.77192L161.18 10.0639C160.72 9.07592 159.827 8.61992 158.78 8.61992C157.784 8.61992 156.917 9.05059 156.917 9.96259ZM168.684 9.96259C168.684 12.2679 175.551 10.8746 175.551 15.5613C175.551 18.0946 173.33 19.4626 170.573 19.4626C168.021 19.4626 166.183 18.3226 165.366 16.4986L167.74 15.1306C168.148 16.2706 169.169 16.9546 170.573 16.9546C171.799 16.9546 172.743 16.5493 172.743 15.5359C172.743 13.2813 165.876 14.5479 165.876 10.0133C165.876 7.63192 167.944 6.13723 170.548 6.13723C172.641 6.13723 174.377 7.09992 175.27 8.77192L172.947 10.0639C172.488 9.07592 171.594 8.61992 170.548 8.61992C169.552 8.61992 168.684 9.05059 168.684 9.96259Z" fill="white"/>
</svg>
