<svg width="14" height="15" viewBox="0 0 14 15" fill="none" xmlns="http://www.w3.org/2000/svg">
<path d="M10.2422 4.82498C10.2311 4.84641 10.2373 4.86981 10.2373 4.89228C10.2369 6.65884 10.2375 8.42541 10.2368 10.192C10.2363 11.2865 9.88621 12.2737 9.16809 13.138C8.38671 14.0785 7.36907 14.6842 6.11579 14.9041C4.40456 15.2044 2.88999 14.7987 1.60931 13.6949C0.759678 12.9627 0.238963 12.0475 0.0669687 10.9771C-0.183737 9.41767 0.269601 8.04862 1.42474 6.89928C2.20401 6.12394 3.17283 5.66041 4.29584 5.48505C4.78305 5.40891 5.27288 5.4053 5.76345 5.45967C5.82112 5.46608 5.84316 5.48145 5.84304 5.54234C5.8403 6.38976 5.84117 7.23718 5.84117 8.0846C5.84117 8.16063 5.84154 8.15889 5.76557 8.142C4.89339 7.94709 4.12023 8.11499 3.47821 8.71231C3.07207 9.09025 2.85612 9.55728 2.82672 10.094C2.76757 11.1715 3.55157 12.1122 4.67769 12.3208C5.94566 12.5556 7.17702 11.7514 7.38401 10.5539C7.40319 10.4425 7.41303 10.3309 7.41303 10.2184C7.41303 6.83839 7.41303 3.45849 7.41303 0.0784777C7.41303 0.0269355 7.43989 0.00116436 7.49361 0.00116436C8.3831 0.00116436 9.27271 0.0016301 10.1622 0C10.2175 0 10.2373 0.00640396 10.2388 0.0662519C10.2803 1.67085 11.4283 3.02034 13.0851 3.41459C13.3652 3.4812 13.6499 3.51834 13.9393 3.51589C13.9912 3.51543 13.9996 3.5315 13.9996 3.57504C13.9984 4.38555 13.9981 5.19618 14 6.0068C14 6.05571 13.9824 6.06281 13.9367 6.06234C13.0604 6.0528 12.226 5.87395 11.4344 5.5222C11.0194 5.33788 10.6332 5.11013 10.2747 4.84151C10.2654 4.83464 10.258 4.82405 10.2422 4.82533V4.82498Z" fill="white"/>
</svg>
