<svg width="16" height="13" viewBox="0 0 16 13" fill="none" xmlns="http://www.w3.org/2000/svg">
<path d="M10.1751 11.5174C9.48215 11.9244 8.77871 12.3108 8.00088 12.5421C5.89933 13.166 3.81125 13.1752 1.73255 12.4282C1.12223 12.2089 0.541787 11.9439 0 11.5672C1.72435 11.6709 3.28997 11.2764 4.7279 10.1963C3.22554 10.0285 2.24095 9.2861 1.69448 7.93746C2.13611 7.91342 2.55314 8.00329 2.99184 7.8619C2.38913 7.62377 1.85613 7.33183 1.43735 6.87846C1.1152 6.53042 0.877988 6.13373 0.706373 5.68895C0.595087 5.3993 0.533001 5.11709 0.531244 4.81084C0.530073 4.6185 0.588644 4.60534 0.750888 4.67918C1.11169 4.8429 1.4842 4.97284 1.97269 4.95223C1.71439 4.70723 1.4801 4.5252 1.29677 4.30252C0.811216 3.71349 0.564044 3.03459 0.581616 2.27039C0.584544 2.13702 0.57693 2.00364 0.574587 1.87084C0.580444 1.81302 0.586301 1.7552 0.592159 1.69739C0.68763 1.41289 0.780173 1.12782 0.879159 0.845039C0.941831 0.664723 1.0291 0.620074 1.17202 0.792376C1.35359 1.0099 1.53165 1.23315 1.76593 1.40259C3.16755 2.7644 4.855 3.58183 6.7902 3.92243C7.02859 3.96421 7.274 3.96708 7.51473 4.00085C7.73906 4.03233 7.80759 3.95964 7.77421 3.73524C7.63012 2.76669 7.89721 1.90575 8.53154 1.15701C9.72991 -0.258035 11.9123 -0.395418 13.2829 0.85706C13.4275 0.989292 13.5564 1.02478 13.7514 0.976126C14.3664 0.822714 14.944 0.581721 15.491 0.288064C15.5865 0.36019 15.5303 0.420296 15.5045 0.475249C15.2661 0.980705 14.9709 1.44495 14.5117 1.79241C14.4549 1.83534 14.3741 1.87427 14.3823 1.96872C14.3536 1.97502 14.2973 1.96586 14.3178 2.01165C14.3325 2.04485 14.3776 2.02367 14.3992 1.99047C14.9363 1.96643 15.426 1.75291 16 1.56344C15.6093 2.16621 15.1771 2.62358 14.6728 3.00883C14.4607 3.17083 14.3793 3.33225 14.377 3.60072C14.3524 6.04672 13.5207 8.19677 11.873 10.044C11.5644 10.3903 11.2088 10.684 10.8785 11.0057C10.7778 11.0853 10.677 11.1642 10.5757 11.2432L10.4773 11.3148C10.455 11.3314 10.4334 11.3486 10.4111 11.3657C10.3121 11.3852 10.2506 11.4613 10.1762 11.5174H10.1751Z" fill="white"/>
</svg>
