<?xml version="1.0" encoding="utf-8"?>
<!-- Generator: Adobe Illustrator 24.0.0, SVG Export Plug-In . SVG Version: 6.00 Build 0)  -->
<svg version="1.1" id="Layer_1" xmlns="http://www.w3.org/2000/svg" xmlns:xlink="http://www.w3.org/1999/xlink" x="0px" y="0px"
	 viewBox="0 0 45 45" style="enable-background:new 0 0 45 45;" xml:space="preserve">
<g>
	<path d="M3.25,29.74H0.5l3.62-7.15h2.87l1.42,7.15H5.66l-0.1-0.89H3.6L3.25,29.74z M5.38,27.15l-0.1-1.26
		c-0.03-0.3-0.03-0.62-0.03-0.92h-0.1l-0.82,2.18H5.38z"/>
	<path d="M14.24,25.49c-0.36-0.39-0.83-0.72-1.41-0.72c-0.78,0-1.51,0.62-1.63,1.39c-0.13,0.79,0.45,1.4,1.23,1.4
		c0.6,0,1.11-0.26,1.59-0.66l-0.5,2.68c-0.45,0.2-1.43,0.29-1.9,0.29c-2.04,0-3.38-1.58-3.06-3.63c0.33-2.09,2.24-3.76,4.33-3.76
		c0.59,0,1.18,0.1,1.7,0.29L14.24,25.49z"/>
	<polygon points="15.3,22.58 20.76,22.58 20.39,24.91 18.97,24.84 18.2,29.74 15.6,29.74 16.37,24.84 14.93,24.91 	"/>
	<polygon points="21.18,22.58 23.78,22.58 22.65,29.74 20.05,29.74 	"/>
	<path d="M31.92,22.58l-3.9,7.15h-2.2l-1.64-7.15h2.71l0.43,3.26c0.05,0.35,0.07,0.7,0.01,1.06h0.06c0.06-0.36,0.19-0.71,0.35-1.06
		l1.47-3.26H31.92z"/>
	<path d="M38.65,26.18c-0.36,2.3-2.36,3.67-4.54,3.67c-2.18,0-3.74-1.38-3.38-3.67c0.36-2.25,2.37-3.71,4.54-3.71
		C37.46,22.47,39.01,23.93,38.65,26.18 M33.35,26.22c-0.13,0.82,0.33,1.38,1.12,1.38c0.79,0,1.43-0.56,1.56-1.38
		c0.12-0.76-0.29-1.4-1.12-1.4C34.08,24.82,33.47,25.46,33.35,26.22"/>
	<path d="M37.79,15.15c0,0,0.72-0.02,1.74,0.95c0.65,0.62,0.79,1.55,0.79,1.55s-0.86,0.02-1.2,0.13c-0.93,0.31-1.24,0.61-1.24,0.61
		s0.36-0.95,0.28-1.75C38.07,15.84,37.79,15.15,37.79,15.15"/>
	<path d="M37.24,19.14c0.7-0.27,2.16-0.56,3.65-0.49c2.19,0.1,3.62,0.93,3.62,0.93s-2.59,0.08-3.44,0.18
		c-1.32,0.17-2.47,0.44-2.47,0.44s1.03,1.06,1.39,2.16c0.42,1.29,0.16,2.45,0.16,2.45s-0.75-1.66-1.42-2.45
		c-0.54-0.64-1.74-1.7-1.74-1.7s-0.55,0.14-1.81,0.62c-1.27,0.48-2.49,1.31-2.49,1.31s0.81-1.3,1.93-2.05
		c0.73-0.49,1.16-0.79,1.16-0.79c-0.33-0.25-0.85-0.59-1.26-0.8c-0.7-0.37-2.93-1.36-2.93-1.36s1.57,0.04,3.18,0.51
		C36.4,18.58,37.24,19.14,37.24,19.14"/>
</g>
</svg>
