<?xml version="1.0" encoding="utf-8"?>
<!-- Generator: Adobe Illustrator 24.0.0, SVG Export Plug-In . SVG Version: 6.00 Build 0)  -->
<svg version="1.1" id="Layer_1" xmlns="http://www.w3.org/2000/svg" xmlns:xlink="http://www.w3.org/1999/xlink" x="0px" y="0px"
	 viewBox="0 0 90 90" style="enable-background:new 0 0 90 90;" xml:space="preserve">
<g>
	<path d="M7.9,39.4c1.7,0,3.1,1.4,3.2,3.2H9.5c0-0.9-0.7-1.6-1.6-1.6H3.2c-0.9,0-1.6,0.7-1.6,1.6v4.8c0,0.9,0.7,1.6,1.6,1.6h4.8
		c0.9,0,1.6-0.7,1.6-1.6h1.6c0,1.7-1.4,3.2-3.2,3.2H3.2c-1.7,0-3.2-1.4-3.2-3.2v-4.8c0-1.7,1.4-3.1,3.2-3.2H7.9z M23.4,50.6h-1.6
		v-3.2h-7.9v3.2h-1.6v-7.9c0-1.7,1.4-3.2,3.2-3.2h4.8c1.7,0,3.1,1.4,3.2,3.2L23.4,50.6L23.4,50.6z M15.5,41c-0.9,0-1.6,0.7-1.6,1.6
		v3.2h7.9v-3.2c0-0.9-0.7-1.6-1.6-1.6H15.5z M34.9,50.6l-3.2-3.2h-5.2v3.2h-1.6V39.4h7.9c1.7,0,3.2,1.4,3.2,3.2v1.6
		c0,1.4-0.9,2.6-2.2,3l2.2,2.2v1.1C36,50.6,34.9,50.6,34.9,50.6z M34.4,42.6c0-0.9-0.7-1.6-1.6-1.6h-6.4v4.8h6.4
		c0.9,0,1.6-0.7,1.6-1.6V42.6z M37.3,50.6V39.4h7.9c1.7,0,3.2,1.4,3.2,3.2c0,0.9-0.4,1.7-1.1,2.4c0.7,0.6,1.1,1.4,1.1,2.4
		c0,1.7-1.4,3.1-3.2,3.2H37.3z M38.9,44.2h6.4c0.9,0,1.6-0.7,1.6-1.6c0-0.9-0.7-1.6-1.6-1.6h-6.4V44.2z M38.9,45.8V49h6.4
		c0.9,0,1.6-0.7,1.6-1.6c0-0.9-0.7-1.6-1.6-1.6H38.9z M49.8,39.4h1.6v11.1h-1.6V39.4z M63.9,50.6h-1.6L54.4,42v8.5h-1.6V39.4h1.6
		l7.9,8.4v-8.4h1.6V50.6z M76.4,47.4c0,1.7-1.4,3.2-3.2,3.2h-4.8c-1.8,0-3.2-1.4-3.2-3.2v-4.8c0-1.7,1.4-3.2,3.2-3.2h4.8
		c1.7,0,3.2,1.4,3.2,3.2V47.4z M74.8,42.6c0-0.9-0.7-1.6-1.6-1.6h-4.8c-0.9,0-1.6,0.7-1.6,1.6v4.8c0,0.9,0.7,1.6,1.6,1.6h4.8
		c0.9,0,1.6-0.7,1.6-1.6V42.6z M90,42.2v-2.7h-1.5v1.7h-0.3v-1.7h-1.5v1.6l-3.2,2.4l-3.2-2.4v-1.6h-1.3v1.7h-0.3v-1.7h-1.6v2.7
		l4.2,2.8l-4.2,3.3v2.2h1.6V49h0.3v1.6h1.3v-1.4l3.2-2.4l3.2,2.4v1.4h1.5V49h0.3v1.6H90v-2.2L85.7,45L90,42.2z"/>
</g>
</svg>
