<?xml version="1.0" encoding="utf-8"?>
<!-- Generator: Adobe Illustrator 24.0.0, SVG Export Plug-In . SVG Version: 6.00 Build 0)  -->
<svg version="1.1" id="Layer_1" xmlns="http://www.w3.org/2000/svg" xmlns:xlink="http://www.w3.org/1999/xlink" x="0px" y="0px"
	 viewBox="0 0 45 45" style="enable-background:new 0 0 45 45;" xml:space="preserve">
<g>
	<path d="M4.49,19.8c0.83,0,1.52,0.69,1.54,1.54H5.26c0-0.42-0.35-0.77-0.77-0.77H2.17c-0.42,0-0.77,0.35-0.77,0.77v2.31
		c0,0.42,0.35,0.77,0.77,0.77h2.31c0.42,0,0.77-0.35,0.77-0.77h0.77c0,0.82-0.68,1.54-1.54,1.54H2.17c-0.83,0-1.54-0.67-1.54-1.54
		v-2.31c0-0.83,0.68-1.52,1.54-1.54H4.49z M12,25.2h-0.77v-1.54H7.37v1.54H6.6v-3.86c0-0.82,0.68-1.54,1.54-1.54h2.31
		c0.83,0,1.52,0.69,1.54,1.54V25.2z M8.14,20.57c-0.42,0-0.77,0.35-0.77,0.77v1.54h3.86v-1.54c0-0.42-0.35-0.77-0.77-0.77H8.14z
		 M17.57,25.2l-1.54-1.54h-2.54v1.54h-0.77v-5.4h3.86c0.81,0,1.54,0.69,1.54,1.54v0.77c0,0.66-0.43,1.25-1.07,1.47l1.07,1.07v0.55
		H17.57z M17.35,21.34c0-0.42-0.35-0.77-0.77-0.77h-3.09v2.31h3.09c0.42,0,0.77-0.35,0.77-0.77V21.34z M18.76,25.2v-5.4h3.86
		c0.81,0,1.54,0.69,1.54,1.54c0,0.46-0.18,0.85-0.52,1.16c0.35,0.31,0.52,0.69,0.52,1.16c0,0.83-0.68,1.52-1.54,1.54H18.76z
		 M19.54,22.11h3.09c0.42,0,0.77-0.35,0.77-0.77c0-0.42-0.35-0.77-0.77-0.77h-3.09V22.11z M19.54,22.89v1.54h3.09
		c0.42,0,0.77-0.35,0.77-0.77s-0.35-0.77-0.77-0.77H19.54z M24.81,19.8h0.77v5.4h-0.77V19.8z M31.7,25.2h-0.77l-3.86-4.15v4.15H26.3
		v-5.4h0.77l3.86,4.09V19.8h0.77V25.2z M37.75,23.66c0,0.85-0.69,1.54-1.54,1.54h-2.31c-0.86,0-1.54-0.69-1.54-1.54v-2.31
		c0-0.85,0.69-1.54,1.54-1.54h2.31c0.82,0,1.54,0.7,1.54,1.54V23.66z M36.97,21.34c0-0.42-0.35-0.77-0.77-0.77h-2.31
		c-0.42,0-0.77,0.35-0.77,0.77v2.31c0,0.42,0.35,0.77,0.77,0.77h2.31c0.42,0,0.77-0.35,0.77-0.77V21.34z M44.37,21.15l0-1.33h-0.71
		v0.82h-0.14v-0.82h-0.71l0,0.8l-1.54,1.16l-1.54-1.16l0-0.8h-0.63v0.82h-0.14v-0.82h-0.78l0,1.33l2.03,1.36l-2.03,1.6l0,1.09h0.78
		v-0.77h0.14v0.77h0.63l0-0.66l1.54-1.17l1.54,1.17l0,0.66h0.71v-0.77h0.14v0.77h0.71l0-1.09l-2.07-1.6L44.37,21.15z"/>
</g>
</svg>
