<?xml version="1.0" encoding="utf-8"?>
<!-- Generator: Adobe Illustrator 24.0.0, SVG Export Plug-In . SVG Version: 6.00 Build 0)  -->
<svg version="1.1" id="Layer_1" xmlns="http://www.w3.org/2000/svg" xmlns:xlink="http://www.w3.org/1999/xlink" x="0px" y="0px"
	 viewBox="0 0 45 45" style="enable-background:new 0 0 45 45;" xml:space="preserve">
<g>
	<path d="M2.92,28.38h-1.9L0.29,16.63h1.31l0.37,7.76l0.35-7.76h1.31L2.92,28.38z"/>
	<path d="M5.35,28.38H4.02V16.63h1.33V28.38z"/>
	<path d="M7.64,28.44H7.2c-0.37,0-0.67-0.13-0.92-0.38c-0.24-0.25-0.37-0.55-0.37-0.89v-9.32c0-0.35,0.12-0.65,0.37-0.91
		c0.25-0.25,0.55-0.38,0.91-0.38c0.3,0,0.68,0.02,0.84,0.06c0.16,0.04,0.32,0.14,0.49,0.31c0.24,0.26,0.37,0.56,0.39,0.91V22H7.59
		v-4.19H7.23v9.37h0.36v-4.63h1.33v4.62c0,0.34-0.13,0.64-0.38,0.89C8.29,28.31,7.99,28.44,7.64,28.44z"/>
	<path d="M11.45,28.38h-1.33V17.85H9.15v-1.22h3.26v1.22h-0.96V28.38z"/>
	<path d="M14.37,28.44c-0.3,0-0.7-0.02-0.86-0.06c-0.16-0.04-0.32-0.14-0.48-0.31c-0.26-0.24-0.38-0.54-0.38-0.9v-9.31
		c0-0.34,0.13-0.64,0.38-0.89c0.25-0.25,0.55-0.38,0.91-0.38h0.44c0.35,0,0.65,0.13,0.9,0.39c0.25,0.26,0.37,0.55,0.38,0.88v9.31
		c0,0.35-0.13,0.65-0.38,0.9C15.02,28.32,14.72,28.44,14.37,28.44z M14.33,27.19v-9.34h-0.37v9.34H14.33z"/>
	<path d="M19.08,28.38h-1.33v-5.15h-0.37v5.15h-1.31V16.63h1.82c0.33,0,0.61,0.12,0.85,0.36c0.23,0.24,0.35,0.54,0.35,0.9v3.92
		c0,0.42-0.25,0.72-0.57,0.89c0.32,0.11,0.57,0.41,0.57,0.91V28.38z M17.75,22.01v-4.13h-0.37v4.13H17.75z"/>
	<path d="M26.66,28.44c-0.3,0-0.7-0.02-0.86-0.06c-0.16-0.04-0.32-0.14-0.48-0.31c-0.26-0.24-0.38-0.54-0.38-0.9v-9.31
		c0-0.34,0.13-0.64,0.38-0.89c0.25-0.25,0.55-0.38,0.91-0.38h0.44c0.35,0,0.65,0.13,0.9,0.39c0.25,0.26,0.37,0.55,0.38,0.88v9.31
		c0,0.35-0.13,0.65-0.38,0.9C27.31,28.32,27.01,28.44,26.66,28.44z M26.61,27.19v-9.34h-0.37v9.34H26.61z"/>
	<path d="M43.42,28.44c-0.3,0-0.7-0.02-0.86-0.06c-0.16-0.04-0.32-0.14-0.48-0.31c-0.26-0.24-0.38-0.54-0.38-0.9v-9.31
		c0-0.34,0.13-0.64,0.38-0.89c0.25-0.25,0.55-0.38,0.91-0.38h0.44c0.35,0,0.65,0.13,0.9,0.39c0.25,0.26,0.37,0.55,0.38,0.88v9.31
		c0,0.35-0.13,0.65-0.38,0.9C44.08,28.32,43.77,28.44,43.42,28.44z M43.38,27.19v-9.34h-0.37v9.34H43.38z"/>
	<path d="M31.36,28.38h-1.33v-5.15h-0.37v5.15h-1.31V16.63h1.82c0.33,0,0.61,0.12,0.85,0.36c0.23,0.24,0.35,0.54,0.35,0.9v3.92
		c0,0.42-0.25,0.72-0.57,0.89c0.32,0.11,0.57,0.41,0.57,0.91V28.38z M30.03,22.01v-4.13h-0.37v4.13H30.03z"/>
	<path d="M22.84,28.38h-1.31V16.63h1.64c0.41,0,0.74,0.13,0.99,0.39c0.25,0.26,0.38,0.57,0.39,0.94v4.45c0,0.38-0.13,0.71-0.38,0.97
		c-0.26,0.26-0.56,0.4-0.9,0.4h-0.41V28.38z M23.2,22.52v-4.64h-0.37v4.64H23.2z"/>
	<path d="M33.15,28.38h-1.34V16.63h2.26v1.22h-0.91v4.01h0.91v1.28h-0.91V28.38z"/>
	<path d="M35.96,28.38h-1.33V16.63h1.33V28.38z"/>
	<path d="M38.21,28.38h-1.76V16.63h1.76c0.37,0,0.67,0.11,0.91,0.34c0.23,0.22,0.35,0.52,0.35,0.88v9.39c0,0.36-0.12,0.64-0.35,0.84
		C38.89,28.28,38.58,28.38,38.21,28.38z M38.14,27.12v-9.25h-0.37v9.25H38.14z"/>
	<path d="M41.27,28.38h-1.33V16.63h1.33V28.38z"/>
</g>
</svg>
