<?xml version="1.0" encoding="utf-8"?>
<!-- Generator: Adobe Illustrator 24.0.0, SVG Export Plug-In . SVG Version: 6.00 Build 0)  -->
<svg version="1.1" id="Layer_1" xmlns="http://www.w3.org/2000/svg" xmlns:xlink="http://www.w3.org/1999/xlink" x="0px" y="0px"
	 viewBox="0 0 45 45" style="enable-background:new 0 0 45 45;" xml:space="preserve">
<g>
	<path d="M11.91,23.62c0.05,0.13,0.12,0.24,0.22,0.31c0.1,0.07,0.25,0.11,0.43,0.11c0.19,0,0.39-0.09,0.59-0.27
		c0.2-0.18,0.4-0.41,0.6-0.69c0.2-0.28,0.38-0.58,0.56-0.92c0.18-0.33,0.34-0.66,0.49-0.97H14.7c-0.15,0.32-0.32,0.64-0.5,0.96
		c-0.18,0.32-0.37,0.62-0.56,0.88c-0.19,0.26-0.37,0.48-0.56,0.65c-0.19,0.17-0.36,0.26-0.52,0.26c-0.17,0-0.25-0.1-0.25-0.31
		c0-0.2,0.05-0.46,0.16-0.77c0.1-0.31,0.24-0.65,0.41-1.02c0.17-0.37,0.34-0.73,0.51-1.07c0.17-0.34,0.33-0.63,0.47-0.89
		c0.14-0.26,0.23-0.43,0.27-0.51h-0.77l-0.32,0.6c0.02-0.11,0.02-0.22,0.01-0.32c-0.01-0.11-0.03-0.21-0.07-0.29
		c-0.04-0.09-0.1-0.16-0.18-0.21c-0.08-0.05-0.18-0.08-0.31-0.08c-0.34,0-0.67,0.12-0.99,0.37c-0.32,0.25-0.6,0.55-0.85,0.92
		c-0.25,0.37-0.46,0.77-0.62,1.2c-0.16,0.43-0.26,0.83-0.3,1.2c-0.04,0.37,0,0.68,0.11,0.92c0.11,0.25,0.31,0.37,0.61,0.37
		c0.13,0,0.27-0.04,0.41-0.12c0.14-0.08,0.27-0.19,0.4-0.33c0.13-0.14,0.25-0.29,0.37-0.47c0.12-0.17,0.23-0.36,0.34-0.55
		c-0.05,0.21-0.08,0.4-0.09,0.58C11.85,23.34,11.86,23.49,11.91,23.62z M11.75,22.74c-0.13,0.22-0.27,0.41-0.41,0.59
		c-0.15,0.18-0.29,0.32-0.44,0.44c-0.15,0.11-0.3,0.17-0.45,0.17c-0.12,0-0.17-0.12-0.16-0.36c0.01-0.24,0.06-0.53,0.15-0.88
		c0.09-0.35,0.22-0.73,0.38-1.15c0.16-0.42,0.34-0.8,0.53-1.15c0.19-0.35,0.39-0.64,0.59-0.88c0.2-0.24,0.39-0.36,0.56-0.36
		c0.19,0,0.32,0.06,0.38,0.19c0.06,0.12,0.08,0.28,0.06,0.47c-0.02,0.19-0.07,0.4-0.15,0.64c-0.08,0.23-0.16,0.46-0.26,0.67
		c-0.09,0.22-0.18,0.41-0.26,0.58c-0.08,0.17-0.14,0.29-0.16,0.37C11.99,22.31,11.88,22.52,11.75,22.74z M35.83,18.34
		c0.1,0,0.18,0.04,0.24,0.11c0.06,0.07,0.09,0.16,0.07,0.26c-0.02,0.1-0.07,0.19-0.15,0.26c-0.08,0.07-0.17,0.11-0.27,0.11
		c-0.09,0-0.17-0.04-0.23-0.11c-0.06-0.07-0.09-0.16-0.07-0.26c0.02-0.1,0.07-0.18,0.15-0.26C35.65,18.37,35.74,18.34,35.83,18.34z
		 M44.15,21.19c-0.09,0.2-0.22,0.45-0.39,0.76c-0.17,0.31-0.37,0.61-0.59,0.9c-0.22,0.3-0.45,0.55-0.7,0.76
		c-0.25,0.21-0.49,0.32-0.73,0.32c-0.19,0-0.32-0.08-0.39-0.23c-0.07-0.15-0.1-0.36-0.09-0.6c0.01-0.25,0.06-0.53,0.14-0.84
		c0.08-0.31,0.19-0.63,0.31-0.94c0.32-0.01,0.61-0.07,0.87-0.18c0.25-0.11,0.47-0.25,0.64-0.42c0.17-0.17,0.31-0.35,0.41-0.54
		c0.1-0.2,0.15-0.38,0.16-0.54c0.01-0.17-0.02-0.3-0.09-0.41c-0.07-0.11-0.19-0.16-0.35-0.16c-0.39,0-0.75,0.12-1.08,0.37
		c-0.33,0.25-0.61,0.56-0.85,0.92c-0.18,0.29-0.34,0.59-0.46,0.92c-0.09,0.19-0.2,0.41-0.33,0.68c-0.15,0.31-0.33,0.61-0.53,0.9
		c-0.2,0.3-0.42,0.55-0.65,0.77c-0.23,0.22-0.47,0.32-0.72,0.32c-0.14,0-0.21-0.07-0.21-0.21c0-0.14,0.04-0.33,0.11-0.56
		c0.07-0.23,0.18-0.49,0.31-0.78c0.13-0.29,0.26-0.59,0.39-0.9c0.13-0.31,0.24-0.61,0.34-0.9c0.1-0.29,0.15-0.55,0.17-0.78
		c0.02-0.23-0.02-0.41-0.12-0.56c-0.1-0.14-0.28-0.21-0.55-0.21c-0.15,0-0.3,0.05-0.46,0.14c-0.15,0.1-0.3,0.23-0.44,0.39
		c-0.14,0.17-0.28,0.36-0.42,0.58c-0.14,0.22-0.27,0.45-0.4,0.69l0.6-1.5h-0.77c-0.23,0.59-0.46,1.2-0.71,1.82
		c-0.16,0.32-0.33,0.63-0.51,0.96c-0.18,0.32-0.37,0.62-0.56,0.88c-0.19,0.26-0.37,0.48-0.56,0.65c-0.19,0.17-0.36,0.26-0.52,0.26
		c-0.17,0-0.25-0.1-0.25-0.31c0-0.2,0.05-0.46,0.16-0.77c0.1-0.31,0.24-0.65,0.41-1.02c0.17-0.37,0.34-0.73,0.51-1.07
		c0.17-0.34,0.33-0.63,0.47-0.89c0.14-0.26,0.23-0.43,0.27-0.51h-0.77c-0.05,0.1-0.15,0.28-0.29,0.55
		c-0.14,0.27-0.29,0.57-0.46,0.92c-0.07,0.14-0.13,0.29-0.19,0.44c-0.09,0.19-0.21,0.42-0.36,0.69c-0.17,0.31-0.36,0.61-0.57,0.9
		c-0.21,0.29-0.44,0.54-0.69,0.75c-0.25,0.21-0.5,0.32-0.76,0.32c-0.22,0-0.33-0.14-0.35-0.41c-0.02-0.27,0.04-0.63,0.16-1.07
		c0.12-0.44,0.3-0.94,0.54-1.49c0.23-0.55,0.49-1.11,0.76-1.68c0.3-0.18,0.62-0.41,0.96-0.69c0.34-0.28,0.66-0.57,0.95-0.89
		c0.29-0.31,0.53-0.63,0.72-0.95c0.19-0.32,0.29-0.62,0.3-0.89c0-0.14-0.03-0.25-0.1-0.34c-0.07-0.08-0.17-0.12-0.31-0.12
		c-0.22,0-0.47,0.12-0.77,0.37c-0.3,0.25-0.6,0.57-0.93,0.98c-0.32,0.41-0.65,0.87-0.97,1.38c-0.32,0.52-0.61,1.04-0.87,1.58
		c-0.25,0.52-0.46,1.03-0.64,1.54c-0.14,0.3-0.3,0.59-0.47,0.9c-0.18,0.32-0.37,0.62-0.56,0.88c-0.19,0.26-0.37,0.48-0.56,0.65
		c-0.19,0.17-0.36,0.26-0.52,0.26c-0.17,0-0.25-0.1-0.25-0.31c0-0.2,0.05-0.46,0.16-0.77c0.1-0.31,0.24-0.65,0.41-1.02
		c0.17-0.37,0.34-0.73,0.51-1.07c0.17-0.34,0.33-0.63,0.47-0.89c0.14-0.26,0.23-0.43,0.27-0.51h-0.77l-0.32,0.6
		c0.02-0.11,0.02-0.22,0.01-0.32c-0.01-0.11-0.03-0.21-0.07-0.29c-0.04-0.09-0.1-0.16-0.18-0.21c-0.08-0.05-0.18-0.08-0.31-0.08
		c-0.34,0-0.67,0.12-0.99,0.37c-0.32,0.25-0.6,0.55-0.85,0.92c-0.22,0.32-0.4,0.66-0.55,1.03c-0.07,0.14-0.15,0.31-0.26,0.52
		c-0.15,0.3-0.33,0.6-0.52,0.9c-0.2,0.3-0.4,0.56-0.61,0.79c-0.21,0.23-0.42,0.34-0.62,0.34c-0.2,0.01-0.31-0.08-0.34-0.26
		c-0.03-0.18,0-0.42,0.08-0.7c0.08-0.29,0.19-0.6,0.34-0.95c0.15-0.35,0.3-0.68,0.45-0.99c0.15-0.32,0.28-0.6,0.39-0.85
		c0.11-0.25,0.17-0.43,0.18-0.53c0.02-0.21-0.04-0.38-0.18-0.51c-0.17-0.17-0.57-0.21-0.93-0.24h-0.11l-0.05,0.11
		c-0.14,0.4-0.3,0.79-0.48,1.17c-0.18,0.38-0.36,0.76-0.54,1.13h0.11c0.18-0.38,0.36-0.76,0.54-1.13c0.18-0.37,0.34-0.75,0.48-1.15
		c0.17,0.06,0.43,0.14,0.43,0.45c0,0.14-0.06,0.35-0.17,0.64c-0.11,0.28-0.24,0.59-0.38,0.93c-0.14,0.34-0.27,0.68-0.4,1.04
		c-0.12,0.36-0.2,0.68-0.23,0.97c-0.03,0.29,0.01,0.52,0.12,0.71c0.11,0.19,0.33,0.28,0.66,0.28c0.15,0,0.3-0.05,0.45-0.16
		c0.15-0.11,0.3-0.25,0.44-0.42c0.15-0.17,0.29-0.36,0.42-0.58c0.14-0.22,0.26-0.43,0.37-0.64c0.03-0.06,0.07-0.12,0.1-0.19
		c-0.07,0.24-0.11,0.48-0.13,0.7c-0.04,0.37,0,0.68,0.11,0.92c0.11,0.25,0.31,0.37,0.61,0.37c0.13,0,0.27-0.04,0.41-0.12
		c0.14-0.08,0.27-0.19,0.4-0.33c0.13-0.14,0.25-0.29,0.37-0.47c0.12-0.17,0.23-0.36,0.34-0.55c-0.05,0.21-0.08,0.4-0.09,0.58
		c-0.01,0.18,0,0.33,0.05,0.47c0.05,0.13,0.12,0.24,0.22,0.31c0.1,0.07,0.25,0.11,0.43,0.11c0.19,0,0.39-0.09,0.59-0.27
		c0.2-0.18,0.4-0.41,0.6-0.69c0.2-0.28,0.38-0.58,0.56-0.92c0.06-0.11,0.12-0.22,0.17-0.33c-0.08,0.31-0.14,0.6-0.16,0.86
		c-0.04,0.4,0.01,0.73,0.14,0.98c0.13,0.25,0.38,0.37,0.74,0.37c0.28,0,0.55-0.11,0.81-0.32c0.26-0.22,0.49-0.47,0.71-0.77
		c0.19-0.27,0.37-0.55,0.53-0.83c-0.1,0.3-0.17,0.59-0.21,0.85c-0.04,0.32-0.02,0.58,0.07,0.78c0.09,0.2,0.29,0.31,0.6,0.31
		c0.19-0.01,0.39-0.1,0.59-0.28c0.2-0.18,0.41-0.41,0.6-0.69c0.2-0.28,0.39-0.58,0.56-0.91c-0.2,0.53-0.39,1.05-0.58,1.57h0.74
		c0.07-0.17,0.16-0.41,0.27-0.7c0.12-0.3,0.25-0.61,0.39-0.95c0.15-0.34,0.3-0.68,0.47-1.03c0.17-0.34,0.35-0.66,0.54-0.94
		c0.19-0.28,0.38-0.51,0.57-0.68c0.2-0.17,0.39-0.26,0.58-0.26c0.12,0,0.17,0.07,0.16,0.21c-0.01,0.14-0.05,0.33-0.13,0.56
		c-0.08,0.23-0.18,0.49-0.31,0.78c-0.13,0.29-0.26,0.59-0.38,0.9c-0.12,0.31-0.23,0.61-0.32,0.9c-0.09,0.29-0.14,0.55-0.15,0.78
		c-0.01,0.23,0.04,0.41,0.14,0.55c0.1,0.14,0.29,0.21,0.56,0.21c0.27,0,0.54-0.11,0.79-0.32c0.25-0.22,0.48-0.48,0.68-0.78
		c0.2-0.3,0.39-0.62,0.55-0.94c0.02-0.03,0.03-0.06,0.04-0.09c-0.06,0.3-0.09,0.58-0.09,0.84c0.01,0.37,0.1,0.67,0.27,0.92
		c0.17,0.25,0.43,0.37,0.78,0.37c0.26,0,0.52-0.11,0.78-0.32c0.26-0.22,0.51-0.48,0.73-0.78c0.22-0.3,0.43-0.62,0.6-0.94
		c0.18-0.32,0.32-0.59,0.42-0.81H44.15z M42.13,20.44c0.14-0.24,0.27-0.46,0.41-0.64c0.14-0.19,0.27-0.34,0.41-0.46
		c0.14-0.12,0.27-0.17,0.39-0.17c0.12,0,0.21,0.05,0.27,0.14c0.05,0.1,0.07,0.22,0.06,0.37c-0.02,0.15-0.07,0.31-0.16,0.48
		c-0.09,0.17-0.22,0.33-0.37,0.49c-0.16,0.15-0.35,0.28-0.59,0.39c-0.23,0.1-0.49,0.16-0.79,0.17C41.87,20.94,42,20.69,42.13,20.44z
		 M33.32,18.64c0.11-0.21,0.24-0.45,0.39-0.71c0.15-0.26,0.3-0.54,0.47-0.82c0.17-0.29,0.34-0.55,0.51-0.79
		c0.17-0.24,0.33-0.43,0.47-0.59c0.15-0.15,0.27-0.23,0.37-0.23c0.11,0,0.18,0.04,0.22,0.11c0.04,0.07,0.06,0.16,0.06,0.25
		c0,0.25-0.09,0.52-0.27,0.82c-0.18,0.3-0.4,0.59-0.67,0.88c-0.27,0.29-0.56,0.57-0.88,0.84c-0.32,0.27-0.63,0.49-0.92,0.69
		C33.13,19,33.2,18.85,33.32,18.64z M28.78,22.09c-0.11,0.22-0.23,0.43-0.36,0.65c-0.13,0.22-0.27,0.41-0.41,0.59
		c-0.15,0.18-0.29,0.32-0.44,0.44c-0.15,0.11-0.3,0.17-0.45,0.17c-0.12,0-0.17-0.12-0.16-0.36c0.01-0.24,0.06-0.53,0.15-0.88
		c0.09-0.35,0.22-0.73,0.38-1.15c0.16-0.42,0.34-0.8,0.53-1.15c0.19-0.35,0.39-0.64,0.59-0.88c0.2-0.24,0.39-0.36,0.56-0.36
		c0.19,0,0.32,0.06,0.38,0.19c0.06,0.12,0.08,0.28,0.06,0.47c-0.02,0.19-0.07,0.4-0.15,0.64c-0.08,0.23-0.16,0.46-0.26,0.67
		c-0.09,0.22-0.18,0.41-0.26,0.58C28.86,21.89,28.81,22.02,28.78,22.09z M24.52,26.23c-0.65,0.08-1.3,0.07-1.95-0.02
		c-0.65-0.09-1.28-0.26-1.89-0.49c-0.61-0.23-1.19-0.54-1.71-0.94c-0.1-0.08-0.2-0.15-0.29-0.23c0.37-0.33,0.71-0.69,1.03-1.07
		c0.3-0.36,0.57-0.74,0.82-1.13c0.25-0.38,0.51-0.76,0.75-1.16c0.49-0.79,0.92-1.61,1.34-2.43c0.14-0.28,0.28-0.56,0.42-0.84
		c1.22-0.01,2.44,0.01,3.67-0.11c0.68-0.06,1.36-0.17,2.04-0.37c0.67-0.21,1.34-0.54,1.86-1.09c0.26-0.27,0.47-0.58,0.63-0.92
		c0.04-0.08,0.08-0.17,0.11-0.26c0.03-0.09,0.07-0.17,0.09-0.26c0.05-0.18,0.09-0.37,0.11-0.56c0.04-0.38,0-0.77-0.12-1.13
		c-0.12-0.36-0.32-0.69-0.56-0.96c-0.48-0.56-1.08-0.93-1.69-1.24c-0.47-0.24-0.95-0.41-1.44-0.59c0.24-0.15,0.5-0.27,0.76-0.38
		c0.21-0.08,0.42-0.16,0.64-0.22c0.22-0.06,0.43-0.11,0.65-0.13c0.44-0.05,0.9-0.01,1.33,0.1c0.43,0.11,0.85,0.3,1.21,0.57
		c0.36,0.27,0.66,0.62,0.85,1.03l0,0l0,0c0.12,0.21,0.22,0.44,0.29,0.68c0.07,0.24,0.13,0.48,0.15,0.73
		c0.02,0.25,0.03,0.5,0.01,0.74c0,0.12-0.03,0.25-0.04,0.37c-0.02,0.12-0.05,0.24-0.07,0.36l0.16,0.03
		c0.04-0.25,0.07-0.51,0.08-0.76c0.01-0.26-0.01-0.51-0.03-0.76c-0.03-0.25-0.09-0.5-0.16-0.75c-0.08-0.24-0.17-0.48-0.3-0.7
		c-0.2-0.42-0.5-0.79-0.87-1.07c-0.37-0.29-0.79-0.49-1.24-0.62c-0.45-0.13-0.92-0.19-1.39-0.16c-0.23,0.01-0.47,0.05-0.7,0.1
		c-0.23,0.05-0.45,0.11-0.68,0.17c-0.39,0.12-0.78,0.28-1.14,0.48c-0.64-0.14-1.28-0.25-1.93-0.29C24.66,9.91,24,9.92,23.34,9.99
		c-1.31,0.14-2.62,0.51-3.79,1.19c-1.16,0.67-2.15,1.67-2.8,2.87c-0.16,0.3-0.3,0.61-0.42,0.92c-0.12,0.32-0.27,0.64-0.35,0.97
		c-0.16,0.66-0.26,1.32-0.32,1.99c-0.11,1.34,0.14,2.72,0.7,3.94c0.44,0.99,1.11,1.85,1.93,2.54c-0.26,0.24-0.54,0.47-0.83,0.68
		c-0.73,0.51-1.56,0.9-2.44,1.08c-0.44,0.09-0.89,0.14-1.34,0.13c-0.45-0.01-0.9-0.08-1.34-0.19c-0.44-0.11-0.87-0.25-1.29-0.43
		l-1.26-0.55C9,24.78,8.21,24.45,7.43,24.09c0.4-0.59,0.73-1.22,1-1.87c0.54-1.34,0.87-2.71,1.25-4.06c0.05,0,0.11,0,0.16,0
		c0.47-0.01,0.93-0.08,1.38-0.19c0.9-0.23,1.75-0.64,2.48-1.22c0.36-0.29,0.7-0.62,0.95-1.02c0.25-0.39,0.41-0.86,0.39-1.33
		c-0.02-0.47-0.19-0.95-0.54-1.28c-0.35-0.33-0.87-0.45-1.33-0.38c-0.47,0.06-0.91,0.3-1.26,0.6c-0.36,0.3-0.65,0.67-0.92,1.04
		c-0.54,0.75-0.99,1.57-1.37,2.42c-0.16,0.36-0.31,0.72-0.45,1.08c-0.22-0.02-0.44-0.05-0.66-0.09c-0.89-0.15-1.77-0.41-2.68-0.6
		c-0.91-0.19-1.89-0.24-2.83,0.01c-0.47,0.13-0.93,0.35-1.32,0.67c-0.19,0.16-0.37,0.35-0.51,0.56c-0.15,0.21-0.25,0.45-0.32,0.69
		c-0.14,0.49-0.13,0.99-0.03,1.46c0.11,0.47,0.31,0.91,0.61,1.28c0.3,0.37,0.71,0.64,1.14,0.8c0.44,0.17,0.91,0.23,1.37,0.18
		c0.46-0.05,0.92-0.22,1.29-0.5c0.37-0.29,0.66-0.67,0.85-1.1l-0.15-0.06c-0.15,0.42-0.42,0.79-0.76,1.08
		c-0.35,0.28-0.79,0.44-1.23,0.48c-0.89,0.09-1.83-0.28-2.37-0.99c-0.27-0.35-0.42-0.78-0.45-1.22c-0.03-0.43,0.05-0.86,0.21-1.24
		c0.16-0.38,0.41-0.7,0.73-0.97c0.32-0.26,0.69-0.45,1.1-0.58c0.4-0.14,0.84-0.21,1.28-0.23c0.44-0.03,0.88,0,1.33,0.06
		c0.89,0.11,1.78,0.36,2.7,0.49c0.2,0.03,0.4,0.05,0.6,0.07c-0.48,1.28-0.86,2.57-1.33,3.81c-0.24,0.65-0.49,1.3-0.8,1.91
		c-0.3-0.14-0.6-0.27-0.91-0.39c-0.44-0.16-0.91-0.25-1.38-0.26c-0.24,0-0.47,0-0.72,0.04c-0.24,0.04-0.49,0.11-0.72,0.23
		c-0.23,0.12-0.44,0.3-0.59,0.53c-0.15,0.23-0.24,0.52-0.21,0.8c0.01,0.14,0.04,0.27,0.08,0.4c0.05,0.13,0.12,0.25,0.2,0.35
		c0.16,0.21,0.37,0.37,0.6,0.47c0.46,0.21,0.95,0.23,1.41,0.15c0.47-0.08,0.91-0.28,1.3-0.55c0.39-0.27,0.73-0.61,1.03-0.98
		c0.11-0.14,0.22-0.28,0.32-0.43c0.79,0.35,1.6,0.68,2.39,1.02l1.25,0.56c0.42,0.18,0.86,0.34,1.3,0.46
		c0.89,0.24,1.84,0.29,2.76,0.12c0.91-0.17,1.79-0.52,2.58-1.03c0.33-0.21,0.65-0.45,0.95-0.71c0.11,0.08,0.22,0.16,0.33,0.24
		c0.55,0.36,1.13,0.68,1.74,0.93c0.61,0.24,1.25,0.41,1.91,0.5c0.65,0.09,1.32,0.1,1.97,0.02c0.65-0.08,1.3-0.27,1.88-0.59
		l-0.04-0.08C25.8,25.97,25.17,26.15,24.52,26.23z M10.04,16.96c0.29-0.86,0.63-1.7,1.12-2.46c0.24-0.38,0.52-0.74,0.85-1.04
		c0.33-0.3,0.73-0.52,1.17-0.58c0.43-0.07,0.9,0.03,1.22,0.33c0.32,0.3,0.49,0.74,0.5,1.18c0.02,0.44-0.14,0.88-0.38,1.25
		c-0.24,0.38-0.57,0.7-0.92,0.97c-0.72,0.55-1.56,0.93-2.43,1.13c-0.44,0.1-0.89,0.15-1.34,0.15c-0.03,0-0.06,0-0.08,0
		C9.84,17.59,9.94,17.28,10.04,16.96z M6.64,24.38c-0.22,0.38-0.49,0.74-0.82,1.03c-0.33,0.29-0.73,0.51-1.16,0.6
		c-0.43,0.1-0.9,0.03-1.25-0.21c-0.35-0.24-0.53-0.63-0.51-1c0-0.18,0.06-0.35,0.15-0.5c0.1-0.15,0.23-0.29,0.39-0.41
		c0.32-0.24,0.75-0.37,1.19-0.42c0.44-0.05,0.88,0.03,1.31,0.18c0.3,0.1,0.6,0.22,0.9,0.35C6.78,24.13,6.71,24.26,6.64,24.38z
		 M29.06,11.22c0.55,0.37,1.05,0.82,1.39,1.35c0.34,0.53,0.48,1.12,0.39,1.7c-0.04,0.29-0.14,0.58-0.26,0.86
		c-0.13,0.27-0.29,0.53-0.48,0.76c-0.39,0.46-0.93,0.82-1.52,1.08c-0.59,0.26-1.24,0.44-1.9,0.56c-1.17,0.2-2.36,0.25-3.55,0.25
		c0.04-0.08,0.08-0.16,0.11-0.23l0.3-0.62l0.29-0.63c0.38-0.83,0.74-1.67,1.13-2.47c0.4-0.8,0.83-1.58,1.41-2.24
		c0.29-0.33,0.61-0.64,0.96-0.89c0.09-0.06,0.18-0.12,0.27-0.18C28.12,10.66,28.61,10.93,29.06,11.22z M16.7,21.72
		c-0.46-1.2-0.61-2.5-0.52-3.77c0.09-1.28,0.49-2.54,1.06-3.66c0.56-1.13,1.44-2.11,2.53-2.79c1.08-0.69,2.34-1.1,3.62-1.29
		c0.64-0.09,1.29-0.13,1.94-0.11c0.59,0.02,1.2,0.07,1.76,0.25c-0.4,0.24-0.77,0.52-1.1,0.84c-0.68,0.67-1.22,1.46-1.67,2.27
		c-0.46,0.81-0.85,1.65-1.22,2.48l-1.13,2.49c-0.38,0.83-0.75,1.66-1.18,2.45c-0.22,0.4-0.45,0.79-0.68,1.18
		c-0.23,0.39-0.47,0.76-0.74,1.12c-0.29,0.39-0.61,0.75-0.96,1.09C17.64,23.57,17.05,22.69,16.7,21.72z M13.02,30.03l0.1,0.05
		l-0.01,0.03c-0.03,0.07-0.06,0.13-0.1,0.19c-0.04,0.06-0.09,0.11-0.14,0.15c-0.05,0.04-0.11,0.07-0.18,0.1
		c-0.07,0.02-0.14,0.03-0.22,0.03c-0.12,0-0.23-0.02-0.32-0.07c-0.09-0.05-0.17-0.11-0.23-0.19c-0.06-0.08-0.11-0.17-0.14-0.27
		c-0.03-0.1-0.05-0.21-0.05-0.31c0-0.1,0.01-0.2,0.04-0.3c0.03-0.1,0.07-0.19,0.13-0.27c0.06-0.08,0.13-0.14,0.22-0.19
		c0.09-0.05,0.19-0.08,0.3-0.08c0.06,0,0.11,0.01,0.16,0.02c0.04,0.01,0.09,0.02,0.14,0.04l0.09-0.03c0.02-0.01,0.05-0.01,0.07,0.01
		c0.02,0.01,0.03,0.03,0.04,0.05l0.12,0.32c0,0.01,0,0.02,0,0.02c0,0.01,0,0.04-0.04,0.05c-0.01,0-0.02,0.01-0.02,0.01
		c-0.02,0-0.04-0.01-0.05-0.03c-0.03-0.04-0.07-0.09-0.1-0.13c-0.04-0.04-0.08-0.08-0.12-0.1c-0.04-0.03-0.09-0.05-0.14-0.07
		c-0.05-0.02-0.1-0.03-0.16-0.03c-0.08,0-0.16,0.02-0.21,0.07c-0.06,0.05-0.11,0.1-0.14,0.17c-0.04,0.07-0.06,0.15-0.08,0.23
		c-0.02,0.08-0.02,0.16-0.02,0.24c0,0.08,0.01,0.17,0.03,0.25c0.02,0.08,0.06,0.15,0.1,0.21c0.04,0.06,0.1,0.11,0.17,0.15
		c0.07,0.04,0.15,0.06,0.24,0.06c0.06,0,0.11-0.01,0.16-0.02c0.05-0.02,0.09-0.04,0.13-0.07c0.04-0.03,0.07-0.07,0.11-0.11
		c0.03-0.04,0.06-0.09,0.09-0.14L13.02,30.03z M15.27,29.12c0.01-0.01,0.01-0.02,0.02-0.03c0.01-0.01,0.03-0.01,0.04-0.01
		c0.02,0,0.04-0.01,0.07-0.01c0.04,0,0.06-0.03,0.06-0.06c0-0.04-0.03-0.06-0.06-0.06h-0.52c-0.04,0-0.06,0.03-0.06,0.06
		c0,0.04,0.03,0.06,0.06,0.06c0.02,0,0.04,0,0.06,0c0.02,0,0.03,0.01,0.05,0.01c0.01,0.01,0.02,0.01,0.03,0.02
		c0,0.01,0.01,0.02,0.01,0.05v0.48h-0.77v-0.47c0-0.03,0.01-0.05,0.01-0.06c0.01-0.01,0.01-0.02,0.02-0.03
		c0.01-0.01,0.03-0.01,0.04-0.01c0.02,0,0.04-0.01,0.07-0.01c0.04,0,0.06-0.03,0.06-0.06c0-0.04-0.03-0.06-0.06-0.06h-0.52
		c-0.04,0-0.06,0.03-0.06,0.06c0,0.04,0.03,0.06,0.06,0.06c0.02,0,0.04,0,0.06,0c0.02,0,0.03,0.01,0.05,0.01
		c0.01,0.01,0.02,0.01,0.03,0.02c0,0.01,0.01,0.02,0.01,0.05v1.16c0,0.03,0,0.04-0.01,0.06c-0.01,0.01-0.01,0.02-0.02,0.03
		c-0.01,0.01-0.03,0.01-0.04,0.02c-0.02,0-0.05,0.01-0.07,0.01c-0.04,0-0.06,0.03-0.06,0.06c0,0.04,0.03,0.06,0.06,0.06h0.52
		c0.04,0,0.06-0.03,0.06-0.06c0-0.04-0.03-0.06-0.06-0.06c0,0,0,0,0,0c-0.03,0-0.05,0-0.07-0.01c-0.02,0-0.03-0.01-0.04-0.02
		c-0.01-0.01-0.02-0.01-0.02-0.03c0-0.01-0.01-0.03-0.01-0.06v-0.54h0.77v0.54c0,0.03,0,0.04-0.01,0.06
		c-0.01,0.01-0.01,0.02-0.02,0.03c-0.01,0.01-0.03,0.01-0.04,0.02c-0.02,0-0.05,0.01-0.07,0.01c-0.04,0-0.06,0.03-0.06,0.06
		c0,0.04,0.03,0.06,0.06,0.06h0.52c0.04,0,0.06-0.03,0.06-0.06c0-0.04-0.03-0.06-0.06-0.06c0,0,0,0,0,0c-0.03,0-0.05,0-0.07-0.01
		c-0.02,0-0.03-0.01-0.04-0.02c-0.01-0.01-0.02-0.01-0.02-0.03c0-0.01-0.01-0.03-0.01-0.06v-1.15
		C15.26,29.14,15.27,29.13,15.27,29.12z M17.61,29.43c0.03,0.1,0.04,0.21,0.04,0.31c0,0.11-0.01,0.21-0.04,0.31
		c-0.03,0.1-0.08,0.19-0.13,0.27c-0.06,0.08-0.14,0.14-0.23,0.19c-0.09,0.05-0.2,0.07-0.31,0.07c-0.12,0-0.22-0.02-0.31-0.07
		c-0.09-0.05-0.16-0.11-0.22-0.19c-0.06-0.08-0.1-0.17-0.13-0.27c-0.03-0.1-0.04-0.2-0.04-0.3c0-0.1,0.01-0.21,0.04-0.31
		c0.03-0.1,0.07-0.19,0.13-0.27c0.06-0.08,0.13-0.15,0.22-0.19c0.09-0.05,0.19-0.07,0.31-0.07c0.12,0,0.23,0.02,0.32,0.07
		c0.09,0.05,0.17,0.11,0.23,0.19C17.54,29.24,17.58,29.33,17.61,29.43z M16.66,30.35c0.03,0.03,0.07,0.06,0.12,0.08
		c0.04,0.02,0.1,0.03,0.16,0.03c0.09,0,0.17-0.02,0.23-0.06c0.06-0.04,0.11-0.1,0.15-0.17c0.04-0.07,0.07-0.15,0.08-0.23
		c0.02-0.08,0.03-0.17,0.03-0.25c0-0.08-0.01-0.16-0.03-0.25c-0.02-0.08-0.04-0.16-0.08-0.23c-0.04-0.07-0.09-0.13-0.15-0.17
		c-0.06-0.04-0.14-0.06-0.23-0.06c-0.06,0-0.11,0.01-0.15,0.03c-0.05,0.02-0.09,0.05-0.12,0.08c-0.03,0.04-0.06,0.08-0.09,0.12
		c-0.02,0.05-0.04,0.1-0.06,0.15c-0.02,0.05-0.03,0.11-0.03,0.16c-0.01,0.06-0.01,0.11-0.01,0.16s0,0.1,0.01,0.16
		c0.01,0.06,0.02,0.11,0.03,0.16c0.02,0.05,0.04,0.1,0.06,0.15C16.6,30.27,16.63,30.31,16.66,30.35z M19.71,30.07
		c-0.03,0.05-0.06,0.1-0.09,0.14c-0.03,0.04-0.07,0.08-0.11,0.11c-0.04,0.03-0.08,0.05-0.13,0.07c-0.05,0.02-0.1,0.02-0.16,0.02
		c-0.09,0-0.17-0.02-0.24-0.06c-0.07-0.04-0.12-0.09-0.17-0.15c-0.05-0.06-0.08-0.14-0.1-0.21c-0.02-0.08-0.03-0.16-0.03-0.25
		c0-0.07,0.01-0.15,0.02-0.24c0.02-0.08,0.04-0.16,0.08-0.23c0.04-0.07,0.08-0.13,0.14-0.17c0.06-0.04,0.13-0.07,0.21-0.07
		c0.06,0,0.11,0.01,0.16,0.03c0.05,0.02,0.1,0.04,0.14,0.07c0.04,0.03,0.08,0.06,0.12,0.1c0.04,0.04,0.07,0.08,0.1,0.13
		c0.01,0.02,0.03,0.03,0.05,0.03c0.01,0,0.01,0,0.02-0.01c0.03-0.01,0.04-0.04,0.04-0.05c0-0.01,0-0.01,0-0.02l-0.12-0.32
		c-0.01-0.02-0.02-0.04-0.04-0.05c-0.03-0.01-0.06-0.01-0.07-0.01l-0.09,0.03c-0.05-0.02-0.1-0.03-0.14-0.04
		c-0.05-0.01-0.1-0.02-0.16-0.02c-0.11,0-0.22,0.03-0.3,0.08c-0.09,0.05-0.16,0.11-0.22,0.19c-0.06,0.08-0.1,0.17-0.13,0.27
		c-0.03,0.1-0.04,0.2-0.04,0.3c0,0.11,0.02,0.21,0.05,0.31c0.03,0.1,0.08,0.19,0.14,0.27c0.06,0.08,0.14,0.14,0.23,0.19
		c0.09,0.05,0.2,0.07,0.32,0.07c0.08,0,0.15-0.01,0.22-0.03c0.07-0.02,0.13-0.06,0.18-0.1c0.05-0.04,0.1-0.09,0.14-0.15
		c0.04-0.06,0.07-0.12,0.1-0.19l0.01-0.03l-0.1-0.05L19.71,30.07z M21.89,29.43c0.03,0.1,0.04,0.2,0.04,0.31
		c0,0.11-0.01,0.21-0.04,0.31c-0.03,0.1-0.07,0.19-0.13,0.27c-0.06,0.08-0.14,0.14-0.23,0.19c-0.09,0.05-0.2,0.07-0.31,0.07
		c-0.12,0-0.22-0.02-0.31-0.07c-0.09-0.05-0.16-0.11-0.22-0.19c-0.06-0.08-0.1-0.17-0.13-0.27c-0.03-0.1-0.04-0.2-0.04-0.3
		c0-0.1,0.01-0.21,0.04-0.31c0.03-0.1,0.07-0.19,0.13-0.27c0.06-0.08,0.13-0.15,0.22-0.19c0.09-0.05,0.19-0.07,0.31-0.07
		c0.12,0,0.23,0.02,0.32,0.07c0.09,0.05,0.17,0.11,0.23,0.19C21.82,29.24,21.86,29.33,21.89,29.43z M20.94,30.35
		c0.03,0.03,0.07,0.06,0.12,0.08c0.04,0.02,0.1,0.03,0.16,0.03c0.09,0,0.17-0.02,0.23-0.06c0.06-0.04,0.11-0.1,0.15-0.17
		c0.04-0.07,0.07-0.15,0.08-0.23c0.02-0.08,0.03-0.17,0.03-0.25s-0.01-0.16-0.03-0.25c-0.02-0.08-0.04-0.16-0.08-0.23
		c-0.04-0.07-0.09-0.13-0.15-0.17c-0.06-0.04-0.14-0.06-0.23-0.06c-0.06,0-0.11,0.01-0.15,0.03c-0.04,0.02-0.09,0.05-0.12,0.08
		c-0.03,0.04-0.06,0.08-0.09,0.12c-0.02,0.05-0.04,0.1-0.06,0.15c-0.02,0.05-0.03,0.11-0.03,0.16c-0.01,0.06-0.01,0.11-0.01,0.16
		s0,0.1,0.01,0.16c0.01,0.06,0.02,0.11,0.03,0.16c0.02,0.05,0.04,0.1,0.06,0.15C20.88,30.27,20.91,30.31,20.94,30.35z M24.01,30.1
		c-0.01-0.01-0.02-0.01-0.03-0.01c-0.01,0-0.03,0-0.05,0.03c-0.08,0.11-0.16,0.19-0.23,0.23c-0.08,0.05-0.18,0.07-0.3,0.07h-0.18
		c-0.05,0-0.08-0.01-0.11-0.03c-0.02-0.02-0.03-0.04-0.03-0.08v-1.15c0-0.04,0.01-0.06,0.03-0.08c0.01-0.01,0.04-0.02,0.1-0.02
		c0.04,0,0.06-0.03,0.06-0.06c0-0.04-0.02-0.06-0.06-0.06h-0.48c-0.04,0-0.06,0.02-0.06,0.06c0,0.04,0.02,0.06,0.06,0.06
		c0,0,0,0,0,0c0.06,0,0.08,0.01,0.1,0.02c0.02,0.02,0.03,0.04,0.03,0.08v1.15c0,0.04-0.01,0.07-0.03,0.08
		c-0.02,0.02-0.05,0.02-0.09,0.03c-0.04,0-0.06,0.03-0.06,0.06c0,0.04,0.03,0.06,0.06,0.06h1.08c0.02,0,0.04-0.01,0.06-0.02
		c0.02-0.01,0.03-0.03,0.04-0.05l0.12-0.31c0-0.01,0-0.01,0-0.02C24.04,30.13,24.03,30.11,24.01,30.1z M26.11,30.49
		c0,0.04-0.03,0.06-0.06,0.06h-0.52c-0.04,0-0.06-0.03-0.06-0.06c0-0.04,0.03-0.06,0.06-0.06c0.09,0,0.12-0.01,0.13-0.02
		c0.01-0.01,0.01-0.01,0.01-0.03c0-0.01,0-0.02-0.01-0.05l-0.14-0.34h-0.58l-0.11,0.29c-0.01,0.03-0.02,0.06-0.02,0.08
		c0,0.02,0,0.03,0.01,0.03c0,0,0.03,0.02,0.13,0.03c0,0,0,0,0,0c0.04,0,0.06,0.03,0.06,0.06c0,0.04-0.03,0.06-0.06,0.06h-0.41
		c-0.04,0-0.06-0.03-0.06-0.06c0-0.04,0.03-0.06,0.06-0.06c0.04,0,0.06-0.01,0.08-0.03c0.02-0.02,0.04-0.06,0.09-0.17l0.52-1.32
		c0.01-0.04,0.04-0.05,0.05-0.05c0.03,0,0.05,0.03,0.05,0.04l0.57,1.39c0.02,0.05,0.04,0.08,0.07,0.1c0.02,0.02,0.05,0.03,0.09,0.03
		c0,0,0,0,0,0C26.08,30.43,26.11,30.45,26.11,30.49z M25.46,29.86l-0.24-0.58l-0.23,0.58H25.46z M27.67,29.01
		c-0.02-0.05-0.06-0.07-0.11-0.07h-0.93c-0.05,0-0.09,0.02-0.11,0.07l-0.12,0.3l0,0c-0.01,0.03,0,0.06,0.03,0.07
		c0.03,0.01,0.05,0.01,0.07-0.01l0.04-0.06c0.06-0.08,0.12-0.14,0.16-0.17c0.08-0.05,0.17-0.08,0.28-0.08h0.01v1.25
		c0,0.04-0.01,0.07-0.03,0.08c-0.02,0.02-0.05,0.02-0.09,0.03c-0.04,0-0.06,0.03-0.06,0.06c0,0.04,0.03,0.06,0.06,0.06h0.46
		c0.04,0,0.06-0.03,0.06-0.06c0-0.04-0.03-0.06-0.06-0.06c0,0,0,0,0,0c-0.04,0-0.07-0.01-0.1-0.03c-0.02-0.01-0.03-0.04-0.03-0.08
		v-1.25h0.01c0.11,0,0.21,0.03,0.28,0.08c0.04,0.03,0.1,0.09,0.16,0.17l0.04,0.06c0.02,0.03,0.05,0.03,0.07,0.01
		c0.03-0.02,0.04-0.04,0.03-0.07L27.67,29.01z M28.85,29.12c0.01-0.01,0.01-0.02,0.02-0.03c0.01-0.01,0.03-0.01,0.04-0.01
		c0.02,0,0.04-0.01,0.07-0.01c0.04,0,0.06-0.03,0.06-0.06c0-0.04-0.03-0.06-0.06-0.06h-0.52c-0.04,0-0.06,0.03-0.06,0.06
		s0.03,0.06,0.06,0.06h0c0.03,0,0.05,0,0.07,0.01c0.02,0,0.03,0.01,0.04,0.01c0.01,0.01,0.02,0.02,0.02,0.03
		c0.01,0.01,0.01,0.03,0.01,0.06v1.15c0,0.03,0,0.05-0.01,0.06c-0.01,0.01-0.01,0.02-0.02,0.03c-0.01,0.01-0.03,0.01-0.04,0.02
		c-0.02,0-0.05,0.01-0.07,0.01c-0.04,0-0.06,0.03-0.06,0.06c0,0.04,0.03,0.06,0.06,0.06h0.52c0.04,0,0.06-0.03,0.06-0.06
		c0-0.04-0.03-0.06-0.06-0.06c0,0,0,0,0,0c-0.03,0-0.05,0-0.07-0.01c-0.02,0-0.03-0.01-0.04-0.02c-0.01-0.01-0.02-0.01-0.02-0.03
		c0-0.01-0.01-0.03-0.01-0.06v-1.15C28.85,29.14,28.85,29.13,28.85,29.12z M31.05,30.1c-0.03-0.02-0.06-0.01-0.08,0.01
		c-0.08,0.11-0.16,0.19-0.23,0.23c-0.08,0.05-0.18,0.07-0.3,0.07h-0.2c-0.05,0-0.08-0.01-0.11-0.03c-0.02-0.02-0.03-0.04-0.03-0.08
		v-0.53h0.29c0.06,0,0.11,0.02,0.14,0.05c0.03,0.03,0.05,0.09,0.05,0.16c0,0.04,0.02,0.06,0.06,0.06c0.04,0,0.06-0.02,0.06-0.06
		v-0.55c0-0.04-0.02-0.06-0.06-0.06c-0.04,0-0.06,0.02-0.06,0.06c0,0.07-0.02,0.13-0.05,0.16c-0.03,0.03-0.08,0.05-0.14,0.05h-0.29
		v-0.58h0.34c0.11,0,0.21,0.03,0.28,0.08c0.04,0.03,0.1,0.09,0.16,0.17l0.04,0.06c0.02,0.02,0.05,0.03,0.08,0.01
		c0.03-0.02,0.03-0.04,0.03-0.05c0-0.01,0-0.02,0-0.02l-0.12-0.3c-0.02-0.05-0.06-0.07-0.11-0.07h-1.03c-0.04,0-0.06,0.02-0.06,0.06
		c0,0.04,0.02,0.06,0.06,0.06c0,0,0,0,0,0c0.06,0,0.08,0.01,0.1,0.02c0.02,0.02,0.03,0.04,0.03,0.08v1.15
		c0,0.04-0.01,0.07-0.03,0.08c-0.02,0.02-0.05,0.02-0.09,0.03c-0.04,0-0.06,0.03-0.06,0.06c0,0.04,0.03,0.06,0.06,0.06h1.08
		c0.02,0,0.04-0.01,0.06-0.02c0.02-0.01,0.03-0.03,0.04-0.05l0.12-0.31c0-0.01,0-0.01,0-0.02C31.08,30.13,31.07,30.11,31.05,30.1z
		 M33.26,30.52c0,0.04-0.03,0.06-0.06,0.06h-0.09c-0.07,0-0.13-0.02-0.18-0.05c-0.06-0.03-0.1-0.08-0.13-0.14l-0.34-0.61h-0.22v0.52
		c0,0.04,0.01,0.07,0.03,0.09c0.02,0.02,0.06,0.03,0.11,0.03c0,0,0,0,0,0c0.04,0,0.06,0.03,0.06,0.06c0,0.04-0.03,0.06-0.06,0.06
		h-0.51c-0.04,0-0.06-0.03-0.06-0.06c0-0.04,0.03-0.06,0.06-0.06c0.02,0,0.04,0,0.07-0.01c0.02,0,0.03-0.01,0.04-0.02
		c0.01-0.01,0.02-0.02,0.02-0.03C32,30.35,32,30.33,32,30.31v-1.15c0-0.03-0.01-0.06-0.02-0.07c-0.01-0.01-0.04-0.02-0.12-0.02
		c-0.04,0-0.06-0.03-0.06-0.06c0-0.04,0.03-0.06,0.06-0.06h0.69c0.06,0,0.13,0.01,0.19,0.02c0.06,0.01,0.12,0.04,0.17,0.07
		c0.05,0.03,0.1,0.08,0.13,0.13c0.03,0.05,0.05,0.12,0.05,0.2c0,0.07-0.01,0.13-0.04,0.18c-0.02,0.05-0.06,0.1-0.1,0.13
		c-0.04,0.03-0.09,0.06-0.14,0.08c-0.04,0.01-0.08,0.02-0.12,0.03l0.34,0.6c0.02,0.03,0.04,0.05,0.06,0.06
		c0.03,0.01,0.06,0.02,0.1,0.02c0,0,0,0,0,0C33.23,30.46,33.26,30.49,33.26,30.52z M32.23,29.66h0.36c0.09,0,0.16-0.03,0.2-0.08
		c0.04-0.06,0.06-0.13,0.06-0.22c0-0.1-0.03-0.17-0.08-0.22c-0.06-0.05-0.14-0.07-0.23-0.07h-0.31V29.66z M19.52,33.06v2.11
		c0,0.05,0.01,0.08,0.02,0.11c0.01,0.03,0.03,0.05,0.05,0.06c0.02,0.01,0.05,0.02,0.07,0.03c0.03,0.01,0.06,0.01,0.09,0.01h0
		c0.06,0,0.09,0.02,0.09,0.05c0,0.03-0.03,0.05-0.09,0.05h-0.79c-0.06,0-0.09-0.01-0.09-0.05c0-0.03,0.03-0.05,0.09-0.05h0
		c0.04,0,0.07-0.01,0.1-0.01c0.03-0.01,0.05-0.01,0.07-0.03c0.02-0.01,0.04-0.03,0.05-0.06c0.01-0.03,0.02-0.07,0.02-0.11v-1.76
		c0-0.05-0.01-0.08-0.02-0.11c-0.01-0.03-0.03-0.05-0.05-0.06c-0.02-0.01-0.05-0.02-0.07-0.03c-0.03-0.01-0.06-0.01-0.09-0.01h0
		c-0.06,0-0.09-0.01-0.09-0.05c0-0.02,0.03-0.04,0.08-0.04L19.52,33.06z M20.48,33.81c0-0.11,0.02-0.21,0.06-0.31
		c0.04-0.1,0.1-0.18,0.17-0.25c0.07-0.07,0.16-0.12,0.26-0.17c0.1-0.04,0.21-0.06,0.33-0.06c0.16,0,0.3,0.03,0.41,0.1
		c0.11,0.07,0.19,0.16,0.26,0.26c0.06,0.11,0.11,0.23,0.13,0.36c0.03,0.13,0.04,0.26,0.04,0.39c0,0.14-0.01,0.29-0.04,0.45
		c-0.03,0.16-0.07,0.31-0.14,0.44c-0.07,0.14-0.16,0.25-0.28,0.34c-0.12,0.09-0.27,0.13-0.46,0.13c-0.09,0-0.18-0.02-0.26-0.05
		c-0.08-0.03-0.15-0.07-0.22-0.13c-0.06-0.05-0.11-0.12-0.15-0.19c-0.04-0.07-0.05-0.16-0.05-0.24c0-0.01,0-0.02,0-0.03
		c0-0.01,0-0.02,0-0.03c0-0.05,0.02-0.09,0.06-0.13c0.04-0.03,0.09-0.05,0.15-0.05c0.02,0,0.04,0,0.07,0.01
		c0.02,0.01,0.05,0.02,0.07,0.03c0.02,0.01,0.04,0.03,0.05,0.05c0.01,0.02,0.02,0.04,0.02,0.06c0,0,0,0.01-0.01,0.03
		c-0.01,0.06-0.02,0.13-0.02,0.2c0,0.05,0.01,0.1,0.02,0.14c0.01,0.05,0.03,0.08,0.05,0.12c0.03,0.03,0.06,0.06,0.1,0.08
		c0.04,0.02,0.1,0.03,0.17,0.03c0.07,0,0.14-0.02,0.19-0.05c0.05-0.04,0.1-0.08,0.13-0.14c0.04-0.06,0.07-0.13,0.09-0.2
		c0.02-0.08,0.04-0.16,0.06-0.24c0.01-0.08,0.02-0.16,0.03-0.25c0.01-0.08,0.01-0.16,0.01-0.22c-0.07,0.09-0.16,0.15-0.26,0.2
		c-0.1,0.05-0.22,0.07-0.35,0.07c-0.12,0-0.22-0.02-0.31-0.06s-0.16-0.1-0.22-0.17c-0.06-0.07-0.1-0.15-0.13-0.24
		C20.5,34.01,20.48,33.91,20.48,33.81z M21.27,34.46c0.06,0,0.11-0.01,0.17-0.04c0.05-0.02,0.1-0.06,0.15-0.1
		c0.05-0.04,0.09-0.09,0.13-0.14c0.04-0.05,0.07-0.1,0.1-0.16H21.8c0-0.09,0-0.2-0.01-0.3c-0.01-0.11-0.03-0.21-0.06-0.3
		c-0.03-0.09-0.08-0.17-0.15-0.23c-0.07-0.06-0.15-0.09-0.27-0.09c-0.1,0-0.18,0.02-0.24,0.07c-0.06,0.04-0.11,0.1-0.14,0.17
		c-0.04,0.07-0.06,0.15-0.07,0.23c-0.01,0.09-0.02,0.17-0.02,0.26c0,0.08,0.01,0.15,0.02,0.22c0.01,0.07,0.04,0.14,0.07,0.2
		c0.03,0.06,0.08,0.1,0.13,0.14C21.12,34.45,21.19,34.46,21.27,34.46z M23.34,34.24c-0.08-0.03-0.15-0.06-0.21-0.1
		c-0.06-0.04-0.11-0.09-0.15-0.14c-0.04-0.05-0.07-0.1-0.09-0.16c-0.02-0.06-0.03-0.12-0.03-0.18c0-0.08,0.01-0.16,0.05-0.23
		c0.03-0.08,0.07-0.14,0.13-0.2s0.13-0.11,0.22-0.14c0.09-0.04,0.19-0.05,0.31-0.05c0.1,0,0.2,0.02,0.28,0.05s0.15,0.07,0.21,0.13
		c0.06,0.05,0.1,0.11,0.13,0.18c0.03,0.07,0.04,0.14,0.04,0.21c0,0.05-0.01,0.11-0.03,0.16c-0.02,0.05-0.05,0.11-0.09,0.16
		s-0.09,0.1-0.15,0.14c-0.06,0.04-0.13,0.08-0.22,0.11c0.1,0.03,0.19,0.07,0.27,0.12c0.08,0.05,0.14,0.1,0.19,0.16
		c0.05,0.06,0.09,0.13,0.11,0.19c0.02,0.07,0.04,0.14,0.04,0.2c0,0.09-0.02,0.17-0.05,0.25c-0.04,0.08-0.09,0.15-0.16,0.22
		c-0.07,0.06-0.15,0.12-0.25,0.15c-0.1,0.04-0.21,0.06-0.34,0.06c-0.1,0-0.19-0.01-0.29-0.04c-0.09-0.02-0.18-0.06-0.25-0.11
		c-0.07-0.05-0.13-0.11-0.18-0.19s-0.07-0.17-0.07-0.27c0-0.09,0.01-0.16,0.04-0.23c0.03-0.07,0.06-0.13,0.11-0.18
		c0.05-0.05,0.1-0.1,0.17-0.14s0.14-0.08,0.22-0.12L23.34,34.24z M23.64,34.11c0.09-0.04,0.16-0.11,0.21-0.21s0.06-0.2,0.06-0.3
		v-0.01c0-0.06-0.01-0.12-0.02-0.18c-0.01-0.06-0.03-0.11-0.06-0.15c-0.03-0.05-0.06-0.08-0.1-0.11c-0.04-0.03-0.09-0.04-0.14-0.04
		c-0.14,0-0.25,0.04-0.34,0.13c-0.08,0.09-0.12,0.21-0.12,0.37c0,0.07,0.02,0.14,0.05,0.19c0.03,0.05,0.08,0.1,0.13,0.14
		c0.05,0.04,0.11,0.07,0.17,0.1c0.06,0.03,0.12,0.05,0.18,0.07L23.64,34.11z M23.59,35.43c0.07,0,0.15-0.01,0.21-0.04
		c0.07-0.02,0.12-0.06,0.17-0.11c0.05-0.05,0.09-0.1,0.12-0.17c0.03-0.07,0.04-0.14,0.04-0.23c0-0.09-0.02-0.16-0.06-0.23
		c-0.04-0.07-0.09-0.12-0.16-0.17c-0.06-0.05-0.13-0.09-0.21-0.12s-0.15-0.06-0.22-0.08c-0.12,0.06-0.2,0.15-0.26,0.26
		c-0.06,0.11-0.08,0.22-0.08,0.34l0,0.02c0,0.07,0.01,0.13,0.03,0.2c0.02,0.06,0.05,0.12,0.09,0.17c0.04,0.05,0.09,0.09,0.14,0.12
		C23.45,35.41,23.52,35.43,23.59,35.43z M25.03,34.95c0-0.05,0.02-0.09,0.06-0.11c0.04-0.02,0.08-0.04,0.13-0.04
		c0.02,0,0.04,0,0.07,0.01c0.02,0.01,0.04,0.01,0.06,0.03c0.02,0.01,0.04,0.03,0.05,0.04c0.01,0.02,0.02,0.04,0.02,0.06l-0.01,0.09
		c0,0.02,0,0.03,0,0.04c0,0.01,0,0.03,0,0.04c0,0.06,0.01,0.11,0.03,0.15c0.02,0.04,0.04,0.07,0.08,0.09
		c0.03,0.02,0.07,0.04,0.12,0.04c0.05,0.01,0.1,0.01,0.16,0.01c0.09,0,0.16-0.02,0.22-0.06c0.06-0.04,0.12-0.09,0.16-0.16
		c0.04-0.07,0.07-0.14,0.09-0.22c0.02-0.08,0.03-0.16,0.03-0.25c0-0.09-0.01-0.17-0.03-0.25c-0.02-0.08-0.05-0.15-0.09-0.21
		c-0.04-0.06-0.09-0.11-0.16-0.15c-0.06-0.04-0.14-0.06-0.23-0.06c-0.1,0-0.2,0.03-0.29,0.09c-0.09,0.06-0.17,0.13-0.24,0.23
		l-0.14-0.06l0.07-1.21h1.3l0.07,0.25c0,0.01-0.02,0.02-0.06,0.03h-0.02c-0.04,0-0.06-0.01-0.07-0.02h0c0,0-0.01-0.01-0.01-0.02
		l-0.03-0.04c0,0-0.01-0.01-0.01-0.02h-1.01l-0.05,0.82c0.07-0.05,0.15-0.09,0.23-0.11c0.08-0.02,0.18-0.03,0.28-0.03
		c0.12,0,0.23,0.02,0.33,0.06c0.1,0.04,0.19,0.09,0.26,0.16c0.07,0.07,0.13,0.15,0.17,0.24c0.04,0.09,0.06,0.2,0.06,0.31
		c0,0.11-0.02,0.21-0.06,0.3c-0.04,0.1-0.1,0.18-0.17,0.25c-0.07,0.07-0.16,0.13-0.26,0.17c-0.1,0.04-0.21,0.06-0.33,0.06
		c-0.25,0-0.44-0.06-0.58-0.17C25.1,35.21,25.03,35.09,25.03,34.95z"/>
</g>
</svg>
