<?xml version="1.0" encoding="utf-8"?>
<!-- Generator: Adobe Illustrator 24.0.0, SVG Export Plug-In . SVG Version: 6.00 Build 0)  -->
<svg version="1.1" id="Layer_1" xmlns="http://www.w3.org/2000/svg" xmlns:xlink="http://www.w3.org/1999/xlink" x="0px" y="0px"
	 viewBox="0 0 45 45" style="enable-background:new 0 0 45 45;" xml:space="preserve">
<g>
	<path d="M1.89,21.59c0,0.03,0.01,0.06,0.02,0.1c0.01,0.04,0.06,0.11,0.14,0.22c0.09,0.1,0.2,0.2,0.34,0.28
		c0.14,0.08,0.36,0.16,0.66,0.22c0.3,0.07,0.65,0.1,1.05,0.1c0.56,0,1.03-0.07,1.43-0.22c0.39-0.15,0.59-0.36,0.59-0.65
		c0-0.18-0.1-0.33-0.29-0.44c-0.19-0.11-0.44-0.19-0.75-0.23c-0.31-0.04-0.65-0.08-1.02-0.11c-0.37-0.03-0.74-0.06-1.12-0.11
		c-0.37-0.05-0.71-0.11-1.02-0.19c-0.31-0.08-0.56-0.22-0.75-0.4c-0.19-0.18-0.29-0.42-0.29-0.7c0-0.51,0.27-0.9,0.82-1.18
		c0.55-0.28,1.3-0.42,2.26-0.42c0.58,0,1.09,0.05,1.53,0.16c0.43,0.1,0.75,0.23,0.96,0.38c0.2,0.15,0.37,0.29,0.48,0.44
		c0.12,0.15,0.19,0.28,0.21,0.38l0.02,0.16H5.96c-0.01-0.02-0.02-0.04-0.03-0.07c-0.02-0.03-0.07-0.09-0.15-0.17
		C5.69,19.07,5.58,19,5.45,18.94c-0.13-0.06-0.32-0.12-0.58-0.17c-0.26-0.05-0.55-0.07-0.88-0.07c-0.58,0-1.05,0.08-1.39,0.23
		c-0.34,0.15-0.51,0.32-0.51,0.49v0.01c0,0.14,0.1,0.26,0.29,0.34c0.19,0.08,0.44,0.14,0.75,0.17c0.31,0.03,0.65,0.06,1.02,0.08
		c0.37,0.02,0.75,0.07,1.12,0.12c0.37,0.06,0.71,0.14,1.02,0.24c0.31,0.1,0.56,0.26,0.75,0.47c0.19,0.21,0.29,0.48,0.29,0.79
		c0,0.33-0.1,0.61-0.29,0.84c-0.2,0.23-0.46,0.41-0.79,0.53c-0.33,0.12-0.67,0.21-1.02,0.26c-0.35,0.05-0.72,0.08-1.12,0.08
		c-0.44,0-0.83-0.03-1.2-0.1c-0.36-0.07-0.66-0.15-0.89-0.25c-0.23-0.1-0.43-0.21-0.61-0.34c-0.17-0.13-0.31-0.25-0.4-0.37
		c-0.09-0.12-0.16-0.23-0.22-0.35c-0.05-0.11-0.09-0.2-0.1-0.25c-0.01-0.05-0.02-0.09-0.02-0.1H1.89z"/>
	<path d="M7.58,20.62c0-0.8,0.35-1.46,1.05-1.97c0.7-0.52,1.6-0.77,2.7-0.77c1.1,0,2,0.26,2.7,0.77c0.7,0.52,1.05,1.17,1.05,1.97
		c0,0.79-0.35,1.45-1.05,1.96c-0.7,0.52-1.6,0.77-2.7,0.77c-1.1,0-2-0.26-2.7-0.77C7.93,22.07,7.58,21.41,7.58,20.62z M8.77,20.62
		c0,0.53,0.24,0.97,0.71,1.32c0.47,0.34,1.09,0.51,1.84,0.51c0.77,0,1.38-0.17,1.85-0.51c0.46-0.34,0.69-0.78,0.69-1.32
		c0-0.53-0.23-0.97-0.7-1.32c-0.47-0.34-1.08-0.52-1.84-0.52c-0.76,0-1.37,0.17-1.84,0.52C9.01,19.65,8.77,20.09,8.77,20.62z"/>
	<path d="M21.55,17.95v4.32l0,0L21.55,17.95L21.55,17.95z"/>
	<polygon points="28.72,17.95 28.72,23.27 27.36,23.27 22.71,19 22.71,23.27 21.34,23.27 16.69,19 16.69,23.27 15.53,23.27 
		15.53,17.95 16.9,17.95 21.55,22.27 21.55,22.27 21.55,17.95 22.92,17.95 27.57,22.27 27.57,17.95 	"/>
	<path d="M29.19,20.62c0-0.8,0.35-1.46,1.05-1.97c0.7-0.52,1.6-0.77,2.7-0.77c1.1,0,2,0.26,2.7,0.77c0.7,0.52,1.05,1.17,1.05,1.97
		c0,0.79-0.35,1.45-1.05,1.96c-0.7,0.52-1.6,0.77-2.7,0.77c-1.1,0-2-0.26-2.7-0.77C29.54,22.07,29.19,21.41,29.19,20.62z
		 M30.39,20.62c0,0.53,0.24,0.97,0.71,1.32c0.47,0.34,1.09,0.51,1.84,0.51c0.77,0,1.38-0.17,1.85-0.51
		c0.46-0.34,0.69-0.78,0.69-1.32c0-0.53-0.23-0.97-0.7-1.32c-0.47-0.34-1.08-0.52-1.84-0.52c-0.76,0-1.37,0.17-1.84,0.52
		C30.62,19.65,30.39,20.09,30.39,20.62z"/>
	<path d="M37.14,17.95h1.36l4.66,4.32v-4.32h1.15v5.32h-1.36L38.3,19v4.27h-1.16V17.95z"/>
	<g>
		<path d="M10.99,25.81v0.57h1.28v-0.57h0.21v1.3h-0.21v-0.57h-1.28v0.57h-0.21v-1.3H10.99z"/>
		<path d="M13.71,25.98c0.17-0.13,0.39-0.19,0.67-0.19c0.28,0,0.5,0.06,0.67,0.19c0.17,0.13,0.25,0.29,0.25,0.48
			c0,0.19-0.08,0.35-0.25,0.48c-0.17,0.13-0.39,0.19-0.67,0.19c-0.27,0-0.5-0.06-0.67-0.19c-0.17-0.13-0.26-0.29-0.26-0.48
			C13.45,26.27,13.54,26.1,13.71,25.98z M13.86,26.82c0.13,0.1,0.3,0.15,0.51,0.15c0.22,0,0.39-0.05,0.51-0.15
			c0.13-0.1,0.19-0.21,0.19-0.36c0-0.14-0.06-0.26-0.19-0.36c-0.13-0.1-0.3-0.15-0.51-0.15c-0.21,0-0.39,0.05-0.51,0.15
			c-0.13,0.1-0.19,0.22-0.19,0.36S13.73,26.72,13.86,26.82z"/>
		<path d="M16.26,25.81l0.04,0l0,0h0.21l0.76,1.15l0.76-1.15h0.21l0,0l0.04,0v1.3h-0.21v-1.03l-0.69,1.03h-0.21l-0.69-1.03v1.03
			h-0.21V25.81z"/>
		<path d="M19.32,25.81h1.47v0.16h-1.26v0.4h1.18v0.16h-1.18v0.41h1.28v0.16h-1.49V25.81z"/>
		<path d="M24.22,25.81c0.23,0,0.42,0.06,0.56,0.17c0.15,0.12,0.22,0.27,0.22,0.48c0,0.2-0.07,0.36-0.22,0.47
			c-0.15,0.12-0.33,0.17-0.56,0.17h-0.95v-1.3H24.22z M24.22,26.94c0.19,0,0.33-0.05,0.42-0.14c0.1-0.09,0.14-0.21,0.14-0.35
			c0-0.15-0.05-0.27-0.14-0.36c-0.09-0.09-0.24-0.13-0.43-0.13h-0.74v0.97H24.22z"/>
		<path d="M25.98,25.81h1.47v0.16h-1.26v0.4h1.18v0.16h-1.18v0.41h1.28v0.16h-1.49V25.81z"/>
		<path d="M28.34,26.46c0-0.2,0.09-0.36,0.26-0.49c0.17-0.12,0.4-0.19,0.67-0.19c0.14,0,0.26,0.01,0.37,0.04
			c0.11,0.03,0.19,0.06,0.25,0.1c0.06,0.04,0.11,0.08,0.15,0.13c0.04,0.05,0.07,0.08,0.08,0.11c0.01,0.02,0.02,0.04,0.02,0.06h-0.22
			c0-0.01-0.01-0.02-0.02-0.03c-0.01-0.01-0.03-0.03-0.06-0.06c-0.03-0.03-0.07-0.06-0.11-0.08c-0.04-0.02-0.1-0.05-0.18-0.06
			c-0.08-0.02-0.17-0.03-0.27-0.03c-0.21,0-0.38,0.05-0.51,0.14c-0.13,0.09-0.2,0.22-0.2,0.36c0,0.14,0.07,0.26,0.2,0.36
			c0.13,0.1,0.3,0.14,0.51,0.14c0.1,0,0.19-0.01,0.27-0.03c0.08-0.02,0.14-0.04,0.18-0.07c0.04-0.03,0.08-0.05,0.11-0.08
			c0.03-0.03,0.05-0.05,0.06-0.07l0.01-0.03h0.22c0,0.01-0.01,0.03-0.02,0.05c-0.01,0.03-0.04,0.06-0.07,0.11
			c-0.04,0.05-0.09,0.09-0.14,0.13c-0.06,0.04-0.14,0.07-0.25,0.1c-0.11,0.03-0.23,0.04-0.37,0.04c-0.28,0-0.5-0.06-0.67-0.18
			C28.43,26.82,28.34,26.66,28.34,26.46z"/>
		<path d="M31.27,25.98c0.17-0.13,0.39-0.19,0.67-0.19c0.28,0,0.5,0.06,0.67,0.19c0.17,0.13,0.25,0.29,0.25,0.48
			c0,0.19-0.08,0.35-0.25,0.48c-0.17,0.13-0.39,0.19-0.67,0.19c-0.27,0-0.5-0.06-0.67-0.19c-0.17-0.13-0.26-0.29-0.26-0.48
			C31.01,26.27,31.1,26.1,31.27,25.98z M31.42,26.82c0.13,0.1,0.3,0.15,0.51,0.15c0.22,0,0.39-0.05,0.51-0.15
			c0.13-0.1,0.19-0.21,0.19-0.36c0-0.14-0.06-0.26-0.19-0.36c-0.13-0.1-0.3-0.15-0.51-0.15c-0.21,0-0.39,0.05-0.51,0.15
			c-0.13,0.1-0.19,0.22-0.19,0.36S31.3,26.72,31.42,26.82z"/>
		<path d="M33.82,25.81h0.93c0.2,0,0.35,0.04,0.45,0.11c0.1,0.07,0.15,0.17,0.15,0.3c0,0.08-0.02,0.15-0.06,0.21
			c-0.04,0.06-0.11,0.11-0.19,0.15c0.07,0,0.12,0.02,0.15,0.05c0.03,0.03,0.05,0.08,0.05,0.15v0.34h-0.21v-0.34
			c0-0.04-0.01-0.08-0.04-0.1c-0.03-0.02-0.07-0.03-0.13-0.03h-0.89v0.47h-0.21V25.81z M34.03,26.48h0.72c0.13,0,0.23-0.02,0.3-0.07
			c0.06-0.05,0.1-0.11,0.1-0.18c0-0.08-0.03-0.14-0.1-0.18c-0.06-0.04-0.16-0.07-0.3-0.07h-0.72V26.48z"/>
	</g>
</g>
</svg>
