<?xml version="1.0" encoding="utf-8"?>
<!-- Generator: Adobe Illustrator 24.0.0, SVG Export Plug-In . SVG Version: 6.00 Build 0)  -->
<svg version="1.1" id="Layer_1" xmlns="http://www.w3.org/2000/svg" xmlns:xlink="http://www.w3.org/1999/xlink" x="0px" y="0px"
	 viewBox="0 0 45 45" style="enable-background:new 0 0 45 45;" xml:space="preserve">
<style type="text/css">
	.st0{fill:none;}
	.st1{stroke:#000000;stroke-width:0.5;stroke-miterlimit:10;}
	.st2{fill:#0C0C0C;}
</style>
<g>
	<path class="st0" d="M14.53,11.39c-0.14-0.09-0.32-0.14-0.51-0.14c-0.36,0-0.75,0.16-0.99,0.41c-0.17,0.17-0.28,0.38-0.32,0.58
		c-0.04,0.17-0.02,0.42,0.13,0.55c0.08,0.07,0.19,0.1,0.35,0.1h0.01c0.26,0,0.54-0.09,0.83-0.25c0.2-0.11,0.47-0.3,0.63-0.56
		c0.01-0.02,0.03-0.04,0.04-0.07C14.8,11.8,14.73,11.51,14.53,11.39z"/>
	<path class="st1" d="M18.17,17.14c0.07,0,0.12-0.04,0.15-0.1c0.2-0.48,0.6-0.99,0.89-1.34c0.13-0.15,0.17-0.36,0.1-0.55
		c-0.06-0.19-0.22-0.32-0.41-0.36l-0.02,0c-0.04-0.01-0.07-0.01-0.11-0.01c-0.21,0-0.41,0.12-0.5,0.31
		c-0.38,0.77-0.33,1.54-0.27,1.93C18.03,17.09,18.09,17.14,18.17,17.14z"/>
	<g>
		<path class="st2" d="M36.7,37.32c-3.98,0-7.22-3.24-7.22-7.22c0-3.98,3.24-7.22,7.22-7.22c3.98,0,7.22,3.24,7.22,7.22
			C43.92,34.08,40.68,37.32,36.7,37.32z M36.7,23c-3.91,0-7.09,3.18-7.09,7.09c0,3.91,3.18,7.09,7.09,7.09
			c3.91,0,7.09-3.18,7.09-7.09C43.79,26.19,40.61,23,36.7,23z"/>
	</g>
	<g>
		<g>
			<g>
				<path class="st2" d="M36.74,35.01c-1.29,0-2.5-0.5-3.41-1.41c-0.91-0.91-1.41-2.12-1.41-3.41c0-1.29,0.5-2.5,1.41-3.41
					c0.91-0.91,2.12-1.41,3.41-1.41c1.29,0,2.5,0.5,3.41,1.41c0.91,0.91,1.41,2.12,1.41,3.41c0,1.29-0.5,2.5-1.41,3.41
					C39.24,34.5,38.03,35.01,36.74,35.01z M36.74,25.43c-2.62,0-4.75,2.13-4.75,4.75s2.13,4.75,4.75,4.75
					c2.62,0,4.75-2.13,4.75-4.75S39.36,25.43,36.74,25.43z"/>
			</g>
			<g>
				<path class="st2" d="M31.93,27.02c0.26,0.14,0.23,0.34,0.07,0.65c-0.27,0.52-0.56,0.37-0.66,0.31c0.02-0.05,0.06-0.1,0.12-0.23
					c0.16,0.08,0.26-0.04,0.33-0.18c0.09-0.17,0.09-0.26,0.01-0.31c-0.07-0.04-0.12,0.03-0.26,0.22c-0.21,0.29-0.35,0.39-0.54,0.29
					c-0.15-0.08-0.26-0.28-0.08-0.62c0.21-0.41,0.48-0.37,0.64-0.28c0,0-0.08,0.16-0.13,0.24c-0.07-0.04-0.2-0.06-0.31,0.15
					c-0.09,0.18-0.05,0.25,0,0.28c0.06,0.03,0.11-0.02,0.23-0.18C31.51,27.14,31.69,26.9,31.93,27.02z"/>
				<path class="st2" d="M31.59,26l-0.16-0.05l0.17-0.46l0.2,0.06L31.59,26z M32.63,25.83c0.29,0.25,0.28,0.58,0.06,0.84
					c-0.22,0.26-0.54,0.32-0.84,0.06c-0.29-0.25-0.28-0.58-0.06-0.84C32.01,25.64,32.34,25.58,32.63,25.83z M32.47,26.02
					c-0.17-0.15-0.35-0.11-0.48,0.05c-0.13,0.15-0.15,0.33,0.02,0.48c0.17,0.15,0.35,0.11,0.48-0.05
					C32.62,26.35,32.64,26.16,32.47,26.02z"/>
				<path class="st2" d="M32.28,25.36l0.91-0.71l0.14,0.19l-0.35,0.27l0.58,0.75l-0.2,0.16l-0.58-0.75l-0.35,0.27L32.28,25.36z"/>
				<path class="st2" d="M34.88,25.11l-0.24,0.12l-0.15-0.14l-0.54,0.27l0.03,0.21l-0.24,0.12l-0.16-1.24l0.38-0.2L34.88,25.11z
					 M34.31,24.91l-0.4-0.38l-0.06,0.03l0.07,0.55L34.31,24.91z"/>
				<path class="st2" d="M35.58,23.73l0.25-0.06l0.27,1.15l-0.36,0.08l-0.7-0.71l-0.03,0.01l0.19,0.83l-0.25,0.06l-0.27-1.15
					l0.34-0.08l0,0l0.02-0.01l0.7,0.71l0.03-0.01L35.58,23.73z"/>
				<path class="st2" d="M37.44,24.22c-0.01,0.39-0.27,0.6-0.62,0.59c-0.34-0.01-0.6-0.21-0.6-0.61c0.01-0.39,0.27-0.6,0.62-0.59
					C37.19,23.62,37.44,23.83,37.44,24.22z M37.19,24.22c0-0.23-0.14-0.34-0.35-0.34c-0.2,0-0.36,0.1-0.36,0.33
					c0,0.23,0.14,0.34,0.35,0.34C37.03,24.56,37.18,24.45,37.19,24.22z"/>
				<path class="st2" d="M39.34,25.04c-0.11,0.27-0.32,0.27-0.64,0.15c-0.54-0.21-0.43-0.51-0.38-0.62c0.05,0.02,0.11,0.04,0.25,0.1
					c-0.06,0.17,0.07,0.25,0.21,0.31c0.18,0.07,0.27,0.06,0.31-0.03c0.03-0.07-0.04-0.12-0.24-0.23c-0.31-0.18-0.43-0.3-0.35-0.5
					c0.06-0.16,0.25-0.29,0.61-0.15c0.43,0.17,0.42,0.44,0.35,0.61c0,0-0.17-0.07-0.25-0.1c0.03-0.08,0.04-0.2-0.19-0.29
					c-0.19-0.07-0.25-0.02-0.27,0.03c-0.02,0.06,0.03,0.11,0.21,0.21C39.17,24.64,39.44,24.79,39.34,25.04z"/>
				<path class="st2" d="M39.32,25.47l0.59-1.02l0.22,0.13l-0.59,1.02L39.32,25.47z"/>
				<path class="st2" d="M41.2,25.36l-0.14,0.18L40.5,25.1l-0.15,0.19l0.56,0.45l-0.14,0.18l-0.56-0.45l-0.15,0.19l0.56,0.45
					l-0.15,0.18l-0.56-0.45l0,0l-0.2-0.16l0.74-0.92L41.2,25.36z"/>
				<path class="st2" d="M41.38,25.52l0.74,0.88l-0.18,0.15l-0.29-0.34l-0.72,0.61l-0.17-0.2l0.72-0.61l-0.29-0.34L41.38,25.52z"/>
				<path class="st2" d="M42.78,27.59l-0.21,0.11l-0.33-0.63l-0.22,0.11l0.33,0.63l-0.21,0.11l-0.33-0.63l-0.21,0.11l0.33,0.63
					l-0.21,0.11L41.4,27.5l0,0l-0.12-0.23l1.05-0.55L42.78,27.59z"/>
			</g>
			<g>
				<path class="st2" d="M30.55,30.89c-0.23,0.01-0.34-0.14-0.35-0.32c0-0.13-0.02-0.72-0.02-0.72l1.18-0.03l0.01,0.46
					c0,0.03,0,0.08,0,0.15c0.01,0.25-0.09,0.41-0.32,0.41c-0.13,0-0.2-0.04-0.24-0.11C30.78,30.82,30.71,30.89,30.55,30.89z
					 M30.57,30.64c0.11,0,0.13-0.07,0.12-0.19c0-0.08-0.01-0.29-0.01-0.36l-0.26,0.01l0.01,0.21c0,0.1,0,0.02,0,0.11
					C30.44,30.54,30.45,30.64,30.57,30.64z M31.14,30.07l-0.25,0.01c0,0.09,0.01,0.22,0.01,0.28c0,0.12,0.01,0.22,0.13,0.21
					c0.12,0,0.12-0.1,0.12-0.23C31.15,30.28,31.14,30.11,31.14,30.07z"/>
				<path class="st2" d="M31.67,32.03l-0.88-0.3l-0.38,0.09l-0.06-0.25l0.38-0.09l0.66-0.67l0.07,0.28L31,31.53L31,31.56l0.6,0.19
					L31.67,32.03z"/>
				<path class="st2" d="M32.49,33.46l0.17,0.25l-1.22,0.31l-0.23-0.34l0.74-1.02l0.17,0.25l-0.6,0.8l0.01,0.02L32.49,33.46z"/>
				<path class="st2" d="M31.88,34.56l0.86-0.81l0.18,0.19l-0.86,0.81L31.88,34.56z"/>
				<path class="st2" d="M33.25,35.18l0.21,0.16c-0.18,0.19-0.48,0.2-0.74,0c-0.27-0.21-0.35-0.53-0.1-0.84
					c0.24-0.31,0.57-0.31,0.84-0.1c0.26,0.2,0.32,0.51,0.18,0.71l-0.21-0.16c0.05-0.12,0.02-0.23-0.13-0.34
					c-0.16-0.12-0.33-0.13-0.48,0.06c-0.14,0.19-0.1,0.35,0.06,0.48C33.04,35.26,33.15,35.25,33.25,35.18L33.25,35.18z"/>
				<path class="st2" d="M33.93,34.78l1.04,0.49l-0.1,0.21l-0.4-0.19l-0.41,0.86l-0.23-0.11l0.41-0.86l-0.4-0.19L33.93,34.78z"/>
				<path class="st2" d="M36.02,36.11c-0.09,0.38-0.39,0.53-0.72,0.45c-0.34-0.08-0.55-0.33-0.46-0.72
					c0.09-0.38,0.39-0.53,0.72-0.45C35.89,35.47,36.1,35.73,36.02,36.11z M35.77,36.05c0.05-0.23-0.07-0.36-0.27-0.41
					c-0.2-0.05-0.37,0.02-0.42,0.25c-0.05,0.23,0.07,0.36,0.27,0.41C35.55,36.35,35.72,36.28,35.77,36.05z"/>
				<path class="st2" d="M37.06,36.26l0.23,0.45l-0.28,0l-0.2-0.39c-0.03,0-0.05,0-0.06,0c-0.04,0-0.22,0-0.27,0l0.01,0.39l-0.26,0
					l-0.02-1.18l0.26,0l0,0c0.06,0,0.25,0,0.32-0.01c0.14,0,0.46-0.01,0.46,0.39C37.26,36.13,37.17,36.21,37.06,36.26z M37.01,35.93
					c0-0.16-0.16-0.16-0.24-0.16c-0.05,0-0.24,0-0.3,0l0.01,0.33c0.06,0,0.28,0,0.3,0C36.85,36.1,37.02,36.1,37.01,35.93z"/>
				<path class="st2" d="M39.11,35.49c0.14,0.42-0.23,0.53-0.34,0.57c-0.04,0.01-0.21,0.07-0.26,0.09l0.11,0.31l-0.24,0.08
					l-0.38-1.12l0.24-0.08l0,0c0.06-0.02,0.19-0.07,0.26-0.09C38.62,35.2,38.97,35.09,39.11,35.49z M38.88,35.57
					c-0.07-0.19-0.22-0.14-0.3-0.11c-0.04,0.02-0.2,0.07-0.27,0.09l0.13,0.39c0.05-0.02,0.25-0.08,0.27-0.09
					C38.77,35.82,38.95,35.77,38.88,35.57z"/>
				<path class="st2" d="M40.37,34.93c0.2,0.33,0.09,0.65-0.2,0.83c-0.29,0.18-0.62,0.14-0.83-0.19c-0.2-0.33-0.09-0.65,0.2-0.83
					C39.83,34.55,40.16,34.6,40.37,34.93z M40.15,35.06c-0.12-0.2-0.31-0.21-0.48-0.1c-0.17,0.11-0.25,0.27-0.13,0.47
					c0.12,0.2,0.31,0.21,0.48,0.1C40.2,35.43,40.27,35.25,40.15,35.06z"/>
				<path class="st2" d="M41.23,34.31l0.48,0.17l-0.2,0.2l-0.41-0.15c-0.02,0.02-0.03,0.03-0.04,0.05
					c-0.03,0.03-0.16,0.15-0.19,0.19l0.28,0.28l-0.18,0.18l-0.83-0.84l0.18-0.18l0,0c0.04-0.04,0.18-0.18,0.23-0.22
					c0.1-0.1,0.33-0.32,0.6-0.04C41.28,34.08,41.27,34.19,41.23,34.31z M40.97,34.1c-0.12-0.12-0.23-0.01-0.28,0.05
					c-0.03,0.03-0.17,0.17-0.22,0.21l0.23,0.23c0.04-0.04,0.2-0.19,0.21-0.21C40.96,34.33,41.08,34.22,40.97,34.1z"/>
				<path class="st2" d="M41.48,32.74l0.19,0.13l-0.42,0.62l0.2,0.13l0.4-0.59l0.19,0.13l-0.4,0.59l0.39,0.26l-0.14,0.21l-0.98-0.66
					L41.48,32.74z"/>
				<path class="st2" d="M42.59,33.12l-1.07-0.51l0.11-0.23l1.07,0.51L42.59,33.12z"/>
				<path class="st2" d="M42.6,31.38c0.22,0.07,0.54,0.26,0.4,0.73c-0.02,0.06-0.13,0.43-0.15,0.49l-1.13-0.34l0.15-0.49
					C42.01,31.29,42.38,31.32,42.6,31.38z M42.52,31.64c-0.13-0.04-0.36-0.05-0.43,0.2c-0.03,0.1-0.07,0.24-0.07,0.24l0.68,0.21
					c0.01-0.04,0.04-0.13,0.07-0.24C42.85,31.79,42.64,31.67,42.52,31.64z"/>
				<path class="st2" d="M43.2,31.26l-1.17-0.17l0.04-0.25L43.24,31L43.2,31.26z"/>
				<path class="st2" d="M42.67,29.52c0.39-0.01,0.6,0.25,0.61,0.6c0.01,0.34-0.2,0.61-0.59,0.62c-0.39,0.01-0.6-0.25-0.61-0.6
					S42.29,29.52,42.67,29.52z M42.68,29.77c-0.23,0-0.34,0.16-0.33,0.36c0,0.2,0.11,0.35,0.34,0.35c0.23,0,0.34-0.16,0.33-0.36
					C43.02,29.91,42.91,29.76,42.68,29.77z"/>
			</g>
			<g>
				<circle class="st2" cx="30.8" cy="28.82" r="0.2"/>
			</g>
			<g>
				<circle class="st2" cx="42.53" cy="28.76" r="0.2"/>
			</g>
		</g>
		<g>
			<path class="st2" d="M39.09,26.8c-0.06,0.15-0.11,0.27-0.17,0.39c-0.14,0.32-0.3,0.64-0.53,0.91c-0.25,0.3-0.54,0.54-0.91,0.69
				c-0.29,0.12-0.6,0.16-0.92,0.14c-0.3-0.02-0.6-0.1-0.89-0.14c-0.21-0.03-0.43-0.06-0.64-0.07c-0.1-0.01-0.21,0.02-0.31,0.05
				c-0.22,0.07-0.34,0.24-0.35,0.47c-0.01,0.15,0,0.3,0,0.45c0,0.04,0,0.09,0,0.13c0,0.03-0.02,0.06-0.03,0.09
				c-0.01,0.01-0.03,0.03-0.04,0.02c-0.02-0.01-0.03-0.03-0.04-0.05c0-0.04,0-0.09,0.01-0.13c0.06-0.44,0.09-0.87,0.11-1.31
				c0.01-0.36,0.02-0.71,0.03-1.07c0.01-0.26,0.01-0.52,0.01-0.79c0-0.03-0.02-0.08,0.04-0.08c0.05,0,0.04,0.05,0.04,0.07
				c0.01,0.1,0.01,0.19,0.01,0.29c0,0.02,0.01,0.04,0.01,0.06c0.01-0.01,0.03-0.02,0.04-0.03c0.12-0.09,0.24-0.2,0.37-0.28
				c0.49-0.28,0.99-0.29,1.49,0.01c0.2,0.12,0.37,0.26,0.54,0.42c0.21,0.2,0.43,0.4,0.67,0.55c0.1,0.07,0.22,0.11,0.34,0.13
				c0.22,0.03,0.42-0.03,0.59-0.18c0.17-0.16,0.28-0.36,0.35-0.57c0.03-0.08,0.05-0.17,0.07-0.25c0.01-0.03,0.02-0.07,0.03-0.1
				c0.03-0.05,0.07-0.05,0.1-0.01c0.06,0.09,0.09,0.19,0.1,0.29c0.06,0.62-0.07,1.19-0.4,1.72c-0.17,0.28-0.38,0.53-0.58,0.79
				c-0.25,0.32-0.5,0.64-0.71,0.99c-0.17,0.28-0.24,0.57-0.23,0.89c0.01,0.2,0.06,0.39,0.18,0.56c0.16,0.24,0.42,0.35,0.71,0.29
				c0.09-0.02,0.13,0,0.14,0.1c0.01,0.1,0,0.2-0.01,0.3c-0.12,0.65-0.68,1.21-1.34,1.34c-0.36,0.07-0.71,0.05-1.05-0.09
				c-0.49-0.21-0.8-0.59-0.92-1.1c-0.17-0.75,0-1.41,0.54-1.97c0.32-0.33,0.69-0.58,1.07-0.83c0.29-0.19,0.59-0.35,0.89-0.54
				c0.43-0.26,0.82-0.57,1.17-0.93c0.38-0.4,0.52-0.89,0.49-1.43C39.13,26.95,39.11,26.88,39.09,26.8z"/>
		</g>
	</g>
	<g>
		<path d="M44.09,12.54c-0.13-0.24-0.31-0.43-0.53-0.56c-0.2-0.12-0.42-0.18-0.63-0.18c-1.03,0-1.55,1.08-1.94,1.87
			c-0.19,0.39-0.45,0.71-0.76,1.01c-0.03,0.03-0.1,0.04-0.09-0.05c-0.01-0.88-0.1-1.88-0.72-2.69c-0.37-0.49-1.05-0.72-1.53-0.72
			c-0.71,0-1.27,0.55-1.55,0.88c-0.37,0.44-0.64,1.01-0.77,1.65c-0.13,0.62-0.13,1.22-0.11,1.95c0.02,0.72,0.23,1.35,0.46,1.93
			c0.02,0.06,0.05,0.13,0.05,0.19c0,0.26-0.32,0.44-0.55,0.46c-0.25,0.02-0.5-0.1-0.64-0.3c-0.14-0.21-0.15-0.46-0.15-0.73
			c0-0.05,0-0.11,0-0.17c-0.01-0.15,0-0.31,0-0.47l0-0.11c0-0.06,0-0.11,0-0.17l0-1.01l0.02-1.29c0-0.36-0.03-1.24-0.45-1.49
			c-0.09-0.05-0.18-0.08-0.27-0.09c-0.02,0-0.03,0-0.05,0c-0.18,0-0.36,0.08-0.55,0.25c-0.36,0.32-0.59,0.76-0.76,1.14
			c-0.41,0.93-0.73,2.02-0.97,3.33c-0.01,0.07-0.03,0.15-0.04,0.24l0-1.41c0-0.24,0-0.46-0.01-0.67l0-0.09
			c0-0.21-0.01-0.43-0.01-0.68l0-0.35c0.01-0.13-0.07-0.26-0.19-0.32l-0.14-0.06c-0.1-0.04-0.17-0.08-0.23-0.11
			c-0.11-0.06-0.19-0.1-0.33-0.13c-0.03-0.01-0.06-0.01-0.09-0.01c-0.19,0-0.35,0.15-0.36,0.34l0,0.04c0,0.1-0.01,0.2-0.01,0.3
			c-0.01,0.26-0.01,0.51-0.02,0.77l0,0.11c-0.01,0.2-0.01,0.38-0.01,0.55c0,0.17,0,0.34-0.01,0.54l-0.03,1.31c0,0.13,0,0.26,0,0.4
			c0,0.69,0,1.4-0.34,1.96c-0.05,0.08-0.1,0.13-0.17,0.17c-0.25,0.13-0.44-0.12-0.5-0.24c-0.32-0.54-0.28-1.18-0.25-1.81
			c0.01-0.14,0.01-0.27,0.02-0.4c0.03-1.13,0.06-2.25,0.09-3.33c0-0.06-0.02-0.11-0.07-0.14c-0.05-0.03-0.1-0.04-0.16-0.03
			l-0.43,0.14c-0.24,0.08-0.38,0.57-0.46,0.98c0,0.02-0.02,0.03-0.04,0.03c-0.01,0-0.03,0-0.04-0.02c-0.1-0.21-0.33-0.55-0.75-0.54
			c-1,0.03-1.81,0.86-2.16,1.66c-0.32,0.73-0.42,1.52-0.47,2.27c-0.02,0.3-0.03,0.6-0.03,0.9l0,0.01c0,0.35-0.01,0.71-0.04,1.06
			c-0.05,0.45-0.14,0.81-0.44,1.11c-0.02,0.02-0.05,0.04-0.07,0.06c-0.04,0.03-0.09,0.04-0.13,0.04c-0.15,0-0.29-0.17-0.36-0.33
			c-0.37-0.79-0.3-1.67-0.23-2.52l0.18-2.29c0.14-1.73,0.2-2.13,0.22-2.23c2.39-0.31,4.6-1.69,6.07-3.79
			c0.29-0.42,0.45-0.89,0.47-1.37c0.01-0.35-0.04-0.67-0.16-0.95c-0.07-0.17-0.23-0.29-0.41-0.29c0,0,0,0,0,0
			c-0.16,0-0.31,0.09-0.38,0.23c-1.21,2.29-3.18,3.88-5.42,4.37l0.21-2.69l0-0.03l-0.12,0.03c-0.67,0.16-1.21,1.12-1.59,2.85h0
			c-1.61,0-3.88-0.31-5.53-1.78l-0.01-0.01l0-0.1c-0.07-1.26-0.84-2.34-2.06-2.9c-0.25-0.11-0.51-0.2-0.77-0.26
			c-0.22-0.05-0.45-0.08-0.68-0.1c-0.12-0.01-0.24-0.01-0.35-0.01c-1.47,0-2.8,0.51-3.75,1.45c-1.1,1.09-1.66,2.75-1.51,4.57
			c0.07,0.89,0.4,1.79,0.96,2.6c0.38,0.55,0.85,1.03,1.3,1.5c0.16,0.17,0.33,0.35,0.5,0.52c0.52,0.56,1.15,1.33,1.42,2.23
			c0.22,0.77,0.18,1.64-0.11,2.47c-0.67,1.84-2.47,3.08-4.5,3.08c-0.35,0-0.71-0.04-1.05-0.12c-1.27-0.29-2.39-1.12-3.01-2.22
			c-0.63-1.12-0.83-2.89,0-4.1c0.35-0.5,0.87-0.82,1.48-0.91c0.07-0.01,0.14-0.02,0.22-0.02c0.51,0,0.95,0.25,1.23,0.68
			c0.11,0.18,0.17,0.36,0.17,0.53c0,0.19-0.11,0.38-0.23,0.58c-0.22,0.36-0.47,0.77-0.2,1.37c0.19,0.42,0.61,0.66,1.16,0.66
			c0.26,0,0.53-0.05,0.77-0.16c0.31-0.13,0.6-0.36,0.84-0.64c0.26-0.32,0.43-0.77,0.49-1.29c0.06-0.48-0.04-0.96-0.3-1.51
			c-0.02-0.04-0.04-0.08-0.06-0.12c-0.24-0.49-0.59-0.92-1.01-1.22c-0.61-0.44-1.37-0.68-2.2-0.68c-1.33,0-2.68,0.6-3.52,1.55
			c-0.7,0.81-1.13,1.87-1.22,3.07c-0.09,1.12,0.12,2.28,0.6,3.27c0.85,1.76,2.52,3.05,4.49,3.46c0.66,0.13,1.32,0.2,1.98,0.2
			c1.42,0,2.77-0.32,3.9-0.92c1.93-1.03,3.19-3.12,3.28-5.47c0.06-1.61-0.46-3.2-1.43-4.37c-0.38-0.45-0.83-0.85-1.26-1.23
			c-0.38-0.33-0.77-0.68-1.11-1.06c-0.54-0.6-1.19-1.56-1.28-2.75c-0.07-0.92,0.27-1.85,0.91-2.54c0.64-0.68,1.48-1.06,2.4-1.06
			c0.31,0,0.75,0.06,1.04,0.34c0.13,0.12,0.23,0.28,0.28,0.45c0.06,0.21,0.04,0.27,0.04,0.27c0,0-0.01,0-0.01,0
			c-0.04-0.01-0.07-0.01-0.1-0.02c-0.09-0.01-0.18-0.02-0.26-0.02c-0.77,0-1.61,0.47-2.13,1.21c-0.34,0.47-0.45,1.09-0.3,1.62
			c0.13,0.46,0.44,0.81,0.88,0.99c0.21,0.09,0.45,0.13,0.71,0.13c0.16,0,0.33-0.02,0.5-0.05c0.53-0.11,1.05-0.31,1.46-0.56
			c0.42-0.27,0.75-0.64,1.02-0.96l0.17-0.22c1.39,1.32,3.35,2.12,5.53,2.27c-0.23,1.7-0.3,3.4-0.33,4.13c0,0.09-0.01,0.17-0.01,0.22
			c-0.01,0.17-0.02,0.33-0.05,0.48c-0.08,0.48-0.33,1.34-1.1,1.69c-0.02,0.01-0.03,0.01-0.05,0c-0.01-0.01-0.02-0.02-0.02-0.04
			c0-0.13-0.02-0.37-0.06-0.72l0-0.02c-0.03-0.31-0.08-0.59-0.16-0.84c-0.11-0.39-0.31-0.96-0.76-1.33
			c-0.26-0.21-0.59-0.35-0.95-0.4c-1.2-0.16-2.11,0.68-2.55,1.53c-0.42,0.81-0.61,1.81-0.53,2.83c0.06,0.7,0.27,1.67,0.96,2.32
			c0.28,0.26,0.73,0.57,1.32,0.57c0,0,0,0,0,0c0.56,0,1.18-0.27,1.58-0.69c0.33-0.34,0.59-0.8,0.79-1.41
			c0.1-0.29,0.19-0.61,0.26-0.98c0.58-0.1,1-0.26,1.25-0.48c0.11,0.92,0.93,1.69,1.85,1.73c0.02,0,0.03,0,0.05,0
			c0.81,0,1.61-0.73,1.91-1.75c0-0.01,0.01-0.01,0.01-0.01c0,0,0.01,0,0.02,0.01c0.18,0.4,0.6,0.67,0.91,0.72
			c0.07,0.01,0.15,0.02,0.23,0.02c0.37,0,0.74-0.14,1-0.39c0.31-0.29,0.53-0.71,0.67-1.26c0-0.01,0.01-0.01,0.01-0.01
			c0,0,0.01,0,0.02,0.01c0.14,0.26,0.68,0.77,1.27,0.77c0.1,0,0.2-0.02,0.3-0.05c0.46-0.15,0.92-0.74,1.13-1.45
			c0-0.01,0.01-0.01,0.01-0.01h0c0,0,0.01,0,0.02,0.01c0.1,0.34,0.28,0.61,0.49,0.73c0.14,0.08,0.29,0.09,0.45,0.04
			c0.2-0.06,0.36-0.21,0.44-0.4c0.04-0.11,0.05-0.23,0.07-0.34c0.01-0.1,0.02-0.21,0.03-0.31c0.15-1.48,0.3-3,0.94-4.39
			c0.08-0.17,0.15-0.32,0.23-0.46c0,0.13-0.01,0.26-0.01,0.39l-0.01,0.19c-0.02,0.66-0.04,1.34-0.08,2.01
			c-0.04,0.63-0.02,1.28,0.46,1.75c0.3,0.29,0.71,0.46,1.12,0.46c0.14,0,0.28-0.02,0.42-0.06l0.02-0.01c0.02,0,0.03-0.01,0.05-0.01
			c0.55-0.18,0.88-0.79,0.99-1.05c0.01-0.03,0.04-0.05,0.07-0.06c0.03-0.01,0.07,0.01,0.09,0.03c0.22,0.23,0.62,0.33,0.9,0.32
			c0.68-0.02,1.34-0.43,1.81-1.13c0.04-0.06,0.08-0.11,0.11-0.18c0.13-0.21,0.24-0.45,0.34-0.76c0.05-0.14,0.09-0.28,0.14-0.44
			c0.01-0.03,0.05-0.18,0.09-0.32c0.05-0.17,0.11-0.26,0.23-0.32c0.77-0.38,1.58-1.62,1.82-1.96c0.16-0.23,0.46-0.36,0.7-0.16
			c0.12,0.1,0.19,0.24,0.21,0.4c0.05,0.28-0.03,0.57-0.1,0.83c-0.07,0.27-0.15,0.53-0.24,0.79c-0.19,0.52-0.42,1.02-0.7,1.5
			c0,0,0,0,0,0c-0.5,0.85-1.12,1.63-1.82,2.31c-0.4,0.39-0.82,0.74-1.26,1.07c-1.68,1.25-4.34,2.35-7.18,3.19
			c-3.45,1.03-7.23,1.72-10.72,2.34c-1.34,0.24-3.13,0.64-4.41,0.97c-3.14,0.81-5.46,2.04-7.1,3.75c-0.77,0.8-1.29,1.63-1.56,2.47
			c-0.32,1.01-0.26,2.06,0.15,2.89c0.4,0.8,1.16,1.38,1.98,1.52c0.13,0.02,0.26,0.03,0.39,0.03c0.65,0,1.28-0.27,1.67-0.73
			c0.33-0.38,0.49-0.87,0.65-1.34c0.04-0.12,0.08-0.25,0.13-0.37c0.78-2.13,2.5-3.21,4.84-4.18c2.6-1.08,5.8-2.12,8.43-2.99
			c1.47-0.48,2.95-0.95,4.42-1.46c1.28-2.04,3.54-3.4,6.12-3.4c0.5,0,0.99,0.05,1.47,0.15c0.99-0.56,1.93-1.18,2.78-1.94
			c1.31-1.17,2.26-2.66,2.91-4.28c0.3-0.76,0.49-1.49,0.55-2.19C44.45,14.02,44.46,13.23,44.09,12.54z M14.69,12.02
			c-0.01,0.02-0.02,0.05-0.04,0.07c-0.16,0.26-0.43,0.45-0.63,0.56c-0.28,0.16-0.56,0.24-0.83,0.25h-0.01
			c-0.16,0-0.28-0.03-0.35-0.1c-0.15-0.13-0.17-0.38-0.13-0.55c0.04-0.21,0.16-0.41,0.32-0.58c0.24-0.25,0.63-0.41,0.99-0.41
			c0.19,0,0.37,0.05,0.51,0.14C14.73,11.51,14.8,11.8,14.69,12.02z M18.81,21.88c-0.07,0.56-0.2,1.12-0.46,1.61
			c-0.11,0.21-0.27,0.55-0.55,0.55c-0.35,0-0.53-0.54-0.61-0.81c-0.11-0.36-0.17-0.74-0.21-1.11c-0.07-0.6-0.05-1.2,0.06-1.79
			c0.04-0.18,0.08-0.37,0.13-0.56c0.02-0.06,0.1-0.05,0.11,0.01c0.08,0.59,0.51,1.48,1.41,1.88C18.77,21.69,18.82,21.79,18.81,21.88
			z M18.77,20.88c-1.07-0.53-1.47-1.82-0.99-2.23h0c0.01-0.01,0.01-0.01,0.02-0.01c0.46-0.33,0.74,0.33,0.85,0.66
			c0.16,0.49,0.23,1,0.23,1.52C18.88,20.87,18.82,20.91,18.77,20.88z M27.44,17.82c-0.03,0.73-0.07,1.5-0.2,2.24
			c-0.04,0.24-0.1,0.48-0.17,0.71c-0.04,0.15-0.12,0.31-0.27,0.35c-0.17,0.04-0.32-0.1-0.41-0.25c-0.14-0.23-0.22-0.49-0.29-0.75
			c-0.33-1.39-0.12-2.94,0.56-4.19c0.03-0.06,0.07-0.12,0.1-0.17c0.11-0.16,0.32-0.37,0.52-0.21c0.12,0.1,0.12,0.27,0.13,0.42
			c0.01,0.2,0.02,0.4,0.02,0.61C27.46,17,27.46,17.41,27.44,17.82z M38.68,15.63c-0.08,0.51-0.21,1.01-0.44,1.45
			c-0.11,0.21-0.27,0.55-0.55,0.55c-0.35,0-0.53-0.54-0.61-0.81c-0.11-0.36-0.17-0.74-0.21-1.11c-0.07-0.6-0.05-1.2,0.06-1.79
			c0.05-0.24,0.11-0.49,0.19-0.73c0.01-0.02,0.04-0.01,0.03,0.01c-0.04,0.58,0.33,1.79,1.4,2.22
			C38.64,15.45,38.69,15.54,38.68,15.63z M38.6,14.56c-1.02-0.56-1.4-1.84-0.96-2.27c0.01-0.01,0.02-0.02,0.03-0.02
			c0.01-0.01,0.02-0.02,0.03-0.03c0.46-0.33,0.74,0.33,0.85,0.66c0.17,0.51,0.23,1.03,0.24,1.56C38.78,14.54,38.68,14.6,38.6,14.56z
			"/>
	</g>
</g>
</svg>
