<svg width="504" height="468" viewBox="0 0 504 468" fill="none" xmlns="http://www.w3.org/2000/svg">
<path d="M48 435.19V451.595H97.2754V468H290.203V451.595H339.478V435.19H372.29V418.786H388.754V402.381H405.217V385.976H421.681V369.571H438.145V353.166H454.609V336.761H471.072V304.067H487.536V254.968H504V177.334H487.536V144.64H471.072V111.946H454.609V31.4234H439.188V15.134H422.725V0H377.739V16.4048H361.275V147.297H344.348V163.702H327.884V196.396H311.42V212.57H294.957V228.975H278.493V245.379H262.029V261.784H245.565V278.189H229.101V294.594H196.29V310.999H147.014V327.404H48.4638V343.808H15.6522V360.213H0V419.017H15.1884V435.421H48V435.19ZM389.797 159.427V28.5352H410.435V43.6692H425.855V140.596H442.319V157.001H458.783V189.695H475.246V243.069H458.783V292.168H442.319V324.862H425.855V341.267H409.391V357.672H392.928V374.077H376.464V390.481H360V406.886H327.188V423.291H277.913V439.696H109.449V423.291H60.1739V406.886H27.8261V372.344H60.6377V355.939H159.188V339.534H208.464V323.129H241.275V306.724H257.739V290.319H274.203V273.915H290.667V257.51H307.13V241.105H323.594V224.931H340.058V208.526H356.522V175.832H372.986V159.427H389.913H389.797Z" fill="white"/>
</svg>
