<svg width="404" height="62" viewBox="0 0 404 62" fill="none" xmlns="http://www.w3.org/2000/svg">
<path d="M39.2403 0.215529H27.9477L0 60.5958L27.2566 60.4997L46.8948 46.8701L53.2264 60.7646H67.1622L39.2403 0.215529ZM18.1794 51.1311L33.0421 18.5637H34.1024L44.1804 40.677L18.1794 51.1311Z" fill="white"/>
<path d="M80.3345 37.4746C80.3345 30.7084 84.5915 25.7966 90.4554 25.7966C94.6267 25.7966 98.3413 28.5433 99.658 32.4612L112.539 30.8252C110.773 21.0768 102.323 15.0739 90.194 15.0739C75.7286 15.0739 66.3827 23.8657 66.3827 37.474C66.3827 50.8736 75.9514 59.8753 90.194 59.8753C102.241 59.8753 110.686 53.8748 112.528 44.1301L99.6556 42.5699C98.3296 46.4945 94.6487 49.152 90.3691 49.152C84.5541 49.1526 80.3345 44.242 80.3345 37.4746Z" fill="white"/>
<path d="M134.981 44.118V26.6163H144.379V17.3707H134.981V3.37406H124.289L121.331 17.3707H115.198V26.6163H120.941V44.9015C120.941 54.7056 126.839 61.0424 135.966 61.0424C138.306 61.0424 141.884 60.6516 144.64 59.8039V50.768C143.484 50.9778 142.326 51.102 141.447 51.102C137.581 51.1014 134.981 48.2947 134.981 44.118Z" fill="white"/>
<path d="M164.448 16.8517H150.495V59.3932H164.448V16.8517Z" fill="white"/>
<path d="M157.444 0C153.479 0 150.711 2.64581 150.711 6.43532C150.711 10.2065 153.544 12.944 157.444 12.944C161.45 12.944 164.248 10.2689 164.248 6.43532C164.249 2.58771 161.514 0 157.444 0Z" fill="white"/>
<path d="M203.493 16.8517L193.689 48.2369H192.754L182.948 16.8517H168.197L182.225 59.3932H204.302L218.331 16.8517H203.493Z" fill="white"/>
<path d="M242.344 15.0739C227.161 15.0739 218.095 23.4474 218.095 37.474C218.095 51.2914 227.388 59.8753 242.344 59.8753C257.248 59.8753 266.506 51.2914 266.506 37.474C266.505 23.6578 257.247 15.0739 242.344 15.0739ZM242.344 48.5434C236.333 48.5434 232.135 43.9925 232.135 37.474C232.135 30.9573 236.332 26.4045 242.344 26.4045C248.259 26.4045 252.554 31.0594 252.554 37.474C252.554 43.8885 248.259 48.5434 242.344 48.5434Z" fill="white"/>
<path d="M284.311 32.2724V17.6997H290.642C293.333 17.6997 295.256 19.3327 295.256 21.6066C295.256 22.9919 294.367 24.2316 293.125 24.6249V24.8316C294.615 25.2451 295.67 26.6096 295.67 28.1808C295.67 30.5373 293.56 32.273 290.642 32.273L284.311 32.2724ZM286.194 23.9625H290.415C292.153 23.9625 293.394 23.0115 293.394 21.6684C293.394 20.3253 292.153 19.3528 290.415 19.3528H286.194V23.9625ZM286.194 30.6192H290.373C292.38 30.6192 293.808 29.544 293.808 28.0768C293.808 26.6505 292.38 25.6169 290.373 25.6169H286.194V30.6192Z" fill="white"/>
<path d="M290.649 32.5854H284.012V17.401H290.649C293.5 17.401 295.569 19.1722 295.569 21.6138C295.569 22.9397 294.828 24.1495 293.714 24.722C295.073 25.3158 295.983 26.6742 295.983 28.1879C295.983 30.7353 293.74 32.5854 290.649 32.5854ZM284.625 31.9738H290.65C293.386 31.9738 295.372 30.3811 295.372 28.1873C295.372 26.7684 294.417 25.5121 293.051 25.133L292.827 25.0706V24.4076L293.04 24.3403C294.17 23.9831 294.958 22.8621 294.958 21.6138C294.958 19.4933 293.187 18.0126 290.651 18.0126H284.626L284.625 31.9738ZM290.381 30.9322H285.895V25.3183H290.381C292.548 25.3183 294.121 26.4816 294.121 28.084C294.121 29.7341 292.548 30.9322 290.381 30.9322ZM286.507 30.3206H290.381C292.194 30.3206 293.509 29.38 293.509 28.084C293.509 26.8357 292.194 25.9299 290.381 25.9299H286.507V30.3206ZM290.422 24.2755H285.895V19.0542H290.422C292.325 19.0542 293.707 20.1563 293.707 21.6755C293.708 23.1819 292.326 24.2755 290.422 24.2755ZM286.507 23.6639H290.423C291.996 23.6639 293.096 22.8462 293.096 21.6755C293.096 20.511 291.972 19.6658 290.423 19.6658H286.507V23.6639Z" fill="white"/>
<path d="M297.593 32.2724L303.096 17.6997H305.662L311.104 32.2724H309.304L308.063 29.0064H300.635L299.393 32.2724H297.593ZM301.193 27.456H307.525L304.463 19.3528H304.276L301.193 27.456Z" fill="white"/>
<path d="M311.549 32.5854H309.097L307.856 29.3194H300.85L299.608 32.5854H297.155L302.889 17.401H305.879L305.953 17.5998L311.549 32.5854ZM309.519 31.9738H310.667L305.454 18.0126H303.312L298.039 31.9738H299.186L300.427 28.7078H308.277L309.519 31.9738ZM307.972 27.769H300.754L304.069 19.0542H304.678L307.972 27.769ZM301.641 27.1574H307.086L304.373 19.9771L301.641 27.1574Z" fill="white"/>
<path d="M313.906 32.2724V17.6997H316.616L323.526 29.7924H323.713V17.6997H325.595V32.2724H322.906L315.995 20.1803H315.788V32.2724H313.906Z" fill="white"/>
<path d="M325.909 32.5854H322.735L316.101 20.9777V32.5854H313.607V17.401H316.801L323.414 28.9732V17.401H325.909V32.5854ZM323.091 31.9738H325.297V18.0126H324.027V30.1053H323.357L316.446 18.0126H314.219V31.9738H315.49V19.8817H316.18L323.091 31.9738Z" fill="white"/>
<path d="M328.852 24.9778C328.852 20.4507 332.017 17.1847 336.403 17.1847C339.693 17.1847 342.589 19.4171 343.314 22.4763L341.472 22.7246C340.935 20.4715 338.804 18.8385 336.403 18.8385C333.093 18.8385 330.734 21.4225 330.734 24.9778C330.734 28.5538 333.114 31.1379 336.403 31.1379C338.763 31.1379 340.893 29.5459 341.493 27.3961L343.293 27.7477C342.569 30.6627 339.672 32.7911 336.403 32.7911C332.017 32.7911 328.831 29.5049 328.852 24.9778Z" fill="white"/>
<path d="M336.411 33.1046C334.247 33.1046 332.268 32.3144 330.838 30.8796C329.354 29.3897 328.542 27.2962 328.553 24.9837C328.553 20.2927 331.857 16.8861 336.411 16.8861C339.829 16.8861 342.86 19.2108 343.619 22.4131L343.697 22.7416L341.246 23.0718L341.182 22.8027C340.677 20.6872 338.67 19.1515 336.411 19.1515C333.303 19.1515 331.047 21.6046 331.047 24.985C331.047 28.3769 333.303 30.8393 336.411 30.8393C338.62 30.8393 340.636 29.3598 341.206 27.3213L341.282 27.0491L343.675 27.5164L343.597 27.8283C342.838 30.8863 339.816 33.1046 336.411 33.1046ZM336.411 17.4983C332.212 17.4983 329.165 20.6468 329.165 24.9856C329.155 27.1354 329.903 29.0748 331.272 30.4484C332.585 31.7671 334.41 32.493 336.411 32.493C339.421 32.493 342.103 30.6185 342.917 27.9922L341.711 27.7567C340.974 29.9139 338.791 31.4515 336.411 31.4515C332.949 31.4515 330.435 28.7323 330.435 24.9856C330.435 21.2511 332.948 18.5405 336.411 18.5405C338.854 18.5405 341.037 20.1453 341.705 22.3936L342.936 22.2278C342.12 19.4683 339.43 17.4983 336.411 17.4983Z" fill="white"/>
<path d="M345.642 24.9778C345.642 20.4299 348.911 17.1847 353.525 17.1847C358.139 17.1847 361.408 20.4305 361.408 24.9778C361.408 29.5667 358.139 32.7911 353.525 32.7911C348.911 32.7911 345.642 29.5667 345.642 24.9778ZM359.505 24.9778C359.505 21.4017 357.022 18.8385 353.525 18.8385C350.028 18.8385 347.525 21.4017 347.525 24.9778C347.525 28.5538 350.028 31.1379 353.525 31.1379C357.022 31.1379 359.505 28.5545 359.505 24.9778Z" fill="white"/>
<path d="M353.532 33.104C348.711 33.104 345.343 29.7653 345.343 24.9849C345.343 20.2921 348.787 16.8861 353.532 16.8861C358.277 16.8861 361.721 20.2921 361.721 24.9849C361.721 29.7653 358.354 33.104 353.532 33.104ZM353.532 17.4977C349.071 17.4977 345.955 20.5765 345.955 24.9849C345.955 29.405 349.071 32.4924 353.532 32.4924C357.993 32.4924 361.109 29.405 361.109 24.9849C361.109 20.5765 357.993 17.4977 353.532 17.4977ZM353.532 31.4508C349.878 31.4508 347.226 28.7316 347.226 24.9849C347.226 21.2505 349.878 18.5398 353.532 18.5398C357.174 18.5398 359.818 21.2505 359.818 24.9849C359.818 28.7316 357.174 31.4508 353.532 31.4508ZM353.532 19.1514C350.179 19.1514 347.838 21.5502 347.838 24.9849C347.838 28.3769 350.233 30.8392 353.532 30.8392C356.873 30.8392 359.206 28.432 359.206 24.9849C359.206 21.5508 356.873 19.1514 353.532 19.1514Z" fill="white"/>
<path d="M284.182 51.468V42.4964H286.086V51.468C286.086 54.0729 287.803 55.9328 290.182 55.9328C292.561 55.9328 294.258 54.0729 294.258 51.468V42.4964H296.14V51.468C296.14 55.0233 293.657 57.5865 290.182 57.5865C286.707 57.5865 284.182 55.0233 284.182 51.468Z" fill="white"/>
<path d="M290.19 57.8995C286.535 57.8995 283.884 55.1974 283.884 51.4752V42.1977H286.399V51.4752C286.399 53.9241 287.958 55.6341 290.189 55.6341C292.409 55.6341 293.959 53.9241 293.959 51.4752V42.1977H296.454V51.4752C296.455 55.1974 293.82 57.8995 290.19 57.8995ZM284.496 42.8093V51.4752C284.496 54.8433 286.89 57.2879 290.19 57.2879C293.466 57.2879 295.842 54.8433 295.842 51.4752V42.8093H294.572V51.4752C294.572 54.2397 292.729 56.2457 290.19 56.2457C287.639 56.2457 285.787 54.2397 285.787 51.4752V42.8093H284.496Z" fill="white"/>
<path d="M300.183 57.0697V42.4964H302.894L309.804 54.5891H309.991V42.4964H311.873V57.0697H309.184L302.273 44.9777H302.066V57.0697H300.183Z" fill="white"/>
<path d="M312.187 57.3827H309.013L302.379 45.775V57.3827H299.885V42.1977H303.079L309.692 53.7706V42.1977H312.187V57.3827ZM309.369 56.7711H311.575V42.8093H310.305V54.902H309.635L302.725 42.8093H300.497V56.7711H301.768V44.679H302.458L309.369 56.7711Z" fill="white"/>
<path d="M316.015 57.0697V42.4964H317.898V57.0697H316.015Z" fill="white"/>
<path d="M318.211 57.3827H315.716V42.1977H318.211V57.3827ZM316.329 56.7711H317.599V42.8093H316.329V56.7711Z" fill="white"/>
<path d="M325.866 57.0697L320.673 42.4964H322.597L327.252 55.6643H327.438L332.072 42.4964H333.997L328.804 57.0697H325.866Z" fill="white"/>
<path d="M329.015 57.3827H325.646L320.234 42.1977H322.808L327.34 55.0158L331.851 42.1977H334.426L329.015 57.3827ZM326.077 56.7711H328.584L333.559 42.8093H332.285L327.651 55.9772H327.031L322.376 42.8093H321.103L326.077 56.7711Z" fill="white"/>
<path d="M336.776 57.0697V42.4964H346.79V44.1502H338.679V48.6981H345.961V50.3519H338.679V55.4159H346.996V57.0697H336.776Z" fill="white"/>
<path d="M347.31 57.3827H336.477V42.1977H347.103V44.4631H338.992V48.3994H346.275V50.6648H338.992V55.1173H347.31V57.3827ZM337.089 56.7711H346.698V55.7289H338.38V50.0532H345.662V49.011H338.38V43.8515H346.491V42.8093H337.089V56.7711Z" fill="white"/>
<path d="M350.208 57.0697V42.4964H356.56C359.725 42.4964 361.815 44.2333 361.815 46.9201C361.815 49.4008 359.87 51.1372 357.16 51.2613H356.912L362.208 57.0697H359.829L354.781 51.3647H352.09V57.0697H350.208ZM352.09 49.7109H356.56C358.65 49.7109 359.932 48.6357 359.932 46.9207C359.932 45.226 358.65 44.1508 356.56 44.1508H352.09V49.7109Z" fill="white"/>
<path d="M362.908 57.3827H359.698L354.65 51.6776H352.404V57.3827H349.909V42.1977H356.567C359.894 42.1977 362.129 44.098 362.129 46.9273C362.129 49.408 360.28 51.2605 357.583 51.5437L362.908 57.3827ZM359.974 56.7711H361.522L356.225 50.9627H357.167C359.762 50.8434 361.516 49.2214 361.516 46.9273C361.516 44.4252 359.573 42.8093 356.566 42.8093H350.521V56.7711H351.791V51.066H354.925L359.974 56.7711ZM356.567 50.0239H351.792V43.8515H356.567C358.801 43.8515 360.246 45.0588 360.246 46.9273C360.245 48.8086 358.801 50.0239 356.567 50.0239ZM352.404 49.4123H356.567C358.487 49.4123 359.633 48.4832 359.633 46.9279C359.633 45.3848 358.487 44.4637 356.567 44.4637H352.404V49.4123Z" fill="white"/>
<path d="M364.293 52.3377H366.155C366.175 54.5915 367.769 55.9346 370.5 55.9346C372.879 55.9346 374.265 54.9016 374.265 53.2686C374.265 51.2638 372.237 50.9329 370.044 50.5812C367.417 50.1672 364.52 49.4852 364.52 46.3226C364.52 43.6976 366.527 41.9814 370.044 41.9814C373.624 41.9814 375.796 43.8419 375.817 46.922H373.996C373.996 44.8547 372.548 43.6352 370.044 43.6352C367.685 43.6352 366.403 44.648 366.403 46.2192C366.403 48.1421 368.348 48.4932 370.499 48.8241C373.148 49.2583 376.148 49.8369 376.148 53.1438C376.148 55.8728 374.058 57.5884 370.479 57.5884C366.651 57.5884 364.293 55.5835 364.293 52.3377Z" fill="white"/>
<path d="M370.486 57.9007C366.481 57.9007 363.994 55.7717 363.994 52.3443V52.0385H366.465L366.468 52.3412C366.487 54.4348 367.959 55.6353 370.507 55.6353C372.673 55.6353 373.966 54.7534 373.966 53.2752C373.966 51.6422 372.469 51.285 370.003 50.8905C367.206 50.4495 364.221 49.6973 364.221 46.3297C364.221 43.4631 366.455 41.6828 370.051 41.6828C373.779 41.6828 376.109 43.6925 376.13 46.9273L376.132 47.2349H373.697V46.9291C373.697 45.0344 372.368 43.9482 370.051 43.9482C367.931 43.9482 366.716 44.7781 366.716 46.2264C366.716 47.8196 368.235 48.1725 370.554 48.5291C373.048 48.9383 376.461 49.4979 376.461 53.1516C376.46 56.0806 374.171 57.9007 370.486 57.9007ZM364.613 52.6501C364.753 55.5619 366.927 57.2891 370.486 57.2891C373.843 57.2891 375.849 55.7424 375.849 53.1504C375.849 50.252 373.407 49.6159 370.457 49.1321C368.418 48.8184 366.104 48.463 366.104 46.2258C366.104 44.4166 367.579 43.3359 370.051 43.3359C372.594 43.3359 374.16 44.5579 374.299 46.6227H375.508C375.35 43.9053 373.332 42.2938 370.051 42.2938C366.783 42.2938 364.833 43.8026 364.833 46.3291C364.833 49.2147 367.435 49.8654 370.1 50.2856C372.302 50.6385 374.578 51.003 374.578 53.2752C374.578 55.1081 373.018 56.2469 370.507 56.2469C367.739 56.2469 366.027 54.9087 365.868 52.6501H364.613Z" fill="white"/>
<path d="M378.162 57.0697L383.666 42.4964H386.231L391.673 57.0697H389.873L388.632 53.8038H381.204L379.963 57.0697H378.162ZM381.763 52.2533H388.094L385.032 44.1502H384.845L381.763 52.2533Z" fill="white"/>
<path d="M392.117 57.3827H389.665L388.425 54.1167H381.419L380.178 57.3827H377.724L383.458 42.1977H386.448L386.523 42.3965L392.117 57.3827ZM390.087 56.7711H391.236L386.022 42.8093H383.881L378.608 56.7711H379.755L380.996 53.5051H388.846L390.087 56.7711ZM388.54 52.5663H381.322L384.638 43.8515H385.247L388.54 52.5663ZM382.209 51.9547H387.655L384.941 44.7744L382.209 51.9547Z" fill="white"/>
<path d="M394.459 57.0697V42.4964H396.341V55.4159H403.687V57.0697H394.459Z" fill="white"/>
<path d="M404 57.3827H394.16V42.1977H396.655V55.1173H404V57.3827ZM394.772 56.7711H403.388V55.7289H396.043V42.8093H394.772V56.7711Z" fill="white"/>
<path d="M275.72 13.0715H273.884V62H275.72V13.0715Z" fill="white"/>
</svg>
