<?xml version="1.0" encoding="UTF-8"?><svg id="a" xmlns="http://www.w3.org/2000/svg" viewBox="0 0 1364.17 366.03"><defs><style>.b{fill:#fff;}</style></defs><g><g><path class="b" d="M1241.42,333.19c1.83-3.31,4.39-5.9,7.66-7.75,3.28-1.85,6.99-2.78,11.14-2.78,5.09,0,9.44,1.34,13.07,4.03,3.62,2.68,6.04,6.35,7.26,10.99h-11.48c-.9-1.75-2.12-3.08-3.66-4-1.55-.92-3.32-1.38-5.31-1.38-3.21,0-5.82,1.11-7.82,3.33-1.99,2.22-2.99,5.18-2.99,8.88s1,6.67,2.99,8.91c2,2.24,4.6,3.36,7.82,3.36,2,0,3.76-.47,5.31-1.41,1.55-.93,2.77-2.28,3.66-4.03h11.48c-1.22,4.64-3.64,8.29-7.26,10.96-3.62,2.66-7.98,4-13.07,4-4.15,0-7.87-.92-11.14-2.78-3.28-1.85-5.83-4.43-7.66-7.72-1.83-3.3-2.75-7.06-2.75-11.29s.92-8.01,2.75-11.33Z"/><path class="b" d="M1287.36,364.89c-1.16-1.08-1.74-2.41-1.74-4s.58-2.99,1.74-4.09c1.16-1.1,2.66-1.65,4.49-1.65s3.27,.55,4.43,1.65c1.16,1.1,1.74,2.46,1.74,4.09s-.58,2.92-1.74,4c-1.16,1.08-2.64,1.61-4.43,1.61s-3.33-.54-4.49-1.61Z"/><path class="b" d="M1330.86,358.44h-15.99l-2.57,7.57h-10.93l15.51-42.86h12.09l15.51,42.86h-11.05l-2.57-7.57Zm-2.62-7.94l-5.37-15.82-5.31,15.82h10.69Z"/><path class="b" d="M1349.58,364.89c-1.16-1.08-1.74-2.41-1.74-4s.58-2.99,1.74-4.09c1.16-1.1,2.66-1.65,4.49-1.65s3.27,.55,4.43,1.65c1.16,1.1,1.74,2.46,1.74,4.09s-.58,2.92-1.74,4c-1.16,1.08-2.64,1.61-4.43,1.61s-3.33-.54-4.49-1.61Z"/></g><g><path class="b" d="M92.07,344.9v19.12H0v-122.76H89.61v19.12H22.8v31.92h59.27v18.76H22.8v33.84H92.07Z"/><path class="b" d="M197.6,364.02l-33.32-46.65-32.97,46.65h-25.95l45.59-62.61-43.14-60.15h25.78l31.39,43.67,31.04-43.67h24.73l-42.96,59.27,46.12,63.48h-26.3Z"/><path class="b" d="M316.06,246.53c7.89,3.51,13.94,8.53,18.15,15.08,4.21,6.55,6.31,14.32,6.31,23.32s-2.1,16.63-6.31,23.24c-4.21,6.61-10.26,11.66-18.15,15.17-7.89,3.51-17.16,5.26-27.8,5.26h-27.71v35.43h-22.8v-122.76h50.5c10.64,0,19.9,1.75,27.8,5.26Zm-6.23,56.46c5.14-4.21,7.71-10.23,7.71-18.06s-2.57-13.85-7.71-18.06c-5.15-4.21-12.69-6.32-22.62-6.32h-26.65v48.75h26.65c9.94,0,17.48-2.11,22.62-6.32Z"/><path class="b" d="M388.57,357.62c-10.06-5.44-17.95-12.97-23.67-22.62-5.73-9.64-8.6-20.43-8.6-32.35s2.87-22.71,8.6-32.35c5.72-9.64,13.62-17.19,23.67-22.62,10.05-5.44,21.33-8.15,33.84-8.15s23.79,2.72,33.85,8.15c10.05,5.44,17.94,12.95,23.67,22.54,5.72,9.59,8.59,20.4,8.59,32.44s-2.87,22.86-8.59,32.44c-5.73,9.59-13.62,17.1-23.67,22.53-10.06,5.44-21.34,8.15-33.85,8.15s-23.79-2.72-33.84-8.15Zm55.94-17.36c6.55-3.68,11.69-8.82,15.43-15.43,3.74-6.61,5.61-14,5.61-22.19s-1.87-15.58-5.61-22.18c-3.74-6.61-8.88-11.75-15.43-15.43-6.55-3.68-13.91-5.52-22.1-5.52s-15.55,1.84-22.1,5.52c-6.55,3.68-11.69,8.83-15.43,15.43-3.74,6.61-5.61,14-5.61,22.18s1.87,15.58,5.61,22.19c3.74,6.61,8.88,11.75,15.43,15.43,6.55,3.69,13.91,5.52,22.1,5.52s15.55-1.84,22.1-5.52Z"/><path class="b" d="M620.82,364.02l-.35-65.83-31.94,53.59h-15.61l-31.76-51.82v64.06h-32.48v-124.22h28.93l43.65,71.69,42.59-71.69h28.93l.35,124.22h-32.3Z"/><path class="b" d="M705.19,358.16c-10.47-5.56-18.7-13.25-24.67-23.07-5.97-9.82-8.96-20.88-8.96-33.18s2.98-23.36,8.96-33.18c5.97-9.82,14.2-17.51,24.67-23.07,10.47-5.56,22.27-8.34,35.4-8.34s24.93,2.78,35.4,8.34c10.47,5.56,18.69,13.25,24.66,23.07,5.97,9.82,8.96,20.88,8.96,33.18s-2.99,23.36-8.96,33.18c-5.97,9.82-14.19,17.51-24.66,23.07-10.47,5.56-22.27,8.34-35.4,8.34s-24.93-2.78-35.4-8.34Zm52.44-25.2c5.08-2.96,9.11-7.13,12.07-12.51,2.96-5.38,4.44-11.56,4.44-18.54s-1.48-13.16-4.44-18.54c-2.96-5.38-6.98-9.55-12.07-12.51-5.09-2.96-10.77-4.44-17.04-4.44s-11.95,1.48-17.04,4.44c-5.09,2.96-9.11,7.13-12.07,12.51-2.96,5.39-4.44,11.56-4.44,18.54s1.48,13.16,4.44,18.54c2.96,5.38,6.98,9.55,12.07,12.51,5.08,2.96,10.76,4.44,17.04,4.44s11.95-1.48,17.04-4.44Z"/><path class="b" d="M882.38,331.01h-19.17v33.01h-35.14v-124.22h56.79c11.24,0,20.99,1.86,29.28,5.59,8.28,3.73,14.67,9.05,19.16,15.97,4.49,6.92,6.74,15.05,6.74,24.4s-2.1,16.83-6.3,23.51c-4.2,6.69-10.21,11.92-18.01,15.71l26.8,39.04h-37.62l-22.54-33.01Zm16.68-58.74c-3.67-3.19-9.11-4.79-16.32-4.79h-19.52v36.38h19.52c7.21,0,12.66-1.57,16.32-4.71,3.67-3.13,5.5-7.6,5.5-13.39s-1.84-10.29-5.5-13.49Z"/><path class="b" d="M1013.69,331.01h-19.17v33.01h-35.14v-124.22h56.79c11.24,0,20.99,1.86,29.28,5.59,8.28,3.73,14.67,9.05,19.16,15.97,4.49,6.92,6.74,15.05,6.74,24.4s-2.1,16.83-6.3,23.51c-4.2,6.69-10.21,11.92-18.01,15.71l26.8,39.04h-37.62l-22.54-33.01Zm16.68-58.74c-3.67-3.19-9.11-4.79-16.32-4.79h-19.52v36.38h19.52c7.21,0,12.66-1.57,16.32-4.71,3.67-3.13,5.5-7.6,5.5-13.39s-1.84-10.29-5.5-13.49Z"/><path class="b" d="M1117.94,358.16c-10.47-5.56-18.7-13.25-24.67-23.07-5.97-9.82-8.96-20.88-8.96-33.18s2.98-23.36,8.96-33.18c5.97-9.82,14.2-17.51,24.67-23.07,10.47-5.56,22.27-8.34,35.4-8.34s24.93,2.78,35.4,8.34c10.47,5.56,18.69,13.25,24.66,23.07,5.97,9.82,8.96,20.88,8.96,33.18s-2.99,23.36-8.96,33.18c-5.97,9.82-14.19,17.51-24.66,23.07-10.47,5.56-22.27,8.34-35.4,8.34s-24.93-2.78-35.4-8.34Zm52.44-25.2c5.08-2.96,9.11-7.13,12.07-12.51,2.96-5.38,4.44-11.56,4.44-18.54s-1.48-13.16-4.44-18.54c-2.96-5.38-6.98-9.55-12.07-12.51-5.09-2.96-10.77-4.44-17.04-4.44s-11.95,1.48-17.04,4.44c-5.09,2.96-9.11,7.13-12.07,12.51-2.96,5.39-4.44,11.56-4.44,18.54s1.48,13.16,4.44,18.54c2.96,5.38,6.98,9.55,12.07,12.51,5.08,2.96,10.76,4.44,17.04,4.44s11.95-1.48,17.04-4.44Z"/></g></g><g><path class="b" d="M760.58,48.4c2.64-7.37-1.31-15.26-9.61-19.19l-52.14-24.72c-1.31-.63-2.77-.94-4.21-.94-1.78,0-3.55,.47-5.03,1.41-1.06,.67-2.83,2.14-2.83,4.54l.34,183.79,44.88-65.12,28.6-79.77Z"/><path class="b" d="M694.94,193.88l68.58-32.33,63.87-46.26c2.56-1.85,4.2-4.6,4.63-7.73,.43-3.13-.42-6.22-2.39-8.69l-32.62-40.88c-1.03-1.29-2.55-2.02-4.19-2.02-.07,0-.13,0-.2,0-1.71,.06-3.26,.91-4.23,2.32l-65.36,94.83-28.09,40.75Z"/><path class="b" d="M847.85,133.34c-1.25-.88-2.69-1.32-4.14-1.32-1.05,0-2.1,.23-3.1,.7l-106.81,50.35-42.02,19.81c-2.17,1.02-3.32,2.64-3.82,4.32-.39,1.31-.4,2.67-.14,3.81,.59,2.61,2.84,5.68,7.09,5.63l142.34-.73c3.73-.02,6.81-2.84,7.16-6.55l6.49-69.43c.24-2.62-.89-5.08-3.05-6.59Z"/></g><g><path class="b" d="M597.7,48.4c-2.64-7.37,1.31-15.26,9.61-19.19l52.14-24.72c1.31-.63,2.77-.94,4.21-.94,1.78,0,3.55,.47,5.03,1.41,1.06,.67,2.83,2.14,2.83,4.54l-.34,183.79-44.88-65.12-28.6-79.77Z"/><path class="b" d="M663.33,193.88l-68.58-32.33-63.87-46.26c-2.56-1.85-4.2-4.6-4.63-7.73-.43-3.13,.42-6.22,2.39-8.69l32.62-40.88c1.03-1.29,2.55-2.02,4.19-2.02,.07,0,.13,0,.2,0,1.71,.06,3.26,.91,4.23,2.32l65.36,94.83,28.09,40.75Z"/><path class="b" d="M510.43,133.34c1.25-.88,2.69-1.32,4.14-1.32,1.05,0,2.1,.23,3.1,.7l106.81,50.35,42.02,19.81c2.17,1.02,3.32,2.64,3.82,4.32,.39,1.31,.4,2.67,.14,3.81-.59,2.61-2.84,5.68-7.09,5.63l-142.34-.73c-3.73-.02-6.81-2.84-7.16-6.55l-6.49-69.43c-.24-2.62,.89-5.08,3.05-6.59Z"/></g></svg>