<?xml version="1.0" encoding="UTF-8"?><svg id="a" xmlns="http://www.w3.org/2000/svg" viewBox="0 0 853.19 249.91"><defs><style>.b{isolation:isolate;opacity:.88;}.b,.c{fill:#fff;}</style></defs><g><path class="c" d="M211.82,218.01V75.21h25.44v12.31h3.69c2.32-3.97,5.95-7.49,10.87-10.57,4.92-3.08,11.97-4.62,21.13-4.62,8.21,0,15.8,2.02,22.77,6.05,6.98,4.04,12.58,9.95,16.82,17.75,4.24,7.8,6.36,17.23,6.36,28.31v3.28c0,11.08-2.12,20.52-6.36,28.31-4.24,7.8-9.85,13.71-16.82,17.75-6.98,4.03-14.57,6.05-22.77,6.05-6.16,0-11.32-.72-15.49-2.15-4.17-1.44-7.52-3.28-10.05-5.54s-4.55-4.55-6.05-6.87h-3.69v52.73h-25.85Zm53.35-60.72c8.07,0,14.74-2.56,20-7.69s7.9-12.62,7.9-22.47v-2.05c0-9.85-2.67-17.34-8-22.47s-11.97-7.69-19.9-7.69-14.57,2.56-19.9,7.69-8,12.62-8,22.47v2.05c0,9.85,2.67,17.34,8,22.47s11.97,7.69,19.9,7.69Z"/><path class="c" d="M381.5,178.62c-7.93,0-14.88-1.81-20.83-5.44-5.95-3.62-10.57-8.65-13.85-15.08-3.28-6.43-4.92-13.81-4.92-22.16v-60.73h25.85v58.68c0,7.66,1.88,13.41,5.64,17.23,3.76,3.83,9.13,5.75,16.11,5.75,7.93,0,14.09-2.63,18.47-7.9,4.38-5.26,6.57-12.62,6.57-22.06v-51.7h25.85v101.77h-25.44v-13.34h-3.69c-1.64,3.42-4.72,6.77-9.23,10.05s-11.35,4.92-20.52,4.92h-.01Z"/><path class="c" d="M469.11,176.98V75.21h25.44v13.34h3.69c1.64-3.56,4.72-6.94,9.23-10.16,4.51-3.21,11.35-4.82,20.52-4.82,7.93,0,14.88,1.81,20.83,5.44,5.95,3.63,10.57,8.62,13.85,14.98,3.28,6.36,4.92,13.78,4.92,22.26v60.73h-25.85v-58.68c0-7.66-1.88-13.4-5.64-17.23s-9.13-5.75-16.11-5.75c-7.93,0-14.09,2.64-18.47,7.9-4.38,5.27-6.57,12.62-6.57,22.06v51.7h-25.84Z"/><path class="c" d="M631.6,176.98c-6.7,0-12.14-2.08-16.31-6.26-4.17-4.17-6.26-9.75-6.26-16.72v-57.45h-25.44v-21.34h25.44v-31.6h25.85v31.6h27.9v21.34h-27.9v52.94c0,4.1,1.91,6.16,5.74,6.16h19.7v21.34h-28.72Z"/><path class="c" d="M724.96,178.62c-7.93,0-14.88-1.81-20.83-5.44-5.95-3.62-10.57-8.65-13.85-15.08-3.28-6.43-4.92-13.81-4.92-22.16v-60.73h25.85v58.68c0,7.66,1.88,13.41,5.64,17.23,3.76,3.83,9.13,5.75,16.11,5.75,7.93,0,14.09-2.63,18.46-7.9,4.38-5.26,6.57-12.62,6.57-22.06v-51.7h25.85v101.77h-25.44v-13.34h-3.69c-1.64,3.42-4.72,6.77-9.23,10.05s-11.36,4.92-20.52,4.92h0Z"/><path class="c" d="M828.77,179.85c-5.47,0-10.09-1.81-13.85-5.44-3.76-3.62-5.64-8.31-5.64-14.05s1.88-10.43,5.64-14.05,8.38-5.44,13.85-5.44,10.26,1.81,13.95,5.44c3.69,3.62,5.54,8.31,5.54,14.05s-1.85,10.43-5.54,14.05-8.34,5.44-13.95,5.44Z"/></g><g><path class="b" d="M137.25,182.65L13.87,211.43c-7.09,1.65-13.87-3.73-13.87-11.01V77.65c0-5.25,3.62-9.81,8.73-11.01l123.38-28.77c7.09-1.65,13.87,3.73,13.87,11.01v122.78c0,5.25-3.62,9.81-8.73,11.01v-.02Z"/><path class="b" d="M63.56,92.89L0,78.07V213.65c0,5.28,3.64,9.86,8.77,11.06l49.66,11.58c7.09,1.65,13.87-3.73,13.87-11.01V103.9c0-5.25-3.62-9.81-8.73-11.01h-.01Z"/></g></svg>