<svg width="119" height="45" viewBox="0 0 119 45" fill="none" xmlns="http://www.w3.org/2000/svg">
<path d="M74.3936 12.5975C72.3669 13.1225 70.6934 13.4038 68.9828 14.0225C67.6255 14.3788 66.2495 14.7538 64.6691 15.1663L64.5575 15.185C63.7766 15.41 63.7022 15.4288 62.977 14.585C62.1031 13.5913 61.4709 12.9538 60.2623 12.3538C56.5994 10.5538 53.0666 11.0788 49.7755 13.235C45.8336 15.8038 43.8069 19.61 43.8627 24.335C43.9184 29.0225 47.098 32.8663 51.5233 33.5038C55.6139 34.0288 58.9236 32.6413 61.5267 29.66C61.9172 29.1725 62.2705 28.6663 62.6609 28.1038C62.8097 27.9163 62.9398 27.71 63.0886 27.485H51.9138C50.7052 27.485 50.4077 26.735 50.8167 25.7413C51.5605 23.9225 52.955 20.885 53.7731 19.3663C53.9405 19.0288 54.3495 18.2788 55.0561 18.2788H73.8544C74.6911 15.7663 76.0484 13.235 77.8706 10.835C82.0914 5.22879 87.0373 2.30379 94.0844 1.08504C99.9972 0.0350386 105.557 0.61629 110.614 4.06629C115.188 7.21629 118.015 11.4913 118.777 17.0975C119.762 24.9913 117.494 31.4038 111.953 36.8975C108.29 40.8163 103.604 43.2725 98.2122 44.3788C97.1709 44.5663 96.1483 44.66 95.1442 44.7538C94.605 44.7913 94.0844 44.8475 93.5638 44.9038C88.3017 44.7913 83.4859 43.2725 79.4325 39.7663C76.5877 37.2725 74.6167 34.2163 73.6498 30.6725C72.9619 32.0413 72.1623 33.3725 71.0467 34.6288C67.0305 40.1788 61.5825 43.6288 54.7028 44.5475C49.0131 45.3163 43.7511 44.21 39.1027 40.7038C34.8261 37.4225 32.3903 33.11 31.7581 27.7288C30.9958 21.3538 32.8552 15.4663 36.6669 10.61C40.7947 5.17254 46.2427 1.72254 52.8992 0.50379C58.3472 -0.65871 63.5534 0.147541 68.2577 3.37254C71.3256 5.41629 73.5197 8.21004 74.97 11.6038C75.3233 12.1288 75.0816 12.4288 74.3936 12.5975ZM8.98078 13.6475C8.74836 13.6475 8.69072 13.535 8.806 13.3475L10.0239 11.7725C10.1392 11.6038 10.4292 11.4913 10.6617 11.4913H31.3491C31.5722 11.4913 31.628 11.66 31.5164 11.8288L30.5309 13.3475C30.4194 13.535 30.1219 13.7038 29.9545 13.7038L8.98078 13.6475ZM0.231681 19.0288C2.75671e-06 19.0288 -0.0579354 18.8975 0.0579409 18.7288L1.2746 17.1538C1.39063 16.985 1.68032 16.8538 1.91144 16.8538H28.3369C28.56 16.8538 28.6716 17.0413 28.6158 17.21L28.1509 18.6163C28.0952 18.8413 27.872 18.9725 27.6303 18.9725L0.231681 19.0288ZM14.0792 24.0538C13.9639 24.2225 14.0216 24.3913 14.2521 24.3913L26.8866 24.4475C27.0539 24.4475 27.2956 24.2788 27.2956 24.0538L27.4072 22.6475C27.4072 22.4038 27.2956 22.235 27.0539 22.235H15.47C15.2376 22.235 15.007 22.4038 14.8899 22.5913L14.0792 24.0538ZM107.323 20.6788C107.286 20.1913 107.267 19.7788 107.193 19.3663C106.152 13.5913 100.871 10.31 95.3674 11.6038C89.9752 12.8225 86.4981 16.2725 85.2337 21.7663C84.1925 26.3225 86.3866 30.935 90.5516 32.81C93.7497 34.2163 96.9292 34.0475 99.9972 32.4538C104.571 29.9038 107.063 26.3225 107.36 21.2975C107.342 21.0725 107.342 20.8663 107.323 20.6788Z" fill="#00ACD7"/>
</svg>
