<svg width="106" height="103" viewBox="0 0 106 103" fill="none" xmlns="http://www.w3.org/2000/svg">
<path d="M18.7708 0H87.2292C97.6083 0 106 8.36153 106 18.7034V84.2754C106 94.6173 97.6083 102.979 87.2292 102.979H18.7708C8.39167 102.979 0 94.6173 0 84.2754V18.7034C0 8.36153 8.39167 0 18.7708 0Z" fill="#470137"/>
<path d="M55.7387 30.4957L42.4887 52.2797L56.6221 75.3839C56.7104 75.5599 56.7546 75.736 56.7104 75.912C56.6662 76.088 56.4896 75.956 56.2246 76H46.1104C45.4037 76 44.9179 75.956 44.6087 75.5159C43.6812 73.6676 42.7096 71.8632 41.7821 70.0149C40.8546 68.2106 39.8387 66.3622 38.7787 64.4699C37.7187 62.5775 36.6587 60.6852 35.5987 58.7488H35.5104C34.5829 60.6412 33.5671 62.5335 32.5512 64.4259C31.5354 66.3182 30.5196 68.2106 29.5479 70.0589C28.5321 71.9073 27.5162 73.7996 26.5004 75.6039C26.3237 76.044 25.9704 76.088 25.4846 76.088H15.7679C15.5912 76.088 15.4587 76.176 15.4587 75.956C15.4146 75.78 15.4587 75.6039 15.5471 75.4719L29.2829 53.0278L15.9004 30.4517C15.7679 30.2756 15.7237 30.0996 15.8121 30.0116C15.9004 29.8795 16.0771 29.8355 16.2537 29.8355H26.2796C26.5004 29.8355 26.7212 29.8796 26.8979 29.9236C27.0746 30.0116 27.2071 30.1436 27.3396 30.3196C28.1787 32.212 29.1504 34.1043 30.1662 35.9967C31.2262 37.889 32.2421 39.7374 33.3462 41.5857C34.4062 43.434 35.3779 45.2824 36.3054 47.1747H36.3937C37.3212 45.2384 38.2929 43.346 39.2646 41.4977C40.2362 39.6493 41.2521 37.801 42.2679 35.9527C43.2837 34.1043 44.2554 32.212 45.2271 30.4076C45.2712 30.2316 45.3596 30.0556 45.4921 29.9676C45.6687 29.8795 45.8454 29.8355 46.0662 29.8795H55.3854C55.6062 29.8355 55.8271 29.9676 55.8712 30.1876C55.9154 30.2316 55.8271 30.4076 55.7387 30.4957ZM76.1437 76.9242C72.8754 76.9682 69.6071 76.3081 66.6479 74.9438C63.8654 73.6676 61.5687 71.5552 59.9787 68.9587C58.3446 66.2742 57.5496 62.9296 57.5496 58.9249C57.5054 55.6683 58.3446 52.4557 59.9787 49.6392C61.6571 46.7786 64.0862 44.4022 67.0012 42.8179C70.0929 41.1016 73.8029 40.2655 78.1754 40.2655C78.3962 40.2655 78.7054 40.2655 79.1029 40.3095C79.5004 40.3535 79.9421 40.3535 80.4721 40.3975V26.4909C80.4721 26.1829 80.6046 26.0068 80.9137 26.0068H89.8796C90.1004 25.9628 90.2771 26.1389 90.3212 26.3149V68.2986C90.3212 69.0907 90.3654 69.9709 90.4096 70.9391C90.4979 71.8632 90.5421 72.7434 90.5862 73.4915C90.5862 73.7996 90.4537 74.0637 90.1446 74.1957C87.8479 75.1639 85.4187 75.868 82.9454 76.3081C80.6929 76.7041 78.4404 76.9242 76.1437 76.9242ZM80.4721 68.1226V48.759C80.0746 48.671 79.6771 48.583 79.2796 48.539C78.7937 48.495 78.3079 48.451 77.8221 48.451C76.0996 48.451 74.3771 48.803 72.8312 49.5952C71.3296 50.3433 70.0487 51.4435 69.0771 52.8518C68.1054 54.26 67.6196 56.1524 67.6196 58.4408C67.5754 59.9811 67.8404 61.5214 68.3704 62.9736C68.8121 64.1618 69.4746 65.218 70.3579 66.0982C71.1971 66.8903 72.2129 67.5064 73.3612 67.8585C74.5537 68.2546 75.7904 68.4306 77.0271 68.4306C77.6896 68.4306 78.3079 68.3866 78.8821 68.3426C79.4562 68.3866 79.9421 68.2986 80.4721 68.1226Z" fill="#FF61F6"/>
</svg>
