<svg width="172" height="72" viewBox="0 0 172 72" fill="none" xmlns="http://www.w3.org/2000/svg">
<g clip-path="url(#clip0_1790_7056)">
<path d="M45.9252 30.8833H44.8044V18.4482H60.5111V30.8833H59.3921V33.4833H64.3263V30.8833H63.2073V3.62158H64.3263V1.02344H59.3921V3.62158H60.5111V15.8483H44.8044V3.62158H45.9252V1.02344H40.991V3.62158H42.1082V30.8833H40.991V33.4833H45.9252V30.8833Z" fill="white"/>
<path d="M120.399 29.7526H117.826V30.8833H107.425V3.62158H108.544V1.02344H103.61V3.62158H104.729V30.8833H103.61V33.4833H120.399V29.7526Z" fill="white"/>
<path d="M125.606 22.2448V30.8833H124.487V33.4833H129.421V30.8833H128.302V22.2448L137.677 3.62158H139.658V1.02344H135.956L126.952 19.0217L117.909 1.02344H114.25V3.62158H116.231L125.606 22.2448Z" fill="white"/>
<path d="M16.6371 41.053C23.4411 41.094 27.3197 46.073 28.0282 47.0703L28.2449 47.3766H31.3993L30.6803 46.2458C28.3013 42.5062 23.3653 38.4976 16.6407 38.4531C12.1505 38.4531 7.97406 40.1377 4.8796 43.1971C1.73227 46.3063 0 50.5802 0 55.2262C0 59.8722 1.73227 64.146 4.87783 67.257C7.9723 70.3164 12.1488 72.001 16.6389 72.001C23.242 72.001 28.4352 68.1581 30.6503 64.3437L31.2953 63.2361H28.2467L28.0299 63.5406C27.0448 64.9136 23.316 69.3922 16.6407 69.3922C8.69128 69.3922 2.6962 63.2984 2.6962 55.2173C2.6962 47.1361 8.69128 41.053 16.6371 41.053Z" fill="white"/>
<path d="M51.3494 68.8521V71.452H56.2836V68.8521H55.1646V41.5921H56.2836V38.9922H51.3494V41.5921H52.4684V53.8171H36.7635V41.5921H37.8825V38.9922H32.9482V41.5921H34.0673V68.8521H32.9482V71.452H37.8825V68.8521H36.7635V56.417H52.4684V68.8521H51.3494Z" fill="white"/>
<path d="M82.9074 41.053C89.7113 41.094 93.5917 46.073 94.3001 47.0703L94.5169 47.3766H97.6713L96.9523 46.2458C94.5733 42.5062 89.6373 38.4976 82.9126 38.4531C78.4225 38.4531 74.246 40.1377 71.1516 43.1971C68.0042 46.3081 66.272 50.5819 66.272 55.228C66.272 59.874 68.0042 64.1478 71.1516 67.2588C74.246 70.3182 78.4225 72.0028 82.9126 72.0028C89.5157 72.0028 94.709 68.1599 96.9241 64.3455L97.569 63.2379H94.5186L94.3019 63.5424C93.3168 64.9153 89.5879 69.394 82.9126 69.394C74.9633 69.394 68.9682 63.3002 68.9682 55.2191C68.9682 47.1379 74.9633 41.053 82.9074 41.053Z" fill="white"/>
<path d="M63.9105 41.5921V38.9922H58.9763V41.5921H60.0953V68.8521H58.9763V71.452H63.9105V68.8521H62.7915V41.5921H63.9105Z" fill="white"/>
<path d="M168.186 38.9922V66.7846L148.404 39.2949L148.187 38.9922H146.661H146.469H144.106V41.5921H145.225V68.8521H144.106V71.452H149.04V68.8521H147.921V43.2411L168.211 71.452H170.883V41.5921H172V38.9922H168.186Z" fill="white"/>
<path d="M125.728 38.9844H120.526V40.7972V38.9915H116.871L103.615 53.3961V38.9915H99.8V41.5914H100.919V68.8514H99.8V71.4513H103.615V57.093L118.134 71.4513H140.833V67.7224H138.262V68.8514H125.25V56.4163H138.262V57.5471H140.833V52.6874H138.262V53.8164H125.25V41.5914H138.262V42.7222H140.833V38.9915H125.728V38.9844ZM122.556 68.8514H119.227L105.517 55.1983L117.852 41.7036H122.547L122.556 68.8514Z" fill="white"/>
<path d="M87.8874 33.8574C97.0122 31.6724 102.657 22.4267 100.494 13.2058C98.3321 3.98503 89.1809 -1.71877 80.0561 0.46623C70.9313 2.65123 65.2869 11.897 67.4492 21.1178C68.0342 23.6144 69.1673 25.9472 70.7621 27.9435C70.8679 28.0717 71.0564 28.0895 71.1833 27.9826C71.2291 27.9435 71.2626 27.8918 71.2802 27.8348L71.6433 26.5438C71.9287 25.5181 72.2741 24.5102 72.6777 23.5254C74.0416 20.1954 76.7008 15.1184 80.6341 13.6973C81.1822 13.4925 81.4606 12.8782 81.2579 12.3244C81.2456 12.2887 81.2297 12.2549 81.2139 12.2211C80.939 11.6299 80.7645 10.9959 80.6993 10.3459C80.6482 9.69239 80.761 9.01748 81.2104 8.51708C81.6033 8.07723 82.1391 7.74066 82.747 7.80477C83.2457 7.84751 83.718 8.05052 84.0951 8.38352C84.3824 8.65064 84.615 8.97117 84.7842 9.32555C84.8758 9.47869 85.0009 9.61047 85.1507 9.70841C85.341 9.82594 85.5789 9.83307 85.7763 9.72978C86.0776 9.57664 86.2027 9.20802 86.305 8.90529C86.416 8.56694 86.5111 8.19298 86.7878 7.95614C87.1684 7.54656 87.7887 7.48602 88.2399 7.81368C88.5359 8.00956 88.6293 8.41914 88.6364 8.75926C88.6223 9.06021 88.5765 9.35938 88.4989 9.64965C88.4936 9.67458 88.4936 9.70307 88.4989 9.728C88.5095 9.75827 88.5271 9.78321 88.55 9.80457C88.7033 9.93813 88.8337 10.0966 88.9342 10.2747C88.9871 10.3958 89.0188 10.5258 89.0276 10.6576C89.0611 11.1437 88.8091 11.6067 88.5218 11.9789L88.3456 12.2033C88.0619 12.5683 88.1253 13.0972 88.4866 13.3839C88.5483 13.432 88.6152 13.473 88.6875 13.5014L88.9483 13.6083C89.8171 13.9734 90.6559 14.4096 91.4542 14.9136C90.4638 15.0115 89.4452 15.2804 88.7756 15.9037C87.542 17.0523 87.5579 18.7209 87.8046 19.7341C87.8645 19.9549 87.8645 20.1864 87.8046 20.4073C87.646 20.9415 87.0134 21.1392 86.5164 21.0679C86.0582 21.002 85.8626 20.5693 85.7446 20.1669L85.6811 19.9496C85.5296 19.4332 84.9939 19.1376 84.4811 19.2907C84.2044 19.3726 83.9788 19.5774 83.866 19.8445L83.7797 20.0547C83.6352 20.3966 83.0166 22.2967 84.9604 26.0683C85.4397 26.9747 85.8574 27.915 86.208 28.8802C86.8001 30.5416 86.5147 32.3954 85.4503 33.7969C85.3798 33.8912 85.304 33.9821 85.2229 34.0675C85.1525 34.1352 85.1472 34.2474 85.2141 34.3186C85.2582 34.3667 85.3234 34.3863 85.3868 34.3703L87.8874 33.8574ZM88.7456 31.0776C88.7456 29.1686 87.8293 27.0531 86.8213 25.096C86.4882 24.4621 86.2116 23.8014 85.9895 23.1194C86.6116 23.2387 87.2548 23.1995 87.8575 23.0054C88.2452 22.895 88.6047 22.7045 88.9148 22.4462C89.6373 21.7874 90.0232 20.8293 89.9616 19.8481C89.9404 19.4563 89.7994 19.0895 89.7853 18.6959C89.7431 18.2418 89.8981 17.7913 90.2118 17.4619C90.8021 16.9098 92.8551 16.9276 94.0464 17.1057L94.9998 17.2535C95.2993 17.2998 95.5795 17.0915 95.6254 16.7887C95.643 16.6748 95.6236 16.5572 95.5725 16.4522L95.5496 16.4077C95.0738 15.4496 94.4077 14.602 93.5935 13.9146C92.7476 13.2254 91.8278 12.6378 90.848 12.1623C91.2727 11.1918 91.2251 10.0788 90.7193 9.14925C90.744 8.54023 90.6735 7.4504 90.0056 6.60632C89.4787 5.95634 88.6963 5.56991 87.8645 5.54854C86.6081 5.46841 85.7146 5.95812 85.1313 6.63481C84.689 6.22701 84.1533 5.93497 83.5735 5.78716C82.703 5.57347 81.7866 5.68566 80.9919 6.10236C79.8975 6.66686 79.168 7.50382 78.8208 8.59543C78.4049 9.90252 78.6551 11.2506 78.9406 12.157C74.6778 14.2939 71.9622 19.67 70.6124 23.0588C67.3928 15.6063 70.7604 6.92507 78.137 3.67161C85.5137 0.418149 94.1028 3.8212 97.3224 11.2755C100.542 18.7298 97.1743 27.4092 89.7977 30.6627C89.4523 30.8141 89.1016 30.9512 88.7456 31.0776Z" fill="white"/>
</g>
<defs>
<clipPath id="clip0_1790_7056">
<rect width="172" height="72" fill="white"/>
</clipPath>
</defs>
</svg>
