<svg width="230" height="96" viewBox="0 0 230 96" fill="none" xmlns="http://www.w3.org/2000/svg">
<path d="M61.4118 41.1726H59.9131V24.5925H80.9162V41.1726H79.4199V44.6392H86.018V41.1726H84.5216V4.82356H86.018V1.35938H79.4199V4.82356H80.9162V21.1259H59.9131V4.82356H61.4118V1.35938H54.8137V4.82356H56.3077V41.1726H54.8137V44.6392H61.4118V41.1726Z" fill="white"/>
<path d="M160.998 39.6649H157.558V41.1726H143.65V4.82356H145.146V1.35938H138.548V4.82356H140.044V41.1726H138.548V44.6392H160.998V39.6649Z" fill="white"/>
<path d="M167.961 29.6546V41.1726H166.465V44.6392H173.063V41.1726H171.567V29.6546L184.103 4.82356H186.752V1.35938H181.801L169.762 25.357L157.668 1.35938H152.776V4.82356H155.425L167.961 29.6546Z" fill="white"/>
<path d="M22.2473 54.7322C31.3456 54.7868 36.5322 61.4255 37.4795 62.7551L37.7694 63.1635H41.9874L41.026 61.6558C37.8448 56.6697 31.2443 51.325 22.2521 51.2656C16.2478 51.2656 10.663 53.5118 6.52504 57.5909C2.3164 61.7365 0 67.435 0 73.6297C0 79.8244 2.3164 85.5229 6.52268 89.6709C10.6606 93.75 16.2454 95.9961 22.2497 95.9961C31.0794 95.9961 38.0239 90.8723 40.9859 85.7864L41.8484 84.3096H37.7717L37.4819 84.7156C36.1646 86.5462 31.1783 92.5177 22.2521 92.5177C11.6221 92.5177 3.60539 84.3927 3.60539 73.6178C3.60539 62.843 11.6221 54.7322 22.2473 54.7322Z" fill="white"/>
<path d="M68.665 91.8054V95.272H75.2631V91.8054H73.7667V55.4588H75.2631V51.9922H68.665V55.4588H70.1614V71.7587H49.1606V55.4588H50.6569V51.9922H44.0588V55.4588H45.5552V91.8054H44.0588V95.272H50.6569V91.8054H49.1606V75.2253H70.1614V91.8054H68.665Z" fill="white"/>
<path d="M110.864 54.7322C119.963 54.7868 125.152 61.4255 126.099 62.7551L126.389 63.1635H130.607L129.645 61.6558C126.464 56.6697 119.864 51.325 110.871 51.2656C104.867 51.2656 99.2824 53.5118 95.1444 57.5909C90.9358 61.7389 88.6194 67.4374 88.6194 73.6321C88.6194 79.8268 90.9358 85.5252 95.1444 89.6732C99.2824 93.7524 104.867 95.9985 110.871 95.9985C119.701 95.9985 126.646 90.8747 129.608 85.7888L130.47 84.3119H126.391L126.101 84.7179C124.784 86.5486 119.798 92.5201 110.871 92.5201C100.241 92.5201 92.2248 84.395 92.2248 73.6202C92.2248 62.8454 100.241 54.7322 110.864 54.7322Z" fill="white"/>
<path d="M85.4619 55.4588V51.9922H78.8638V55.4588H80.3601V91.8054H78.8638V95.272H85.4619V91.8054H83.9655V55.4588H85.4619Z" fill="white"/>
<path d="M224.901 51.9922V89.0488L198.447 52.3958L198.157 51.9922H192.7V55.4588H194.196V91.8054H192.7V95.272H199.298V91.8054H197.801V57.6574L224.934 95.272H228.506V55.4588H230V51.9922H224.901Z" fill="white"/>
<path d="M168.124 51.9844H161.168V54.4015V51.9939H156.28L138.555 71.2V51.9939H133.453V55.4604H134.95V91.8071H133.453V95.2737H138.555V76.1292L157.97 95.2737H188.324V90.3018H184.885V91.8071H167.485V75.227H184.885V76.7347H188.324V70.2551H184.885V71.7604H167.485V55.4604H184.885V56.9682H188.324V51.9939H168.124V51.9844ZM163.882 91.8071H159.431L141.098 73.6029L157.593 55.61H163.871L163.882 91.8071Z" fill="white"/>
<path d="M117.524 45.1432C129.726 42.2299 137.273 29.9022 134.382 17.6078C131.491 5.31337 119.253 -2.2917 107.052 0.62164C94.85 3.53498 87.3022 15.8626 90.1936 28.1571C90.976 31.4859 92.4912 34.5963 94.6238 37.258C94.7651 37.4289 95.0173 37.4527 95.187 37.3102C95.2482 37.258 95.293 37.1891 95.3166 37.1131L95.802 35.3917C96.1837 34.0241 96.6456 32.6802 97.1852 31.3672C99.0091 26.9271 102.565 20.1578 107.825 18.2631C108.558 17.9901 108.93 17.1709 108.659 16.4325C108.642 16.385 108.621 16.3399 108.6 16.2948C108.232 15.5065 107.999 14.6612 107.912 13.7946C107.844 12.9232 107.994 12.0233 108.595 11.3561C109.121 10.7696 109.837 10.3209 110.65 10.4064C111.317 10.4633 111.948 10.734 112.453 11.178C112.837 11.5342 113.148 11.9616 113.374 12.4341C113.497 12.6383 113.664 12.814 113.864 12.9446C114.119 13.1013 114.437 13.1108 114.701 12.973C115.104 12.7688 115.271 12.2774 115.408 11.8737C115.556 11.4226 115.683 10.924 116.053 10.6082C116.562 10.0621 117.392 9.98135 117.995 10.4182C118.391 10.6794 118.516 11.2255 118.525 11.679C118.506 12.0803 118.445 12.4792 118.342 12.8662C118.334 12.8994 118.334 12.9374 118.342 12.9707C118.356 13.011 118.379 13.0443 118.41 13.0728C118.615 13.2508 118.789 13.4622 118.924 13.6996C118.994 13.8611 119.037 14.0344 119.048 14.2101C119.093 14.8583 118.756 15.4756 118.372 15.9719L118.137 16.271C117.757 16.7578 117.842 17.463 118.325 17.8452C118.408 17.9093 118.497 17.9639 118.594 18.0019L118.942 18.1444C120.104 18.6311 121.226 19.2129 122.293 19.8848C120.969 20.0154 119.607 20.3739 118.712 21.2049C117.062 22.7364 117.083 24.9612 117.413 26.3122C117.493 26.6066 117.493 26.9153 117.413 27.2097C117.201 27.922 116.355 28.1855 115.691 28.0906C115.078 28.0027 114.816 27.4258 114.658 26.8891L114.574 26.5995C114.371 25.9109 113.655 25.5168 112.969 25.721C112.599 25.8302 112.297 26.1032 112.146 26.4594L112.031 26.7396C111.838 27.1954 111.011 29.7289 113.61 34.7578C114.251 35.9663 114.809 37.22 115.278 38.5069C116.07 40.7221 115.688 43.1939 114.265 45.0625C114.171 45.1883 114.069 45.3094 113.961 45.4234C113.867 45.5136 113.86 45.6632 113.949 45.7582C114.008 45.8223 114.095 45.8484 114.18 45.827L117.524 45.1432ZM118.671 41.4368C118.671 38.8915 117.446 36.0708 116.098 33.4614C115.653 32.6161 115.283 31.7352 114.986 30.8258C115.818 30.9849 116.678 30.9327 117.484 30.6739C118.002 30.5267 118.483 30.2726 118.898 29.9283C119.864 29.0498 120.38 27.7724 120.297 26.4641C120.269 25.9418 120.081 25.4527 120.062 24.9279C120.005 24.3225 120.213 23.7218 120.632 23.2825C121.421 22.5464 124.167 22.5702 125.76 22.8076L127.035 23.0047C127.435 23.0664 127.81 22.7886 127.871 22.385C127.895 22.233 127.869 22.0763 127.8 21.9362L127.77 21.8769C127.133 20.5995 126.243 19.4693 125.154 18.5528C124.023 17.6339 122.793 16.8504 121.483 16.2164C122.051 14.9224 121.987 13.4384 121.311 12.199C121.344 11.387 121.249 9.93387 120.356 8.80842C119.652 7.94178 118.605 7.42655 117.493 7.39805C115.813 7.29121 114.618 7.94416 113.838 8.84641C113.247 8.30268 112.531 7.91329 111.755 7.71622C110.591 7.43129 109.366 7.58088 108.303 8.13648C106.84 8.88915 105.864 10.0051 105.4 11.4606C104.844 13.2034 105.178 15.0007 105.56 16.2093C99.8598 19.0585 96.2285 26.2267 94.4235 30.7451C90.1182 20.8084 94.6214 9.23343 104.486 4.89548C114.35 0.557532 125.835 5.09493 130.14 15.034C134.446 24.973 129.942 36.5457 120.078 40.8836C119.616 41.0854 119.147 41.2683 118.671 41.4368Z" fill="white"/>
</svg>
