<svg width="337" height="27" viewBox="0 0 337 27" fill="none" xmlns="http://www.w3.org/2000/svg">
<path d="M40.2564 0.365385V26.7692H35.5422V6.59615L22.2682 26.6923H17.9675L4.69348 6.59615V26.7692H0V0.365385H5.4585L20.1385 22.5769L34.7979 0.365385H40.2564Z" fill="white"/>
<path d="M78.7553 26.7692H73.9378L60.1675 3.65385L46.3765 26.7692H41.559L57.2315 0.423077H63.0828L78.7553 26.7692Z" fill="white"/>
<path d="M107.723 0.326923L91.8433 15.1923V26.7692H87.1291V15.2115L71.2292 0.326923H76.8945L89.4862 12.1154L102.057 0.326923H107.723Z" fill="white"/>
<path d="M113.657 4.40385V11.6731H139.274V15.5962H113.657V22.8654H139.274V26.7692H109.129V0.480769H139.274V4.40385H113.657Z" fill="white"/>
<path d="M210.338 26.7692H205.521L191.75 3.65385L177.959 26.7692H173.121L173.411 26.3269L173.927 25.4423L174.403 24.6538L188.814 0.423077H194.666L210.338 26.7692Z" fill="white"/>
<path d="M173.121 22.8654L173.121 26.7692L143.658 26.7692V0.480769H148.186V22.8654H173.121Z" fill="white"/>
<path d="M299.473 0.461538H294.965V26.7308H299.473V0.461538Z" fill="white"/>
<path d="M337 0.365385V26.7692H331.045L307.867 4.34615V26.7692H303.153V0.365385H309.253L332.286 22.6731V0.365385H337Z" fill="white"/>
<path d="M335.429 26.3269H332.761V26.2692L335.429 26.3269Z" fill="white"/>
<path d="M293.559 26.7692H288.701L274.93 3.65385L261.16 26.7692H256.322L272.015 0.423077H277.846L293.559 26.7692Z" fill="white"/>
<path d="M252.435 8.21154V4.17308H226.693V11.4038H249.044C250.863 11.5577 252.517 12.1346 253.882 13.1346C254.585 13.6538 255.185 14.25 255.681 14.9231C256.632 16.1731 257.149 17.6731 257.149 19.1923C257.149 20.7692 256.611 22.3077 255.598 23.5962C254.957 24.4231 254.13 25.1346 253.158 25.7115C251.711 26.5385 250.016 27 248.279 27H230.87C229.091 27 227.417 26.5385 225.969 25.7115C225.018 25.1538 224.191 24.4423 223.529 23.5962C222.537 22.3269 222.02 20.8269 221.999 19.2885L221.979 18.8462H226.693V22.9038H252.435V15.5962H230.87C228.823 15.5962 226.941 15.0192 225.328 13.9038C224.563 13.3462 223.964 12.7692 223.447 12.0962C222.475 10.8269 221.979 9.32692 221.979 7.78846C221.979 6.25 222.475 4.75 223.426 3.5C224.088 2.61538 224.956 1.82692 225.949 1.26923C227.148 0.557692 228.574 0.134615 230.022 0H249.023C250.512 0.134615 251.938 0.557692 253.138 1.26923C254.151 1.84615 254.999 2.59615 255.66 3.5C256.611 4.75 257.128 6.25 257.128 7.78846V8.21154H252.435Z" fill="white"/>
</svg>
