<svg width="193" height="121" viewBox="0 0 193 121" fill="none" xmlns="http://www.w3.org/2000/svg">
<path d="M148.23 77.5901C149.659 77.2426 150.945 76.6263 151.982 75.5514C152.697 74.6572 153.282 75.2132 152.466 76.0518C146.87 82.0566 140.069 85.4482 131.794 85.476C121.476 85.5085 114.524 78.5631 114.469 68.1473C114.409 56.7632 114.441 45.379 114.441 33.9902C114.441 29.2688 111.476 27.2394 109.512 26.5537C107.664 25.9097 106.995 26.2479 106.995 25.8263C106.995 25.3722 108.222 25.5251 108.803 25.5483C114.579 25.7799 120.351 26.1506 126.128 25.488C130.784 24.9505 135.224 23.9127 138.829 20.6369C138.829 20.6369 140.06 19.3442 140.06 21.1373C140.06 26.5213 140.083 56.0681 140.033 65.4553C140.023 67.0492 140.337 70.5566 140.434 71.0339C140.835 73.017 142.527 77.9329 148.23 77.5901Z" fill="#091255"/>
<path d="M188.367 77.5901C189.796 77.2426 191.082 76.6263 192.119 75.5514C192.834 74.6572 193.42 75.2132 192.604 76.0518C187.007 82.0566 180.206 85.4482 171.931 85.476C161.613 85.5085 154.661 78.5631 154.606 68.1473C154.546 56.7632 154.578 45.379 154.578 33.9902C154.578 29.2688 151.614 27.2394 149.65 26.5537C147.801 25.9097 147.132 26.2479 147.132 25.8263C147.132 25.3722 148.359 25.5251 148.94 25.5483C154.716 25.7799 160.488 26.1506 166.265 25.488C170.921 24.9505 175.361 23.9127 178.966 20.6369C178.966 20.6369 180.197 19.3442 180.197 21.1373C180.197 26.5213 180.22 56.0681 180.17 65.4553C180.16 67.0492 180.474 70.5566 180.571 71.0339C180.972 73.017 182.664 77.9329 188.367 77.5901Z" fill="#091255"/>
<path d="M108.088 77.5901C109.517 77.2426 110.803 76.6263 111.841 75.5514C112.555 74.6572 113.141 75.2132 112.325 76.0518C106.728 82.0566 99.9277 85.4482 91.6523 85.476C81.3345 85.5085 74.3822 78.5631 74.3269 68.1473C74.2669 56.7632 74.2992 45.379 74.2992 33.9902C74.2992 29.2688 71.3348 27.2394 69.3708 26.5537C67.5221 25.9097 66.8536 26.2479 66.8536 25.8263C66.8536 25.3722 68.0799 25.5251 68.6608 25.5483C74.4375 25.7799 80.2096 26.1506 85.9863 25.488C90.6426 24.9505 95.0823 23.9127 98.6876 20.6369C98.6876 20.6369 99.9185 19.3442 99.9185 21.1373C99.9185 26.5213 99.9416 56.0681 99.8909 65.4553C99.8816 67.0492 100.195 70.5566 100.292 71.0339C100.693 73.017 102.385 77.9329 108.088 77.5901Z" fill="#091255"/>
<path d="M35.0104 19.233C29.2891 19.1079 0 20.0438 0 52.3846C0 84.3177 29.2891 85.5826 35.0104 85.527C40.7318 85.5826 70.0209 84.3177 70.0209 52.3846C70.0209 20.0438 40.7272 19.1079 35.0104 19.233ZM35.0104 84.2158C33.4061 84.2436 31.8247 83.4281 30.5523 81.7555C28.012 78.4287 27.1176 74.4348 26.5091 70.4315C24.6788 58.3246 24.7387 46.1806 26.546 34.0783C27.1361 30.1445 28.0397 26.2016 30.5892 22.9397C31.8662 21.3087 33.4245 20.5025 35.0058 20.5303C36.5872 20.5025 38.1454 21.3087 39.4225 22.9397C41.972 26.2016 42.8802 30.1445 43.4657 34.0783C45.2775 46.1806 45.3328 58.3246 43.5026 70.4315C42.8986 74.4348 41.9996 78.4287 39.4594 81.7555C38.1961 83.4281 36.6148 84.2436 35.0104 84.2158Z" fill="#091255"/>
<path d="M151.982 75.5514C150.94 76.6217 149.659 77.2426 148.23 77.5901C142.527 77.9376 140.835 73.017 140.438 71.0385C140.341 70.5566 140.028 67.0492 140.037 65.4553C140.088 56.0681 140.065 26.5213 140.065 21.1373C140.065 19.3442 138.834 20.6369 138.834 20.6369C135.224 23.908 130.784 24.9505 126.133 25.488C120.356 26.1552 114.584 25.7799 108.807 25.5483C108.226 25.5251 107 25.3722 107 25.8263C107 26.2479 107.668 25.9143 109.517 26.5537C111.481 27.2348 114.446 29.2688 114.446 33.9902C114.446 45.3744 114.413 56.7585 114.473 68.1473C114.528 78.5631 121.476 85.5085 131.799 85.476C140.074 85.4529 146.874 82.0566 152.471 76.0518C153.282 75.2132 152.697 74.6572 151.982 75.5514Z" fill="#091255"/>
<path d="M180.054 13.988C179.934 13.8722 179.709 13.8768 179.487 13.9278C179.229 13.988 177.228 14.5765 177.228 14.5765C173.517 15.517 170.451 14.6645 168.031 12.0281C166.841 10.7401 165.684 8.80795 164.55 6.22717L164.117 5.1059C162.134 0.416948 158.188 -0.500456 154.744 0.217713C154.744 0.217713 146.745 2.40466 148.46 10.6011C148.746 11.9725 149.461 13.3255 150.585 14.6506C152.78 17.3148 155.569 19.006 158.953 19.738C159.013 19.7519 159.073 19.7705 159.133 19.7844C162.337 20.3774 165.546 20.3218 168.755 19.6129C171.673 18.9504 174.845 17.6345 178.27 15.6653C178.468 15.5402 178.777 15.3502 179.197 15.1047C179.538 14.9054 180.017 14.5904 180.077 14.5394C180.082 14.5348 180.087 14.5255 180.096 14.5162C180.202 14.4004 180.257 14.1873 180.054 13.988Z" fill="#091255"/>
<path d="M1.87638 103.954C1.87638 103.731 1.88099 103.509 1.8856 103.282C1.89021 103.055 1.90865 102.814 1.93171 102.55C1.70119 102.564 1.46146 102.573 1.22633 102.578C0.986599 102.582 0.765306 102.596 0.557843 102.606V101.572C1.13874 101.572 1.60438 101.545 1.95015 101.484C2.30053 101.424 2.56792 101.359 2.75234 101.28C2.94136 101.202 3.07966 101.118 3.16726 101.026H3.88185V106.785C4.26912 106.423 4.70248 106.145 5.18656 105.955C5.67064 105.765 6.17777 105.673 6.70795 105.673C7.51014 105.673 8.22934 105.872 8.86556 106.275C9.50639 106.678 10.0089 107.248 10.3777 107.989C10.7466 108.731 10.931 109.607 10.931 110.617C10.931 111.692 10.7097 112.641 10.2625 113.457C9.81528 114.272 9.22516 114.907 8.49213 115.352C7.75449 115.801 6.92925 116.024 6.0118 116.024C5.59688 116.024 5.13124 115.945 4.60567 115.792C4.08471 115.635 3.60985 115.319 3.18109 114.838L2.67857 115.713H1.83489L1.87638 103.954ZM3.88646 112.711C3.88646 113.322 3.98328 113.79 4.17691 114.119C4.37054 114.448 4.6195 114.685 4.92378 114.819C5.22805 114.953 5.54616 115.023 5.88271 115.023C6.49127 115.037 6.9984 114.865 7.41332 114.518C7.82825 114.166 8.13714 113.689 8.35382 113.086C8.56589 112.484 8.67193 111.798 8.67193 111.034C8.67193 110.255 8.57511 109.556 8.38148 108.93C8.18785 108.309 7.89279 107.809 7.4917 107.443C7.09061 107.072 6.58809 106.896 5.97953 106.905C5.57843 106.905 5.19578 106.998 4.82696 107.179C4.45814 107.359 4.14464 107.605 3.88646 107.92V112.711Z" fill="#091255"/>
<path d="M16.3988 114.912C16.786 114.912 17.058 114.819 17.2102 114.638C17.3669 114.458 17.4591 114.203 17.4914 113.878C17.5237 113.554 17.5375 113.179 17.5375 112.748V108.722C17.5375 108.499 17.5421 108.277 17.5559 108.05C17.5698 107.823 17.5882 107.582 17.6159 107.322C17.3946 107.336 17.1641 107.345 16.9197 107.35C16.6754 107.355 16.4495 107.369 16.242 107.378V106.345C16.8229 106.345 17.2839 106.317 17.6251 106.257C17.9662 106.196 18.2336 106.132 18.4181 106.053C18.6071 105.974 18.7454 105.891 18.833 105.798H19.5706V113.309C19.5706 113.54 19.566 113.781 19.5522 114.017C19.5384 114.258 19.5199 114.499 19.4922 114.75C19.6997 114.736 19.9072 114.726 20.1239 114.722C20.3359 114.717 20.5342 114.703 20.714 114.694V115.727H16.3941V114.912H16.3988ZM18.4688 104.014C18.1322 104.014 17.851 103.889 17.6159 103.634C17.3807 103.379 17.2655 103.074 17.2655 102.707C17.2655 102.346 17.39 102.036 17.6343 101.785C17.8787 101.531 18.1553 101.406 18.4688 101.406C18.8053 101.406 19.0865 101.531 19.3124 101.785C19.5384 102.04 19.649 102.346 19.649 102.707C19.649 103.069 19.5337 103.379 19.3124 103.634C19.0865 103.889 18.8053 104.014 18.4688 104.014Z" fill="#091255"/>
<path d="M30.1235 116.042C29.515 116.042 28.9571 115.963 28.4408 115.801C27.9244 115.639 27.5095 115.449 27.2006 115.227L27.2606 115.871H26.2325L26.1357 112.526H26.9471C26.9747 113.007 27.1223 113.438 27.3943 113.828C27.6663 114.217 28.0166 114.523 28.45 114.74C28.8834 114.963 29.349 115.069 29.8515 115.069C30.1466 115.069 30.437 115.018 30.7229 114.921C31.0087 114.824 31.2438 114.675 31.4375 114.472C31.6311 114.272 31.7279 114.022 31.7279 113.721C31.7279 113.397 31.6265 113.128 31.4283 112.915C31.23 112.702 30.958 112.512 30.6168 112.34C30.2757 112.173 29.8838 112.002 29.4458 111.835C29.0586 111.678 28.6667 111.515 28.2748 111.349C27.883 111.182 27.5141 110.978 27.1822 110.746C26.8456 110.515 26.5829 110.223 26.3892 109.88C26.1956 109.537 26.0988 109.111 26.0988 108.606C26.0988 108.309 26.1587 107.985 26.274 107.642C26.3892 107.299 26.5782 106.979 26.8364 106.688C27.0946 106.396 27.445 106.155 27.883 105.969C28.3209 105.779 28.8649 105.687 29.5104 105.687C29.8608 105.687 30.248 105.747 30.6814 105.863C31.1148 105.979 31.5158 106.182 31.8893 106.465L31.8708 105.784H32.8989V109.208H32.0645C32.0276 108.754 31.9077 108.332 31.7049 107.943C31.502 107.554 31.2254 107.234 30.8612 106.989C30.5016 106.743 30.059 106.618 29.5427 106.618C29.0401 106.618 28.6298 106.743 28.3117 106.998C27.9936 107.253 27.8368 107.568 27.8368 107.943C27.8368 108.318 27.9567 108.624 28.1965 108.856C28.4362 109.088 28.7497 109.291 29.1369 109.458C29.5242 109.625 29.9437 109.797 30.3956 109.963C30.9396 110.186 31.4467 110.422 31.9262 110.681C32.4056 110.941 32.7929 111.265 33.088 111.654C33.383 112.044 33.5351 112.535 33.5351 113.133C33.5351 113.781 33.3692 114.323 33.0419 114.759C32.7145 115.194 32.2904 115.514 31.774 115.723C31.2531 115.936 30.7044 116.042 30.1235 116.042Z" fill="#091255"/>
<path d="M42.6727 116.042C42.35 116.042 42.0273 116.001 41.7046 115.917C41.3818 115.834 41.0822 115.662 40.8056 115.412C40.5289 115.157 40.3123 114.791 40.1555 114.314C39.9988 113.832 39.925 113.197 39.925 112.405L39.9619 107.091H38.5281V106.002C38.8785 105.988 39.2335 105.858 39.5931 105.613C39.9527 105.367 40.2708 105.033 40.5428 104.621C40.8148 104.204 40.9992 103.759 41.1052 103.277H42.0135V106.002H44.9963V107.012L42.0135 107.049L41.9766 112.243C41.9766 112.734 42.0181 113.165 42.101 113.536C42.184 113.906 42.3269 114.189 42.5252 114.393C42.7234 114.592 43 114.694 43.3458 114.694C43.6409 114.694 43.9498 114.601 44.2679 114.421C44.586 114.24 44.8857 113.939 45.1669 113.526L45.8261 114.11C45.5173 114.564 45.2084 114.921 44.8949 115.18C44.586 115.44 44.2863 115.63 44.0051 115.755C43.7193 115.88 43.4611 115.954 43.2306 115.987C43 116.024 42.8156 116.042 42.6727 116.042Z" fill="#091255"/>
<path d="M50.5148 114.912C50.9021 114.912 51.1741 114.819 51.3262 114.638C51.483 114.458 51.5752 114.203 51.6074 113.878C51.6397 113.554 51.6535 113.179 51.6535 112.748V108.698C51.6535 108.49 51.6581 108.267 51.6628 108.027C51.6674 107.786 51.6904 107.549 51.7319 107.318C51.5106 107.332 51.2801 107.341 51.0358 107.345C50.7914 107.35 50.5655 107.364 50.358 107.373V106.34H51.0173C51.5613 106.34 51.9716 106.28 52.2575 106.164C52.5433 106.048 52.7462 105.923 52.8753 105.793H53.5714C53.5991 105.974 53.6175 106.229 53.6313 106.553C53.6452 106.877 53.659 107.239 53.6682 107.642C53.9126 107.281 54.1984 106.952 54.5211 106.66C54.8438 106.368 55.1942 106.132 55.5769 105.951C55.9595 105.77 56.356 105.677 56.7663 105.677C57.1674 105.677 57.5132 105.784 57.8036 105.997C58.0941 106.21 58.237 106.558 58.237 107.04C58.237 107.169 58.2001 107.318 58.131 107.489C58.0618 107.656 57.942 107.804 57.7806 107.925C57.6192 108.05 57.4025 108.11 57.1305 108.11C56.8585 108.096 56.6234 107.994 56.4252 107.8C56.2269 107.605 56.1301 107.341 56.1439 107.003C55.8351 107.003 55.5262 107.095 55.2127 107.285C54.9038 107.475 54.6133 107.725 54.3505 108.036C54.0878 108.346 53.8619 108.684 53.6821 109.046V113.309C53.6821 113.54 53.6774 113.781 53.6728 114.017C53.6682 114.258 53.6452 114.499 53.6037 114.75C53.8111 114.736 54.0232 114.726 54.2445 114.722C54.4658 114.717 54.664 114.703 54.8438 114.694V115.727H50.5056V114.912H50.5148Z" fill="#091255"/>
<path d="M67.7296 116.042C66.8121 116.042 65.9869 115.834 65.2492 115.421C64.5116 115.004 63.9307 114.425 63.4973 113.679C63.064 112.933 62.8473 112.071 62.8473 111.098C62.8473 110.047 63.064 109.115 63.4973 108.305C63.9307 107.494 64.5162 106.854 65.2492 106.386C65.9869 105.918 66.8029 105.687 67.7065 105.687C68.624 105.687 69.4492 105.9 70.1869 106.321C70.9245 106.743 71.5054 107.327 71.9388 108.073C72.3721 108.819 72.5888 109.681 72.5888 110.654C72.5888 111.678 72.3767 112.6 71.948 113.415C71.5192 114.231 70.9429 114.875 70.2145 115.343C69.4861 115.806 68.6562 116.042 67.7296 116.042ZM67.8633 115.069C68.481 115.055 68.9697 114.861 69.3247 114.485C69.6797 114.11 69.9333 113.628 70.09 113.035C70.2468 112.447 70.3205 111.831 70.3205 111.196C70.3205 110.64 70.2744 110.088 70.1776 109.551C70.0808 109.013 69.9287 108.522 69.7212 108.082C69.5137 107.642 69.2417 107.29 68.9098 107.021C68.5733 106.757 68.1675 106.627 67.6881 106.641C67.0795 106.641 66.5862 106.831 66.2082 107.206C65.8255 107.582 65.5489 108.068 65.3737 108.657C65.1985 109.245 65.1109 109.871 65.1109 110.533C65.1109 111.298 65.2078 112.025 65.4014 112.711C65.595 113.397 65.8947 113.962 66.3004 114.402C66.7107 114.847 67.2317 115.069 67.8633 115.069ZM66.7015 104.538L66.0422 103.972L67.6512 101.308C67.831 101.049 68.0154 100.882 68.2044 100.812C68.3935 100.743 68.564 100.72 68.7254 100.752C68.8868 100.785 69.0112 100.84 69.1034 100.919C69.2049 100.998 69.2832 101.118 69.3339 101.29C69.3847 101.456 69.38 101.642 69.3247 101.846C69.2694 102.05 69.1357 102.258 68.9282 102.476L66.7015 104.538Z" fill="#091255"/>
<path d="M91.348 116.042C90.781 116.042 90.2231 115.973 89.6837 115.838C89.1397 115.704 88.651 115.482 88.213 115.176C87.775 114.87 87.4247 114.481 87.1665 114.008C86.9083 113.536 86.7792 112.961 86.7792 112.285C86.7792 111.441 87.0558 110.691 87.6137 110.037C88.1669 109.384 88.9 108.865 89.8036 108.49C89.4301 108.022 89.1305 107.591 88.9138 107.197C88.6925 106.803 88.5357 106.414 88.4389 106.039C88.3421 105.664 88.296 105.288 88.296 104.908C88.3098 103.949 88.651 103.189 89.3241 102.633C89.9972 102.077 90.8593 101.795 91.9197 101.795C92.5928 101.795 93.1737 101.92 93.6624 102.175C94.1511 102.429 94.5337 102.768 94.8057 103.199C95.0777 103.625 95.2114 104.107 95.2114 104.64C95.2114 105.131 95.0962 105.608 94.8749 106.062C94.649 106.516 94.3078 106.942 93.856 107.336C93.4042 107.73 92.8371 108.11 92.1502 108.476C92.4084 108.735 92.7265 109.064 93.1091 109.468C93.4918 109.871 93.8975 110.288 94.3401 110.723C94.7781 111.159 95.1976 111.562 95.5987 111.937C95.6494 111.729 95.6909 111.529 95.7139 111.335C95.7416 111.14 95.7508 110.959 95.7508 110.788C95.7508 110.464 95.7093 110.167 95.6264 109.903C95.5434 109.639 95.4051 109.421 95.2206 109.259C95.0316 109.097 94.7734 109.009 94.4369 108.995V108.138H97.7655V109.171L96.3502 109.092C96.5069 109.259 96.6176 109.468 96.6913 109.713C96.7605 109.959 96.802 110.246 96.8158 110.57C96.8296 110.858 96.802 111.182 96.7374 111.553C96.6729 111.923 96.5715 112.303 96.4285 112.692C96.5438 112.794 96.6637 112.905 96.7881 113.012C96.9126 113.123 97.0417 113.234 97.1846 113.355C97.7379 113.846 98.2219 114.226 98.6369 114.485C99.0518 114.745 99.3745 114.875 99.605 114.875V115.732H97.7056C97.5903 115.732 97.3368 115.616 96.9495 115.389C96.5622 115.162 96.0735 114.796 95.4788 114.291C95.027 114.782 94.4599 115.199 93.7822 115.537C93.1045 115.871 92.2931 116.042 91.348 116.042ZM91.6984 114.93C92.4084 114.944 93.0077 114.828 93.501 114.578C93.9897 114.333 94.4 114.013 94.7227 113.624C94.6075 113.522 94.4922 113.411 94.3862 113.304C94.2755 113.193 94.1557 113.086 94.0266 112.984C93.2013 112.178 92.4914 111.478 91.8966 110.881C91.3019 110.283 90.7809 109.732 90.3291 109.227C89.9788 109.458 89.7067 109.741 89.5085 110.075C89.3103 110.403 89.1674 110.737 89.0844 111.066C89.0014 111.395 88.9599 111.687 88.9599 111.932C88.9599 112.609 89.0844 113.16 89.3379 113.596C89.5915 114.031 89.9234 114.356 90.343 114.578C90.7533 114.801 91.2097 114.916 91.6984 114.93ZM91.5831 107.827C92.2286 107.373 92.708 106.859 93.0169 106.28C93.3258 105.701 93.4826 105.154 93.4826 104.635C93.4826 104.065 93.3396 103.592 93.0492 103.226C92.7588 102.856 92.3484 102.67 91.8183 102.67C91.3526 102.67 90.9608 102.851 90.638 103.217C90.3153 103.579 90.154 104.097 90.154 104.774C90.154 105.265 90.2876 105.784 90.5597 106.321C90.8271 106.859 91.1682 107.359 91.5831 107.827Z" fill="#091255"/>
<path d="M112.901 114.912C113.288 114.912 113.56 114.819 113.712 114.638C113.869 114.458 113.961 114.203 113.994 113.878C114.026 113.554 114.044 113.179 114.044 112.748V103.954C114.044 103.731 114.049 103.509 114.054 103.282C114.058 103.055 114.077 102.814 114.104 102.55C113.883 102.564 113.653 102.573 113.408 102.578C113.164 102.582 112.943 102.596 112.749 102.606V101.572C113.33 101.572 113.791 101.545 114.132 101.484C114.473 101.424 114.741 101.359 114.925 101.28C115.114 101.202 115.252 101.118 115.34 101.026H116.078V113.304C116.078 113.536 116.073 113.777 116.059 114.013C116.045 114.254 116.027 114.495 115.999 114.745C116.207 114.731 116.414 114.722 116.631 114.717C116.843 114.712 117.041 114.699 117.221 114.689V115.723H112.901V114.912Z" fill="#091255"/>
<path d="M127.308 116.042C126.391 116.042 125.565 115.834 124.828 115.421C124.09 115.009 123.509 114.425 123.076 113.679C122.643 112.933 122.426 112.071 122.426 111.098C122.426 110.047 122.643 109.115 123.076 108.305C123.509 107.494 124.095 106.854 124.828 106.386C125.561 105.918 126.382 105.687 127.285 105.687C128.203 105.687 129.028 105.9 129.765 106.321C130.503 106.743 131.084 107.327 131.517 108.073C131.951 108.819 132.167 109.681 132.167 110.654C132.167 111.678 131.955 112.6 131.527 113.415C131.098 114.231 130.522 114.875 129.793 115.343C129.065 115.806 128.235 116.042 127.308 116.042ZM127.442 115.069C128.06 115.055 128.548 114.861 128.903 114.485C129.258 114.11 129.512 113.628 129.669 113.035C129.825 112.447 129.899 111.831 129.899 111.196C129.899 110.64 129.853 110.088 129.756 109.551C129.659 109.013 129.507 108.522 129.3 108.082C129.092 107.642 128.82 107.29 128.488 107.021C128.152 106.757 127.746 106.627 127.267 106.641C126.658 106.641 126.165 106.831 125.787 107.206C125.404 107.582 125.128 108.068 124.952 108.657C124.777 109.245 124.69 109.871 124.69 110.533C124.69 111.298 124.786 112.025 124.98 112.711C125.174 113.397 125.473 113.962 125.879 114.402C126.289 114.847 126.81 115.069 127.442 115.069Z" fill="#091255"/>
<path d="M141.674 116.042C140.95 116.042 140.355 115.908 139.885 115.635C139.415 115.361 139.06 114.912 138.829 114.282C138.599 113.651 138.479 112.817 138.479 111.78V108.726C138.479 108.504 138.483 108.277 138.488 108.036C138.493 107.795 138.516 107.559 138.557 107.327C138.336 107.341 138.105 107.35 137.861 107.355C137.617 107.359 137.395 107.373 137.202 107.383V106.349H137.667C138.313 106.349 138.797 106.289 139.12 106.173C139.442 106.057 139.668 105.932 139.797 105.803H140.535V111.738C140.535 112.762 140.678 113.526 140.959 114.036C141.245 114.541 141.72 114.787 142.393 114.777C142.831 114.777 143.255 114.648 143.661 114.388C144.067 114.129 144.398 113.823 144.657 113.475V108.865C144.657 108.578 144.661 108.309 144.675 108.059C144.689 107.804 144.712 107.563 144.753 107.332C144.523 107.345 144.283 107.355 144.039 107.359C143.795 107.364 143.569 107.378 143.361 107.387V106.354H143.924C144.491 106.354 144.938 106.294 145.261 106.178C145.583 106.062 145.814 105.937 145.957 105.807H146.694L146.676 112.97C146.676 113.179 146.671 113.461 146.657 113.818C146.644 114.175 146.625 114.49 146.598 114.763C146.819 114.75 147.045 114.736 147.285 114.726C147.524 114.712 147.746 114.708 147.953 114.708V115.741H144.873C144.846 115.533 144.827 115.338 144.804 115.157C144.786 114.977 144.763 114.801 144.735 114.634C144.334 115.009 143.868 115.343 143.343 115.625C142.817 115.908 142.255 116.042 141.674 116.042Z" fill="#091255"/>
<path d="M153.176 115.727V114.912C153.564 114.912 153.836 114.819 153.988 114.638C154.145 114.458 154.237 114.203 154.269 113.878C154.301 113.554 154.32 113.179 154.32 112.748L154.338 108.698C154.338 108.49 154.343 108.267 154.347 108.027C154.352 107.786 154.375 107.549 154.417 107.318C154.186 107.332 153.946 107.341 153.711 107.345C153.471 107.35 153.25 107.364 153.043 107.373V106.34C153.624 106.34 154.08 106.312 154.407 106.252C154.735 106.192 154.988 106.127 155.163 106.048C155.339 105.969 155.472 105.886 155.56 105.793H156.256C156.27 105.909 156.279 106.02 156.284 106.122C156.288 106.224 156.298 106.335 156.302 106.451C156.307 106.567 156.321 106.715 156.33 106.901C156.616 106.669 156.925 106.46 157.261 106.28C157.598 106.099 157.948 105.951 158.317 105.84C158.686 105.728 159.036 105.673 159.373 105.673C160.521 105.673 161.35 106.025 161.862 106.725C162.374 107.424 162.628 108.522 162.628 110.014V113.304C162.628 113.536 162.623 113.777 162.609 114.013C162.595 114.254 162.577 114.495 162.549 114.745C162.757 114.731 162.964 114.722 163.181 114.717C163.393 114.712 163.591 114.699 163.771 114.689V115.723H159.451V114.907C159.838 114.907 160.11 114.814 160.262 114.634C160.419 114.453 160.511 114.198 160.544 113.874C160.576 113.55 160.59 113.174 160.59 112.743V110.019C160.576 108.995 160.415 108.221 160.096 107.702C159.778 107.183 159.276 106.928 158.575 106.942C158.16 106.942 157.754 107.044 157.353 107.253C156.952 107.461 156.616 107.711 156.348 108.013C156.348 108.142 156.348 108.281 156.348 108.43C156.348 108.578 156.348 108.731 156.348 108.888V113.304C156.348 113.536 156.344 113.777 156.33 114.013C156.316 114.254 156.298 114.495 156.27 114.745C156.477 114.731 156.685 114.722 156.902 114.717C157.114 114.712 157.312 114.699 157.492 114.689V115.723H153.176V115.727Z" fill="#091255"/>
<path d="M173.489 121C172.355 121 171.438 120.875 170.751 120.62C170.059 120.365 169.561 120.041 169.262 119.647C168.957 119.253 168.805 118.832 168.805 118.391C168.805 118.039 168.884 117.715 169.045 117.418C169.206 117.122 169.423 116.858 169.695 116.631C169.967 116.404 170.271 116.223 170.603 116.093C170.151 115.95 169.81 115.746 169.575 115.482C169.345 115.218 169.225 114.889 169.225 114.499C169.225 114.082 169.391 113.675 169.718 113.272C170.045 112.868 170.52 112.595 171.143 112.456C170.562 112.197 170.096 111.821 169.75 111.326C169.4 110.834 169.22 110.251 169.206 109.574C169.193 108.796 169.391 108.115 169.796 107.531C170.202 106.947 170.728 106.493 171.364 106.169C172.005 105.844 172.669 105.682 173.369 105.682C173.771 105.682 174.181 105.738 174.61 105.849C175.034 105.96 175.421 106.132 175.771 106.363C175.914 105.988 176.099 105.645 176.334 105.33C176.569 105.015 176.841 104.774 177.154 104.589C177.473 104.408 177.805 104.315 178.15 104.315C178.524 104.315 178.81 104.413 179.003 104.607C179.197 104.802 179.294 105.061 179.294 105.386C179.294 105.487 179.266 105.617 179.206 105.765C179.146 105.914 179.049 106.043 178.906 106.145C178.763 106.247 178.57 106.303 178.326 106.303C178.118 106.303 177.934 106.233 177.772 106.099C177.611 105.965 177.509 105.798 177.473 105.603C177.201 105.654 176.979 105.816 176.804 106.081C176.629 106.345 176.518 106.613 176.468 106.887C176.804 107.183 177.062 107.54 177.251 107.948C177.44 108.356 177.533 108.796 177.533 109.259C177.533 110 177.334 110.654 176.942 111.224C176.551 111.793 176.034 112.243 175.403 112.567C174.771 112.892 174.084 113.054 173.351 113.054C173.13 113.054 172.927 113.035 172.733 113.003C172.54 112.97 172.328 112.956 172.092 112.956C171.677 112.956 171.341 113.054 171.074 113.248C170.811 113.443 170.709 113.675 170.774 113.948C170.838 114.235 171.11 114.421 171.585 114.513C172.065 114.606 172.752 114.671 173.655 114.708C174.651 114.745 175.504 114.865 176.219 115.069C176.933 115.268 177.491 115.579 177.883 115.996C178.275 116.413 178.473 116.974 178.473 117.687C178.473 118.22 178.326 118.693 178.035 119.11C177.745 119.527 177.357 119.869 176.873 120.152C176.389 120.43 175.85 120.643 175.255 120.787C174.674 120.93 174.084 121 173.489 121ZM173.665 120.05C174.711 120.05 175.518 119.856 176.094 119.466C176.67 119.077 176.956 118.637 176.956 118.141C176.956 117.724 176.813 117.404 176.532 117.177C176.246 116.95 175.85 116.788 175.343 116.691C174.831 116.594 174.236 116.538 173.549 116.524C173.213 116.496 172.872 116.478 172.521 116.464C172.171 116.45 171.848 116.418 171.553 116.367C171.258 116.575 171.027 116.825 170.866 117.126C170.705 117.423 170.617 117.738 170.603 118.062C170.603 118.66 170.88 119.137 171.438 119.503C171.991 119.865 172.733 120.05 173.665 120.05ZM173.411 112.15C173.849 112.15 174.213 112.034 174.504 111.807C174.794 111.58 175.015 111.275 175.163 110.895C175.31 110.51 175.384 110.093 175.384 109.639C175.384 109.106 175.306 108.606 175.154 108.142C175.002 107.679 174.771 107.299 174.476 107.012C174.181 106.725 173.798 106.586 173.333 106.586C172.701 106.586 172.208 106.84 171.862 107.345C171.512 107.85 171.341 108.462 171.341 109.176C171.341 109.746 171.419 110.255 171.581 110.705C171.742 111.154 171.977 111.506 172.286 111.766C172.6 112.021 172.973 112.15 173.411 112.15Z" fill="#091255"/>
<path d="M188.127 116.042C187.223 116.042 186.412 115.829 185.697 115.407C184.983 114.986 184.416 114.388 184.001 113.619C183.586 112.85 183.383 111.937 183.383 110.885C183.383 109.977 183.586 109.129 183.992 108.337C184.397 107.545 184.969 106.905 185.707 106.419C186.444 105.932 187.293 105.687 188.261 105.687C188.805 105.687 189.316 105.77 189.8 105.942C190.285 106.108 190.718 106.372 191.096 106.729C191.479 107.086 191.778 107.545 191.995 108.11C192.216 108.675 192.322 109.361 192.322 110.163L185.66 110.278C185.66 111.159 185.762 111.946 185.96 112.632C186.158 113.318 186.486 113.851 186.938 114.226C187.389 114.601 187.975 114.791 188.699 114.791C189.049 114.791 189.418 114.731 189.814 114.606C190.206 114.481 190.584 114.305 190.939 114.068C191.294 113.837 191.594 113.554 191.838 113.23L192.438 113.753C192.05 114.337 191.603 114.796 191.101 115.125C190.598 115.454 190.082 115.69 189.561 115.824C189.044 115.973 188.565 116.042 188.127 116.042ZM185.743 109.268H190.215C190.215 108.777 190.146 108.332 190.013 107.934C189.879 107.54 189.667 107.225 189.386 106.989C189.1 106.757 188.74 106.637 188.302 106.637C187.62 106.637 187.057 106.854 186.619 107.29C186.177 107.725 185.886 108.388 185.743 109.268Z" fill="#091255"/>
</svg>
