<svg width="139" height="87" viewBox="0 0 139 87" fill="none" xmlns="http://www.w3.org/2000/svg">
<g clip-path="url(#clip0_1790_7032)">
<path d="M106.756 55.7817C107.785 55.5318 108.712 55.0887 109.459 54.3159C109.974 53.6729 110.395 54.0727 109.807 54.6756C105.777 58.9932 100.879 61.4318 94.919 61.4518C87.4881 61.4751 82.481 56.4813 82.4411 48.9923C82.398 40.807 82.4212 32.6217 82.4212 24.433C82.4212 21.0383 80.2862 19.5792 78.8717 19.0861C77.5403 18.623 77.0588 18.8662 77.0588 18.5631C77.0588 18.2366 77.9421 18.3465 78.3604 18.3632C82.5208 18.5298 86.6779 18.7963 90.8383 18.3199C94.1919 17.9334 97.3894 17.1872 99.9859 14.8319C99.9859 14.8319 100.872 13.9024 100.872 15.1917C100.872 19.0628 100.889 40.3072 100.852 47.0567C100.846 48.2027 101.072 50.7246 101.141 51.0677C101.43 52.4936 102.649 56.0282 106.756 55.7817Z" fill="#091255"/>
<path d="M135.663 55.7817C136.692 55.5318 137.619 55.0887 138.366 54.3159C138.88 53.6729 139.302 54.0727 138.714 54.6756C134.684 58.9932 129.786 61.4318 123.826 61.4518C116.395 61.4751 111.388 56.4813 111.348 48.9923C111.305 40.807 111.328 32.6217 111.328 24.433C111.328 21.0383 109.193 19.5792 107.779 19.0861C106.447 18.623 105.966 18.8662 105.966 18.5631C105.966 18.2366 106.849 18.3465 107.267 18.3632C111.428 18.5298 115.585 18.7963 119.745 18.3199C123.099 17.9334 126.296 17.1872 128.893 14.8319C128.893 14.8319 129.779 13.9024 129.779 15.1917C129.779 19.0628 129.796 40.3072 129.759 47.0567C129.753 48.2027 129.979 50.7246 130.048 51.0677C130.337 52.4936 131.556 56.0282 135.663 55.7817Z" fill="#091255"/>
<path d="M77.8457 55.7817C78.875 55.5318 79.8014 55.0887 80.5485 54.3159C81.0631 53.6729 81.4848 54.0727 80.8971 54.6756C76.8662 58.9932 71.9687 61.4318 66.0086 61.4518C58.5777 61.4751 53.5706 56.4813 53.5307 48.9923C53.4876 40.807 53.5108 32.6217 53.5108 24.433C53.5108 21.0383 51.3758 19.5792 49.9614 19.0861C48.6299 18.623 48.1484 18.8662 48.1484 18.5631C48.1484 18.2366 49.0317 18.3465 49.45 18.3632C53.6104 18.5298 57.7675 18.7963 61.9279 18.3199C65.2815 17.9334 68.479 17.1872 71.0755 14.8319C71.0755 14.8319 71.962 13.9024 71.962 15.1917C71.962 19.0628 71.9786 40.3072 71.9421 47.0567C71.9355 48.2027 72.1612 50.7246 72.231 51.0677C72.5198 52.4936 73.7384 56.0282 77.8457 55.7817Z" fill="#091255"/>
<path d="M25.2148 13.8261C21.0942 13.7361 0 14.4091 0 37.6624C0 60.6225 21.0942 61.532 25.2148 61.492C29.3353 61.532 50.4295 60.6225 50.4295 37.6624C50.4295 14.4091 29.332 13.7361 25.2148 13.8261ZM25.2148 60.5492C24.0593 60.5692 22.9204 59.9829 22.004 58.7802C20.1745 56.3883 19.5303 53.5166 19.092 50.6382C17.7739 41.9332 17.817 33.2016 19.1186 24.4999C19.5436 21.6716 20.1944 18.8365 22.0305 16.4912C22.9503 15.3185 24.0726 14.7389 25.2114 14.7589C26.3503 14.7389 27.4726 15.3185 28.3923 16.4912C30.2285 18.8365 30.8826 21.6716 31.3043 24.4999C32.6092 33.2016 32.649 41.9332 31.3309 50.6382C30.8959 53.5166 30.2484 56.3883 28.4189 58.7802C27.5091 59.9829 26.3703 60.5692 25.2148 60.5492Z" fill="#091255"/>
<path d="M109.459 54.3237C108.708 55.0932 107.785 55.5396 106.756 55.7895C102.649 56.0394 101.43 52.5014 101.145 51.0789C101.075 50.7324 100.849 48.2105 100.856 47.0645C100.892 40.3151 100.876 19.0706 100.876 15.1995C100.876 13.9102 99.9891 14.8397 99.9891 14.8397C97.3892 17.1917 94.1917 17.9412 90.8415 18.3277C86.6811 18.8074 82.524 18.5376 78.3636 18.371C77.9452 18.3543 77.062 18.2444 77.062 18.5709C77.062 18.874 77.5435 18.6342 78.8749 19.0939C80.2894 19.5836 82.4244 21.0461 82.4244 24.4408C82.4244 32.6261 82.4011 40.8114 82.4443 49.0001C82.4842 56.4891 87.4879 61.4829 94.9222 61.4596C100.882 61.4429 105.78 59.001 109.811 54.6835C110.395 54.0805 109.973 53.6807 109.459 54.3237Z" fill="#091255"/>
<path d="M129.677 10.0575C129.59 9.97423 129.428 9.97756 129.268 10.0142C129.082 10.0575 127.641 10.4806 127.641 10.4806C124.968 11.1569 122.76 10.5439 121.017 8.64832C120.16 7.72219 119.327 6.33299 118.51 4.47739L118.198 3.67118C116.77 0.299789 113.928 -0.359832 111.448 0.156538C111.448 0.156538 105.687 1.72897 106.922 7.62225C107.128 8.60835 107.643 9.58112 108.453 10.5339C110.033 12.4495 112.042 13.6654 114.479 14.1918C114.522 14.2018 114.566 14.2151 114.609 14.2251C116.916 14.6515 119.227 14.6116 121.538 14.1019C123.64 13.6255 125.925 12.6793 128.392 11.2635C128.534 11.1735 128.757 11.037 129.059 10.8604C129.305 10.7171 129.65 10.4906 129.693 10.454C129.696 10.4506 129.7 10.444 129.706 10.4373C129.783 10.354 129.823 10.2008 129.677 10.0575Z" fill="#091255"/>
<path d="M1.35148 74.7383C1.35148 74.5784 1.3548 74.4185 1.35812 74.2552C1.36144 74.092 1.37472 73.9187 1.39132 73.7289C1.2253 73.7388 1.05264 73.7455 0.883307 73.7488C0.710648 73.7522 0.551271 73.7622 0.401855 73.7688V73.0259C0.82022 73.0259 1.15558 73.0059 1.4046 72.9626C1.65695 72.9193 1.84953 72.8727 1.98234 72.816C2.11848 72.7594 2.21809 72.6994 2.28118 72.6328H2.79583V76.7738C3.07474 76.5139 3.38685 76.314 3.73549 76.1774C4.08413 76.0409 4.44937 75.9742 4.83121 75.9742C5.40895 75.9742 5.92693 76.1175 6.38513 76.4073C6.84666 76.6971 7.20858 77.1069 7.47421 77.6399C7.73984 78.173 7.87265 78.8026 7.87265 79.5289C7.87265 80.3017 7.71328 80.9847 7.3912 81.571C7.06913 82.1573 6.64412 82.6137 6.11619 82.9336C5.58493 83.2567 4.99059 83.4166 4.32983 83.4166C4.031 83.4166 3.69565 83.36 3.31713 83.25C2.94193 83.1368 2.59993 82.9102 2.29114 82.5638L1.92922 83.1934H1.32159L1.35148 74.7383ZM2.79915 81.0347C2.79915 81.4744 2.86888 81.8109 3.00833 82.0474C3.14779 82.2839 3.32709 82.4538 3.54623 82.5504C3.76537 82.6471 3.99448 82.697 4.23687 82.697C4.67515 82.707 5.04039 82.5838 5.33922 82.3339C5.63805 82.0807 5.86052 81.7376 6.01657 81.3045C6.16931 80.8714 6.24568 80.3784 6.24568 79.8287C6.24568 79.269 6.17595 78.766 6.0365 78.3162C5.89704 77.8698 5.68454 77.51 5.39567 77.2468C5.1068 76.9803 4.74488 76.8537 4.30659 76.8604C4.01772 76.8604 3.74213 76.927 3.4765 77.0569C3.21088 77.1869 2.98509 77.3634 2.79915 77.59V81.0347Z" fill="#091255"/>
<path d="M11.8106 82.6173C12.0896 82.6173 12.2855 82.5507 12.395 82.4208C12.5079 82.2909 12.5743 82.1076 12.5976 81.8744C12.6208 81.6412 12.6308 81.3714 12.6308 81.0616V78.1666C12.6308 78.0067 12.6341 77.8467 12.6441 77.6835C12.654 77.5203 12.6673 77.347 12.6872 77.1605C12.5278 77.1705 12.3618 77.1771 12.1858 77.1805C12.0099 77.1838 11.8472 77.1938 11.6978 77.2004V76.4575C12.1161 76.4575 12.4482 76.4376 12.6939 76.3942C12.9396 76.3509 13.1321 76.3043 13.265 76.2477C13.4011 76.191 13.5007 76.1311 13.5638 76.0644H14.0951V81.4647C14.0951 81.6312 14.0917 81.8045 14.0818 81.9744C14.0718 82.1476 14.0585 82.3208 14.0386 82.5007C14.188 82.4907 14.3374 82.4841 14.4935 82.4807C14.6462 82.4774 14.789 82.4674 14.9185 82.4608V83.2037H11.8073V82.6173H11.8106ZM13.3015 74.7818C13.0591 74.7818 12.8566 74.6919 12.6872 74.5087C12.5179 74.3254 12.4349 74.1056 12.4349 73.8424C12.4349 73.5825 12.5245 73.3593 12.7005 73.1794C12.8765 72.9962 13.0757 72.9062 13.3015 72.9062C13.5439 72.9062 13.7464 72.9962 13.9091 73.1794C14.0718 73.3627 14.1515 73.5825 14.1515 73.8424C14.1515 74.1022 14.0685 74.3254 13.9091 74.5087C13.7464 74.6919 13.5439 74.7818 13.3015 74.7818Z" fill="#091255"/>
<path d="M21.6953 83.4301C21.257 83.4301 20.8553 83.3735 20.4834 83.2569C20.1115 83.1403 19.8127 83.0037 19.5902 82.8438L19.6334 83.3068H18.8929L18.8232 80.9015H19.4076C19.4275 81.248 19.5337 81.5578 19.7296 81.8377C19.9256 82.1175 20.1779 82.3374 20.49 82.494C20.8021 82.6539 21.1375 82.7305 21.4994 82.7305C21.7119 82.7305 21.9211 82.6938 22.1269 82.6239C22.3328 82.5539 22.5021 82.4473 22.6416 82.3007C22.7811 82.1575 22.8508 81.9776 22.8508 81.7611C22.8508 81.5279 22.7777 81.3346 22.635 81.1814C22.4922 81.0281 22.2963 80.8916 22.0506 80.7683C21.8049 80.6484 21.5226 80.5251 21.2072 80.4052C20.9283 80.2919 20.6461 80.1753 20.3638 80.0554C20.0816 79.9354 19.816 79.7889 19.5769 79.6223C19.3345 79.4557 19.1453 79.2458 19.0058 78.9993C18.8664 78.7528 18.7966 78.4463 18.7966 78.0832C18.7966 77.87 18.8398 77.6368 18.9228 77.3902C19.0058 77.1437 19.1419 76.9138 19.3279 76.704C19.5138 76.4941 19.7662 76.3208 20.0816 76.1876C20.397 76.051 20.7888 75.9844 21.2537 75.9844C21.506 75.9844 21.785 76.0277 22.0971 76.111C22.4092 76.1943 22.698 76.3408 22.967 76.5441L22.9537 76.0543H23.6942V78.5163H23.0932C23.0666 78.1898 22.9803 77.8866 22.8342 77.6068C22.6881 77.3269 22.4889 77.0971 22.2266 76.9205C21.9676 76.7439 21.6488 76.654 21.2769 76.654C20.915 76.654 20.6195 76.7439 20.3904 76.9272C20.1613 77.1104 20.0484 77.3369 20.0484 77.6068C20.0484 77.8766 20.1347 78.0965 20.3074 78.2631C20.4801 78.4296 20.7058 78.5762 20.9847 78.6961C21.2637 78.8161 21.5658 78.9393 21.8912 79.0593C22.283 79.2192 22.6482 79.3891 22.9936 79.5756C23.3389 79.7622 23.6178 79.9954 23.8303 80.2752C24.0428 80.5551 24.1524 80.9082 24.1524 81.338C24.1524 81.8044 24.0328 82.1941 23.7971 82.5073C23.5613 82.8204 23.2559 83.0503 22.884 83.2002C22.5088 83.3535 22.1137 83.4301 21.6953 83.4301Z" fill="#091255"/>
<path d="M30.7333 83.4359C30.5009 83.4359 30.2684 83.4059 30.036 83.3459C29.8036 83.286 29.5878 83.1627 29.3885 82.9828C29.1893 82.7996 29.0333 82.5364 28.9204 82.1933C28.8075 81.8468 28.7544 81.3904 28.7544 80.8207L28.7809 76.9996H27.7483V76.2167C28.0006 76.2067 28.2563 76.1134 28.5153 75.9369C28.7743 75.7603 29.0034 75.5204 29.1993 75.2239C29.3952 74.9241 29.528 74.6043 29.6044 74.2578H30.2585V76.2167H32.4067V76.9429L30.2585 76.9696L30.2319 80.7041C30.2319 81.0572 30.2618 81.3671 30.3216 81.6336C30.3813 81.9001 30.4843 82.1033 30.627 82.2499C30.7698 82.3931 30.969 82.4664 31.2181 82.4664C31.4306 82.4664 31.653 82.3998 31.8821 82.2699C32.1112 82.14 32.3271 81.9234 32.5296 81.6269L33.0044 82.0467C32.7819 82.3731 32.5595 82.6297 32.3337 82.8162C32.1112 83.0028 31.8954 83.1394 31.6929 83.2293C31.487 83.3193 31.3011 83.3726 31.1351 83.3959C30.969 83.4225 30.8362 83.4359 30.7333 83.4359Z" fill="#091255"/>
<path d="M36.3812 82.6239C36.6601 82.6239 36.856 82.5573 36.9656 82.4273C37.0785 82.2974 37.1449 82.1142 37.1681 81.881C37.1914 81.6478 37.2013 81.3779 37.2013 81.0681V78.1565C37.2013 78.0065 37.2046 77.8466 37.208 77.6734C37.2113 77.5002 37.2279 77.3303 37.2578 77.1637C37.0984 77.1737 36.9324 77.1804 36.7564 77.1837C36.5804 77.187 36.4177 77.197 36.2683 77.2037V76.4608H36.7431C37.1349 76.4608 37.4304 76.4175 37.6363 76.3342C37.8422 76.2509 37.9883 76.1609 38.0812 76.0677H38.5826C38.6025 76.1976 38.6158 76.3808 38.6258 76.614C38.6357 76.8472 38.6457 77.1071 38.6523 77.3969C38.8283 77.137 39.0342 76.9005 39.2666 76.6906C39.499 76.4808 39.7514 76.3109 40.027 76.1809C40.3025 76.051 40.5881 75.9844 40.8836 75.9844C41.1725 75.9844 41.4215 76.061 41.6307 76.2142C41.8399 76.3675 41.9428 76.6173 41.9428 76.9638C41.9428 77.0571 41.9162 77.1637 41.8664 77.287C41.8166 77.4069 41.7303 77.5135 41.6141 77.6001C41.4979 77.6901 41.3418 77.7334 41.1459 77.7334C40.95 77.7234 40.7807 77.6501 40.6379 77.5102C40.4951 77.3702 40.4254 77.1804 40.4354 76.9372C40.2129 76.9372 39.9904 77.0038 39.7646 77.1404C39.5422 77.277 39.333 77.4569 39.1437 77.6801C38.9545 77.9033 38.7918 78.1465 38.6623 78.4063V81.4712C38.6623 81.6378 38.659 81.811 38.6556 81.9809C38.6523 82.1542 38.6357 82.3274 38.6058 82.5073C38.7553 82.4973 38.908 82.4906 39.0674 82.4873C39.2267 82.484 39.3695 82.474 39.499 82.4673V83.2102H36.3746V82.6239H36.3812Z" fill="#091255"/>
<path d="M48.7794 83.4337C48.1187 83.4337 47.5243 83.2838 46.9931 82.9873C46.4618 82.6875 46.0435 82.2711 45.7313 81.7347C45.4192 81.1984 45.2632 80.5787 45.2632 79.8791C45.2632 79.1229 45.4192 78.4533 45.7313 77.8703C46.0435 77.2873 46.4651 76.8275 46.9931 76.4911C47.5243 76.1546 48.112 75.988 48.7628 75.988C49.4236 75.988 50.0179 76.1413 50.5492 76.4444C51.0804 76.7476 51.4988 77.1673 51.8109 77.7037C52.123 78.2401 52.2791 78.8597 52.2791 79.5593C52.2791 80.2956 52.1264 80.9585 51.8176 81.5448C51.5088 82.1312 51.0937 82.5942 50.5691 82.9307C50.0445 83.2638 49.4468 83.4337 48.7794 83.4337ZM48.8757 82.7341C49.3207 82.7242 49.6726 82.5842 49.9283 82.3144C50.1839 82.0445 50.3666 81.6981 50.4795 81.2717C50.5923 80.8486 50.6455 80.4055 50.6455 79.9491C50.6455 79.5493 50.6123 79.1529 50.5425 78.7664C50.4728 78.38 50.3632 78.0269 50.2138 77.7104C50.0644 77.3939 49.8685 77.1407 49.6294 76.9475C49.3871 76.7576 49.0949 76.6643 48.7496 76.6743C48.3113 76.6743 47.956 76.8109 47.6837 77.0807C47.4081 77.3506 47.2089 77.7004 47.0827 78.1235C46.9566 78.5466 46.8935 78.9963 46.8935 79.4727C46.8935 80.0224 46.9632 80.5454 47.1027 81.0385C47.2421 81.5315 47.4579 81.9379 47.7501 82.2544C48.0456 82.5742 48.4208 82.7341 48.8757 82.7341ZM48.039 75.1618L47.5642 74.7554L48.723 72.8398C48.8525 72.6533 48.9853 72.5333 49.1214 72.4834C49.2576 72.4334 49.3804 72.4167 49.4966 72.4401C49.6128 72.4634 49.7025 72.5034 49.7689 72.56C49.8419 72.6166 49.8984 72.7032 49.9349 72.8265C49.9714 72.9464 49.9681 73.0797 49.9283 73.2263C49.8884 73.3729 49.7921 73.5228 49.6427 73.6793L48.039 75.1618Z" fill="#091255"/>
<path d="M65.7895 83.4316C65.3811 83.4316 64.9793 83.3816 64.5908 83.285C64.199 83.1884 63.8471 83.0285 63.5317 82.8086C63.2162 82.5888 62.9639 82.3089 62.7779 81.9691C62.592 81.6293 62.499 81.2162 62.499 80.7298C62.499 80.1235 62.6982 79.5838 63.1 79.1141C63.4984 78.6444 64.0264 78.2712 64.6772 78.0014C64.4082 77.6649 64.1924 77.3551 64.0363 77.0719C63.877 76.7888 63.7641 76.5089 63.6944 76.2391C63.6246 75.9692 63.5914 75.6994 63.5914 75.4262C63.6014 74.7366 63.8471 74.1903 64.3319 73.7905C64.8166 73.3907 65.4375 73.1875 66.2012 73.1875C66.686 73.1875 67.1044 73.2775 67.4563 73.4607C67.8083 73.6439 68.0839 73.8871 68.2798 74.1969C68.4757 74.5034 68.572 74.8499 68.572 75.233C68.572 75.5861 68.4889 75.9293 68.3296 76.2557C68.1669 76.5822 67.9212 76.8887 67.5958 77.1719C67.2704 77.455 66.862 77.7282 66.3672 77.9914C66.5532 78.178 66.7823 78.4145 67.0579 78.7043C67.3335 78.9942 67.6257 79.294 67.9444 79.6071C68.2598 79.9203 68.562 80.2101 68.8509 80.48C68.8874 80.3301 68.9173 80.1868 68.9339 80.0469C68.9538 79.907 68.9604 79.777 68.9604 79.6538C68.9604 79.4206 68.9306 79.2074 68.8708 79.0175C68.811 78.8276 68.7114 78.671 68.5786 78.5544C68.4425 78.4378 68.2565 78.3745 68.0141 78.3645V77.7482H70.4114V78.4911L69.3921 78.4345C69.505 78.5544 69.5847 78.7043 69.6378 78.8809C69.6876 79.0575 69.7175 79.264 69.7274 79.4972C69.7374 79.7038 69.7175 79.937 69.671 80.2035C69.6245 80.47 69.5515 80.7432 69.4485 81.023C69.5315 81.0963 69.6179 81.1762 69.7075 81.2529C69.7972 81.3328 69.8901 81.4128 69.9931 81.4994C70.3915 81.8525 70.7401 82.1257 71.039 82.3123C71.3378 82.4988 71.5702 82.5921 71.7363 82.5921V83.2084H70.3683C70.2853 83.2084 70.1026 83.1251 69.8237 82.9619C69.5448 82.7986 69.1929 82.5355 68.7645 82.1723C68.4391 82.5255 68.0307 82.8253 67.5426 83.0685C67.0546 83.3084 66.4702 83.4316 65.7895 83.4316ZM66.0418 82.6321C66.5532 82.6421 66.9848 82.5588 67.3401 82.3789C67.6921 82.2023 67.9876 81.9725 68.22 81.6926C68.137 81.6193 68.054 81.5394 67.9776 81.4627C67.8979 81.3828 67.8116 81.3062 67.7186 81.2329C67.1243 80.6532 66.6129 80.1502 66.1846 79.7204C65.7563 79.2907 65.3811 78.8942 65.0557 78.5311C64.8033 78.6977 64.6074 78.9009 64.4647 79.1407C64.3219 79.3773 64.219 79.6171 64.1592 79.8537C64.0994 80.0902 64.0696 80.3001 64.0696 80.4766C64.0696 80.963 64.1592 81.3595 64.3418 81.6726C64.5244 81.9858 64.7635 82.219 65.0657 82.3789C65.3612 82.5388 65.6899 82.6221 66.0418 82.6321ZM65.9588 77.525C66.4237 77.1985 66.769 76.8287 66.9915 76.4123C67.2139 75.9959 67.3268 75.6028 67.3268 75.2297C67.3268 74.8199 67.2239 74.4801 67.0147 74.2169C66.8055 73.9504 66.51 73.8171 66.1282 73.8171C65.7928 73.8171 65.5106 73.9471 65.2782 74.2102C65.0457 74.4701 64.9295 74.8432 64.9295 75.3296C64.9295 75.6827 65.0258 76.0559 65.2217 76.4423C65.4143 76.8287 65.66 77.1885 65.9588 77.525Z" fill="#091255"/>
<path d="M81.3122 82.6171C81.5911 82.6171 81.787 82.5504 81.8966 82.4205C82.0095 82.2906 82.0759 82.1074 82.0991 81.8742C82.1224 81.641 82.1357 81.3711 82.1357 81.0613V74.7383C82.1357 74.5784 82.139 74.4185 82.1423 74.2552C82.1456 74.092 82.1589 73.9187 82.1788 73.7289C82.0194 73.7388 81.8534 73.7455 81.6775 73.7488C81.5015 73.7522 81.3421 73.7622 81.2026 73.7688V73.0259C81.621 73.0259 81.953 73.0059 82.1987 72.9626C82.4444 72.9193 82.637 72.8727 82.7698 72.816C82.906 72.7594 83.0056 72.6994 83.0687 72.6328H83.5999V81.4611C83.5999 81.6276 83.5966 81.8009 83.5867 81.9708C83.5767 82.144 83.5634 82.3172 83.5435 82.4971C83.6929 82.4871 83.8423 82.4805 83.9984 82.4772C84.1511 82.4738 84.2939 82.4638 84.4234 82.4572V83.2001H81.3122V82.6171Z" fill="#091255"/>
<path d="M91.6884 83.4301C91.0276 83.4301 90.4333 83.2802 89.902 82.9837C89.3708 82.6872 88.9524 82.2674 88.6403 81.7311C88.3282 81.1947 88.1721 80.5751 88.1721 79.8755C88.1721 79.1192 88.3282 78.4496 88.6403 77.8666C88.9524 77.2836 89.3741 76.8239 89.902 76.4874C90.43 76.1509 91.021 75.9844 91.6718 75.9844C92.3325 75.9844 92.9269 76.1376 93.4581 76.4408C93.9894 76.7439 94.4077 77.1637 94.7199 77.7001C95.032 78.2364 95.188 78.8561 95.188 79.5557C95.188 80.2919 95.0353 80.9548 94.7265 81.5412C94.4177 82.1275 94.0027 82.5906 93.478 82.9271C92.9534 83.2602 92.3558 83.4301 91.6884 83.4301ZM91.7847 82.7305C92.2296 82.7205 92.5816 82.5806 92.8372 82.3107C93.0929 82.0409 93.2755 81.6944 93.3884 81.268C93.5013 80.8449 93.5544 80.4018 93.5544 79.9454C93.5544 79.5457 93.5212 79.1492 93.4515 78.7628C93.3818 78.3763 93.2722 78.0232 93.1228 77.7067C92.9734 77.3902 92.7775 77.137 92.5384 76.9438C92.296 76.7539 92.0038 76.6607 91.6585 76.6706C91.2202 76.6706 90.8649 76.8072 90.5927 77.0771C90.3171 77.3469 90.1179 77.6967 89.9917 78.1198C89.8655 78.5429 89.8024 78.9926 89.8024 79.469C89.8024 80.0187 89.8721 80.5418 90.0116 81.0348C90.1511 81.5279 90.3669 81.9343 90.6591 82.2508C90.9546 82.5706 91.3298 82.7305 91.7847 82.7305Z" fill="#091255"/>
<path d="M102.035 83.4327C101.513 83.4327 101.085 83.3361 100.746 83.1396C100.408 82.943 100.152 82.6199 99.986 82.1668C99.82 81.7137 99.7337 81.1141 99.7337 80.3678V78.1724C99.7337 78.0125 99.737 77.8493 99.7403 77.6761C99.7437 77.5028 99.7603 77.3329 99.7901 77.1663C99.6308 77.1763 99.4648 77.183 99.2888 77.1863C99.1128 77.1897 98.9534 77.1997 98.814 77.2063V76.4634H99.1493C99.6142 76.4634 99.9628 76.4201 100.195 76.3368C100.428 76.2535 100.59 76.1636 100.683 76.0703H101.215V80.3379C101.215 81.0741 101.318 81.6238 101.52 81.9902C101.726 82.3534 102.068 82.5299 102.553 82.5233C102.868 82.5233 103.174 82.43 103.466 82.2434C103.758 82.0569 103.997 81.837 104.183 81.5871V78.2724C104.183 78.0658 104.186 77.8726 104.196 77.6927C104.206 77.5095 104.223 77.3362 104.253 77.1697C104.087 77.1797 103.914 77.1863 103.738 77.1897C103.562 77.193 103.399 77.203 103.25 77.2097V76.4667H103.655C104.063 76.4667 104.386 76.4234 104.618 76.3402C104.85 76.2569 105.016 76.1669 105.119 76.0736H105.651L105.637 81.224C105.637 81.3739 105.634 81.5771 105.624 81.8337C105.614 82.0902 105.601 82.3167 105.581 82.5133C105.74 82.5033 105.903 82.4933 106.076 82.4866C106.248 82.4766 106.408 82.4733 106.557 82.4733V83.2162H104.339C104.319 83.0663 104.306 82.9264 104.289 82.7964C104.276 82.6665 104.259 82.5399 104.239 82.42C103.951 82.6898 103.615 82.9297 103.237 83.1329C102.858 83.3361 102.453 83.4327 102.035 83.4327Z" fill="#091255"/>
<path d="M110.319 83.2057V82.6194C110.598 82.6194 110.794 82.5528 110.903 82.4229C111.016 82.2929 111.083 82.1097 111.106 81.8765C111.129 81.6433 111.142 81.3735 111.142 81.0636L111.156 78.152C111.156 78.0021 111.159 77.8422 111.162 77.6689C111.166 77.4957 111.182 77.3258 111.212 77.1592C111.046 77.1692 110.873 77.1759 110.704 77.1792C110.531 77.1825 110.372 77.1925 110.223 77.1992V76.4563C110.641 76.4563 110.97 76.4363 111.205 76.393C111.441 76.3497 111.624 76.303 111.75 76.2464C111.876 76.1898 111.972 76.1298 112.036 76.0632H112.537C112.547 76.1465 112.554 76.2264 112.557 76.2997C112.56 76.373 112.567 76.453 112.57 76.5362C112.573 76.6195 112.583 76.7261 112.59 76.8594C112.796 76.6928 113.018 76.5429 113.261 76.413C113.503 76.2831 113.756 76.1764 114.021 76.0965C114.287 76.0165 114.539 75.9766 114.782 75.9766C115.608 75.9766 116.206 76.2297 116.574 76.7328C116.943 77.2358 117.126 78.0254 117.126 79.0981V81.4634C117.126 81.63 117.122 81.8032 117.112 81.9731C117.102 82.1464 117.089 82.3196 117.069 82.4995C117.219 82.4895 117.368 82.4828 117.524 82.4795C117.677 82.4762 117.82 82.4662 117.949 82.4595V83.2024H114.838V82.6161C115.117 82.6161 115.313 82.5495 115.422 82.4195C115.535 82.2896 115.602 82.1064 115.625 81.8732C115.648 81.64 115.658 81.3701 115.658 81.0603V79.1014C115.648 78.3652 115.532 77.8088 115.303 77.4357C115.074 77.0626 114.712 76.8794 114.207 76.8894C113.908 76.8894 113.616 76.9627 113.327 77.1126C113.038 77.2625 112.796 77.4424 112.603 77.6589C112.603 77.7522 112.603 77.8522 112.603 77.9588C112.603 78.0654 112.603 78.1753 112.603 78.2886V81.4634C112.603 81.63 112.6 81.8032 112.59 81.9731C112.58 82.1464 112.567 82.3196 112.547 82.4995C112.696 82.4895 112.846 82.4828 113.002 82.4795C113.155 82.4762 113.297 82.4662 113.427 82.4595V83.2024H110.319V83.2057Z" fill="#091255"/>
<path d="M124.948 86.9964C124.132 86.9964 123.471 86.9065 122.976 86.7233C122.478 86.54 122.119 86.3068 121.904 86.0237C121.685 85.7405 121.575 85.4373 121.575 85.1209C121.575 84.8677 121.631 84.6345 121.748 84.4213C121.864 84.208 122.02 84.0182 122.216 83.8549C122.412 83.6917 122.631 83.5617 122.87 83.4685C122.544 83.3652 122.299 83.2186 122.129 83.0287C121.963 82.8388 121.877 82.6023 121.877 82.3225C121.877 82.0226 121.997 81.7295 122.232 81.4396C122.468 81.1498 122.81 80.9532 123.258 80.8533C122.84 80.6667 122.505 80.3969 122.256 80.0404C122.003 79.6873 121.874 79.2675 121.864 78.7812C121.854 78.2215 121.997 77.7318 122.289 77.312C122.581 76.8922 122.96 76.5658 123.418 76.3326C123.879 76.0994 124.357 75.9828 124.862 75.9828C125.151 75.9828 125.446 76.0227 125.755 76.1027C126.061 76.1827 126.34 76.3059 126.592 76.4725C126.695 76.2026 126.828 75.9561 126.997 75.7296C127.166 75.503 127.362 75.3298 127.588 75.1966C127.817 75.0666 128.056 75 128.305 75C128.574 75 128.78 75.07 128.92 75.2099C129.059 75.3498 129.129 75.5364 129.129 75.7696C129.129 75.8428 129.109 75.9361 129.066 76.0427C129.023 76.1493 128.953 76.2426 128.85 76.3159C128.747 76.3892 128.607 76.4292 128.431 76.4292C128.282 76.4292 128.149 76.3792 128.033 76.2826C127.917 76.186 127.844 76.0661 127.817 75.9261C127.621 75.9628 127.462 76.0794 127.336 76.2693C127.21 76.4592 127.13 76.6524 127.093 76.8489C127.336 77.0621 127.522 77.3187 127.658 77.6118C127.794 77.905 127.86 78.2215 127.86 78.5546C127.86 79.0877 127.718 79.5574 127.435 79.9671C127.153 80.3769 126.781 80.7001 126.326 80.9333C125.871 81.1665 125.377 81.2831 124.849 81.2831C124.689 81.2831 124.543 81.2697 124.404 81.2464C124.264 81.2231 124.112 81.2131 123.942 81.2131C123.644 81.2131 123.401 81.2831 123.209 81.423C123.019 81.5629 122.946 81.7295 122.993 81.926C123.039 82.1326 123.235 82.2658 123.577 82.3325C123.922 82.3991 124.417 82.4457 125.068 82.4724C125.785 82.499 126.399 82.5856 126.914 82.7322C127.429 82.8755 127.83 83.0987 128.113 83.3985C128.395 83.6983 128.538 84.1014 128.538 84.6145C128.538 84.9976 128.431 85.3374 128.222 85.6372C128.013 85.9371 127.734 86.1836 127.386 86.3868C127.037 86.5867 126.648 86.7399 126.22 86.8432C125.802 86.9465 125.377 86.9964 124.948 86.9964ZM125.075 86.3135C125.828 86.3135 126.409 86.1736 126.824 85.8937C127.239 85.6139 127.445 85.2974 127.445 84.941C127.445 84.6411 127.342 84.4113 127.14 84.248C126.934 84.0848 126.648 83.9682 126.283 83.8982C125.915 83.8283 125.486 83.7883 124.992 83.7783C124.749 83.7583 124.504 83.745 124.251 83.735C123.999 83.725 123.766 83.7017 123.554 83.665C123.341 83.8149 123.175 83.9948 123.059 84.2114C122.943 84.4246 122.88 84.6511 122.87 84.8843C122.87 85.3141 123.069 85.6572 123.471 85.9204C123.869 86.1802 124.404 86.3135 125.075 86.3135ZM124.892 80.6334C125.207 80.6334 125.47 80.5501 125.679 80.3869C125.888 80.2237 126.047 80.0038 126.154 79.7306C126.26 79.4541 126.313 79.1543 126.313 78.8278C126.313 78.4447 126.257 78.0849 126.147 77.7518C126.038 77.4186 125.871 77.1454 125.659 76.9389C125.446 76.7323 125.171 76.6324 124.836 76.6324C124.381 76.6324 124.025 76.8156 123.776 77.1787C123.524 77.5419 123.401 77.9816 123.401 78.4947C123.401 78.9044 123.458 79.2709 123.574 79.594C123.69 79.9172 123.859 80.1704 124.082 80.3569C124.308 80.5402 124.577 80.6334 124.892 80.6334Z" fill="#091255"/>
<path d="M135.49 83.4301C134.84 83.4301 134.255 83.2768 133.741 82.9737C133.226 82.6705 132.817 82.2408 132.519 81.6878C132.22 81.1347 132.074 80.4785 132.074 79.7222C132.074 79.0693 132.22 78.4596 132.512 77.8899C132.804 77.3203 133.216 76.8605 133.747 76.5107C134.278 76.1609 134.889 75.9844 135.587 75.9844C135.978 75.9844 136.347 76.0443 136.696 76.1676C137.044 76.2875 137.356 76.4774 137.629 76.7339C137.904 76.9905 138.12 77.3203 138.276 77.7267C138.436 78.1331 138.512 78.6262 138.512 79.2025L133.714 79.2858C133.714 79.9188 133.787 80.4851 133.93 80.9782C134.073 81.4712 134.308 81.8543 134.634 82.1242C134.959 82.394 135.381 82.5306 135.902 82.5306C136.154 82.5306 136.42 82.4873 136.706 82.3974C136.988 82.3074 137.26 82.1808 137.516 82.0109C137.771 81.8443 137.987 81.6411 138.163 81.4079L138.595 81.7844C138.316 82.2041 137.994 82.5339 137.632 82.7705C137.27 83.007 136.898 83.1769 136.523 83.2735C136.151 83.3801 135.806 83.4301 135.49 83.4301ZM133.774 78.5596H136.994C136.994 78.2064 136.945 77.8866 136.848 77.6001C136.752 77.3169 136.599 77.0904 136.397 76.9205C136.191 76.7539 135.932 76.6673 135.617 76.6673C135.125 76.6673 134.72 76.8239 134.405 77.137C134.086 77.4502 133.877 77.9266 133.774 78.5596Z" fill="#091255"/>
</g>
<defs>
<clipPath id="clip0_1790_7032">
<rect width="139" height="87" fill="white"/>
</clipPath>
</defs>
</svg>
